ISO-10303-21;
HEADER;
/* Generated by software containing ST-Developer
 * from STEP Tools, Inc. (www.steptools.com) 
 */

FILE_DESCRIPTION(
/* description */ (''),
/* implementation_level */ '2;1');

FILE_NAME(
/* name */ 'BoomLiftCylinder.step',
/* time_stamp */ '2026-03-29T20:35:44-04:00',
/* author */ (''),
/* organization */ (''),
/* preprocessor_version */ 'ST-DEVELOPER v20.1',
/* originating_system */ 'Autodesk Translation Framework v14.24.0.0',
/* authorisation */ '');

FILE_SCHEMA (('AUTOMOTIVE_DESIGN { 1 0 10303 214 3 1 1 }'));
ENDSEC;

DATA;
#10=MECHANICAL_DESIGN_GEOMETRIC_PRESENTATION_REPRESENTATION('',(#13),#462);
#11=SHAPE_REPRESENTATION_RELATIONSHIP('SRR','None',#469,#12);
#12=ADVANCED_BREP_SHAPE_REPRESENTATION('',(#14),#461);
#13=STYLED_ITEM('',(#478),#14);
#14=MANIFOLD_SOLID_BREP('Body1',#263);
#15=LINE('',#398,#36);
#16=LINE('',#401,#37);
#17=LINE('',#404,#38);
#18=LINE('',#406,#39);
#19=LINE('',#408,#40);
#20=LINE('',#409,#41);
#21=LINE('',#412,#42);
#22=LINE('',#414,#43);
#23=LINE('',#416,#44);
#24=LINE('',#419,#45);
#25=LINE('',#426,#46);
#26=LINE('',#430,#47);
#27=LINE('',#432,#48);
#28=LINE('',#433,#49);
#29=LINE('',#438,#50);
#30=LINE('',#439,#51);
#31=LINE('',#440,#52);
#32=LINE('',#442,#53);
#33=LINE('',#447,#54);
#34=LINE('',#456,#55);
#35=LINE('',#458,#56);
#36=VECTOR('',#318,10.);
#37=VECTOR('',#321,100.);
#38=VECTOR('',#324,10.);
#39=VECTOR('',#325,10.);
#40=VECTOR('',#326,10.);
#41=VECTOR('',#327,10.);
#42=VECTOR('',#330,10.);
#43=VECTOR('',#331,10.);
#44=VECTOR('',#332,10.);
#45=VECTOR('',#335,10.);
#46=VECTOR('',#344,10.);
#47=VECTOR('',#347,10.);
#48=VECTOR('',#348,10.);
#49=VECTOR('',#349,10.);
#50=VECTOR('',#354,10.);
#51=VECTOR('',#355,10.);
#52=VECTOR('',#356,10.);
#53=VECTOR('',#359,10.);
#54=VECTOR('',#368,50.);
#55=VECTOR('',#383,72.20509510078);
#56=VECTOR('',#386,110.);
#57=CYLINDRICAL_SURFACE('',#280,100.);
#58=CYLINDRICAL_SURFACE('',#293,100.);
#59=CYLINDRICAL_SURFACE('',#297,50.);
#60=CYLINDRICAL_SURFACE('',#304,72.20509510078);
#61=CYLINDRICAL_SURFACE('',#305,110.);
#62=FACE_BOUND('',#82,.T.);
#63=FACE_BOUND('',#86,.T.);
#64=FACE_BOUND('',#89,.T.);
#65=FACE_OUTER_BOUND('',#81,.T.);
#66=FACE_OUTER_BOUND('',#83,.T.);
#67=FACE_OUTER_BOUND('',#84,.T.);
#68=FACE_OUTER_BOUND('',#85,.T.);
#69=FACE_OUTER_BOUND('',#87,.T.);
#70=FACE_OUTER_BOUND('',#88,.T.);
#71=FACE_OUTER_BOUND('',#90,.T.);
#72=FACE_OUTER_BOUND('',#91,.T.);
#73=FACE_OUTER_BOUND('',#92,.T.);
#74=FACE_OUTER_BOUND('',#93,.T.);
#75=FACE_OUTER_BOUND('',#94,.T.);
#76=FACE_OUTER_BOUND('',#95,.T.);
#77=FACE_OUTER_BOUND('',#96,.T.);
#78=FACE_OUTER_BOUND('',#97,.T.);
#79=FACE_OUTER_BOUND('',#98,.T.);
#80=FACE_OUTER_BOUND('',#99,.T.);
#81=EDGE_LOOP('',(#168));
#82=EDGE_LOOP('',(#169));
#83=EDGE_LOOP('',(#170,#171,#172,#173));
#84=EDGE_LOOP('',(#174,#175,#176,#177,#178));
#85=EDGE_LOOP('',(#179,#180,#181,#182,#183,#184,#185));
#86=EDGE_LOOP('',(#186));
#87=EDGE_LOOP('',(#187,#188,#189));
#88=EDGE_LOOP('',(#190,#191,#192,#193,#194,#195,#196));
#89=EDGE_LOOP('',(#197));
#90=EDGE_LOOP('',(#198,#199,#200,#201,#202));
#91=EDGE_LOOP('',(#203,#204,#205,#206));
#92=EDGE_LOOP('',(#207,#208,#209));
#93=EDGE_LOOP('',(#210,#211,#212,#213));
#94=EDGE_LOOP('',(#214,#215,#216,#217));
#95=EDGE_LOOP('',(#218,#219,#220));
#96=EDGE_LOOP('',(#221,#222,#223));
#97=EDGE_LOOP('',(#224));
#98=EDGE_LOOP('',(#225,#226,#227,#228));
#99=EDGE_LOOP('',(#229,#230,#231,#232,#233,#234,#235));
#100=CIRCLE('',#278,110.);
#101=CIRCLE('',#279,72.20509510078);
#102=CIRCLE('',#281,100.);
#103=CIRCLE('',#282,100.);
#104=CIRCLE('',#285,100.);
#105=CIRCLE('',#286,50.);
#106=CIRCLE('',#288,110.);
#107=CIRCLE('',#290,100.);
#108=CIRCLE('',#291,50.);
#109=CIRCLE('',#295,110.);
#110=CIRCLE('',#299,110.);
#111=CIRCLE('',#301,110.);
#112=CIRCLE('',#303,72.20509510078);
#113=VERTEX_POINT('',#389);
#114=VERTEX_POINT('',#391);
#115=VERTEX_POINT('',#394);
#116=VERTEX_POINT('',#395);
#117=VERTEX_POINT('',#397);
#118=VERTEX_POINT('',#399);
#119=VERTEX_POINT('',#403);
#120=VERTEX_POINT('',#405);
#121=VERTEX_POINT('',#407);
#122=VERTEX_POINT('',#411);
#123=VERTEX_POINT('',#413);
#124=VERTEX_POINT('',#415);
#125=VERTEX_POINT('',#417);
#126=VERTEX_POINT('',#420);
#127=VERTEX_POINT('',#425);
#128=VERTEX_POINT('',#427);
#129=VERTEX_POINT('',#429);
#130=VERTEX_POINT('',#431);
#131=VERTEX_POINT('',#434);
#132=VERTEX_POINT('',#437);
#133=VERTEX_POINT('',#453);
#134=EDGE_CURVE('',#113,#113,#100,.T.);
#135=EDGE_CURVE('',#114,#114,#101,.T.);
#136=EDGE_CURVE('',#115,#116,#102,.T.);
#137=EDGE_CURVE('',#116,#117,#15,.T.);
#138=EDGE_CURVE('',#117,#118,#103,.T.);
#139=EDGE_CURVE('',#118,#115,#16,.T.);
#140=EDGE_CURVE('',#118,#119,#17,.T.);
#141=EDGE_CURVE('',#119,#120,#18,.T.);
#142=EDGE_CURVE('',#120,#121,#19,.T.);
#143=EDGE_CURVE('',#121,#115,#20,.T.);
#144=EDGE_CURVE('',#122,#121,#21,.T.);
#145=EDGE_CURVE('',#123,#122,#22,.T.);
#146=EDGE_CURVE('',#124,#123,#23,.T.);
#147=EDGE_CURVE('',#125,#124,#104,.T.);
#148=EDGE_CURVE('',#116,#125,#24,.T.);
#149=EDGE_CURVE('',#126,#126,#105,.T.);
#150=EDGE_CURVE('',#120,#122,#106,.T.);
#151=EDGE_CURVE('',#127,#117,#25,.T.);
#152=EDGE_CURVE('',#128,#127,#107,.T.);
#153=EDGE_CURVE('',#129,#128,#26,.T.);
#154=EDGE_CURVE('',#130,#129,#27,.T.);
#155=EDGE_CURVE('',#119,#130,#28,.T.);
#156=EDGE_CURVE('',#131,#131,#108,.T.);
#157=EDGE_CURVE('',#123,#132,#29,.T.);
#158=EDGE_CURVE('',#132,#129,#30,.T.);
#159=EDGE_CURVE('',#124,#128,#31,.T.);
#160=EDGE_CURVE('',#127,#125,#32,.T.);
#161=EDGE_CURVE('',#130,#120,#109,.T.);
#162=EDGE_CURVE('',#131,#126,#33,.T.);
#163=EDGE_CURVE('',#132,#130,#110,.T.);
#164=EDGE_CURVE('',#122,#132,#111,.T.);
#165=EDGE_CURVE('',#133,#133,#112,.T.);
#166=EDGE_CURVE('',#133,#114,#34,.T.);
#167=EDGE_CURVE('',#130,#113,#35,.T.);
#168=ORIENTED_EDGE('',*,*,#134,.T.);
#169=ORIENTED_EDGE('',*,*,#135,.T.);
#170=ORIENTED_EDGE('',*,*,#136,.T.);
#171=ORIENTED_EDGE('',*,*,#137,.T.);
#172=ORIENTED_EDGE('',*,*,#138,.T.);
#173=ORIENTED_EDGE('',*,*,#139,.T.);
#174=ORIENTED_EDGE('',*,*,#139,.F.);
#175=ORIENTED_EDGE('',*,*,#140,.T.);
#176=ORIENTED_EDGE('',*,*,#141,.T.);
#177=ORIENTED_EDGE('',*,*,#142,.T.);
#178=ORIENTED_EDGE('',*,*,#143,.T.);
#179=ORIENTED_EDGE('',*,*,#136,.F.);
#180=ORIENTED_EDGE('',*,*,#143,.F.);
#181=ORIENTED_EDGE('',*,*,#144,.F.);
#182=ORIENTED_EDGE('',*,*,#145,.F.);
#183=ORIENTED_EDGE('',*,*,#146,.F.);
#184=ORIENTED_EDGE('',*,*,#147,.F.);
#185=ORIENTED_EDGE('',*,*,#148,.F.);
#186=ORIENTED_EDGE('',*,*,#149,.F.);
#187=ORIENTED_EDGE('',*,*,#144,.T.);
#188=ORIENTED_EDGE('',*,*,#142,.F.);
#189=ORIENTED_EDGE('',*,*,#150,.T.);
#190=ORIENTED_EDGE('',*,*,#138,.F.);
#191=ORIENTED_EDGE('',*,*,#151,.F.);
#192=ORIENTED_EDGE('',*,*,#152,.F.);
#193=ORIENTED_EDGE('',*,*,#153,.F.);
#194=ORIENTED_EDGE('',*,*,#154,.F.);
#195=ORIENTED_EDGE('',*,*,#155,.F.);
#196=ORIENTED_EDGE('',*,*,#140,.F.);
#197=ORIENTED_EDGE('',*,*,#156,.F.);
#198=ORIENTED_EDGE('',*,*,#146,.T.);
#199=ORIENTED_EDGE('',*,*,#157,.T.);
#200=ORIENTED_EDGE('',*,*,#158,.T.);
#201=ORIENTED_EDGE('',*,*,#153,.T.);
#202=ORIENTED_EDGE('',*,*,#159,.F.);
#203=ORIENTED_EDGE('',*,*,#147,.T.);
#204=ORIENTED_EDGE('',*,*,#159,.T.);
#205=ORIENTED_EDGE('',*,*,#152,.T.);
#206=ORIENTED_EDGE('',*,*,#160,.T.);
#207=ORIENTED_EDGE('',*,*,#155,.T.);
#208=ORIENTED_EDGE('',*,*,#161,.T.);
#209=ORIENTED_EDGE('',*,*,#141,.F.);
#210=ORIENTED_EDGE('',*,*,#148,.T.);
#211=ORIENTED_EDGE('',*,*,#160,.F.);
#212=ORIENTED_EDGE('',*,*,#151,.T.);
#213=ORIENTED_EDGE('',*,*,#137,.F.);
#214=ORIENTED_EDGE('',*,*,#156,.T.);
#215=ORIENTED_EDGE('',*,*,#162,.T.);
#216=ORIENTED_EDGE('',*,*,#149,.T.);
#217=ORIENTED_EDGE('',*,*,#162,.F.);
#218=ORIENTED_EDGE('',*,*,#154,.T.);
#219=ORIENTED_EDGE('',*,*,#158,.F.);
#220=ORIENTED_EDGE('',*,*,#163,.T.);
#221=ORIENTED_EDGE('',*,*,#145,.T.);
#222=ORIENTED_EDGE('',*,*,#164,.T.);
#223=ORIENTED_EDGE('',*,*,#157,.F.);
#224=ORIENTED_EDGE('',*,*,#165,.T.);
#225=ORIENTED_EDGE('',*,*,#165,.F.);
#226=ORIENTED_EDGE('',*,*,#166,.T.);
#227=ORIENTED_EDGE('',*,*,#135,.F.);
#228=ORIENTED_EDGE('',*,*,#166,.F.);
#229=ORIENTED_EDGE('',*,*,#163,.F.);
#230=ORIENTED_EDGE('',*,*,#164,.F.);
#231=ORIENTED_EDGE('',*,*,#150,.F.);
#232=ORIENTED_EDGE('',*,*,#161,.F.);
#233=ORIENTED_EDGE('',*,*,#167,.T.);
#234=ORIENTED_EDGE('',*,*,#134,.F.);
#235=ORIENTED_EDGE('',*,*,#167,.F.);
#236=PLANE('',#277);
#237=PLANE('',#283);
#238=PLANE('',#284);
#239=PLANE('',#287);
#240=PLANE('',#289);
#241=PLANE('',#292);
#242=PLANE('',#294);
#243=PLANE('',#296);
#244=PLANE('',#298);
#245=PLANE('',#300);
#246=PLANE('',#302);
#247=ADVANCED_FACE('',(#65,#62),#236,.F.);
#248=ADVANCED_FACE('',(#66),#57,.T.);
#249=ADVANCED_FACE('',(#67),#237,.T.);
#250=ADVANCED_FACE('',(#68,#63),#238,.T.);
#251=ADVANCED_FACE('',(#69),#239,.F.);
#252=ADVANCED_FACE('',(#70,#64),#240,.T.);
#253=ADVANCED_FACE('',(#71),#241,.T.);
#254=ADVANCED_FACE('',(#72),#58,.T.);
#255=ADVANCED_FACE('',(#73),#242,.F.);
#256=ADVANCED_FACE('',(#74),#243,.T.);
#257=ADVANCED_FACE('',(#75),#59,.F.);
#258=ADVANCED_FACE('',(#76),#244,.F.);
#259=ADVANCED_FACE('',(#77),#245,.F.);
#260=ADVANCED_FACE('',(#78),#246,.F.);
#261=ADVANCED_FACE('',(#79),#60,.F.);
#262=ADVANCED_FACE('',(#80),#61,.T.);
#263=CLOSED_SHELL('',(#247,#248,#249,#250,#251,#252,#253,#254,#255,#256,
#257,#258,#259,#260,#261,#262));
#264=DERIVED_UNIT_ELEMENT(#266,1.);
#265=DERIVED_UNIT_ELEMENT(#464,-3.);
#266=(
MASS_UNIT()
NAMED_UNIT(*)
SI_UNIT(.KILO.,.GRAM.)
);
#267=DERIVED_UNIT((#264,#265));
#268=MEASURE_REPRESENTATION_ITEM('density measure',
POSITIVE_RATIO_MEASURE(7850.),#267);
#269=PROPERTY_DEFINITION_REPRESENTATION(#274,#271);
#270=PROPERTY_DEFINITION_REPRESENTATION(#275,#272);
#271=REPRESENTATION('material name',(#273),#461);
#272=REPRESENTATION('density',(#268),#461);
#273=DESCRIPTIVE_REPRESENTATION_ITEM('Steel','Steel');
#274=PROPERTY_DEFINITION('material property','material name',#471);
#275=PROPERTY_DEFINITION('material property','density of part',#471);
#276=AXIS2_PLACEMENT_3D('',#387,#306,#307);
#277=AXIS2_PLACEMENT_3D('',#388,#308,#309);
#278=AXIS2_PLACEMENT_3D('',#390,#310,#311);
#279=AXIS2_PLACEMENT_3D('',#392,#312,#313);
#280=AXIS2_PLACEMENT_3D('',#393,#314,#315);
#281=AXIS2_PLACEMENT_3D('',#396,#316,#317);
#282=AXIS2_PLACEMENT_3D('',#400,#319,#320);
#283=AXIS2_PLACEMENT_3D('',#402,#322,#323);
#284=AXIS2_PLACEMENT_3D('',#410,#328,#329);
#285=AXIS2_PLACEMENT_3D('',#418,#333,#334);
#286=AXIS2_PLACEMENT_3D('',#421,#336,#337);
#287=AXIS2_PLACEMENT_3D('',#422,#338,#339);
#288=AXIS2_PLACEMENT_3D('',#423,#340,#341);
#289=AXIS2_PLACEMENT_3D('',#424,#342,#343);
#290=AXIS2_PLACEMENT_3D('',#428,#345,#346);
#291=AXIS2_PLACEMENT_3D('',#435,#350,#351);
#292=AXIS2_PLACEMENT_3D('',#436,#352,#353);
#293=AXIS2_PLACEMENT_3D('',#441,#357,#358);
#294=AXIS2_PLACEMENT_3D('',#443,#360,#361);
#295=AXIS2_PLACEMENT_3D('',#444,#362,#363);
#296=AXIS2_PLACEMENT_3D('',#445,#364,#365);
#297=AXIS2_PLACEMENT_3D('',#446,#366,#367);
#298=AXIS2_PLACEMENT_3D('',#448,#369,#370);
#299=AXIS2_PLACEMENT_3D('',#449,#371,#372);
#300=AXIS2_PLACEMENT_3D('',#450,#373,#374);
#301=AXIS2_PLACEMENT_3D('',#451,#375,#376);
#302=AXIS2_PLACEMENT_3D('',#452,#377,#378);
#303=AXIS2_PLACEMENT_3D('',#454,#379,#380);
#304=AXIS2_PLACEMENT_3D('',#455,#381,#382);
#305=AXIS2_PLACEMENT_3D('',#457,#384,#385);
#306=DIRECTION('axis',(0.,0.,1.));
#307=DIRECTION('refdir',(1.,0.,0.));
#308=DIRECTION('center_axis',(0.,1.,0.));
#309=DIRECTION('ref_axis',(-1.,0.,0.));
#310=DIRECTION('center_axis',(0.,-1.,0.));
#311=DIRECTION('ref_axis',(-1.,0.,0.));
#312=DIRECTION('center_axis',(0.,1.,0.));
#313=DIRECTION('ref_axis',(-1.,0.,0.));
#314=DIRECTION('center_axis',(-1.,0.,0.));
#315=DIRECTION('ref_axis',(0.,0.707106781186547,-0.707106781186547));
#316=DIRECTION('center_axis',(1.,0.,0.));
#317=DIRECTION('ref_axis',(0.,0.707106781186547,-0.707106781186547));
#318=DIRECTION('',(1.,0.,0.));
#319=DIRECTION('center_axis',(-1.,0.,0.));
#320=DIRECTION('ref_axis',(0.,0.707106781186547,-0.707106781186547));
#321=DIRECTION('',(-1.,0.,0.));
#322=DIRECTION('center_axis',(0.,0.,-1.));
#323=DIRECTION('ref_axis',(-1.,0.,0.));
#324=DIRECTION('',(0.,-1.,0.));
#325=DIRECTION('',(-1.,0.,0.));
#326=DIRECTION('',(-1.,0.,0.));
#327=DIRECTION('',(0.,1.,0.));
#328=DIRECTION('center_axis',(-1.,0.,0.));
#329=DIRECTION('ref_axis',(0.,0.,1.));
#330=DIRECTION('',(0.,0.,-1.));
#331=DIRECTION('',(0.,0.,-1.));
#332=DIRECTION('',(0.,-1.,0.));
#333=DIRECTION('center_axis',(1.,0.,0.));
#334=DIRECTION('ref_axis',(0.,0.707106781186547,0.707106781186547));
#335=DIRECTION('',(0.,0.,1.));
#336=DIRECTION('center_axis',(-1.,0.,0.));
#337=DIRECTION('ref_axis',(0.,1.,0.));
#338=DIRECTION('center_axis',(0.,1.,0.));
#339=DIRECTION('ref_axis',(-1.,0.,0.));
#340=DIRECTION('center_axis',(0.,1.,0.));
#341=DIRECTION('ref_axis',(-1.,0.,0.));
#342=DIRECTION('center_axis',(1.,0.,0.));
#343=DIRECTION('ref_axis',(0.,0.,-1.));
#344=DIRECTION('',(0.,0.,-1.));
#345=DIRECTION('center_axis',(-1.,0.,0.));
#346=DIRECTION('ref_axis',(0.,0.707106781186547,0.707106781186547));
#347=DIRECTION('',(0.,1.,0.));
#348=DIRECTION('',(0.,0.,1.));
#349=DIRECTION('',(0.,0.,1.));
#350=DIRECTION('center_axis',(1.,0.,0.));
#351=DIRECTION('ref_axis',(0.,1.,0.));
#352=DIRECTION('center_axis',(0.,0.,1.));
#353=DIRECTION('ref_axis',(1.,0.,0.));
#354=DIRECTION('',(1.,0.,0.));
#355=DIRECTION('',(1.,0.,0.));
#356=DIRECTION('',(1.,0.,0.));
#357=DIRECTION('center_axis',(1.,0.,0.));
#358=DIRECTION('ref_axis',(0.,0.707106781186547,0.707106781186547));
#359=DIRECTION('',(-1.,0.,0.));
#360=DIRECTION('center_axis',(0.,1.,0.));
#361=DIRECTION('ref_axis',(-1.,0.,0.));
#362=DIRECTION('center_axis',(0.,1.,0.));
#363=DIRECTION('ref_axis',(-1.,0.,0.));
#364=DIRECTION('center_axis',(0.,1.,0.));
#365=DIRECTION('ref_axis',(0.,0.,1.));
#366=DIRECTION('center_axis',(-1.,0.,0.));
#367=DIRECTION('ref_axis',(0.,1.,0.));
#368=DIRECTION('',(-1.,0.,0.));
#369=DIRECTION('center_axis',(0.,1.,0.));
#370=DIRECTION('ref_axis',(-1.,0.,0.));
#371=DIRECTION('center_axis',(0.,1.,0.));
#372=DIRECTION('ref_axis',(-1.,0.,0.));
#373=DIRECTION('center_axis',(0.,1.,0.));
#374=DIRECTION('ref_axis',(-1.,0.,0.));
#375=DIRECTION('center_axis',(0.,1.,0.));
#376=DIRECTION('ref_axis',(-1.,0.,0.));
#377=DIRECTION('center_axis',(0.,1.,0.));
#378=DIRECTION('ref_axis',(-1.,0.,0.));
#379=DIRECTION('center_axis',(0.,-1.,0.));
#380=DIRECTION('ref_axis',(-1.,0.,0.));
#381=DIRECTION('center_axis',(0.,1.,0.));
#382=DIRECTION('ref_axis',(-1.,0.,0.));
#383=DIRECTION('',(0.,-1.,0.));
#384=DIRECTION('center_axis',(0.,1.,0.));
#385=DIRECTION('ref_axis',(-1.,0.,0.));
#386=DIRECTION('',(0.,-1.,0.));
#387=CARTESIAN_POINT('',(0.,0.,0.));
#388=CARTESIAN_POINT('Origin',(-916.,-66.8202589750661,554.02873826096));
#389=CARTESIAN_POINT('',(-806.,-66.8202589750661,554.02873826096));
#390=CARTESIAN_POINT('Origin',(-916.,-66.8202589750661,554.02873826096));
#391=CARTESIAN_POINT('',(-843.79490489922,-66.8202589750661,554.02873826096));
#392=CARTESIAN_POINT('Origin',(-916.,-66.8202589750661,554.02873826096));
#393=CARTESIAN_POINT('Origin',(-841.,703.179741024934,544.02873826096));
#394=CARTESIAN_POINT('',(-1026.,703.179741024934,444.02873826096));
#395=CARTESIAN_POINT('',(-1026.,803.179741024934,544.02873826096));
#396=CARTESIAN_POINT('Origin',(-1026.,703.179741024934,544.02873826096));
#397=CARTESIAN_POINT('',(-806.,803.179741024934,544.02873826096));
#398=CARTESIAN_POINT('',(-841.,803.179741024934,544.02873826096));
#399=CARTESIAN_POINT('',(-806.,703.179741024934,444.02873826096));
#400=CARTESIAN_POINT('Origin',(-806.,703.179741024934,544.02873826096));
#401=CARTESIAN_POINT('',(-841.,703.179741024934,444.02873826096));
#402=CARTESIAN_POINT('Origin',(-766.,603.179741024934,444.02873826096));
#403=CARTESIAN_POINT('',(-806.,603.179741024934,444.02873826096));
#404=CARTESIAN_POINT('',(-806.,603.179741024934,444.02873826096));
#405=CARTESIAN_POINT('',(-916.,603.179741024934,444.02873826096));
#406=CARTESIAN_POINT('',(-766.,603.179741024934,444.02873826096));
#407=CARTESIAN_POINT('',(-1026.,603.179741024934,444.02873826096));
#408=CARTESIAN_POINT('',(-766.,603.179741024934,444.02873826096));
#409=CARTESIAN_POINT('',(-1026.,603.179741024934,444.02873826096));
#410=CARTESIAN_POINT('Origin',(-1026.,603.179741024934,444.02873826096));
#411=CARTESIAN_POINT('',(-1026.,603.179741024934,554.02873826096));
#412=CARTESIAN_POINT('',(-1026.,603.179741024934,499.02873826096));
#413=CARTESIAN_POINT('',(-1026.,603.179741024934,664.02873826096));
#414=CARTESIAN_POINT('',(-1026.,603.179741024934,499.02873826096));
#415=CARTESIAN_POINT('',(-1026.,703.179741024934,664.02873826096));
#416=CARTESIAN_POINT('',(-1026.,603.179741024934,664.02873826096));
#417=CARTESIAN_POINT('',(-1026.,803.179741024934,564.02873826096));
#418=CARTESIAN_POINT('Origin',(-1026.,703.179741024934,564.02873826096));
#419=CARTESIAN_POINT('',(-1026.,803.179741024934,499.02873826096));
#420=CARTESIAN_POINT('',(-1026.,653.179741024934,554.02873826096));
#421=CARTESIAN_POINT('Origin',(-1026.,703.179741024934,554.02873826096));
#422=CARTESIAN_POINT('Origin',(-916.,603.179741024934,554.02873826096));
#423=CARTESIAN_POINT('Origin',(-916.,603.179741024934,554.02873826096));
#424=CARTESIAN_POINT('Origin',(-806.,603.179741024934,664.02873826096));
#425=CARTESIAN_POINT('',(-806.,803.179741024934,564.02873826096));
#426=CARTESIAN_POINT('',(-806.,803.179741024934,609.02873826096));
#427=CARTESIAN_POINT('',(-806.,703.179741024934,664.02873826096));
#428=CARTESIAN_POINT('Origin',(-806.,703.179741024934,564.02873826096));
#429=CARTESIAN_POINT('',(-806.,603.179741024934,664.02873826096));
#430=CARTESIAN_POINT('',(-806.,603.179741024934,664.02873826096));
#431=CARTESIAN_POINT('',(-806.,603.179741024934,554.02873826096));
#432=CARTESIAN_POINT('',(-806.,603.179741024934,609.02873826096));
#433=CARTESIAN_POINT('',(-806.,603.179741024934,609.02873826096));
#434=CARTESIAN_POINT('',(-806.,653.179741024934,554.02873826096));
#435=CARTESIAN_POINT('Origin',(-806.,703.179741024934,554.02873826096));
#436=CARTESIAN_POINT('Origin',(-1066.,603.179741024934,664.02873826096));
#437=CARTESIAN_POINT('',(-916.,603.179741024934,664.02873826096));
#438=CARTESIAN_POINT('',(-916.,603.179741024934,664.02873826096));
#439=CARTESIAN_POINT('',(-916.,603.179741024934,664.02873826096));
#440=CARTESIAN_POINT('',(-991.,703.179741024934,664.02873826096));
#441=CARTESIAN_POINT('Origin',(-991.,703.179741024934,564.02873826096));
#442=CARTESIAN_POINT('',(-991.,803.179741024934,564.02873826096));
#443=CARTESIAN_POINT('Origin',(-916.,603.179741024934,554.02873826096));
#444=CARTESIAN_POINT('Origin',(-916.,603.179741024934,554.02873826096));
#445=CARTESIAN_POINT('Origin',(-916.,803.179741024934,554.02873826096));
#446=CARTESIAN_POINT('Origin',(-766.,703.179741024934,554.02873826096));
#447=CARTESIAN_POINT('',(-766.,653.179741024934,554.02873826096));
#448=CARTESIAN_POINT('Origin',(-916.,603.179741024934,554.02873826096));
#449=CARTESIAN_POINT('Origin',(-916.,603.179741024934,554.02873826096));
#450=CARTESIAN_POINT('Origin',(-916.,603.179741024934,554.02873826096));
#451=CARTESIAN_POINT('Origin',(-916.,603.179741024934,554.02873826096));
#452=CARTESIAN_POINT('Origin',(-916.,583.179741024934,554.02873826096));
#453=CARTESIAN_POINT('',(-843.79490489922,583.179741024934,554.02873826096));
#454=CARTESIAN_POINT('Origin',(-916.,583.179741024934,554.02873826096));
#455=CARTESIAN_POINT('Origin',(-916.,533.179741024934,554.02873826096));
#456=CARTESIAN_POINT('',(-843.79490489922,533.179741024934,554.02873826096));
#457=CARTESIAN_POINT('Origin',(-916.,533.179741024934,554.02873826096));
#458=CARTESIAN_POINT('',(-806.,533.179741024934,554.02873826096));
#459=UNCERTAINTY_MEASURE_WITH_UNIT(LENGTH_MEASURE(0.01),#463,
'DISTANCE_ACCURACY_VALUE',
'Maximum model space distance between geometric entities at asserted c
onnectivities');
#460=UNCERTAINTY_MEASURE_WITH_UNIT(LENGTH_MEASURE(0.01),#463,
'DISTANCE_ACCURACY_VALUE',
'Maximum model space distance between geometric entities at asserted c
onnectivities');
#461=(
GEOMETRIC_REPRESENTATION_CONTEXT(3)
GLOBAL_UNCERTAINTY_ASSIGNED_CONTEXT((#459))
GLOBAL_UNIT_ASSIGNED_CONTEXT((#463,#465,#466))
REPRESENTATION_CONTEXT('','3D')
);
#462=(
GEOMETRIC_REPRESENTATION_CONTEXT(3)
GLOBAL_UNCERTAINTY_ASSIGNED_CONTEXT((#460))
GLOBAL_UNIT_ASSIGNED_CONTEXT((#463,#465,#466))
REPRESENTATION_CONTEXT('','3D')
);
#463=(
LENGTH_UNIT()
NAMED_UNIT(*)
SI_UNIT(.MILLI.,.METRE.)
);
#464=(
LENGTH_UNIT()
NAMED_UNIT(*)
SI_UNIT($,.METRE.)
);
#465=(
NAMED_UNIT(*)
PLANE_ANGLE_UNIT()
SI_UNIT($,.RADIAN.)
);
#466=(
NAMED_UNIT(*)
SI_UNIT($,.STERADIAN.)
SOLID_ANGLE_UNIT()
);
#467=SHAPE_DEFINITION_REPRESENTATION(#468,#469);
#468=PRODUCT_DEFINITION_SHAPE('',$,#471);
#469=SHAPE_REPRESENTATION('',(#276),#461);
#470=PRODUCT_DEFINITION_CONTEXT('part definition',#475,'design');
#471=PRODUCT_DEFINITION('BoomLiftCylinder','BoomLiftCylinder',#472,#470);
#472=PRODUCT_DEFINITION_FORMATION('',$,#477);
#473=PRODUCT_RELATED_PRODUCT_CATEGORY('BoomLiftCylinder',
'BoomLiftCylinder',(#477));
#474=APPLICATION_PROTOCOL_DEFINITION('international standard',
'automotive_design',2009,#475);
#475=APPLICATION_CONTEXT(
'Core Data for Automotive Mechanical Design Process');
#476=PRODUCT_CONTEXT('part definition',#475,'mechanical');
#477=PRODUCT('BoomLiftCylinder','BoomLiftCylinder',$,(#476));
#478=PRESENTATION_STYLE_ASSIGNMENT((#479));
#479=SURFACE_STYLE_USAGE(.BOTH.,#480);
#480=SURFACE_SIDE_STYLE('',(#481));
#481=SURFACE_STYLE_FILL_AREA(#482);
#482=FILL_AREA_STYLE('Steel - Satin',(#483));
#483=FILL_AREA_STYLE_COLOUR('Steel - Satin',#484);
#484=COLOUR_RGB('Steel - Satin',0.627450980392157,0.627450980392157,0.627450980392157);
ENDSEC;
END-ISO-10303-21;
