ISO-10303-21;
HEADER;
/* Generated by software containing ST-Developer
 * from STEP Tools, Inc. (www.steptools.com) 
 */

FILE_DESCRIPTION(
/* description */ (''),
/* implementation_level */ '2;1');

FILE_NAME(
/* name */ 'BoomLiftRod.step',
/* time_stamp */ '2026-03-29T20:35:40-04:00',
/* author */ (''),
/* organization */ (''),
/* preprocessor_version */ 'ST-DEVELOPER v20.1',
/* originating_system */ 'Autodesk Translation Framework v14.24.0.0',
/* authorisation */ '');

FILE_SCHEMA (('AUTOMOTIVE_DESIGN { 1 0 10303 214 3 1 1 }'));
ENDSEC;

DATA;
#10=MECHANICAL_DESIGN_GEOMETRIC_PRESENTATION_REPRESENTATION('',(#13),#482);
#11=SHAPE_REPRESENTATION_RELATIONSHIP('SRR','None',#489,#12);
#12=ADVANCED_BREP_SHAPE_REPRESENTATION('',(#14),#481);
#13=STYLED_ITEM('',(#498),#14);
#14=MANIFOLD_SOLID_BREP('Body1',#280);
#15=FACE_BOUND('',#95,.T.);
#16=FACE_BOUND('',#97,.T.);
#17=FACE_BOUND('',#100,.T.);
#18=FACE_BOUND('',#107,.T.);
#19=LINE('',#408,#44);
#20=LINE('',#416,#45);
#21=LINE('',#418,#46);
#22=LINE('',#419,#47);
#23=LINE('',#423,#48);
#24=LINE('',#424,#49);
#25=LINE('',#425,#50);
#26=LINE('',#428,#51);
#27=LINE('',#430,#52);
#28=LINE('',#432,#53);
#29=LINE('',#434,#54);
#30=LINE('',#436,#55);
#31=LINE('',#438,#56);
#32=LINE('',#439,#57);
#33=LINE('',#442,#58);
#34=LINE('',#450,#59);
#35=LINE('',#451,#60);
#36=LINE('',#456,#61);
#37=LINE('',#457,#62);
#38=LINE('',#461,#63);
#39=LINE('',#465,#64);
#40=LINE('',#468,#65);
#41=LINE('',#471,#66);
#42=LINE('',#475,#67);
#43=LINE('',#477,#68);
#44=VECTOR('',#329,72.20509510078);
#45=VECTOR('',#338,10.);
#46=VECTOR('',#339,10.);
#47=VECTOR('',#340,10.);
#48=VECTOR('',#343,10.);
#49=VECTOR('',#344,10.);
#50=VECTOR('',#345,10.);
#51=VECTOR('',#348,10.);
#52=VECTOR('',#349,10.);
#53=VECTOR('',#350,10.);
#54=VECTOR('',#351,10.);
#55=VECTOR('',#352,10.);
#56=VECTOR('',#353,10.);
#57=VECTOR('',#354,10.);
#58=VECTOR('',#357,10.);
#59=VECTOR('',#366,10.);
#60=VECTOR('',#367,10.);
#61=VECTOR('',#372,10.);
#62=VECTOR('',#373,10.);
#63=VECTOR('',#378,10.);
#64=VECTOR('',#383,10.);
#65=VECTOR('',#386,10.);
#66=VECTOR('',#391,10.);
#67=VECTOR('',#396,75.);
#68=VECTOR('',#399,75.);
#69=CYLINDRICAL_SURFACE('',#296,72.20509510078);
#70=CYLINDRICAL_SURFACE('',#313,149.999999999975);
#71=CYLINDRICAL_SURFACE('',#314,149.999999999975);
#72=CYLINDRICAL_SURFACE('',#317,75.);
#73=CYLINDRICAL_SURFACE('',#319,75.);
#74=FACE_OUTER_BOUND('',#89,.T.);
#75=FACE_OUTER_BOUND('',#90,.T.);
#76=FACE_OUTER_BOUND('',#91,.T.);
#77=FACE_OUTER_BOUND('',#92,.T.);
#78=FACE_OUTER_BOUND('',#93,.T.);
#79=FACE_OUTER_BOUND('',#94,.T.);
#80=FACE_OUTER_BOUND('',#96,.T.);
#81=FACE_OUTER_BOUND('',#98,.T.);
#82=FACE_OUTER_BOUND('',#99,.T.);
#83=FACE_OUTER_BOUND('',#101,.T.);
#84=FACE_OUTER_BOUND('',#102,.T.);
#85=FACE_OUTER_BOUND('',#103,.T.);
#86=FACE_OUTER_BOUND('',#104,.T.);
#87=FACE_OUTER_BOUND('',#105,.T.);
#88=FACE_OUTER_BOUND('',#106,.T.);
#89=EDGE_LOOP('',(#181));
#90=EDGE_LOOP('',(#182,#183,#184,#185,#186,#187));
#91=EDGE_LOOP('',(#188,#189,#190,#191,#192));
#92=EDGE_LOOP('',(#193,#194,#195,#196));
#93=EDGE_LOOP('',(#197,#198,#199,#200,#201,#202,#203,#204,#205));
#94=EDGE_LOOP('',(#206,#207,#208,#209));
#95=EDGE_LOOP('',(#210));
#96=EDGE_LOOP('',(#211,#212,#213,#214));
#97=EDGE_LOOP('',(#215));
#98=EDGE_LOOP('',(#216,#217,#218,#219));
#99=EDGE_LOOP('',(#220,#221,#222,#223));
#100=EDGE_LOOP('',(#224));
#101=EDGE_LOOP('',(#225,#226,#227,#228));
#102=EDGE_LOOP('',(#229,#230,#231,#232));
#103=EDGE_LOOP('',(#233,#234,#235,#236,#237,#238,#239,#240,#241));
#104=EDGE_LOOP('',(#242,#243,#244,#245));
#105=EDGE_LOOP('',(#246,#247,#248,#249));
#106=EDGE_LOOP('',(#250,#251,#252,#253));
#107=EDGE_LOOP('',(#254));
#108=CIRCLE('',#295,72.20509510078);
#109=CIRCLE('',#297,72.20509510078);
#110=CIRCLE('',#298,72.20509510078);
#111=CIRCLE('',#299,72.20509510078);
#112=CIRCLE('',#304,149.999999999975);
#113=CIRCLE('',#305,75.);
#114=CIRCLE('',#307,149.999999999975);
#115=CIRCLE('',#308,75.);
#116=CIRCLE('',#311,149.999999999975);
#117=CIRCLE('',#312,75.);
#118=CIRCLE('',#315,149.999999999975);
#119=CIRCLE('',#318,75.);
#120=VERTEX_POINT('',#404);
#121=VERTEX_POINT('',#407);
#122=VERTEX_POINT('',#409);
#123=VERTEX_POINT('',#411);
#124=VERTEX_POINT('',#415);
#125=VERTEX_POINT('',#417);
#126=VERTEX_POINT('',#421);
#127=VERTEX_POINT('',#422);
#128=VERTEX_POINT('',#427);
#129=VERTEX_POINT('',#429);
#130=VERTEX_POINT('',#431);
#131=VERTEX_POINT('',#433);
#132=VERTEX_POINT('',#435);
#133=VERTEX_POINT('',#437);
#134=VERTEX_POINT('',#441);
#135=VERTEX_POINT('',#444);
#136=VERTEX_POINT('',#447);
#137=VERTEX_POINT('',#449);
#138=VERTEX_POINT('',#452);
#139=VERTEX_POINT('',#455);
#140=VERTEX_POINT('',#459);
#141=VERTEX_POINT('',#462);
#142=VERTEX_POINT('',#467);
#143=VERTEX_POINT('',#473);
#144=EDGE_CURVE('',#120,#120,#108,.T.);
#145=EDGE_CURVE('',#120,#121,#19,.T.);
#146=EDGE_CURVE('',#121,#122,#109,.T.);
#147=EDGE_CURVE('',#122,#123,#110,.T.);
#148=EDGE_CURVE('',#123,#121,#111,.T.);
#149=EDGE_CURVE('',#124,#123,#20,.T.);
#150=EDGE_CURVE('',#125,#124,#21,.T.);
#151=EDGE_CURVE('',#122,#125,#22,.T.);
#152=EDGE_CURVE('',#126,#127,#23,.T.);
#153=EDGE_CURVE('',#123,#126,#24,.T.);
#154=EDGE_CURVE('',#127,#122,#25,.T.);
#155=EDGE_CURVE('',#128,#126,#26,.T.);
#156=EDGE_CURVE('',#129,#128,#27,.T.);
#157=EDGE_CURVE('',#129,#130,#28,.T.);
#158=EDGE_CURVE('',#130,#131,#29,.T.);
#159=EDGE_CURVE('',#131,#132,#30,.T.);
#160=EDGE_CURVE('',#133,#132,#31,.T.);
#161=EDGE_CURVE('',#124,#133,#32,.T.);
#162=EDGE_CURVE('',#127,#134,#33,.T.);
#163=EDGE_CURVE('',#134,#128,#112,.T.);
#164=EDGE_CURVE('',#135,#135,#113,.T.);
#165=EDGE_CURVE('',#136,#129,#114,.T.);
#166=EDGE_CURVE('',#137,#136,#34,.T.);
#167=EDGE_CURVE('',#130,#137,#35,.T.);
#168=EDGE_CURVE('',#138,#138,#115,.T.);
#169=EDGE_CURVE('',#139,#137,#36,.T.);
#170=EDGE_CURVE('',#139,#131,#37,.T.);
#171=EDGE_CURVE('',#132,#140,#116,.T.);
#172=EDGE_CURVE('',#140,#139,#38,.T.);
#173=EDGE_CURVE('',#141,#141,#117,.T.);
#174=EDGE_CURVE('',#134,#136,#39,.T.);
#175=EDGE_CURVE('',#140,#142,#40,.T.);
#176=EDGE_CURVE('',#133,#142,#118,.T.);
#177=EDGE_CURVE('',#142,#125,#41,.T.);
#178=EDGE_CURVE('',#143,#143,#119,.T.);
#179=EDGE_CURVE('',#143,#141,#42,.T.);
#180=EDGE_CURVE('',#138,#135,#43,.T.);
#181=ORIENTED_EDGE('',*,*,#144,.F.);
#182=ORIENTED_EDGE('',*,*,#144,.T.);
#183=ORIENTED_EDGE('',*,*,#145,.T.);
#184=ORIENTED_EDGE('',*,*,#146,.T.);
#185=ORIENTED_EDGE('',*,*,#147,.T.);
#186=ORIENTED_EDGE('',*,*,#148,.T.);
#187=ORIENTED_EDGE('',*,*,#145,.F.);
#188=ORIENTED_EDGE('',*,*,#149,.F.);
#189=ORIENTED_EDGE('',*,*,#150,.F.);
#190=ORIENTED_EDGE('',*,*,#151,.F.);
#191=ORIENTED_EDGE('',*,*,#146,.F.);
#192=ORIENTED_EDGE('',*,*,#148,.F.);
#193=ORIENTED_EDGE('',*,*,#152,.F.);
#194=ORIENTED_EDGE('',*,*,#153,.F.);
#195=ORIENTED_EDGE('',*,*,#147,.F.);
#196=ORIENTED_EDGE('',*,*,#154,.F.);
#197=ORIENTED_EDGE('',*,*,#149,.T.);
#198=ORIENTED_EDGE('',*,*,#153,.T.);
#199=ORIENTED_EDGE('',*,*,#155,.F.);
#200=ORIENTED_EDGE('',*,*,#156,.F.);
#201=ORIENTED_EDGE('',*,*,#157,.T.);
#202=ORIENTED_EDGE('',*,*,#158,.T.);
#203=ORIENTED_EDGE('',*,*,#159,.T.);
#204=ORIENTED_EDGE('',*,*,#160,.F.);
#205=ORIENTED_EDGE('',*,*,#161,.F.);
#206=ORIENTED_EDGE('',*,*,#152,.T.);
#207=ORIENTED_EDGE('',*,*,#162,.T.);
#208=ORIENTED_EDGE('',*,*,#163,.T.);
#209=ORIENTED_EDGE('',*,*,#155,.T.);
#210=ORIENTED_EDGE('',*,*,#164,.T.);
#211=ORIENTED_EDGE('',*,*,#165,.F.);
#212=ORIENTED_EDGE('',*,*,#166,.F.);
#213=ORIENTED_EDGE('',*,*,#167,.F.);
#214=ORIENTED_EDGE('',*,*,#157,.F.);
#215=ORIENTED_EDGE('',*,*,#168,.F.);
#216=ORIENTED_EDGE('',*,*,#158,.F.);
#217=ORIENTED_EDGE('',*,*,#167,.T.);
#218=ORIENTED_EDGE('',*,*,#169,.F.);
#219=ORIENTED_EDGE('',*,*,#170,.T.);
#220=ORIENTED_EDGE('',*,*,#171,.F.);
#221=ORIENTED_EDGE('',*,*,#159,.F.);
#222=ORIENTED_EDGE('',*,*,#170,.F.);
#223=ORIENTED_EDGE('',*,*,#172,.F.);
#224=ORIENTED_EDGE('',*,*,#173,.F.);
#225=ORIENTED_EDGE('',*,*,#165,.T.);
#226=ORIENTED_EDGE('',*,*,#156,.T.);
#227=ORIENTED_EDGE('',*,*,#163,.F.);
#228=ORIENTED_EDGE('',*,*,#174,.T.);
#229=ORIENTED_EDGE('',*,*,#171,.T.);
#230=ORIENTED_EDGE('',*,*,#175,.T.);
#231=ORIENTED_EDGE('',*,*,#176,.F.);
#232=ORIENTED_EDGE('',*,*,#160,.T.);
#233=ORIENTED_EDGE('',*,*,#151,.T.);
#234=ORIENTED_EDGE('',*,*,#177,.F.);
#235=ORIENTED_EDGE('',*,*,#175,.F.);
#236=ORIENTED_EDGE('',*,*,#172,.T.);
#237=ORIENTED_EDGE('',*,*,#169,.T.);
#238=ORIENTED_EDGE('',*,*,#166,.T.);
#239=ORIENTED_EDGE('',*,*,#174,.F.);
#240=ORIENTED_EDGE('',*,*,#162,.F.);
#241=ORIENTED_EDGE('',*,*,#154,.T.);
#242=ORIENTED_EDGE('',*,*,#178,.F.);
#243=ORIENTED_EDGE('',*,*,#179,.T.);
#244=ORIENTED_EDGE('',*,*,#173,.T.);
#245=ORIENTED_EDGE('',*,*,#179,.F.);
#246=ORIENTED_EDGE('',*,*,#168,.T.);
#247=ORIENTED_EDGE('',*,*,#180,.T.);
#248=ORIENTED_EDGE('',*,*,#164,.F.);
#249=ORIENTED_EDGE('',*,*,#180,.F.);
#250=ORIENTED_EDGE('',*,*,#150,.T.);
#251=ORIENTED_EDGE('',*,*,#161,.T.);
#252=ORIENTED_EDGE('',*,*,#176,.T.);
#253=ORIENTED_EDGE('',*,*,#177,.T.);
#254=ORIENTED_EDGE('',*,*,#178,.T.);
#255=PLANE('',#294);
#256=PLANE('',#300);
#257=PLANE('',#301);
#258=PLANE('',#302);
#259=PLANE('',#303);
#260=PLANE('',#306);
#261=PLANE('',#309);
#262=PLANE('',#310);
#263=PLANE('',#316);
#264=PLANE('',#320);
#265=ADVANCED_FACE('',(#74),#255,.T.);
#266=ADVANCED_FACE('',(#75),#69,.T.);
#267=ADVANCED_FACE('',(#76),#256,.T.);
#268=ADVANCED_FACE('',(#77),#257,.T.);
#269=ADVANCED_FACE('',(#78),#258,.T.);
#270=ADVANCED_FACE('',(#79,#15),#259,.F.);
#271=ADVANCED_FACE('',(#80,#16),#260,.T.);
#272=ADVANCED_FACE('',(#81),#261,.F.);
#273=ADVANCED_FACE('',(#82,#17),#262,.F.);
#274=ADVANCED_FACE('',(#83),#70,.T.);
#275=ADVANCED_FACE('',(#84),#71,.T.);
#276=ADVANCED_FACE('',(#85),#263,.T.);
#277=ADVANCED_FACE('',(#86),#72,.F.);
#278=ADVANCED_FACE('',(#87),#73,.F.);
#279=ADVANCED_FACE('',(#88,#18),#264,.T.);
#280=CLOSED_SHELL('',(#265,#266,#267,#268,#269,#270,#271,#272,#273,#274,
#275,#276,#277,#278,#279));
#281=DERIVED_UNIT_ELEMENT(#283,1.);
#282=DERIVED_UNIT_ELEMENT(#484,-3.);
#283=(
MASS_UNIT()
NAMED_UNIT(*)
SI_UNIT(.KILO.,.GRAM.)
);
#284=DERIVED_UNIT((#281,#282));
#285=MEASURE_REPRESENTATION_ITEM('density measure',
POSITIVE_RATIO_MEASURE(7850.),#284);
#286=PROPERTY_DEFINITION_REPRESENTATION(#291,#288);
#287=PROPERTY_DEFINITION_REPRESENTATION(#292,#289);
#288=REPRESENTATION('material name',(#290),#481);
#289=REPRESENTATION('density',(#285),#481);
#290=DESCRIPTIVE_REPRESENTATION_ITEM('Steel','Steel');
#291=PROPERTY_DEFINITION('material property','material name',#491);
#292=PROPERTY_DEFINITION('material property','density of part',#491);
#293=AXIS2_PLACEMENT_3D('',#402,#321,#322);
#294=AXIS2_PLACEMENT_3D('',#403,#323,#324);
#295=AXIS2_PLACEMENT_3D('',#405,#325,#326);
#296=AXIS2_PLACEMENT_3D('',#406,#327,#328);
#297=AXIS2_PLACEMENT_3D('',#410,#330,#331);
#298=AXIS2_PLACEMENT_3D('',#412,#332,#333);
#299=AXIS2_PLACEMENT_3D('',#413,#334,#335);
#300=AXIS2_PLACEMENT_3D('',#414,#336,#337);
#301=AXIS2_PLACEMENT_3D('',#420,#341,#342);
#302=AXIS2_PLACEMENT_3D('',#426,#346,#347);
#303=AXIS2_PLACEMENT_3D('',#440,#355,#356);
#304=AXIS2_PLACEMENT_3D('',#443,#358,#359);
#305=AXIS2_PLACEMENT_3D('',#445,#360,#361);
#306=AXIS2_PLACEMENT_3D('',#446,#362,#363);
#307=AXIS2_PLACEMENT_3D('',#448,#364,#365);
#308=AXIS2_PLACEMENT_3D('',#453,#368,#369);
#309=AXIS2_PLACEMENT_3D('',#454,#370,#371);
#310=AXIS2_PLACEMENT_3D('',#458,#374,#375);
#311=AXIS2_PLACEMENT_3D('',#460,#376,#377);
#312=AXIS2_PLACEMENT_3D('',#463,#379,#380);
#313=AXIS2_PLACEMENT_3D('',#464,#381,#382);
#314=AXIS2_PLACEMENT_3D('',#466,#384,#385);
#315=AXIS2_PLACEMENT_3D('',#469,#387,#388);
#316=AXIS2_PLACEMENT_3D('',#470,#389,#390);
#317=AXIS2_PLACEMENT_3D('',#472,#392,#393);
#318=AXIS2_PLACEMENT_3D('',#474,#394,#395);
#319=AXIS2_PLACEMENT_3D('',#476,#397,#398);
#320=AXIS2_PLACEMENT_3D('',#478,#400,#401);
#321=DIRECTION('axis',(0.,0.,1.));
#322=DIRECTION('refdir',(1.,0.,0.));
#323=DIRECTION('center_axis',(0.,1.,0.));
#324=DIRECTION('ref_axis',(0.,0.,1.));
#325=DIRECTION('center_axis',(0.,-1.,0.));
#326=DIRECTION('ref_axis',(-1.,0.,0.));
#327=DIRECTION('center_axis',(0.,-1.,0.));
#328=DIRECTION('ref_axis',(-1.,0.,0.));
#329=DIRECTION('',(0.,-1.,0.));
#330=DIRECTION('center_axis',(0.,1.,0.));
#331=DIRECTION('ref_axis',(-1.,0.,0.));
#332=DIRECTION('center_axis',(0.,1.,0.));
#333=DIRECTION('ref_axis',(-1.,0.,0.));
#334=DIRECTION('center_axis',(0.,1.,0.));
#335=DIRECTION('ref_axis',(-1.,0.,0.));
#336=DIRECTION('center_axis',(0.,1.,0.));
#337=DIRECTION('ref_axis',(-1.,0.,0.));
#338=DIRECTION('',(-1.,0.,0.));
#339=DIRECTION('',(0.,0.,1.));
#340=DIRECTION('',(1.,0.,0.));
#341=DIRECTION('center_axis',(0.,1.,0.));
#342=DIRECTION('ref_axis',(-1.,0.,0.));
#343=DIRECTION('',(0.,0.,-1.));
#344=DIRECTION('',(-1.,0.,0.));
#345=DIRECTION('',(1.,0.,0.));
#346=DIRECTION('center_axis',(0.,0.,1.));
#347=DIRECTION('ref_axis',(0.,-1.,0.));
#348=DIRECTION('',(0.,1.,0.));
#349=DIRECTION('',(-1.,0.,0.));
#350=DIRECTION('',(0.,1.,0.));
#351=DIRECTION('',(1.,0.,0.));
#352=DIRECTION('',(0.,-1.,0.));
#353=DIRECTION('',(-1.,0.,0.));
#354=DIRECTION('',(0.,-1.,0.));
#355=DIRECTION('center_axis',(1.,0.,0.));
#356=DIRECTION('ref_axis',(0.,1.,0.));
#357=DIRECTION('',(0.,-1.,0.));
#358=DIRECTION('center_axis',(-1.,0.,0.));
#359=DIRECTION('ref_axis',(0.,1.,0.));
#360=DIRECTION('center_axis',(1.,0.,0.));
#361=DIRECTION('ref_axis',(0.,1.,0.));
#362=DIRECTION('center_axis',(1.,0.,0.));
#363=DIRECTION('ref_axis',(0.,1.,0.));
#364=DIRECTION('center_axis',(-1.,0.,0.));
#365=DIRECTION('ref_axis',(0.,1.,0.));
#366=DIRECTION('',(0.,-1.,0.));
#367=DIRECTION('',(0.,0.,-1.));
#368=DIRECTION('center_axis',(1.,0.,0.));
#369=DIRECTION('ref_axis',(0.,1.,0.));
#370=DIRECTION('center_axis',(0.,1.,0.));
#371=DIRECTION('ref_axis',(0.,0.,1.));
#372=DIRECTION('',(-1.,0.,0.));
#373=DIRECTION('',(0.,0.,1.));
#374=DIRECTION('center_axis',(1.,0.,0.));
#375=DIRECTION('ref_axis',(0.,1.,0.));
#376=DIRECTION('center_axis',(1.,0.,0.));
#377=DIRECTION('ref_axis',(0.,1.,0.));
#378=DIRECTION('',(0.,1.,0.));
#379=DIRECTION('center_axis',(-1.,0.,0.));
#380=DIRECTION('ref_axis',(0.,1.,0.));
#381=DIRECTION('center_axis',(1.,0.,0.));
#382=DIRECTION('ref_axis',(0.,-0.999774000637954,-0.0212590603832909));
#383=DIRECTION('',(1.,0.,0.));
#384=DIRECTION('center_axis',(1.,0.,0.));
#385=DIRECTION('ref_axis',(0.,-0.999774000637954,-0.0212590603832909));
#386=DIRECTION('',(1.,0.,0.));
#387=DIRECTION('center_axis',(1.,0.,0.));
#388=DIRECTION('ref_axis',(0.,1.,0.));
#389=DIRECTION('center_axis',(0.,0.,-1.));
#390=DIRECTION('ref_axis',(0.,1.,0.));
#391=DIRECTION('',(0.,1.,0.));
#392=DIRECTION('center_axis',(1.,0.,0.));
#393=DIRECTION('ref_axis',(0.,1.,0.));
#394=DIRECTION('center_axis',(-1.,0.,0.));
#395=DIRECTION('ref_axis',(0.,1.,0.));
#396=DIRECTION('',(-1.,0.,0.));
#397=DIRECTION('center_axis',(1.,0.,0.));
#398=DIRECTION('ref_axis',(0.,1.,0.));
#399=DIRECTION('',(-1.,0.,0.));
#400=DIRECTION('center_axis',(1.,0.,0.));
#401=DIRECTION('ref_axis',(0.,1.,0.));
#402=CARTESIAN_POINT('',(0.,0.,0.));
#403=CARTESIAN_POINT('Origin',(-866.,533.179741024934,481.82364316018));
#404=CARTESIAN_POINT('',(-843.79490489922,533.179741024934,554.02873826096));
#405=CARTESIAN_POINT('Origin',(-916.,533.179741024934,554.02873826096));
#406=CARTESIAN_POINT('Origin',(-916.,433.179741024934,554.02873826096));
#407=CARTESIAN_POINT('',(-843.79490489922,-291.820258975066,554.02873826096));
#408=CARTESIAN_POINT('',(-843.79490489922,433.179741024934,554.02873826096));
#409=CARTESIAN_POINT('',(-916.,-291.820258975066,481.82364316018));
#410=CARTESIAN_POINT('Origin',(-916.,-291.820258975066,554.02873826096));
#411=CARTESIAN_POINT('',(-916.,-291.820258975066,626.23383336174));
#412=CARTESIAN_POINT('Origin',(-916.,-291.820258975066,554.02873826096));
#413=CARTESIAN_POINT('Origin',(-916.,-291.820258975066,554.02873826096));
#414=CARTESIAN_POINT('Origin',(-866.,-291.820258975066,554.02873826096));
#415=CARTESIAN_POINT('',(-816.,-291.820258975066,626.23383336174));
#416=CARTESIAN_POINT('',(-866.,-291.820258975066,626.23383336174));
#417=CARTESIAN_POINT('',(-816.,-291.820258975066,481.82364316018));
#418=CARTESIAN_POINT('',(-816.,-291.820258975066,552.63128581135));
#419=CARTESIAN_POINT('',(-866.,-291.820258975066,481.82364316018));
#420=CARTESIAN_POINT('Origin',(-966.,-291.820258975066,554.02873826096));
#421=CARTESIAN_POINT('',(-1016.,-291.820258975066,626.23383336174));
#422=CARTESIAN_POINT('',(-1016.,-291.820258975066,481.82364316018));
#423=CARTESIAN_POINT('',(-1016.,-291.820258975066,552.63128581135));
#424=CARTESIAN_POINT('',(-916.,-291.820258975066,626.23383336174));
#425=CARTESIAN_POINT('',(-916.,-291.820258975066,481.82364316018));
#426=CARTESIAN_POINT('Origin',(-866.,433.179741024934,626.23383336174));
#427=CARTESIAN_POINT('',(-1016.,-436.916448407429,626.23383336174));
#428=CARTESIAN_POINT('',(-1016.,-566.820258975066,626.23383336174));
#429=CARTESIAN_POINT('',(-966.,-436.916448407429,626.23383336174));
#430=CARTESIAN_POINT('',(-866.,-436.916448407429,626.23383336174));
#431=CARTESIAN_POINT('',(-966.,-336.916448407429,626.23383336174));
#432=CARTESIAN_POINT('',(-966.,-46.8443063331506,626.23383336174));
#433=CARTESIAN_POINT('',(-866.,-336.916448407429,626.23383336174));
#434=CARTESIAN_POINT('',(-891.,-336.916448407429,626.23383336174));
#435=CARTESIAN_POINT('',(-866.,-436.916448407429,626.23383336174));
#436=CARTESIAN_POINT('',(-866.,-46.8443063331506,626.23383336174));
#437=CARTESIAN_POINT('',(-816.,-436.916448407429,626.23383336174));
#438=CARTESIAN_POINT('',(-866.,-436.916448407429,626.23383336174));
#439=CARTESIAN_POINT('',(-816.,-566.820258975066,626.23383336174));
#440=CARTESIAN_POINT('Origin',(-1016.,-141.820258975054,551.23383336174));
#441=CARTESIAN_POINT('',(-1016.,-433.845729473451,481.82364316018));
#442=CARTESIAN_POINT('',(-1016.,-566.820258975066,481.82364316018));
#443=CARTESIAN_POINT('Origin',(-1016.,-566.820258975066,551.23383336174));
#444=CARTESIAN_POINT('',(-1016.,-641.820258975066,551.23383336174));
#445=CARTESIAN_POINT('Origin',(-1016.,-566.820258975066,551.23383336174));
#446=CARTESIAN_POINT('Origin',(-966.,-526.868353691235,551.23383336174));
#447=CARTESIAN_POINT('',(-966.,-433.845729473451,481.82364316018));
#448=CARTESIAN_POINT('Origin',(-966.,-566.820258975066,551.23383336174));
#449=CARTESIAN_POINT('',(-966.,-336.916448407429,481.82364316018));
#450=CARTESIAN_POINT('',(-966.,-480.357041582343,481.82364316018));
#451=CARTESIAN_POINT('',(-966.,-336.916448407429,626.23383336174));
#452=CARTESIAN_POINT('',(-966.,-641.820258975066,551.23383336174));
#453=CARTESIAN_POINT('Origin',(-966.,-566.820258975066,551.23383336174));
#454=CARTESIAN_POINT('Origin',(-916.,-336.916448407429,481.82364316018));
#455=CARTESIAN_POINT('',(-866.,-336.916448407429,481.82364316018));
#456=CARTESIAN_POINT('',(-891.,-336.916448407429,481.82364316018));
#457=CARTESIAN_POINT('',(-866.,-336.916448407429,626.23383336174));
#458=CARTESIAN_POINT('Origin',(-866.,-526.868353691235,551.23383336174));
#459=CARTESIAN_POINT('',(-866.,-433.845729473451,481.82364316018));
#460=CARTESIAN_POINT('Origin',(-866.,-566.820258975066,551.23383336174));
#461=CARTESIAN_POINT('',(-866.,-480.357041582343,481.82364316018));
#462=CARTESIAN_POINT('',(-866.,-641.820258975066,551.23383336174));
#463=CARTESIAN_POINT('Origin',(-866.,-566.820258975066,551.23383336174));
#464=CARTESIAN_POINT('Origin',(-866.,-566.820258975066,551.23383336174));
#465=CARTESIAN_POINT('',(-866.,-433.845729473451,481.82364316018));
#466=CARTESIAN_POINT('Origin',(-866.,-566.820258975066,551.23383336174));
#467=CARTESIAN_POINT('',(-816.,-433.845729473451,481.82364316018));
#468=CARTESIAN_POINT('',(-866.,-433.845729473451,481.82364316018));
#469=CARTESIAN_POINT('Origin',(-816.,-566.820258975066,551.23383336174));
#470=CARTESIAN_POINT('Origin',(-866.,-433.845729473451,481.82364316018));
#471=CARTESIAN_POINT('',(-816.,-566.820258975066,481.82364316018));
#472=CARTESIAN_POINT('Origin',(-866.,-566.820258975066,551.23383336174));
#473=CARTESIAN_POINT('',(-816.,-641.820258975066,551.23383336174));
#474=CARTESIAN_POINT('Origin',(-816.,-566.820258975066,551.23383336174));
#475=CARTESIAN_POINT('',(-866.,-641.820258975066,551.23383336174));
#476=CARTESIAN_POINT('Origin',(-866.,-566.820258975066,551.23383336174));
#477=CARTESIAN_POINT('',(-866.,-641.820258975066,551.23383336174));
#478=CARTESIAN_POINT('Origin',(-816.,-141.820258975054,551.23383336174));
#479=UNCERTAINTY_MEASURE_WITH_UNIT(LENGTH_MEASURE(0.01),#483,
'DISTANCE_ACCURACY_VALUE',
'Maximum model space distance between geometric entities at asserted c
onnectivities');
#480=UNCERTAINTY_MEASURE_WITH_UNIT(LENGTH_MEASURE(0.01),#483,
'DISTANCE_ACCURACY_VALUE',
'Maximum model space distance between geometric entities at asserted c
onnectivities');
#481=(
GEOMETRIC_REPRESENTATION_CONTEXT(3)
GLOBAL_UNCERTAINTY_ASSIGNED_CONTEXT((#479))
GLOBAL_UNIT_ASSIGNED_CONTEXT((#483,#485,#486))
REPRESENTATION_CONTEXT('','3D')
);
#482=(
GEOMETRIC_REPRESENTATION_CONTEXT(3)
GLOBAL_UNCERTAINTY_ASSIGNED_CONTEXT((#480))
GLOBAL_UNIT_ASSIGNED_CONTEXT((#483,#485,#486))
REPRESENTATION_CONTEXT('','3D')
);
#483=(
LENGTH_UNIT()
NAMED_UNIT(*)
SI_UNIT(.MILLI.,.METRE.)
);
#484=(
LENGTH_UNIT()
NAMED_UNIT(*)
SI_UNIT($,.METRE.)
);
#485=(
NAMED_UNIT(*)
PLANE_ANGLE_UNIT()
SI_UNIT($,.RADIAN.)
);
#486=(
NAMED_UNIT(*)
SI_UNIT($,.STERADIAN.)
SOLID_ANGLE_UNIT()
);
#487=SHAPE_DEFINITION_REPRESENTATION(#488,#489);
#488=PRODUCT_DEFINITION_SHAPE('',$,#491);
#489=SHAPE_REPRESENTATION('',(#293),#481);
#490=PRODUCT_DEFINITION_CONTEXT('part definition',#495,'design');
#491=PRODUCT_DEFINITION('BoomLiftRod','BoomLiftRod',#492,#490);
#492=PRODUCT_DEFINITION_FORMATION('',$,#497);
#493=PRODUCT_RELATED_PRODUCT_CATEGORY('BoomLiftRod','BoomLiftRod',(#497));
#494=APPLICATION_PROTOCOL_DEFINITION('international standard',
'automotive_design',2009,#495);
#495=APPLICATION_CONTEXT(
'Core Data for Automotive Mechanical Design Process');
#496=PRODUCT_CONTEXT('part definition',#495,'mechanical');
#497=PRODUCT('BoomLiftRod','BoomLiftRod',$,(#496));
#498=PRESENTATION_STYLE_ASSIGNMENT((#499));
#499=SURFACE_STYLE_USAGE(.BOTH.,#500);
#500=SURFACE_SIDE_STYLE('',(#501));
#501=SURFACE_STYLE_FILL_AREA(#502);
#502=FILL_AREA_STYLE('Steel - Satin',(#503));
#503=FILL_AREA_STYLE_COLOUR('Steel - Satin',#504);
#504=COLOUR_RGB('Steel - Satin',0.627450980392157,0.627450980392157,0.627450980392157);
ENDSEC;
END-ISO-10303-21;
