ISO-10303-21;
HEADER;
/* Generated by software containing ST-Developer
 * from STEP Tools, Inc. (www.steptools.com) 
 */

FILE_DESCRIPTION(
/* description */ (''),
/* implementation_level */ '2;1');

FILE_NAME(
/* name */ 'BucketTiltCylinder.step',
/* time_stamp */ '2026-03-29T20:35:35-04:00',
/* author */ (''),
/* organization */ (''),
/* preprocessor_version */ 'ST-DEVELOPER v20.1',
/* originating_system */ 'Autodesk Translation Framework v14.24.0.0',
/* authorisation */ '');

FILE_SCHEMA (('AUTOMOTIVE_DESIGN { 1 0 10303 214 3 1 1 }'));
ENDSEC;

DATA;
#10=MECHANICAL_DESIGN_GEOMETRIC_PRESENTATION_REPRESENTATION('',(#13),#354);
#11=SHAPE_REPRESENTATION_RELATIONSHIP('SRR','None',#361,#12);
#12=ADVANCED_BREP_SHAPE_REPRESENTATION('',(#14),#353);
#13=STYLED_ITEM('',(#370),#14);
#14=MANIFOLD_SOLID_BREP('Body1',#200);
#15=LINE('',#305,#30);
#16=LINE('',#314,#31);
#17=LINE('',#315,#32);
#18=LINE('',#316,#33);
#19=LINE('',#319,#34);
#20=LINE('',#321,#35);
#21=LINE('',#322,#36);
#22=LINE('',#325,#37);
#23=LINE('',#330,#38);
#24=LINE('',#332,#39);
#25=LINE('',#333,#40);
#26=LINE('',#336,#41);
#27=LINE('',#342,#42);
#28=LINE('',#345,#43);
#29=LINE('',#350,#44);
#30=VECTOR('',#246,125.);
#31=VECTOR('',#255,10.);
#32=VECTOR('',#256,10.);
#33=VECTOR('',#257,10.);
#34=VECTOR('',#260,10.);
#35=VECTOR('',#261,10.);
#36=VECTOR('',#262,10.);
#37=VECTOR('',#265,50.);
#38=VECTOR('',#272,10.);
#39=VECTOR('',#273,10.);
#40=VECTOR('',#274,10.);
#41=VECTOR('',#277,10.);
#42=VECTOR('',#284,10.);
#43=VECTOR('',#289,10.);
#44=VECTOR('',#296,90.);
#45=CYLINDRICAL_SURFACE('',#217,125.);
#46=CYLINDRICAL_SURFACE('',#223,50.);
#47=CYLINDRICAL_SURFACE('',#230,125.);
#48=CYLINDRICAL_SURFACE('',#235,90.);
#49=FACE_BOUND('',#65,.T.);
#50=FACE_BOUND('',#73,.T.);
#51=FACE_BOUND('',#76,.T.);
#52=FACE_OUTER_BOUND('',#64,.T.);
#53=FACE_OUTER_BOUND('',#66,.T.);
#54=FACE_OUTER_BOUND('',#67,.T.);
#55=FACE_OUTER_BOUND('',#68,.T.);
#56=FACE_OUTER_BOUND('',#69,.T.);
#57=FACE_OUTER_BOUND('',#70,.T.);
#58=FACE_OUTER_BOUND('',#71,.T.);
#59=FACE_OUTER_BOUND('',#72,.T.);
#60=FACE_OUTER_BOUND('',#74,.T.);
#61=FACE_OUTER_BOUND('',#75,.T.);
#62=FACE_OUTER_BOUND('',#77,.T.);
#63=FACE_OUTER_BOUND('',#78,.T.);
#64=EDGE_LOOP('',(#130));
#65=EDGE_LOOP('',(#131));
#66=EDGE_LOOP('',(#132,#133,#134,#135,#136,#137));
#67=EDGE_LOOP('',(#138,#139,#140,#141));
#68=EDGE_LOOP('',(#142,#143,#144,#145,#146));
#69=EDGE_LOOP('',(#147,#148,#149,#150));
#70=EDGE_LOOP('',(#151));
#71=EDGE_LOOP('',(#152,#153,#154,#155,#156));
#72=EDGE_LOOP('',(#157,#158,#159,#160));
#73=EDGE_LOOP('',(#161));
#74=EDGE_LOOP('',(#162,#163,#164,#165));
#75=EDGE_LOOP('',(#166,#167,#168,#169));
#76=EDGE_LOOP('',(#170));
#77=EDGE_LOOP('',(#171,#172,#173,#174,#175));
#78=EDGE_LOOP('',(#176,#177,#178,#179));
#79=CIRCLE('',#215,125.);
#80=CIRCLE('',#216,50.);
#81=CIRCLE('',#218,125.);
#82=CIRCLE('',#219,125.);
#83=CIRCLE('',#220,125.);
#84=CIRCLE('',#224,50.);
#85=CIRCLE('',#228,125.);
#86=CIRCLE('',#229,90.);
#87=CIRCLE('',#231,125.);
#88=CIRCLE('',#233,90.);
#89=VERTEX_POINT('',#299);
#90=VERTEX_POINT('',#301);
#91=VERTEX_POINT('',#304);
#92=VERTEX_POINT('',#306);
#93=VERTEX_POINT('',#308);
#94=VERTEX_POINT('',#312);
#95=VERTEX_POINT('',#313);
#96=VERTEX_POINT('',#318);
#97=VERTEX_POINT('',#320);
#98=VERTEX_POINT('',#324);
#99=VERTEX_POINT('',#329);
#100=VERTEX_POINT('',#331);
#101=VERTEX_POINT('',#335);
#102=VERTEX_POINT('',#338);
#103=VERTEX_POINT('',#341);
#104=VERTEX_POINT('',#346);
#105=EDGE_CURVE('',#89,#89,#79,.T.);
#106=EDGE_CURVE('',#90,#90,#80,.T.);
#107=EDGE_CURVE('',#89,#91,#15,.T.);
#108=EDGE_CURVE('',#91,#92,#81,.T.);
#109=EDGE_CURVE('',#92,#93,#82,.T.);
#110=EDGE_CURVE('',#93,#91,#83,.T.);
#111=EDGE_CURVE('',#94,#95,#16,.T.);
#112=EDGE_CURVE('',#93,#94,#17,.T.);
#113=EDGE_CURVE('',#95,#92,#18,.T.);
#114=EDGE_CURVE('',#96,#93,#19,.T.);
#115=EDGE_CURVE('',#97,#96,#20,.T.);
#116=EDGE_CURVE('',#92,#97,#21,.T.);
#117=EDGE_CURVE('',#90,#98,#22,.T.);
#118=EDGE_CURVE('',#98,#98,#84,.T.);
#119=EDGE_CURVE('',#97,#99,#23,.T.);
#120=EDGE_CURVE('',#99,#100,#24,.T.);
#121=EDGE_CURVE('',#100,#95,#25,.T.);
#122=EDGE_CURVE('',#101,#96,#26,.T.);
#123=EDGE_CURVE('',#99,#101,#85,.T.);
#124=EDGE_CURVE('',#102,#102,#86,.T.);
#125=EDGE_CURVE('',#101,#103,#27,.T.);
#126=EDGE_CURVE('',#103,#100,#87,.T.);
#127=EDGE_CURVE('',#94,#103,#28,.T.);
#128=EDGE_CURVE('',#104,#104,#88,.T.);
#129=EDGE_CURVE('',#104,#102,#29,.T.);
#130=ORIENTED_EDGE('',*,*,#105,.T.);
#131=ORIENTED_EDGE('',*,*,#106,.T.);
#132=ORIENTED_EDGE('',*,*,#105,.F.);
#133=ORIENTED_EDGE('',*,*,#107,.T.);
#134=ORIENTED_EDGE('',*,*,#108,.T.);
#135=ORIENTED_EDGE('',*,*,#109,.T.);
#136=ORIENTED_EDGE('',*,*,#110,.T.);
#137=ORIENTED_EDGE('',*,*,#107,.F.);
#138=ORIENTED_EDGE('',*,*,#111,.F.);
#139=ORIENTED_EDGE('',*,*,#112,.F.);
#140=ORIENTED_EDGE('',*,*,#109,.F.);
#141=ORIENTED_EDGE('',*,*,#113,.F.);
#142=ORIENTED_EDGE('',*,*,#114,.F.);
#143=ORIENTED_EDGE('',*,*,#115,.F.);
#144=ORIENTED_EDGE('',*,*,#116,.F.);
#145=ORIENTED_EDGE('',*,*,#108,.F.);
#146=ORIENTED_EDGE('',*,*,#110,.F.);
#147=ORIENTED_EDGE('',*,*,#106,.F.);
#148=ORIENTED_EDGE('',*,*,#117,.T.);
#149=ORIENTED_EDGE('',*,*,#118,.T.);
#150=ORIENTED_EDGE('',*,*,#117,.F.);
#151=ORIENTED_EDGE('',*,*,#118,.F.);
#152=ORIENTED_EDGE('',*,*,#113,.T.);
#153=ORIENTED_EDGE('',*,*,#116,.T.);
#154=ORIENTED_EDGE('',*,*,#119,.T.);
#155=ORIENTED_EDGE('',*,*,#120,.T.);
#156=ORIENTED_EDGE('',*,*,#121,.T.);
#157=ORIENTED_EDGE('',*,*,#115,.T.);
#158=ORIENTED_EDGE('',*,*,#122,.F.);
#159=ORIENTED_EDGE('',*,*,#123,.F.);
#160=ORIENTED_EDGE('',*,*,#119,.F.);
#161=ORIENTED_EDGE('',*,*,#124,.F.);
#162=ORIENTED_EDGE('',*,*,#123,.T.);
#163=ORIENTED_EDGE('',*,*,#125,.T.);
#164=ORIENTED_EDGE('',*,*,#126,.T.);
#165=ORIENTED_EDGE('',*,*,#120,.F.);
#166=ORIENTED_EDGE('',*,*,#111,.T.);
#167=ORIENTED_EDGE('',*,*,#121,.F.);
#168=ORIENTED_EDGE('',*,*,#126,.F.);
#169=ORIENTED_EDGE('',*,*,#127,.F.);
#170=ORIENTED_EDGE('',*,*,#128,.F.);
#171=ORIENTED_EDGE('',*,*,#112,.T.);
#172=ORIENTED_EDGE('',*,*,#127,.T.);
#173=ORIENTED_EDGE('',*,*,#125,.F.);
#174=ORIENTED_EDGE('',*,*,#122,.T.);
#175=ORIENTED_EDGE('',*,*,#114,.T.);
#176=ORIENTED_EDGE('',*,*,#128,.T.);
#177=ORIENTED_EDGE('',*,*,#129,.T.);
#178=ORIENTED_EDGE('',*,*,#124,.T.);
#179=ORIENTED_EDGE('',*,*,#129,.F.);
#180=PLANE('',#214);
#181=PLANE('',#221);
#182=PLANE('',#222);
#183=PLANE('',#225);
#184=PLANE('',#226);
#185=PLANE('',#227);
#186=PLANE('',#232);
#187=PLANE('',#234);
#188=ADVANCED_FACE('',(#52,#49),#180,.T.);
#189=ADVANCED_FACE('',(#53),#45,.T.);
#190=ADVANCED_FACE('',(#54),#181,.T.);
#191=ADVANCED_FACE('',(#55),#182,.T.);
#192=ADVANCED_FACE('',(#56),#46,.F.);
#193=ADVANCED_FACE('',(#57),#183,.T.);
#194=ADVANCED_FACE('',(#58),#184,.T.);
#195=ADVANCED_FACE('',(#59,#50),#185,.F.);
#196=ADVANCED_FACE('',(#60),#47,.T.);
#197=ADVANCED_FACE('',(#61,#51),#186,.T.);
#198=ADVANCED_FACE('',(#62),#187,.T.);
#199=ADVANCED_FACE('',(#63),#48,.F.);
#200=CLOSED_SHELL('',(#188,#189,#190,#191,#192,#193,#194,#195,#196,#197,
#198,#199));
#201=DERIVED_UNIT_ELEMENT(#203,1.);
#202=DERIVED_UNIT_ELEMENT(#356,-3.);
#203=(
MASS_UNIT()
NAMED_UNIT(*)
SI_UNIT(.KILO.,.GRAM.)
);
#204=DERIVED_UNIT((#201,#202));
#205=MEASURE_REPRESENTATION_ITEM('density measure',
POSITIVE_RATIO_MEASURE(7850.),#204);
#206=PROPERTY_DEFINITION_REPRESENTATION(#211,#208);
#207=PROPERTY_DEFINITION_REPRESENTATION(#212,#209);
#208=REPRESENTATION('material name',(#210),#353);
#209=REPRESENTATION('density',(#205),#353);
#210=DESCRIPTIVE_REPRESENTATION_ITEM('Steel','Steel');
#211=PROPERTY_DEFINITION('material property','material name',#363);
#212=PROPERTY_DEFINITION('material property','density of part',#363);
#213=AXIS2_PLACEMENT_3D('',#297,#236,#237);
#214=AXIS2_PLACEMENT_3D('',#298,#238,#239);
#215=AXIS2_PLACEMENT_3D('',#300,#240,#241);
#216=AXIS2_PLACEMENT_3D('',#302,#242,#243);
#217=AXIS2_PLACEMENT_3D('',#303,#244,#245);
#218=AXIS2_PLACEMENT_3D('',#307,#247,#248);
#219=AXIS2_PLACEMENT_3D('',#309,#249,#250);
#220=AXIS2_PLACEMENT_3D('',#310,#251,#252);
#221=AXIS2_PLACEMENT_3D('',#311,#253,#254);
#222=AXIS2_PLACEMENT_3D('',#317,#258,#259);
#223=AXIS2_PLACEMENT_3D('',#323,#263,#264);
#224=AXIS2_PLACEMENT_3D('',#326,#266,#267);
#225=AXIS2_PLACEMENT_3D('',#327,#268,#269);
#226=AXIS2_PLACEMENT_3D('',#328,#270,#271);
#227=AXIS2_PLACEMENT_3D('',#334,#275,#276);
#228=AXIS2_PLACEMENT_3D('',#337,#278,#279);
#229=AXIS2_PLACEMENT_3D('',#339,#280,#281);
#230=AXIS2_PLACEMENT_3D('',#340,#282,#283);
#231=AXIS2_PLACEMENT_3D('',#343,#285,#286);
#232=AXIS2_PLACEMENT_3D('',#344,#287,#288);
#233=AXIS2_PLACEMENT_3D('',#347,#290,#291);
#234=AXIS2_PLACEMENT_3D('',#348,#292,#293);
#235=AXIS2_PLACEMENT_3D('',#349,#294,#295);
#236=DIRECTION('axis',(0.,0.,1.));
#237=DIRECTION('refdir',(1.,0.,0.));
#238=DIRECTION('center_axis',(0.,-1.,3.90798504668055E-16));
#239=DIRECTION('ref_axis',(0.,-3.90798504668055E-16,-1.));
#240=DIRECTION('center_axis',(0.,-1.,3.90798504668055E-16));
#241=DIRECTION('ref_axis',(1.,0.,0.));
#242=DIRECTION('center_axis',(0.,1.,-3.90798504668055E-16));
#243=DIRECTION('ref_axis',(1.,0.,0.));
#244=DIRECTION('center_axis',(0.,1.,0.));
#245=DIRECTION('ref_axis',(1.,0.,0.));
#246=DIRECTION('',(0.,1.,0.));
#247=DIRECTION('center_axis',(0.,-1.,0.));
#248=DIRECTION('ref_axis',(1.,0.,0.));
#249=DIRECTION('center_axis',(0.,-1.,0.));
#250=DIRECTION('ref_axis',(1.,0.,0.));
#251=DIRECTION('center_axis',(0.,-1.,0.));
#252=DIRECTION('ref_axis',(1.,0.,0.));
#253=DIRECTION('center_axis',(0.,-1.,0.));
#254=DIRECTION('ref_axis',(1.,0.,0.));
#255=DIRECTION('',(0.,0.,-1.));
#256=DIRECTION('',(1.,0.,0.));
#257=DIRECTION('',(-1.,0.,0.));
#258=DIRECTION('center_axis',(0.,-1.,0.));
#259=DIRECTION('ref_axis',(1.,0.,0.));
#260=DIRECTION('',(1.,0.,0.));
#261=DIRECTION('',(0.,0.,1.));
#262=DIRECTION('',(-1.,0.,0.));
#263=DIRECTION('center_axis',(0.,1.,0.));
#264=DIRECTION('ref_axis',(1.,0.,0.));
#265=DIRECTION('',(0.,1.,0.));
#266=DIRECTION('center_axis',(0.,1.,0.));
#267=DIRECTION('ref_axis',(1.,0.,0.));
#268=DIRECTION('center_axis',(0.,-1.,0.));
#269=DIRECTION('ref_axis',(1.,0.,0.));
#270=DIRECTION('center_axis',(0.,-1.57898385724467E-15,-1.));
#271=DIRECTION('ref_axis',(0.,1.,-1.57898385724467E-15));
#272=DIRECTION('',(0.,1.,-1.57898385724467E-15));
#273=DIRECTION('',(1.,0.,0.));
#274=DIRECTION('',(0.,-1.,1.57898385724467E-15));
#275=DIRECTION('center_axis',(1.,0.,0.));
#276=DIRECTION('ref_axis',(0.,1.,0.));
#277=DIRECTION('',(0.,-1.,1.57898385724467E-15));
#278=DIRECTION('center_axis',(1.,0.,0.));
#279=DIRECTION('ref_axis',(0.,1.,0.));
#280=DIRECTION('center_axis',(-1.,0.,0.));
#281=DIRECTION('ref_axis',(0.,1.,0.));
#282=DIRECTION('center_axis',(1.,0.,0.));
#283=DIRECTION('ref_axis',(0.,1.,0.));
#284=DIRECTION('',(1.,0.,0.));
#285=DIRECTION('center_axis',(-1.,0.,0.));
#286=DIRECTION('ref_axis',(0.,1.,0.));
#287=DIRECTION('center_axis',(1.,0.,0.));
#288=DIRECTION('ref_axis',(0.,1.,0.));
#289=DIRECTION('',(0.,1.,-1.57898385724467E-15));
#290=DIRECTION('center_axis',(1.,0.,0.));
#291=DIRECTION('ref_axis',(0.,1.,0.));
#292=DIRECTION('center_axis',(0.,1.57898385724467E-15,1.));
#293=DIRECTION('ref_axis',(0.,-1.,1.57898385724467E-15));
#294=DIRECTION('center_axis',(1.,0.,0.));
#295=DIRECTION('ref_axis',(0.,1.,0.));
#296=DIRECTION('',(-1.,0.,0.));
#297=CARTESIAN_POINT('',(0.,0.,0.));
#298=CARTESIAN_POINT('Origin',(-1704.5,-209.518377169156,1125.09060771369));
#299=CARTESIAN_POINT('',(-1579.5,-209.518377169156,1000.09060771369));
#300=CARTESIAN_POINT('Origin',(-1454.5,-209.518377169156,1000.09060771369));
#301=CARTESIAN_POINT('',(-1504.5,-209.518377169156,1000.09060771369));
#302=CARTESIAN_POINT('Origin',(-1454.5,-209.518377169156,1000.09060771369));
#303=CARTESIAN_POINT('Origin',(-1454.5,-9.51837716915609,1000.09060771369));
#304=CARTESIAN_POINT('',(-1579.5,765.481622830844,1000.09060771369));
#305=CARTESIAN_POINT('',(-1579.5,-9.51837716915609,1000.09060771369));
#306=CARTESIAN_POINT('',(-1454.5,765.481622830844,875.090607713694));
#307=CARTESIAN_POINT('Origin',(-1454.5,765.481622830844,1000.09060771369));
#308=CARTESIAN_POINT('',(-1454.5,765.481622830844,1125.09060771369));
#309=CARTESIAN_POINT('Origin',(-1454.5,765.481622830844,1000.09060771369));
#310=CARTESIAN_POINT('Origin',(-1454.5,765.481622830844,1000.09060771369));
#311=CARTESIAN_POINT('Origin',(-1379.5,765.481622830844,1000.09060771369));
#312=CARTESIAN_POINT('',(-1304.5,765.481622830844,1125.09060771369));
#313=CARTESIAN_POINT('',(-1304.5,765.481622830844,875.090607713694));
#314=CARTESIAN_POINT('',(-1304.5,765.481622830844,1000.09060771369));
#315=CARTESIAN_POINT('',(-1542.,765.481622830844,1125.09060771369));
#316=CARTESIAN_POINT('',(-1542.,765.481622830844,875.090607713692));
#317=CARTESIAN_POINT('Origin',(-1529.5,765.481622830844,1000.09060771369));
#318=CARTESIAN_POINT('',(-1604.5,765.481622830844,1125.09060771369));
#319=CARTESIAN_POINT('',(-1617.,765.481622830844,1125.09060771369));
#320=CARTESIAN_POINT('',(-1604.5,765.481622830844,875.090607713694));
#321=CARTESIAN_POINT('',(-1604.5,765.481622830844,1000.09060771369));
#322=CARTESIAN_POINT('',(-1617.,765.481622830844,875.090607713692));
#323=CARTESIAN_POINT('Origin',(-1454.5,-9.51837716915609,1000.09060771369));
#324=CARTESIAN_POINT('',(-1504.5,765.481622830844,1000.09060771369));
#325=CARTESIAN_POINT('',(-1504.5,-9.51837716915609,1000.09060771369));
#326=CARTESIAN_POINT('Origin',(-1454.5,765.481622830844,1000.09060771369));
#327=CARTESIAN_POINT('Origin',(-1454.5,765.481622830844,1000.09060771369));
#328=CARTESIAN_POINT('Origin',(-1704.5,-9.5183771691562,875.090607713694));
#329=CARTESIAN_POINT('',(-1604.5,890.481622830844,875.090607713692));
#330=CARTESIAN_POINT('',(-1604.5,246.731622830844,875.090607713693));
#331=CARTESIAN_POINT('',(-1304.5,890.481622830844,875.090607713692));
#332=CARTESIAN_POINT('',(-1704.5,890.481622830844,875.090607713692));
#333=CARTESIAN_POINT('',(-1304.5,246.731622830844,875.090607713693));
#334=CARTESIAN_POINT('Origin',(-1604.5,502.981622830844,1000.09060771369));
#335=CARTESIAN_POINT('',(-1604.5,890.481622830844,1125.09060771369));
#336=CARTESIAN_POINT('',(-1604.5,696.731622830844,1125.09060771369));
#337=CARTESIAN_POINT('Origin',(-1604.5,890.481622830844,1000.09060771369));
#338=CARTESIAN_POINT('',(-1604.5,800.481622830844,1000.09060771369));
#339=CARTESIAN_POINT('Origin',(-1604.5,890.481622830844,1000.09060771369));
#340=CARTESIAN_POINT('Origin',(-1704.5,890.481622830844,1000.09060771369));
#341=CARTESIAN_POINT('',(-1304.5,890.481622830844,1125.09060771369));
#342=CARTESIAN_POINT('',(-1704.5,890.481622830844,1125.09060771369));
#343=CARTESIAN_POINT('Origin',(-1304.5,890.481622830844,1000.09060771369));
#344=CARTESIAN_POINT('Origin',(-1304.5,502.981622830844,1000.09060771369));
#345=CARTESIAN_POINT('',(-1304.5,696.731622830844,1125.09060771369));
#346=CARTESIAN_POINT('',(-1304.5,800.481622830844,1000.09060771369));
#347=CARTESIAN_POINT('Origin',(-1304.5,890.481622830844,1000.09060771369));
#348=CARTESIAN_POINT('Origin',(-1704.5,890.481622830844,1125.09060771369));
#349=CARTESIAN_POINT('Origin',(-1704.5,890.481622830844,1000.09060771369));
#350=CARTESIAN_POINT('',(-1704.5,800.481622830844,1000.09060771369));
#351=UNCERTAINTY_MEASURE_WITH_UNIT(LENGTH_MEASURE(0.01),#355,
'DISTANCE_ACCURACY_VALUE',
'Maximum model space distance between geometric entities at asserted c
onnectivities');
#352=UNCERTAINTY_MEASURE_WITH_UNIT(LENGTH_MEASURE(0.01),#355,
'DISTANCE_ACCURACY_VALUE',
'Maximum model space distance between geometric entities at asserted c
onnectivities');
#353=(
GEOMETRIC_REPRESENTATION_CONTEXT(3)
GLOBAL_UNCERTAINTY_ASSIGNED_CONTEXT((#351))
GLOBAL_UNIT_ASSIGNED_CONTEXT((#355,#357,#358))
REPRESENTATION_CONTEXT('','3D')
);
#354=(
GEOMETRIC_REPRESENTATION_CONTEXT(3)
GLOBAL_UNCERTAINTY_ASSIGNED_CONTEXT((#352))
GLOBAL_UNIT_ASSIGNED_CONTEXT((#355,#357,#358))
REPRESENTATION_CONTEXT('','3D')
);
#355=(
LENGTH_UNIT()
NAMED_UNIT(*)
SI_UNIT(.MILLI.,.METRE.)
);
#356=(
LENGTH_UNIT()
NAMED_UNIT(*)
SI_UNIT($,.METRE.)
);
#357=(
NAMED_UNIT(*)
PLANE_ANGLE_UNIT()
SI_UNIT($,.RADIAN.)
);
#358=(
NAMED_UNIT(*)
SI_UNIT($,.STERADIAN.)
SOLID_ANGLE_UNIT()
);
#359=SHAPE_DEFINITION_REPRESENTATION(#360,#361);
#360=PRODUCT_DEFINITION_SHAPE('',$,#363);
#361=SHAPE_REPRESENTATION('',(#213),#353);
#362=PRODUCT_DEFINITION_CONTEXT('part definition',#367,'design');
#363=PRODUCT_DEFINITION('BucketTiltCylinder','BucketTiltCylinder',#364,
#362);
#364=PRODUCT_DEFINITION_FORMATION('',$,#369);
#365=PRODUCT_RELATED_PRODUCT_CATEGORY('BucketTiltCylinder',
'BucketTiltCylinder',(#369));
#366=APPLICATION_PROTOCOL_DEFINITION('international standard',
'automotive_design',2009,#367);
#367=APPLICATION_CONTEXT(
'Core Data for Automotive Mechanical Design Process');
#368=PRODUCT_CONTEXT('part definition',#367,'mechanical');
#369=PRODUCT('BucketTiltCylinder','BucketTiltCylinder',$,(#368));
#370=PRESENTATION_STYLE_ASSIGNMENT((#371));
#371=SURFACE_STYLE_USAGE(.BOTH.,#372);
#372=SURFACE_SIDE_STYLE('',(#373));
#373=SURFACE_STYLE_FILL_AREA(#374);
#374=FILL_AREA_STYLE('Steel - Satin',(#375));
#375=FILL_AREA_STYLE_COLOUR('Steel - Satin',#376);
#376=COLOUR_RGB('Steel - Satin',0.627450980392157,0.627450980392157,0.627450980392157);
ENDSEC;
END-ISO-10303-21;
