ISO-10303-21;
HEADER;
/* Generated by software containing ST-Developer
 * from STEP Tools, Inc. (www.steptools.com) 
 */

FILE_DESCRIPTION(
/* description */ (''),
/* implementation_level */ '2;1');

FILE_NAME(
/* name */ 'BucketLink.step',
/* time_stamp */ '2026-03-29T20:35:24-04:00',
/* author */ (''),
/* organization */ (''),
/* preprocessor_version */ 'ST-DEVELOPER v20.1',
/* originating_system */ 'Autodesk Translation Framework v14.24.0.0',
/* authorisation */ '');

FILE_SCHEMA (('AUTOMOTIVE_DESIGN { 1 0 10303 214 3 1 1 }'));
ENDSEC;

DATA;
#10=MECHANICAL_DESIGN_GEOMETRIC_PRESENTATION_REPRESENTATION('',(#13),#265);
#11=SHAPE_REPRESENTATION_RELATIONSHIP('SRR','None',#272,#12);
#12=ADVANCED_BREP_SHAPE_REPRESENTATION('',(#14),#264);
#13=STYLED_ITEM('',(#281),#14);
#14=MANIFOLD_SOLID_BREP('Body1',#149);
#15=CYLINDRICAL_SURFACE('',#174,50.);
#16=CYLINDRICAL_SURFACE('',#175,50.);
#17=CYLINDRICAL_SURFACE('',#176,75.);
#18=CYLINDRICAL_SURFACE('',#178,75.);
#19=FACE_BOUND('',#41,.T.);
#20=FACE_BOUND('',#42,.T.);
#21=FACE_BOUND('',#44,.T.);
#22=FACE_BOUND('',#45,.T.);
#23=CIRCLE('',#165,75.);
#24=CIRCLE('',#166,75.);
#25=CIRCLE('',#167,50.);
#26=CIRCLE('',#168,50.);
#27=CIRCLE('',#170,75.);
#28=CIRCLE('',#171,75.);
#29=CIRCLE('',#172,50.);
#30=CIRCLE('',#173,50.);
#31=FACE_OUTER_BOUND('',#39,.T.);
#32=FACE_OUTER_BOUND('',#40,.T.);
#33=FACE_OUTER_BOUND('',#43,.T.);
#34=FACE_OUTER_BOUND('',#46,.T.);
#35=FACE_OUTER_BOUND('',#47,.T.);
#36=FACE_OUTER_BOUND('',#48,.T.);
#37=FACE_OUTER_BOUND('',#49,.T.);
#38=FACE_OUTER_BOUND('',#50,.T.);
#39=EDGE_LOOP('',(#101,#102,#103,#104));
#40=EDGE_LOOP('',(#105,#106,#107,#108));
#41=EDGE_LOOP('',(#109));
#42=EDGE_LOOP('',(#110));
#43=EDGE_LOOP('',(#111,#112,#113,#114));
#44=EDGE_LOOP('',(#115));
#45=EDGE_LOOP('',(#116));
#46=EDGE_LOOP('',(#117,#118,#119,#120));
#47=EDGE_LOOP('',(#121,#122,#123,#124));
#48=EDGE_LOOP('',(#125,#126,#127,#128));
#49=EDGE_LOOP('',(#129,#130,#131,#132));
#50=EDGE_LOOP('',(#133,#134,#135,#136));
#51=LINE('',#227,#61);
#52=LINE('',#229,#62);
#53=LINE('',#231,#63);
#54=LINE('',#232,#64);
#55=LINE('',#236,#65);
#56=LINE('',#247,#66);
#57=LINE('',#254,#67);
#58=LINE('',#256,#68);
#59=LINE('',#258,#69);
#60=LINE('',#260,#70);
#61=VECTOR('',#183,10.);
#62=VECTOR('',#184,10.);
#63=VECTOR('',#185,10.);
#64=VECTOR('',#186,10.);
#65=VECTOR('',#189,10.);
#66=VECTOR('',#202,10.);
#67=VECTOR('',#211,50.);
#68=VECTOR('',#214,50.);
#69=VECTOR('',#217,10.);
#70=VECTOR('',#220,10.);
#71=VERTEX_POINT('',#225);
#72=VERTEX_POINT('',#226);
#73=VERTEX_POINT('',#228);
#74=VERTEX_POINT('',#230);
#75=VERTEX_POINT('',#234);
#76=VERTEX_POINT('',#235);
#77=VERTEX_POINT('',#239);
#78=VERTEX_POINT('',#241);
#79=VERTEX_POINT('',#244);
#80=VERTEX_POINT('',#246);
#81=VERTEX_POINT('',#249);
#82=VERTEX_POINT('',#251);
#83=EDGE_CURVE('',#71,#72,#51,.T.);
#84=EDGE_CURVE('',#73,#72,#52,.T.);
#85=EDGE_CURVE('',#73,#74,#53,.T.);
#86=EDGE_CURVE('',#71,#74,#54,.T.);
#87=EDGE_CURVE('',#75,#76,#55,.T.);
#88=EDGE_CURVE('',#76,#73,#23,.T.);
#89=EDGE_CURVE('',#72,#75,#24,.T.);
#90=EDGE_CURVE('',#77,#77,#25,.T.);
#91=EDGE_CURVE('',#78,#78,#26,.T.);
#92=EDGE_CURVE('',#74,#79,#27,.T.);
#93=EDGE_CURVE('',#79,#80,#56,.T.);
#94=EDGE_CURVE('',#80,#71,#28,.T.);
#95=EDGE_CURVE('',#81,#81,#29,.T.);
#96=EDGE_CURVE('',#82,#82,#30,.T.);
#97=EDGE_CURVE('',#77,#82,#57,.T.);
#98=EDGE_CURVE('',#78,#81,#58,.T.);
#99=EDGE_CURVE('',#79,#76,#59,.T.);
#100=EDGE_CURVE('',#80,#75,#60,.T.);
#101=ORIENTED_EDGE('',*,*,#83,.T.);
#102=ORIENTED_EDGE('',*,*,#84,.F.);
#103=ORIENTED_EDGE('',*,*,#85,.T.);
#104=ORIENTED_EDGE('',*,*,#86,.F.);
#105=ORIENTED_EDGE('',*,*,#87,.T.);
#106=ORIENTED_EDGE('',*,*,#88,.T.);
#107=ORIENTED_EDGE('',*,*,#84,.T.);
#108=ORIENTED_EDGE('',*,*,#89,.T.);
#109=ORIENTED_EDGE('',*,*,#90,.T.);
#110=ORIENTED_EDGE('',*,*,#91,.T.);
#111=ORIENTED_EDGE('',*,*,#86,.T.);
#112=ORIENTED_EDGE('',*,*,#92,.T.);
#113=ORIENTED_EDGE('',*,*,#93,.T.);
#114=ORIENTED_EDGE('',*,*,#94,.T.);
#115=ORIENTED_EDGE('',*,*,#95,.T.);
#116=ORIENTED_EDGE('',*,*,#96,.T.);
#117=ORIENTED_EDGE('',*,*,#90,.F.);
#118=ORIENTED_EDGE('',*,*,#97,.T.);
#119=ORIENTED_EDGE('',*,*,#96,.F.);
#120=ORIENTED_EDGE('',*,*,#97,.F.);
#121=ORIENTED_EDGE('',*,*,#91,.F.);
#122=ORIENTED_EDGE('',*,*,#98,.T.);
#123=ORIENTED_EDGE('',*,*,#95,.F.);
#124=ORIENTED_EDGE('',*,*,#98,.F.);
#125=ORIENTED_EDGE('',*,*,#85,.F.);
#126=ORIENTED_EDGE('',*,*,#88,.F.);
#127=ORIENTED_EDGE('',*,*,#99,.F.);
#128=ORIENTED_EDGE('',*,*,#92,.F.);
#129=ORIENTED_EDGE('',*,*,#100,.F.);
#130=ORIENTED_EDGE('',*,*,#93,.F.);
#131=ORIENTED_EDGE('',*,*,#99,.T.);
#132=ORIENTED_EDGE('',*,*,#87,.F.);
#133=ORIENTED_EDGE('',*,*,#83,.F.);
#134=ORIENTED_EDGE('',*,*,#94,.F.);
#135=ORIENTED_EDGE('',*,*,#100,.T.);
#136=ORIENTED_EDGE('',*,*,#89,.F.);
#137=PLANE('',#163);
#138=PLANE('',#164);
#139=PLANE('',#169);
#140=PLANE('',#177);
#141=ADVANCED_FACE('',(#31),#137,.T.);
#142=ADVANCED_FACE('',(#32,#19,#20),#138,.T.);
#143=ADVANCED_FACE('',(#33,#21,#22),#139,.F.);
#144=ADVANCED_FACE('',(#34),#15,.F.);
#145=ADVANCED_FACE('',(#35),#16,.F.);
#146=ADVANCED_FACE('',(#36),#17,.T.);
#147=ADVANCED_FACE('',(#37),#140,.T.);
#148=ADVANCED_FACE('',(#38),#18,.T.);
#149=CLOSED_SHELL('',(#141,#142,#143,#144,#145,#146,#147,#148));
#150=DERIVED_UNIT_ELEMENT(#152,1.);
#151=DERIVED_UNIT_ELEMENT(#267,-3.);
#152=(
MASS_UNIT()
NAMED_UNIT(*)
SI_UNIT(.KILO.,.GRAM.)
);
#153=DERIVED_UNIT((#150,#151));
#154=MEASURE_REPRESENTATION_ITEM('density measure',
POSITIVE_RATIO_MEASURE(7850.),#153);
#155=PROPERTY_DEFINITION_REPRESENTATION(#160,#157);
#156=PROPERTY_DEFINITION_REPRESENTATION(#161,#158);
#157=REPRESENTATION('material name',(#159),#264);
#158=REPRESENTATION('density',(#154),#264);
#159=DESCRIPTIVE_REPRESENTATION_ITEM('Steel','Steel');
#160=PROPERTY_DEFINITION('material property','material name',#274);
#161=PROPERTY_DEFINITION('material property','density of part',#274);
#162=AXIS2_PLACEMENT_3D('',#223,#179,#180);
#163=AXIS2_PLACEMENT_3D('',#224,#181,#182);
#164=AXIS2_PLACEMENT_3D('',#233,#187,#188);
#165=AXIS2_PLACEMENT_3D('',#237,#190,#191);
#166=AXIS2_PLACEMENT_3D('',#238,#192,#193);
#167=AXIS2_PLACEMENT_3D('',#240,#194,#195);
#168=AXIS2_PLACEMENT_3D('',#242,#196,#197);
#169=AXIS2_PLACEMENT_3D('',#243,#198,#199);
#170=AXIS2_PLACEMENT_3D('',#245,#200,#201);
#171=AXIS2_PLACEMENT_3D('',#248,#203,#204);
#172=AXIS2_PLACEMENT_3D('',#250,#205,#206);
#173=AXIS2_PLACEMENT_3D('',#252,#207,#208);
#174=AXIS2_PLACEMENT_3D('',#253,#209,#210);
#175=AXIS2_PLACEMENT_3D('',#255,#212,#213);
#176=AXIS2_PLACEMENT_3D('',#257,#215,#216);
#177=AXIS2_PLACEMENT_3D('',#259,#218,#219);
#178=AXIS2_PLACEMENT_3D('',#261,#221,#222);
#179=DIRECTION('axis',(0.,0.,1.));
#180=DIRECTION('refdir',(1.,0.,0.));
#181=DIRECTION('center_axis',(0.,0.735383193749331,0.677651502138845));
#182=DIRECTION('ref_axis',(0.,-0.677651502138845,0.735383193749331));
#183=DIRECTION('',(1.,0.,0.));
#184=DIRECTION('',(0.,-0.677651502138845,0.735383193749331));
#185=DIRECTION('',(-1.,0.,0.));
#186=DIRECTION('',(0.,0.677651502138845,-0.735383193749331));
#187=DIRECTION('center_axis',(1.,0.,0.));
#188=DIRECTION('ref_axis',(0.,1.,0.));
#189=DIRECTION('',(0.,0.677651502138845,-0.735383193749331));
#190=DIRECTION('center_axis',(1.,0.,0.));
#191=DIRECTION('ref_axis',(0.,1.,0.));
#192=DIRECTION('center_axis',(1.,0.,0.));
#193=DIRECTION('ref_axis',(0.,1.,0.));
#194=DIRECTION('center_axis',(-1.,0.,0.));
#195=DIRECTION('ref_axis',(0.,1.,0.));
#196=DIRECTION('center_axis',(-1.,0.,0.));
#197=DIRECTION('ref_axis',(0.,1.,0.));
#198=DIRECTION('center_axis',(1.,0.,0.));
#199=DIRECTION('ref_axis',(0.,1.,0.));
#200=DIRECTION('center_axis',(-1.,0.,0.));
#201=DIRECTION('ref_axis',(0.,1.,0.));
#202=DIRECTION('',(0.,-0.677651502138845,0.735383193749331));
#203=DIRECTION('center_axis',(-1.,0.,0.));
#204=DIRECTION('ref_axis',(0.,1.,0.));
#205=DIRECTION('center_axis',(1.,0.,0.));
#206=DIRECTION('ref_axis',(0.,1.,0.));
#207=DIRECTION('center_axis',(1.,0.,0.));
#208=DIRECTION('ref_axis',(0.,1.,0.));
#209=DIRECTION('center_axis',(1.,0.,0.));
#210=DIRECTION('ref_axis',(0.,1.,0.));
#211=DIRECTION('',(-1.,0.,0.));
#212=DIRECTION('center_axis',(1.,0.,0.));
#213=DIRECTION('ref_axis',(0.,1.,0.));
#214=DIRECTION('',(-1.,0.,0.));
#215=DIRECTION('center_axis',(1.,0.,0.));
#216=DIRECTION('ref_axis',(0.,1.,0.));
#217=DIRECTION('',(1.,0.,0.));
#218=DIRECTION('center_axis',(0.,-0.735383193749331,-0.677651502138845));
#219=DIRECTION('ref_axis',(0.,0.677651502138845,-0.735383193749331));
#220=DIRECTION('',(1.,0.,0.));
#221=DIRECTION('center_axis',(1.,0.,0.));
#222=DIRECTION('ref_axis',(0.,-0.677651502138844,0.735383193749332));
#223=CARTESIAN_POINT('',(0.,0.,0.));
#224=CARTESIAN_POINT('Origin',(-1454.5,-1200.88110972502,-163.202006092319));
#225=CARTESIAN_POINT('',(-1544.5,-1657.10447792595,331.888754441308));
#226=CARTESIAN_POINT('',(-1364.5,-1657.10447792595,331.888754441308));
#227=CARTESIAN_POINT('',(-1454.5,-1657.10447792595,331.888754441308));
#228=CARTESIAN_POINT('',(-1364.5,-1200.88110972502,-163.202006092319));
#229=CARTESIAN_POINT('',(-1364.5,-1361.49800627539,11.0984506801023));
#230=CARTESIAN_POINT('',(-1544.5,-1200.88110972502,-163.202006092319));
#231=CARTESIAN_POINT('',(-1454.5,-1200.88110972502,-163.202006092319));
#232=CARTESIAN_POINT('',(-1544.5,-1200.88110972502,-163.202006092319));
#233=CARTESIAN_POINT('Origin',(-1364.5,-1484.14653335668,33.5195115140808));
#234=CARTESIAN_POINT('',(-1364.5,-1767.41195698835,230.241029120481));
#235=CARTESIAN_POINT('',(-1364.5,-1311.18858878742,-264.849731413146));
#236=CARTESIAN_POINT('',(-1364.5,-1311.18858878742,-264.849731413146));
#237=CARTESIAN_POINT('Origin',(-1364.5,-1256.03484925622,-214.025868752733));
#238=CARTESIAN_POINT('Origin',(-1364.5,-1712.25821745715,281.064891780895));
#239=CARTESIAN_POINT('',(-1364.5,-1762.25821745715,281.064891780895));
#240=CARTESIAN_POINT('Origin',(-1364.5,-1712.25821745715,281.064891780895));
#241=CARTESIAN_POINT('',(-1364.5,-1306.03484925622,-214.025868752733));
#242=CARTESIAN_POINT('Origin',(-1364.5,-1256.03484925622,-214.025868752733));
#243=CARTESIAN_POINT('Origin',(-1544.5,-1484.14653335668,33.5195115140808));
#244=CARTESIAN_POINT('',(-1544.5,-1311.18858878742,-264.849731413146));
#245=CARTESIAN_POINT('Origin',(-1544.5,-1256.03484925622,-214.025868752733));
#246=CARTESIAN_POINT('',(-1544.5,-1767.41195698835,230.241029120481));
#247=CARTESIAN_POINT('',(-1544.5,-1311.18858878742,-264.849731413146));
#248=CARTESIAN_POINT('Origin',(-1544.5,-1712.25821745715,281.064891780895));
#249=CARTESIAN_POINT('',(-1544.5,-1306.03484925622,-214.025868752733));
#250=CARTESIAN_POINT('Origin',(-1544.5,-1256.03484925622,-214.025868752733));
#251=CARTESIAN_POINT('',(-1544.5,-1762.25821745715,281.064891780895));
#252=CARTESIAN_POINT('Origin',(-1544.5,-1712.25821745715,281.064891780895));
#253=CARTESIAN_POINT('Origin',(-1454.5,-1712.25821745715,281.064891780895));
#254=CARTESIAN_POINT('',(-1454.5,-1762.25821745715,281.064891780895));
#255=CARTESIAN_POINT('Origin',(-1454.5,-1256.03484925622,-214.025868752733));
#256=CARTESIAN_POINT('',(-1454.5,-1306.03484925622,-214.025868752733));
#257=CARTESIAN_POINT('Origin',(-1454.5,-1256.03484925622,-214.025868752733));
#258=CARTESIAN_POINT('',(-1454.5,-1311.18858878742,-264.849731413146));
#259=CARTESIAN_POINT('Origin',(-1454.5,-1767.41195698835,230.241029120481));
#260=CARTESIAN_POINT('',(-1454.5,-1767.41195698835,230.241029120481));
#261=CARTESIAN_POINT('Origin',(-1454.5,-1712.25821745715,281.064891780895));
#262=UNCERTAINTY_MEASURE_WITH_UNIT(LENGTH_MEASURE(0.01),#266,
'DISTANCE_ACCURACY_VALUE',
'Maximum model space distance between geometric entities at asserted c
onnectivities');
#263=UNCERTAINTY_MEASURE_WITH_UNIT(LENGTH_MEASURE(0.01),#266,
'DISTANCE_ACCURACY_VALUE',
'Maximum model space distance between geometric entities at asserted c
onnectivities');
#264=(
GEOMETRIC_REPRESENTATION_CONTEXT(3)
GLOBAL_UNCERTAINTY_ASSIGNED_CONTEXT((#262))
GLOBAL_UNIT_ASSIGNED_CONTEXT((#266,#268,#269))
REPRESENTATION_CONTEXT('','3D')
);
#265=(
GEOMETRIC_REPRESENTATION_CONTEXT(3)
GLOBAL_UNCERTAINTY_ASSIGNED_CONTEXT((#263))
GLOBAL_UNIT_ASSIGNED_CONTEXT((#266,#268,#269))
REPRESENTATION_CONTEXT('','3D')
);
#266=(
LENGTH_UNIT()
NAMED_UNIT(*)
SI_UNIT(.MILLI.,.METRE.)
);
#267=(
LENGTH_UNIT()
NAMED_UNIT(*)
SI_UNIT($,.METRE.)
);
#268=(
NAMED_UNIT(*)
PLANE_ANGLE_UNIT()
SI_UNIT($,.RADIAN.)
);
#269=(
NAMED_UNIT(*)
SI_UNIT($,.STERADIAN.)
SOLID_ANGLE_UNIT()
);
#270=SHAPE_DEFINITION_REPRESENTATION(#271,#272);
#271=PRODUCT_DEFINITION_SHAPE('',$,#274);
#272=SHAPE_REPRESENTATION('',(#162),#264);
#273=PRODUCT_DEFINITION_CONTEXT('part definition',#278,'design');
#274=PRODUCT_DEFINITION('BucketLink','BucketLink',#275,#273);
#275=PRODUCT_DEFINITION_FORMATION('',$,#280);
#276=PRODUCT_RELATED_PRODUCT_CATEGORY('BucketLink','BucketLink',(#280));
#277=APPLICATION_PROTOCOL_DEFINITION('international standard',
'automotive_design',2009,#278);
#278=APPLICATION_CONTEXT(
'Core Data for Automotive Mechanical Design Process');
#279=PRODUCT_CONTEXT('part definition',#278,'mechanical');
#280=PRODUCT('BucketLink','BucketLink',$,(#279));
#281=PRESENTATION_STYLE_ASSIGNMENT((#282));
#282=SURFACE_STYLE_USAGE(.BOTH.,#283);
#283=SURFACE_SIDE_STYLE('',(#284));
#284=SURFACE_STYLE_FILL_AREA(#285);
#285=FILL_AREA_STYLE('Steel - Satin',(#286));
#286=FILL_AREA_STYLE_COLOUR('Steel - Satin',#287);
#287=COLOUR_RGB('Steel - Satin',0.627450980392157,0.627450980392157,0.627450980392157);
ENDSEC;
END-ISO-10303-21;
