ISO-10303-21;
HEADER;
/* Generated by software containing ST-Developer
 * from STEP Tools, Inc. (www.steptools.com) 
 */

FILE_DESCRIPTION(
/* description */ (''),
/* implementation_level */ '2;1');

FILE_NAME(
/* name */ 'BucketTiltRod.step',
/* time_stamp */ '2026-03-29T20:35:29-04:00',
/* author */ (''),
/* organization */ (''),
/* preprocessor_version */ 'ST-DEVELOPER v20.1',
/* originating_system */ 'Autodesk Translation Framework v14.24.0.0',
/* authorisation */ '');

FILE_SCHEMA (('AUTOMOTIVE_DESIGN { 1 0 10303 214 3 1 1 }'));
ENDSEC;

DATA;
#10=MECHANICAL_DESIGN_GEOMETRIC_PRESENTATION_REPRESENTATION('',(#13),#309);
#11=SHAPE_REPRESENTATION_RELATIONSHIP('SRR','None',#316,#12);
#12=ADVANCED_BREP_SHAPE_REPRESENTATION('',(#14),#308);
#13=STYLED_ITEM('',(#325),#14);
#14=MANIFOLD_SOLID_BREP('Body1',#175);
#15=FACE_BOUND('',#64,.T.);
#16=FACE_BOUND('',#69,.T.);
#17=CYLINDRICAL_SURFACE('',#194,50.);
#18=CYLINDRICAL_SURFACE('',#201,50.);
#19=CYLINDRICAL_SURFACE('',#204,99.9999999999999);
#20=LINE('',#266,#34);
#21=LINE('',#268,#35);
#22=LINE('',#270,#36);
#23=LINE('',#275,#37);
#24=LINE('',#280,#38);
#25=LINE('',#281,#39);
#26=LINE('',#282,#40);
#27=LINE('',#285,#41);
#28=LINE('',#287,#42);
#29=LINE('',#288,#43);
#30=LINE('',#291,#44);
#31=LINE('',#297,#45);
#32=LINE('',#301,#46);
#33=LINE('',#302,#47);
#34=VECTOR('',#215,10.);
#35=VECTOR('',#216,10.);
#36=VECTOR('',#217,10.);
#37=VECTOR('',#224,50.);
#38=VECTOR('',#229,10.);
#39=VECTOR('',#230,10.);
#40=VECTOR('',#231,10.);
#41=VECTOR('',#234,10.);
#42=VECTOR('',#235,10.);
#43=VECTOR('',#236,10.);
#44=VECTOR('',#239,10.);
#45=VECTOR('',#246,50.);
#46=VECTOR('',#251,10.);
#47=VECTOR('',#252,10.);
#48=FACE_OUTER_BOUND('',#58,.T.);
#49=FACE_OUTER_BOUND('',#59,.T.);
#50=FACE_OUTER_BOUND('',#60,.T.);
#51=FACE_OUTER_BOUND('',#61,.T.);
#52=FACE_OUTER_BOUND('',#62,.T.);
#53=FACE_OUTER_BOUND('',#63,.T.);
#54=FACE_OUTER_BOUND('',#65,.T.);
#55=FACE_OUTER_BOUND('',#66,.T.);
#56=FACE_OUTER_BOUND('',#67,.T.);
#57=FACE_OUTER_BOUND('',#68,.T.);
#58=EDGE_LOOP('',(#114));
#59=EDGE_LOOP('',(#115,#116,#117,#118,#119));
#60=EDGE_LOOP('',(#120,#121,#122,#123,#124,#125));
#61=EDGE_LOOP('',(#126,#127,#128,#129));
#62=EDGE_LOOP('',(#130,#131,#132,#133,#134));
#63=EDGE_LOOP('',(#135,#136,#137,#138));
#64=EDGE_LOOP('',(#139));
#65=EDGE_LOOP('',(#140,#141,#142,#143));
#66=EDGE_LOOP('',(#144,#145,#146,#147,#148));
#67=EDGE_LOOP('',(#149,#150,#151,#152));
#68=EDGE_LOOP('',(#153,#154,#155,#156));
#69=EDGE_LOOP('',(#157));
#70=CIRCLE('',#190,50.);
#71=CIRCLE('',#192,50.);
#72=CIRCLE('',#193,50.);
#73=CIRCLE('',#195,50.);
#74=CIRCLE('',#199,99.9999999999999);
#75=CIRCLE('',#200,50.);
#76=CIRCLE('',#202,50.);
#77=CIRCLE('',#205,99.9999999999999);
#78=VERTEX_POINT('',#261);
#79=VERTEX_POINT('',#264);
#80=VERTEX_POINT('',#265);
#81=VERTEX_POINT('',#267);
#82=VERTEX_POINT('',#269);
#83=VERTEX_POINT('',#271);
#84=VERTEX_POINT('',#278);
#85=VERTEX_POINT('',#279);
#86=VERTEX_POINT('',#284);
#87=VERTEX_POINT('',#286);
#88=VERTEX_POINT('',#290);
#89=VERTEX_POINT('',#293);
#90=VERTEX_POINT('',#296);
#91=VERTEX_POINT('',#300);
#92=EDGE_CURVE('',#78,#78,#70,.T.);
#93=EDGE_CURVE('',#79,#80,#20,.T.);
#94=EDGE_CURVE('',#81,#79,#21,.T.);
#95=EDGE_CURVE('',#82,#81,#22,.T.);
#96=EDGE_CURVE('',#83,#82,#71,.T.);
#97=EDGE_CURVE('',#80,#83,#72,.T.);
#98=EDGE_CURVE('',#78,#83,#23,.T.);
#99=EDGE_CURVE('',#82,#80,#73,.T.);
#100=EDGE_CURVE('',#84,#85,#24,.T.);
#101=EDGE_CURVE('',#80,#84,#25,.T.);
#102=EDGE_CURVE('',#85,#82,#26,.T.);
#103=EDGE_CURVE('',#86,#81,#27,.T.);
#104=EDGE_CURVE('',#87,#86,#28,.T.);
#105=EDGE_CURVE('',#87,#85,#29,.T.);
#106=EDGE_CURVE('',#79,#88,#30,.T.);
#107=EDGE_CURVE('',#88,#86,#74,.T.);
#108=EDGE_CURVE('',#89,#89,#75,.T.);
#109=EDGE_CURVE('',#89,#90,#31,.T.);
#110=EDGE_CURVE('',#90,#90,#76,.T.);
#111=EDGE_CURVE('',#91,#84,#32,.T.);
#112=EDGE_CURVE('',#91,#88,#33,.T.);
#113=EDGE_CURVE('',#91,#87,#77,.T.);
#114=ORIENTED_EDGE('',*,*,#92,.T.);
#115=ORIENTED_EDGE('',*,*,#93,.F.);
#116=ORIENTED_EDGE('',*,*,#94,.F.);
#117=ORIENTED_EDGE('',*,*,#95,.F.);
#118=ORIENTED_EDGE('',*,*,#96,.F.);
#119=ORIENTED_EDGE('',*,*,#97,.F.);
#120=ORIENTED_EDGE('',*,*,#92,.F.);
#121=ORIENTED_EDGE('',*,*,#98,.T.);
#122=ORIENTED_EDGE('',*,*,#96,.T.);
#123=ORIENTED_EDGE('',*,*,#99,.T.);
#124=ORIENTED_EDGE('',*,*,#97,.T.);
#125=ORIENTED_EDGE('',*,*,#98,.F.);
#126=ORIENTED_EDGE('',*,*,#100,.F.);
#127=ORIENTED_EDGE('',*,*,#101,.F.);
#128=ORIENTED_EDGE('',*,*,#99,.F.);
#129=ORIENTED_EDGE('',*,*,#102,.F.);
#130=ORIENTED_EDGE('',*,*,#102,.T.);
#131=ORIENTED_EDGE('',*,*,#95,.T.);
#132=ORIENTED_EDGE('',*,*,#103,.F.);
#133=ORIENTED_EDGE('',*,*,#104,.F.);
#134=ORIENTED_EDGE('',*,*,#105,.T.);
#135=ORIENTED_EDGE('',*,*,#94,.T.);
#136=ORIENTED_EDGE('',*,*,#106,.T.);
#137=ORIENTED_EDGE('',*,*,#107,.T.);
#138=ORIENTED_EDGE('',*,*,#103,.T.);
#139=ORIENTED_EDGE('',*,*,#108,.T.);
#140=ORIENTED_EDGE('',*,*,#108,.F.);
#141=ORIENTED_EDGE('',*,*,#109,.T.);
#142=ORIENTED_EDGE('',*,*,#110,.T.);
#143=ORIENTED_EDGE('',*,*,#109,.F.);
#144=ORIENTED_EDGE('',*,*,#101,.T.);
#145=ORIENTED_EDGE('',*,*,#111,.F.);
#146=ORIENTED_EDGE('',*,*,#112,.T.);
#147=ORIENTED_EDGE('',*,*,#106,.F.);
#148=ORIENTED_EDGE('',*,*,#93,.T.);
#149=ORIENTED_EDGE('',*,*,#113,.T.);
#150=ORIENTED_EDGE('',*,*,#104,.T.);
#151=ORIENTED_EDGE('',*,*,#107,.F.);
#152=ORIENTED_EDGE('',*,*,#112,.F.);
#153=ORIENTED_EDGE('',*,*,#100,.T.);
#154=ORIENTED_EDGE('',*,*,#105,.F.);
#155=ORIENTED_EDGE('',*,*,#113,.F.);
#156=ORIENTED_EDGE('',*,*,#111,.T.);
#157=ORIENTED_EDGE('',*,*,#110,.F.);
#158=PLANE('',#189);
#159=PLANE('',#191);
#160=PLANE('',#196);
#161=PLANE('',#197);
#162=PLANE('',#198);
#163=PLANE('',#203);
#164=PLANE('',#206);
#165=ADVANCED_FACE('',(#48),#158,.T.);
#166=ADVANCED_FACE('',(#49),#159,.T.);
#167=ADVANCED_FACE('',(#50),#17,.T.);
#168=ADVANCED_FACE('',(#51),#160,.T.);
#169=ADVANCED_FACE('',(#52),#161,.T.);
#170=ADVANCED_FACE('',(#53,#15),#162,.T.);
#171=ADVANCED_FACE('',(#54),#18,.F.);
#172=ADVANCED_FACE('',(#55),#163,.T.);
#173=ADVANCED_FACE('',(#56),#19,.T.);
#174=ADVANCED_FACE('',(#57,#16),#164,.F.);
#175=CLOSED_SHELL('',(#165,#166,#167,#168,#169,#170,#171,#172,#173,#174));
#176=DERIVED_UNIT_ELEMENT(#178,1.);
#177=DERIVED_UNIT_ELEMENT(#311,-3.);
#178=(
MASS_UNIT()
NAMED_UNIT(*)
SI_UNIT(.KILO.,.GRAM.)
);
#179=DERIVED_UNIT((#176,#177));
#180=MEASURE_REPRESENTATION_ITEM('density measure',
POSITIVE_RATIO_MEASURE(7850.),#179);
#181=PROPERTY_DEFINITION_REPRESENTATION(#186,#183);
#182=PROPERTY_DEFINITION_REPRESENTATION(#187,#184);
#183=REPRESENTATION('material name',(#185),#308);
#184=REPRESENTATION('density',(#180),#308);
#185=DESCRIPTIVE_REPRESENTATION_ITEM('Steel','Steel');
#186=PROPERTY_DEFINITION('material property','material name',#318);
#187=PROPERTY_DEFINITION('material property','density of part',#318);
#188=AXIS2_PLACEMENT_3D('',#259,#207,#208);
#189=AXIS2_PLACEMENT_3D('',#260,#209,#210);
#190=AXIS2_PLACEMENT_3D('',#262,#211,#212);
#191=AXIS2_PLACEMENT_3D('',#263,#213,#214);
#192=AXIS2_PLACEMENT_3D('',#272,#218,#219);
#193=AXIS2_PLACEMENT_3D('',#273,#220,#221);
#194=AXIS2_PLACEMENT_3D('',#274,#222,#223);
#195=AXIS2_PLACEMENT_3D('',#276,#225,#226);
#196=AXIS2_PLACEMENT_3D('',#277,#227,#228);
#197=AXIS2_PLACEMENT_3D('',#283,#232,#233);
#198=AXIS2_PLACEMENT_3D('',#289,#237,#238);
#199=AXIS2_PLACEMENT_3D('',#292,#240,#241);
#200=AXIS2_PLACEMENT_3D('',#294,#242,#243);
#201=AXIS2_PLACEMENT_3D('',#295,#244,#245);
#202=AXIS2_PLACEMENT_3D('',#298,#247,#248);
#203=AXIS2_PLACEMENT_3D('',#299,#249,#250);
#204=AXIS2_PLACEMENT_3D('',#303,#253,#254);
#205=AXIS2_PLACEMENT_3D('',#304,#255,#256);
#206=AXIS2_PLACEMENT_3D('',#305,#257,#258);
#207=DIRECTION('axis',(0.,0.,1.));
#208=DIRECTION('refdir',(1.,0.,0.));
#209=DIRECTION('center_axis',(0.,1.,4.73316996540786E-30));
#210=DIRECTION('ref_axis',(-2.04310663659769E-18,-4.73316996540786E-30,
1.));
#211=DIRECTION('center_axis',(0.,1.,4.73316996540786E-30));
#212=DIRECTION('ref_axis',(-1.,0.,0.));
#213=DIRECTION('center_axis',(0.,1.,0.));
#214=DIRECTION('ref_axis',(-1.,0.,0.));
#215=DIRECTION('',(-1.,0.,0.));
#216=DIRECTION('',(-2.0431066365977E-18,0.,1.));
#217=DIRECTION('',(1.,0.,0.));
#218=DIRECTION('center_axis',(0.,1.,0.));
#219=DIRECTION('ref_axis',(-1.,0.,0.));
#220=DIRECTION('center_axis',(0.,1.,0.));
#221=DIRECTION('ref_axis',(-1.,0.,0.));
#222=DIRECTION('center_axis',(0.,-1.,0.));
#223=DIRECTION('ref_axis',(-1.,0.,0.));
#224=DIRECTION('',(0.,-1.,0.));
#225=DIRECTION('center_axis',(0.,1.,0.));
#226=DIRECTION('ref_axis',(-1.,0.,0.));
#227=DIRECTION('center_axis',(0.,1.,0.));
#228=DIRECTION('ref_axis',(-1.,0.,0.));
#229=DIRECTION('',(2.0431066365977E-18,0.,-1.));
#230=DIRECTION('',(-1.,0.,0.));
#231=DIRECTION('',(1.,0.,0.));
#232=DIRECTION('center_axis',(0.,4.73316543132608E-30,-1.));
#233=DIRECTION('ref_axis',(-2.21920956140939E-18,1.,4.73316543132608E-30));
#234=DIRECTION('',(-2.21920956140939E-18,1.,4.73316543132608E-30));
#235=DIRECTION('',(1.,0.,0.));
#236=DIRECTION('',(-2.21920956140939E-18,1.,4.73316543132608E-30));
#237=DIRECTION('center_axis',(1.,2.21920956140939E-18,2.0431066365977E-18));
#238=DIRECTION('ref_axis',(-2.21920956140939E-18,1.,4.73316543132608E-30));
#239=DIRECTION('',(2.21920956140939E-18,-1.,-4.73316543132608E-30));
#240=DIRECTION('center_axis',(1.,2.21920956140939E-18,2.04310663659769E-18));
#241=DIRECTION('ref_axis',(-2.21920956140939E-18,1.,4.73316543132608E-30));
#242=DIRECTION('center_axis',(-1.,-2.21920956140939E-18,-2.04310663659769E-18));
#243=DIRECTION('ref_axis',(-2.21920956140939E-18,1.,4.73316543132608E-30));
#244=DIRECTION('center_axis',(1.,0.,0.));
#245=DIRECTION('ref_axis',(0.,1.,4.73316543132608E-30));
#246=DIRECTION('',(-1.,0.,0.));
#247=DIRECTION('center_axis',(-1.,-2.21920956140939E-18,-2.04310663659769E-18));
#248=DIRECTION('ref_axis',(-2.21920956140939E-18,1.,4.73316543132608E-30));
#249=DIRECTION('center_axis',(0.,-4.73316543132608E-30,1.));
#250=DIRECTION('ref_axis',(2.21920956140939E-18,-1.,-4.73316543132608E-30));
#251=DIRECTION('',(-2.21920956140939E-18,1.,4.73316543132608E-30));
#252=DIRECTION('',(1.,0.,0.));
#253=DIRECTION('center_axis',(1.,0.,0.));
#254=DIRECTION('ref_axis',(0.,-1.,-3.21624529935332E-16));
#255=DIRECTION('center_axis',(1.,2.21920956140939E-18,2.04310663659769E-18));
#256=DIRECTION('ref_axis',(-2.21920956140939E-18,1.,4.73316543132608E-30));
#257=DIRECTION('center_axis',(1.,2.21920956140939E-18,2.0431066365977E-18));
#258=DIRECTION('ref_axis',(-2.21920956140939E-18,1.,4.73316543132608E-30));
#259=CARTESIAN_POINT('',(0.,0.,0.));
#260=CARTESIAN_POINT('Origin',(-1529.5,528.96515074378,1070.97413124727));
#261=CARTESIAN_POINT('',(-1404.5,528.96515074378,1120.97413124727));
#262=CARTESIAN_POINT('Origin',(-1454.5,528.96515074378,1120.97413124727));
#263=CARTESIAN_POINT('Origin',(-1417.,-754.43184925622,1120.97413124727));
#264=CARTESIAN_POINT('',(-1379.5,-754.43184925622,1170.97413124727));
#265=CARTESIAN_POINT('',(-1454.5,-754.43184925622,1170.97413124727));
#266=CARTESIAN_POINT('',(-1473.25,-754.43184925622,1170.97413124727));
#267=CARTESIAN_POINT('',(-1379.5,-754.43184925622,1070.97413124727));
#268=CARTESIAN_POINT('',(-1379.5,-754.43184925622,1120.97413124727));
#269=CARTESIAN_POINT('',(-1454.5,-754.43184925622,1070.97413124727));
#270=CARTESIAN_POINT('',(-1473.25,-754.43184925622,1070.97413124727));
#271=CARTESIAN_POINT('',(-1404.5,-754.43184925622,1120.97413124727));
#272=CARTESIAN_POINT('Origin',(-1454.5,-754.43184925622,1120.97413124727));
#273=CARTESIAN_POINT('Origin',(-1454.5,-754.43184925622,1120.97413124727));
#274=CARTESIAN_POINT('Origin',(-1454.5,708.96515074378,1120.97413124727));
#275=CARTESIAN_POINT('',(-1404.5,708.96515074378,1120.97413124727));
#276=CARTESIAN_POINT('Origin',(-1454.5,-754.43184925622,1120.97413124727));
#277=CARTESIAN_POINT('Origin',(-1492.,-754.43184925622,1120.97413124727));
#278=CARTESIAN_POINT('',(-1529.5,-754.43184925622,1170.97413124727));
#279=CARTESIAN_POINT('',(-1529.5,-754.43184925622,1070.97413124727));
#280=CARTESIAN_POINT('',(-1529.5,-754.43184925622,1120.97413124727));
#281=CARTESIAN_POINT('',(-1510.75,-754.43184925622,1170.97413124727));
#282=CARTESIAN_POINT('',(-1510.75,-754.43184925622,1070.97413124727));
#283=CARTESIAN_POINT('Origin',(-1529.5,-754.432308877776,1070.97413124727));
#284=CARTESIAN_POINT('',(-1379.5,-754.432308877776,1070.97413124727));
#285=CARTESIAN_POINT('',(-1379.5,-841.03484925622,1070.97413124727));
#286=CARTESIAN_POINT('',(-1529.5,-754.432308877776,1070.97413124727));
#287=CARTESIAN_POINT('',(-1529.5,-754.432308877776,1070.97413124727));
#288=CARTESIAN_POINT('',(-1529.5,-841.03484925622,1070.97413124727));
#289=CARTESIAN_POINT('Origin',(-1379.5,-116.03484925622,1120.97413124727));
#290=CARTESIAN_POINT('',(-1379.5,-754.432308877776,1170.97413124727));
#291=CARTESIAN_POINT('',(-1379.5,-841.03484925622,1170.97413124727));
#292=CARTESIAN_POINT('Origin',(-1379.5,-841.03484925622,1120.97413124727));
#293=CARTESIAN_POINT('',(-1379.5,-891.03484925622,1120.97413124727));
#294=CARTESIAN_POINT('Origin',(-1379.5,-841.03484925622,1120.97413124727));
#295=CARTESIAN_POINT('Origin',(-1529.5,-841.03484925622,1120.97413124727));
#296=CARTESIAN_POINT('',(-1529.5,-891.03484925622,1120.97413124727));
#297=CARTESIAN_POINT('',(-1529.5,-891.03484925622,1120.97413124727));
#298=CARTESIAN_POINT('Origin',(-1529.5,-841.03484925622,1120.97413124727));
#299=CARTESIAN_POINT('Origin',(-1529.5,708.96515074378,1170.97413124727));
#300=CARTESIAN_POINT('',(-1529.5,-754.432308877776,1170.97413124727));
#301=CARTESIAN_POINT('',(-1529.5,-841.03484925622,1170.97413124727));
#302=CARTESIAN_POINT('',(-1529.5,-754.432308877776,1170.97413124727));
#303=CARTESIAN_POINT('Origin',(-1529.5,-841.03484925622,1120.97413124727));
#304=CARTESIAN_POINT('Origin',(-1529.5,-841.03484925622,1120.97413124727));
#305=CARTESIAN_POINT('Origin',(-1529.5,-116.03484925622,1120.97413124727));
#306=UNCERTAINTY_MEASURE_WITH_UNIT(LENGTH_MEASURE(0.01),#310,
'DISTANCE_ACCURACY_VALUE',
'Maximum model space distance between geometric entities at asserted c
onnectivities');
#307=UNCERTAINTY_MEASURE_WITH_UNIT(LENGTH_MEASURE(0.01),#310,
'DISTANCE_ACCURACY_VALUE',
'Maximum model space distance between geometric entities at asserted c
onnectivities');
#308=(
GEOMETRIC_REPRESENTATION_CONTEXT(3)
GLOBAL_UNCERTAINTY_ASSIGNED_CONTEXT((#306))
GLOBAL_UNIT_ASSIGNED_CONTEXT((#310,#312,#313))
REPRESENTATION_CONTEXT('','3D')
);
#309=(
GEOMETRIC_REPRESENTATION_CONTEXT(3)
GLOBAL_UNCERTAINTY_ASSIGNED_CONTEXT((#307))
GLOBAL_UNIT_ASSIGNED_CONTEXT((#310,#312,#313))
REPRESENTATION_CONTEXT('','3D')
);
#310=(
LENGTH_UNIT()
NAMED_UNIT(*)
SI_UNIT(.MILLI.,.METRE.)
);
#311=(
LENGTH_UNIT()
NAMED_UNIT(*)
SI_UNIT($,.METRE.)
);
#312=(
NAMED_UNIT(*)
PLANE_ANGLE_UNIT()
SI_UNIT($,.RADIAN.)
);
#313=(
NAMED_UNIT(*)
SI_UNIT($,.STERADIAN.)
SOLID_ANGLE_UNIT()
);
#314=SHAPE_DEFINITION_REPRESENTATION(#315,#316);
#315=PRODUCT_DEFINITION_SHAPE('',$,#318);
#316=SHAPE_REPRESENTATION('',(#188),#308);
#317=PRODUCT_DEFINITION_CONTEXT('part definition',#322,'design');
#318=PRODUCT_DEFINITION('BucketTiltRod','BucketTiltRod',#319,#317);
#319=PRODUCT_DEFINITION_FORMATION('',$,#324);
#320=PRODUCT_RELATED_PRODUCT_CATEGORY('BucketTiltRod','BucketTiltRod',(#324));
#321=APPLICATION_PROTOCOL_DEFINITION('international standard',
'automotive_design',2009,#322);
#322=APPLICATION_CONTEXT(
'Core Data for Automotive Mechanical Design Process');
#323=PRODUCT_CONTEXT('part definition',#322,'mechanical');
#324=PRODUCT('BucketTiltRod','BucketTiltRod',$,(#323));
#325=PRESENTATION_STYLE_ASSIGNMENT((#326));
#326=SURFACE_STYLE_USAGE(.BOTH.,#327);
#327=SURFACE_SIDE_STYLE('',(#328));
#328=SURFACE_STYLE_FILL_AREA(#329);
#329=FILL_AREA_STYLE('Steel - Satin',(#330));
#330=FILL_AREA_STYLE_COLOUR('Steel - Satin',#331);
#331=COLOUR_RGB('Steel - Satin',0.627450980392157,0.627450980392157,0.627450980392157);
ENDSEC;
END-ISO-10303-21;
