ISO-10303-21;
HEADER;
/* Generated by software containing ST-Developer
 * from STEP Tools, Inc. (www.steptools.com) 
 */

FILE_DESCRIPTION(
/* description */ (''),
/* implementation_level */ '2;1');

FILE_NAME(
/* name */ 'BucketTiltRockerArm.step',
/* time_stamp */ '2026-03-29T20:35:19-04:00',
/* author */ (''),
/* organization */ (''),
/* preprocessor_version */ 'ST-DEVELOPER v20.1',
/* originating_system */ 'Autodesk Translation Framework v14.24.0.0',
/* authorisation */ '');

FILE_SCHEMA (('AUTOMOTIVE_DESIGN { 1 0 10303 214 3 1 1 }'));
ENDSEC;

DATA;
#10=MECHANICAL_DESIGN_GEOMETRIC_PRESENTATION_REPRESENTATION('',(#13),#837);
#11=SHAPE_REPRESENTATION_RELATIONSHIP('SRR','None',#844,#12);
#12=ADVANCED_BREP_SHAPE_REPRESENTATION('',(#14),#836);
#13=STYLED_ITEM('',(#853),#14);
#14=MANIFOLD_SOLID_BREP('Body1',#465);
#15=FACE_BOUND('',#61,.T.);
#16=FACE_BOUND('',#63,.T.);
#17=FACE_BOUND('',#71,.T.);
#18=FACE_BOUND('',#75,.T.);
#19=FACE_BOUND('',#79,.T.);
#20=FACE_BOUND('',#80,.T.);
#21=FACE_BOUND('',#81,.T.);
#22=FACE_BOUND('',#88,.T.);
#23=FACE_BOUND('',#89,.T.);
#24=FACE_BOUND('',#90,.T.);
#25=PLANE('',#482);
#26=PLANE('',#486);
#27=PLANE('',#491);
#28=PLANE('',#510);
#29=PLANE('',#511);
#30=PLANE('',#520);
#31=PLANE('',#528);
#32=PLANE('',#542);
#33=FACE_OUTER_BOUND('',#57,.T.);
#34=FACE_OUTER_BOUND('',#58,.T.);
#35=FACE_OUTER_BOUND('',#59,.T.);
#36=FACE_OUTER_BOUND('',#60,.T.);
#37=FACE_OUTER_BOUND('',#62,.T.);
#38=FACE_OUTER_BOUND('',#64,.T.);
#39=FACE_OUTER_BOUND('',#65,.T.);
#40=FACE_OUTER_BOUND('',#66,.T.);
#41=FACE_OUTER_BOUND('',#67,.T.);
#42=FACE_OUTER_BOUND('',#68,.T.);
#43=FACE_OUTER_BOUND('',#69,.T.);
#44=FACE_OUTER_BOUND('',#70,.T.);
#45=FACE_OUTER_BOUND('',#72,.T.);
#46=FACE_OUTER_BOUND('',#73,.T.);
#47=FACE_OUTER_BOUND('',#74,.T.);
#48=FACE_OUTER_BOUND('',#76,.T.);
#49=FACE_OUTER_BOUND('',#77,.T.);
#50=FACE_OUTER_BOUND('',#78,.T.);
#51=FACE_OUTER_BOUND('',#82,.T.);
#52=FACE_OUTER_BOUND('',#83,.T.);
#53=FACE_OUTER_BOUND('',#84,.T.);
#54=FACE_OUTER_BOUND('',#85,.T.);
#55=FACE_OUTER_BOUND('',#86,.T.);
#56=FACE_OUTER_BOUND('',#87,.T.);
#57=EDGE_LOOP('',(#293,#294,#295,#296));
#58=EDGE_LOOP('',(#297,#298,#299,#300));
#59=EDGE_LOOP('',(#301,#302,#303,#304));
#60=EDGE_LOOP('',(#305,#306,#307,#308,#309,#310));
#61=EDGE_LOOP('',(#311));
#62=EDGE_LOOP('',(#312,#313,#314,#315,#316,#317));
#63=EDGE_LOOP('',(#318));
#64=EDGE_LOOP('',(#319,#320,#321,#322));
#65=EDGE_LOOP('',(#323,#324,#325,#326));
#66=EDGE_LOOP('',(#327,#328,#329,#330,#331,#332,#333,#334,#335,#336,#337,
#338));
#67=EDGE_LOOP('',(#339,#340,#341,#342));
#68=EDGE_LOOP('',(#343,#344,#345,#346));
#69=EDGE_LOOP('',(#347,#348,#349,#350));
#70=EDGE_LOOP('',(#351,#352,#353,#354,#355));
#71=EDGE_LOOP('',(#356));
#72=EDGE_LOOP('',(#357,#358,#359,#360));
#73=EDGE_LOOP('',(#361,#362,#363,#364));
#74=EDGE_LOOP('',(#365,#366,#367,#368,#369));
#75=EDGE_LOOP('',(#370));
#76=EDGE_LOOP('',(#371,#372,#373,#374));
#77=EDGE_LOOP('',(#375,#376,#377,#378));
#78=EDGE_LOOP('',(#379,#380,#381,#382,#383,#384));
#79=EDGE_LOOP('',(#385));
#80=EDGE_LOOP('',(#386));
#81=EDGE_LOOP('',(#387));
#82=EDGE_LOOP('',(#388,#389,#390,#391));
#83=EDGE_LOOP('',(#392,#393,#394,#395));
#84=EDGE_LOOP('',(#396,#397,#398,#399));
#85=EDGE_LOOP('',(#400,#401,#402,#403,#404,#405,#406,#407));
#86=EDGE_LOOP('',(#408,#409,#410,#411,#412,#413,#414,#415));
#87=EDGE_LOOP('',(#416,#417,#418,#419,#420,#421));
#88=EDGE_LOOP('',(#422));
#89=EDGE_LOOP('',(#423));
#90=EDGE_LOOP('',(#424));
#91=LINE('',#705,#117);
#92=LINE('',#708,#118);
#93=LINE('',#711,#119);
#94=LINE('',#713,#120);
#95=LINE('',#714,#121);
#96=LINE('',#720,#122);
#97=LINE('',#739,#123);
#98=LINE('',#742,#124);
#99=LINE('',#745,#125);
#100=LINE('',#748,#126);
#101=LINE('',#753,#127);
#102=LINE('',#757,#128);
#103=LINE('',#761,#129);
#104=LINE('',#766,#130);
#105=LINE('',#771,#131);
#106=LINE('',#775,#132);
#107=LINE('',#777,#133);
#108=LINE('',#778,#134);
#109=LINE('',#789,#135);
#110=LINE('',#794,#136);
#111=LINE('',#802,#137);
#112=LINE('',#806,#138);
#113=LINE('',#810,#139);
#114=LINE('',#822,#140);
#115=LINE('',#826,#141);
#116=LINE('',#828,#142);
#117=VECTOR('',#549,10.);
#118=VECTOR('',#552,10.);
#119=VECTOR('',#555,10.);
#120=VECTOR('',#556,10.);
#121=VECTOR('',#557,10.);
#122=VECTOR('',#564,10.);
#123=VECTOR('',#587,10.);
#124=VECTOR('',#590,10.);
#125=VECTOR('',#593,10.);
#126=VECTOR('',#596,10.);
#127=VECTOR('',#601,10.);
#128=VECTOR('',#604,10.);
#129=VECTOR('',#607,10.);
#130=VECTOR('',#614,50.);
#131=VECTOR('',#619,10.);
#132=VECTOR('',#624,10.);
#133=VECTOR('',#625,10.);
#134=VECTOR('',#626,10.);
#135=VECTOR('',#639,10.);
#136=VECTOR('',#646,10.);
#137=VECTOR('',#657,50.);
#138=VECTOR('',#660,10.);
#139=VECTOR('',#663,10.);
#140=VECTOR('',#680,50.);
#141=VECTOR('',#685,50.);
#142=VECTOR('',#688,50.);
#143=CIRCLE('',#480,50.);
#144=CIRCLE('',#481,50.);
#145=CIRCLE('',#484,50.);
#146=CIRCLE('',#485,50.);
#147=CIRCLE('',#487,100.);
#148=CIRCLE('',#488,1600.85802498521);
#149=CIRCLE('',#489,555.917829051663);
#150=CIRCLE('',#490,50.);
#151=CIRCLE('',#492,100.);
#152=CIRCLE('',#493,555.917829051663);
#153=CIRCLE('',#494,1600.85802498521);
#154=CIRCLE('',#495,50.);
#155=CIRCLE('',#497,100.);
#156=CIRCLE('',#499,100.);
#157=CIRCLE('',#501,1600.85802498521);
#158=CIRCLE('',#502,1600.85802498521);
#159=CIRCLE('',#503,1600.85802498521);
#160=CIRCLE('',#504,1600.85802498521);
#161=CIRCLE('',#506,50.);
#162=CIRCLE('',#508,100.);
#163=CIRCLE('',#509,100.);
#164=CIRCLE('',#512,100.);
#165=CIRCLE('',#513,397.70905318348);
#166=CIRCLE('',#514,50.);
#167=CIRCLE('',#516,100.);
#168=CIRCLE('',#517,100.);
#169=CIRCLE('',#519,100.);
#170=CIRCLE('',#521,397.70905318348);
#171=CIRCLE('',#522,50.);
#172=CIRCLE('',#524,50.);
#173=CIRCLE('',#526,100.);
#174=CIRCLE('',#527,100.);
#175=CIRCLE('',#529,555.917829051663);
#176=CIRCLE('',#530,397.70905318348);
#177=CIRCLE('',#531,50.);
#178=CIRCLE('',#532,50.);
#179=CIRCLE('',#533,50.);
#180=CIRCLE('',#536,50.);
#181=CIRCLE('',#539,555.917829051663);
#182=CIRCLE('',#541,397.70905318348);
#183=VERTEX_POINT('',#701);
#184=VERTEX_POINT('',#702);
#185=VERTEX_POINT('',#704);
#186=VERTEX_POINT('',#706);
#187=VERTEX_POINT('',#710);
#188=VERTEX_POINT('',#712);
#189=VERTEX_POINT('',#716);
#190=VERTEX_POINT('',#718);
#191=VERTEX_POINT('',#722);
#192=VERTEX_POINT('',#723);
#193=VERTEX_POINT('',#727);
#194=VERTEX_POINT('',#730);
#195=VERTEX_POINT('',#731);
#196=VERTEX_POINT('',#735);
#197=VERTEX_POINT('',#738);
#198=VERTEX_POINT('',#740);
#199=VERTEX_POINT('',#744);
#200=VERTEX_POINT('',#746);
#201=VERTEX_POINT('',#750);
#202=VERTEX_POINT('',#752);
#203=VERTEX_POINT('',#754);
#204=VERTEX_POINT('',#756);
#205=VERTEX_POINT('',#758);
#206=VERTEX_POINT('',#760);
#207=VERTEX_POINT('',#764);
#208=VERTEX_POINT('',#768);
#209=VERTEX_POINT('',#770);
#210=VERTEX_POINT('',#774);
#211=VERTEX_POINT('',#776);
#212=VERTEX_POINT('',#780);
#213=VERTEX_POINT('',#783);
#214=VERTEX_POINT('',#786);
#215=VERTEX_POINT('',#788);
#216=VERTEX_POINT('',#792);
#217=VERTEX_POINT('',#797);
#218=VERTEX_POINT('',#800);
#219=VERTEX_POINT('',#804);
#220=VERTEX_POINT('',#805);
#221=VERTEX_POINT('',#807);
#222=VERTEX_POINT('',#809);
#223=VERTEX_POINT('',#815);
#224=VERTEX_POINT('',#817);
#225=VERTEX_POINT('',#819);
#226=VERTEX_POINT('',#824);
#227=EDGE_CURVE('',#183,#184,#143,.F.);
#228=EDGE_CURVE('',#184,#185,#91,.T.);
#229=EDGE_CURVE('',#185,#186,#144,.F.);
#230=EDGE_CURVE('',#186,#183,#92,.T.);
#231=EDGE_CURVE('',#184,#187,#93,.T.);
#232=EDGE_CURVE('',#188,#187,#94,.T.);
#233=EDGE_CURVE('',#188,#185,#95,.T.);
#234=EDGE_CURVE('',#189,#188,#145,.F.);
#235=EDGE_CURVE('',#187,#190,#146,.F.);
#236=EDGE_CURVE('',#190,#189,#96,.T.);
#237=EDGE_CURVE('',#191,#192,#147,.T.);
#238=EDGE_CURVE('',#190,#191,#148,.T.);
#239=EDGE_CURVE('',#192,#183,#149,.T.);
#240=EDGE_CURVE('',#193,#193,#150,.T.);
#241=EDGE_CURVE('',#194,#195,#151,.T.);
#242=EDGE_CURVE('',#186,#194,#152,.T.);
#243=EDGE_CURVE('',#195,#189,#153,.T.);
#244=EDGE_CURVE('',#196,#196,#154,.T.);
#245=EDGE_CURVE('',#197,#192,#97,.T.);
#246=EDGE_CURVE('',#198,#197,#155,.T.);
#247=EDGE_CURVE('',#191,#198,#98,.T.);
#248=EDGE_CURVE('',#199,#195,#99,.T.);
#249=EDGE_CURVE('',#200,#199,#156,.T.);
#250=EDGE_CURVE('',#194,#200,#100,.T.);
#251=EDGE_CURVE('',#201,#198,#157,.T.);
#252=EDGE_CURVE('',#201,#202,#101,.T.);
#253=EDGE_CURVE('',#202,#203,#158,.T.);
#254=EDGE_CURVE('',#204,#203,#102,.T.);
#255=EDGE_CURVE('',#204,#205,#159,.T.);
#256=EDGE_CURVE('',#205,#206,#103,.T.);
#257=EDGE_CURVE('',#199,#206,#160,.T.);
#258=EDGE_CURVE('',#207,#207,#161,.T.);
#259=EDGE_CURVE('',#207,#196,#104,.T.);
#260=EDGE_CURVE('',#203,#208,#162,.F.);
#261=EDGE_CURVE('',#208,#209,#105,.T.);
#262=EDGE_CURVE('',#209,#204,#163,.F.);
#263=EDGE_CURVE('',#210,#208,#106,.F.);
#264=EDGE_CURVE('',#211,#210,#107,.T.);
#265=EDGE_CURVE('',#211,#209,#108,.F.);
#266=EDGE_CURVE('',#212,#202,#164,.T.);
#267=EDGE_CURVE('',#210,#212,#165,.T.);
#268=EDGE_CURVE('',#213,#213,#166,.T.);
#269=EDGE_CURVE('',#214,#205,#167,.T.);
#270=EDGE_CURVE('',#214,#215,#109,.T.);
#271=EDGE_CURVE('',#206,#215,#168,.T.);
#272=EDGE_CURVE('',#216,#201,#169,.T.);
#273=EDGE_CURVE('',#216,#212,#110,.T.);
#274=EDGE_CURVE('',#214,#211,#170,.T.);
#275=EDGE_CURVE('',#217,#217,#171,.T.);
#276=EDGE_CURVE('',#218,#218,#172,.T.);
#277=EDGE_CURVE('',#218,#217,#111,.T.);
#278=EDGE_CURVE('',#219,#220,#112,.T.);
#279=EDGE_CURVE('',#221,#220,#173,.T.);
#280=EDGE_CURVE('',#221,#222,#113,.T.);
#281=EDGE_CURVE('',#219,#222,#174,.T.);
#282=EDGE_CURVE('',#197,#221,#175,.T.);
#283=EDGE_CURVE('',#220,#216,#176,.T.);
#284=EDGE_CURVE('',#223,#223,#177,.T.);
#285=EDGE_CURVE('',#224,#224,#178,.T.);
#286=EDGE_CURVE('',#225,#225,#179,.T.);
#287=EDGE_CURVE('',#193,#225,#114,.T.);
#288=EDGE_CURVE('',#226,#226,#180,.T.);
#289=EDGE_CURVE('',#226,#224,#115,.T.);
#290=EDGE_CURVE('',#213,#223,#116,.T.);
#291=EDGE_CURVE('',#222,#200,#181,.T.);
#292=EDGE_CURVE('',#215,#219,#182,.T.);
#293=ORIENTED_EDGE('',*,*,#227,.T.);
#294=ORIENTED_EDGE('',*,*,#228,.T.);
#295=ORIENTED_EDGE('',*,*,#229,.T.);
#296=ORIENTED_EDGE('',*,*,#230,.T.);
#297=ORIENTED_EDGE('',*,*,#228,.F.);
#298=ORIENTED_EDGE('',*,*,#231,.T.);
#299=ORIENTED_EDGE('',*,*,#232,.F.);
#300=ORIENTED_EDGE('',*,*,#233,.T.);
#301=ORIENTED_EDGE('',*,*,#234,.T.);
#302=ORIENTED_EDGE('',*,*,#232,.T.);
#303=ORIENTED_EDGE('',*,*,#235,.T.);
#304=ORIENTED_EDGE('',*,*,#236,.T.);
#305=ORIENTED_EDGE('',*,*,#237,.F.);
#306=ORIENTED_EDGE('',*,*,#238,.F.);
#307=ORIENTED_EDGE('',*,*,#235,.F.);
#308=ORIENTED_EDGE('',*,*,#231,.F.);
#309=ORIENTED_EDGE('',*,*,#227,.F.);
#310=ORIENTED_EDGE('',*,*,#239,.F.);
#311=ORIENTED_EDGE('',*,*,#240,.F.);
#312=ORIENTED_EDGE('',*,*,#241,.F.);
#313=ORIENTED_EDGE('',*,*,#242,.F.);
#314=ORIENTED_EDGE('',*,*,#229,.F.);
#315=ORIENTED_EDGE('',*,*,#233,.F.);
#316=ORIENTED_EDGE('',*,*,#234,.F.);
#317=ORIENTED_EDGE('',*,*,#243,.F.);
#318=ORIENTED_EDGE('',*,*,#244,.F.);
#319=ORIENTED_EDGE('',*,*,#237,.T.);
#320=ORIENTED_EDGE('',*,*,#245,.F.);
#321=ORIENTED_EDGE('',*,*,#246,.F.);
#322=ORIENTED_EDGE('',*,*,#247,.F.);
#323=ORIENTED_EDGE('',*,*,#241,.T.);
#324=ORIENTED_EDGE('',*,*,#248,.F.);
#325=ORIENTED_EDGE('',*,*,#249,.F.);
#326=ORIENTED_EDGE('',*,*,#250,.F.);
#327=ORIENTED_EDGE('',*,*,#238,.T.);
#328=ORIENTED_EDGE('',*,*,#247,.T.);
#329=ORIENTED_EDGE('',*,*,#251,.F.);
#330=ORIENTED_EDGE('',*,*,#252,.T.);
#331=ORIENTED_EDGE('',*,*,#253,.T.);
#332=ORIENTED_EDGE('',*,*,#254,.F.);
#333=ORIENTED_EDGE('',*,*,#255,.T.);
#334=ORIENTED_EDGE('',*,*,#256,.T.);
#335=ORIENTED_EDGE('',*,*,#257,.F.);
#336=ORIENTED_EDGE('',*,*,#248,.T.);
#337=ORIENTED_EDGE('',*,*,#243,.T.);
#338=ORIENTED_EDGE('',*,*,#236,.F.);
#339=ORIENTED_EDGE('',*,*,#258,.F.);
#340=ORIENTED_EDGE('',*,*,#259,.T.);
#341=ORIENTED_EDGE('',*,*,#244,.T.);
#342=ORIENTED_EDGE('',*,*,#259,.F.);
#343=ORIENTED_EDGE('',*,*,#260,.T.);
#344=ORIENTED_EDGE('',*,*,#261,.T.);
#345=ORIENTED_EDGE('',*,*,#262,.T.);
#346=ORIENTED_EDGE('',*,*,#254,.T.);
#347=ORIENTED_EDGE('',*,*,#261,.F.);
#348=ORIENTED_EDGE('',*,*,#263,.F.);
#349=ORIENTED_EDGE('',*,*,#264,.F.);
#350=ORIENTED_EDGE('',*,*,#265,.T.);
#351=ORIENTED_EDGE('',*,*,#253,.F.);
#352=ORIENTED_EDGE('',*,*,#266,.F.);
#353=ORIENTED_EDGE('',*,*,#267,.F.);
#354=ORIENTED_EDGE('',*,*,#263,.T.);
#355=ORIENTED_EDGE('',*,*,#260,.F.);
#356=ORIENTED_EDGE('',*,*,#268,.F.);
#357=ORIENTED_EDGE('',*,*,#269,.F.);
#358=ORIENTED_EDGE('',*,*,#270,.T.);
#359=ORIENTED_EDGE('',*,*,#271,.F.);
#360=ORIENTED_EDGE('',*,*,#256,.F.);
#361=ORIENTED_EDGE('',*,*,#266,.T.);
#362=ORIENTED_EDGE('',*,*,#252,.F.);
#363=ORIENTED_EDGE('',*,*,#272,.F.);
#364=ORIENTED_EDGE('',*,*,#273,.T.);
#365=ORIENTED_EDGE('',*,*,#269,.T.);
#366=ORIENTED_EDGE('',*,*,#255,.F.);
#367=ORIENTED_EDGE('',*,*,#262,.F.);
#368=ORIENTED_EDGE('',*,*,#265,.F.);
#369=ORIENTED_EDGE('',*,*,#274,.F.);
#370=ORIENTED_EDGE('',*,*,#275,.F.);
#371=ORIENTED_EDGE('',*,*,#276,.F.);
#372=ORIENTED_EDGE('',*,*,#277,.T.);
#373=ORIENTED_EDGE('',*,*,#275,.T.);
#374=ORIENTED_EDGE('',*,*,#277,.F.);
#375=ORIENTED_EDGE('',*,*,#278,.T.);
#376=ORIENTED_EDGE('',*,*,#279,.F.);
#377=ORIENTED_EDGE('',*,*,#280,.T.);
#378=ORIENTED_EDGE('',*,*,#281,.F.);
#379=ORIENTED_EDGE('',*,*,#251,.T.);
#380=ORIENTED_EDGE('',*,*,#246,.T.);
#381=ORIENTED_EDGE('',*,*,#282,.T.);
#382=ORIENTED_EDGE('',*,*,#279,.T.);
#383=ORIENTED_EDGE('',*,*,#283,.T.);
#384=ORIENTED_EDGE('',*,*,#272,.T.);
#385=ORIENTED_EDGE('',*,*,#284,.T.);
#386=ORIENTED_EDGE('',*,*,#285,.T.);
#387=ORIENTED_EDGE('',*,*,#286,.T.);
#388=ORIENTED_EDGE('',*,*,#240,.T.);
#389=ORIENTED_EDGE('',*,*,#287,.T.);
#390=ORIENTED_EDGE('',*,*,#286,.F.);
#391=ORIENTED_EDGE('',*,*,#287,.F.);
#392=ORIENTED_EDGE('',*,*,#288,.F.);
#393=ORIENTED_EDGE('',*,*,#289,.T.);
#394=ORIENTED_EDGE('',*,*,#285,.F.);
#395=ORIENTED_EDGE('',*,*,#289,.F.);
#396=ORIENTED_EDGE('',*,*,#268,.T.);
#397=ORIENTED_EDGE('',*,*,#290,.T.);
#398=ORIENTED_EDGE('',*,*,#284,.F.);
#399=ORIENTED_EDGE('',*,*,#290,.F.);
#400=ORIENTED_EDGE('',*,*,#242,.T.);
#401=ORIENTED_EDGE('',*,*,#250,.T.);
#402=ORIENTED_EDGE('',*,*,#291,.F.);
#403=ORIENTED_EDGE('',*,*,#280,.F.);
#404=ORIENTED_EDGE('',*,*,#282,.F.);
#405=ORIENTED_EDGE('',*,*,#245,.T.);
#406=ORIENTED_EDGE('',*,*,#239,.T.);
#407=ORIENTED_EDGE('',*,*,#230,.F.);
#408=ORIENTED_EDGE('',*,*,#267,.T.);
#409=ORIENTED_EDGE('',*,*,#273,.F.);
#410=ORIENTED_EDGE('',*,*,#283,.F.);
#411=ORIENTED_EDGE('',*,*,#278,.F.);
#412=ORIENTED_EDGE('',*,*,#292,.F.);
#413=ORIENTED_EDGE('',*,*,#270,.F.);
#414=ORIENTED_EDGE('',*,*,#274,.T.);
#415=ORIENTED_EDGE('',*,*,#264,.T.);
#416=ORIENTED_EDGE('',*,*,#271,.T.);
#417=ORIENTED_EDGE('',*,*,#292,.T.);
#418=ORIENTED_EDGE('',*,*,#281,.T.);
#419=ORIENTED_EDGE('',*,*,#291,.T.);
#420=ORIENTED_EDGE('',*,*,#249,.T.);
#421=ORIENTED_EDGE('',*,*,#257,.T.);
#422=ORIENTED_EDGE('',*,*,#276,.T.);
#423=ORIENTED_EDGE('',*,*,#288,.T.);
#424=ORIENTED_EDGE('',*,*,#258,.T.);
#425=CYLINDRICAL_SURFACE('',#479,50.);
#426=CYLINDRICAL_SURFACE('',#483,50.);
#427=CYLINDRICAL_SURFACE('',#496,100.);
#428=CYLINDRICAL_SURFACE('',#498,100.);
#429=CYLINDRICAL_SURFACE('',#500,1600.85802498521);
#430=CYLINDRICAL_SURFACE('',#505,50.);
#431=CYLINDRICAL_SURFACE('',#507,100.);
#432=CYLINDRICAL_SURFACE('',#515,100.);
#433=CYLINDRICAL_SURFACE('',#518,100.);
#434=CYLINDRICAL_SURFACE('',#523,50.);
#435=CYLINDRICAL_SURFACE('',#525,100.);
#436=CYLINDRICAL_SURFACE('',#534,50.);
#437=CYLINDRICAL_SURFACE('',#535,50.);
#438=CYLINDRICAL_SURFACE('',#537,50.);
#439=CYLINDRICAL_SURFACE('',#538,555.917829051663);
#440=CYLINDRICAL_SURFACE('',#540,397.70905318348);
#441=ADVANCED_FACE('',(#33),#425,.T.);
#442=ADVANCED_FACE('',(#34),#25,.F.);
#443=ADVANCED_FACE('',(#35),#426,.T.);
#444=ADVANCED_FACE('',(#36,#15),#26,.T.);
#445=ADVANCED_FACE('',(#37,#16),#27,.F.);
#446=ADVANCED_FACE('',(#38),#427,.T.);
#447=ADVANCED_FACE('',(#39),#428,.T.);
#448=ADVANCED_FACE('',(#40),#429,.T.);
#449=ADVANCED_FACE('',(#41),#430,.F.);
#450=ADVANCED_FACE('',(#42),#431,.T.);
#451=ADVANCED_FACE('',(#43),#28,.F.);
#452=ADVANCED_FACE('',(#44,#17),#29,.T.);
#453=ADVANCED_FACE('',(#45),#432,.T.);
#454=ADVANCED_FACE('',(#46),#433,.T.);
#455=ADVANCED_FACE('',(#47,#18),#30,.F.);
#456=ADVANCED_FACE('',(#48),#434,.F.);
#457=ADVANCED_FACE('',(#49),#435,.T.);
#458=ADVANCED_FACE('',(#50,#19,#20,#21),#31,.F.);
#459=ADVANCED_FACE('',(#51),#436,.F.);
#460=ADVANCED_FACE('',(#52),#437,.F.);
#461=ADVANCED_FACE('',(#53),#438,.F.);
#462=ADVANCED_FACE('',(#54),#439,.F.);
#463=ADVANCED_FACE('',(#55),#440,.F.);
#464=ADVANCED_FACE('',(#56,#22,#23,#24),#32,.T.);
#465=CLOSED_SHELL('',(#441,#442,#443,#444,#445,#446,#447,#448,#449,#450,
#451,#452,#453,#454,#455,#456,#457,#458,#459,#460,#461,#462,#463,#464));
#466=DERIVED_UNIT_ELEMENT(#468,1.);
#467=DERIVED_UNIT_ELEMENT(#839,-3.);
#468=(
MASS_UNIT()
NAMED_UNIT(*)
SI_UNIT(.KILO.,.GRAM.)
);
#469=DERIVED_UNIT((#466,#467));
#470=MEASURE_REPRESENTATION_ITEM('density measure',
POSITIVE_RATIO_MEASURE(7850.),#469);
#471=PROPERTY_DEFINITION_REPRESENTATION(#476,#473);
#472=PROPERTY_DEFINITION_REPRESENTATION(#477,#474);
#473=REPRESENTATION('material name',(#475),#836);
#474=REPRESENTATION('density',(#470),#836);
#475=DESCRIPTIVE_REPRESENTATION_ITEM('Steel','Steel');
#476=PROPERTY_DEFINITION('material property','material name',#846);
#477=PROPERTY_DEFINITION('material property','density of part',#846);
#478=AXIS2_PLACEMENT_3D('',#699,#543,#544);
#479=AXIS2_PLACEMENT_3D('',#700,#545,#546);
#480=AXIS2_PLACEMENT_3D('',#703,#547,#548);
#481=AXIS2_PLACEMENT_3D('',#707,#550,#551);
#482=AXIS2_PLACEMENT_3D('',#709,#553,#554);
#483=AXIS2_PLACEMENT_3D('',#715,#558,#559);
#484=AXIS2_PLACEMENT_3D('',#717,#560,#561);
#485=AXIS2_PLACEMENT_3D('',#719,#562,#563);
#486=AXIS2_PLACEMENT_3D('',#721,#565,#566);
#487=AXIS2_PLACEMENT_3D('',#724,#567,#568);
#488=AXIS2_PLACEMENT_3D('',#725,#569,#570);
#489=AXIS2_PLACEMENT_3D('',#726,#571,#572);
#490=AXIS2_PLACEMENT_3D('',#728,#573,#574);
#491=AXIS2_PLACEMENT_3D('',#729,#575,#576);
#492=AXIS2_PLACEMENT_3D('',#732,#577,#578);
#493=AXIS2_PLACEMENT_3D('',#733,#579,#580);
#494=AXIS2_PLACEMENT_3D('',#734,#581,#582);
#495=AXIS2_PLACEMENT_3D('',#736,#583,#584);
#496=AXIS2_PLACEMENT_3D('',#737,#585,#586);
#497=AXIS2_PLACEMENT_3D('',#741,#588,#589);
#498=AXIS2_PLACEMENT_3D('',#743,#591,#592);
#499=AXIS2_PLACEMENT_3D('',#747,#594,#595);
#500=AXIS2_PLACEMENT_3D('',#749,#597,#598);
#501=AXIS2_PLACEMENT_3D('',#751,#599,#600);
#502=AXIS2_PLACEMENT_3D('',#755,#602,#603);
#503=AXIS2_PLACEMENT_3D('',#759,#605,#606);
#504=AXIS2_PLACEMENT_3D('',#762,#608,#609);
#505=AXIS2_PLACEMENT_3D('',#763,#610,#611);
#506=AXIS2_PLACEMENT_3D('',#765,#612,#613);
#507=AXIS2_PLACEMENT_3D('',#767,#615,#616);
#508=AXIS2_PLACEMENT_3D('',#769,#617,#618);
#509=AXIS2_PLACEMENT_3D('',#772,#620,#621);
#510=AXIS2_PLACEMENT_3D('',#773,#622,#623);
#511=AXIS2_PLACEMENT_3D('',#779,#627,#628);
#512=AXIS2_PLACEMENT_3D('',#781,#629,#630);
#513=AXIS2_PLACEMENT_3D('',#782,#631,#632);
#514=AXIS2_PLACEMENT_3D('',#784,#633,#634);
#515=AXIS2_PLACEMENT_3D('',#785,#635,#636);
#516=AXIS2_PLACEMENT_3D('',#787,#637,#638);
#517=AXIS2_PLACEMENT_3D('',#790,#640,#641);
#518=AXIS2_PLACEMENT_3D('',#791,#642,#643);
#519=AXIS2_PLACEMENT_3D('',#793,#644,#645);
#520=AXIS2_PLACEMENT_3D('',#795,#647,#648);
#521=AXIS2_PLACEMENT_3D('',#796,#649,#650);
#522=AXIS2_PLACEMENT_3D('',#798,#651,#652);
#523=AXIS2_PLACEMENT_3D('',#799,#653,#654);
#524=AXIS2_PLACEMENT_3D('',#801,#655,#656);
#525=AXIS2_PLACEMENT_3D('',#803,#658,#659);
#526=AXIS2_PLACEMENT_3D('',#808,#661,#662);
#527=AXIS2_PLACEMENT_3D('',#811,#664,#665);
#528=AXIS2_PLACEMENT_3D('',#812,#666,#667);
#529=AXIS2_PLACEMENT_3D('',#813,#668,#669);
#530=AXIS2_PLACEMENT_3D('',#814,#670,#671);
#531=AXIS2_PLACEMENT_3D('',#816,#672,#673);
#532=AXIS2_PLACEMENT_3D('',#818,#674,#675);
#533=AXIS2_PLACEMENT_3D('',#820,#676,#677);
#534=AXIS2_PLACEMENT_3D('',#821,#678,#679);
#535=AXIS2_PLACEMENT_3D('',#823,#681,#682);
#536=AXIS2_PLACEMENT_3D('',#825,#683,#684);
#537=AXIS2_PLACEMENT_3D('',#827,#686,#687);
#538=AXIS2_PLACEMENT_3D('',#829,#689,#690);
#539=AXIS2_PLACEMENT_3D('',#830,#691,#692);
#540=AXIS2_PLACEMENT_3D('',#831,#693,#694);
#541=AXIS2_PLACEMENT_3D('',#832,#695,#696);
#542=AXIS2_PLACEMENT_3D('',#833,#697,#698);
#543=DIRECTION('axis',(0.,0.,1.));
#544=DIRECTION('refdir',(1.,0.,0.));
#545=DIRECTION('center_axis',(1.,0.,0.));
#546=DIRECTION('ref_axis',(0.,0.982058830973997,0.188574792870062));
#547=DIRECTION('center_axis',(-1.,0.,0.));
#548=DIRECTION('ref_axis',(0.,0.982058830973997,0.188574792870062));
#549=DIRECTION('',(1.,0.,0.));
#550=DIRECTION('center_axis',(1.,0.,0.));
#551=DIRECTION('ref_axis',(0.,0.982058830973997,0.188574792870062));
#552=DIRECTION('',(-1.,0.,0.));
#553=DIRECTION('center_axis',(0.,-0.600006451819635,-0.799995161094623));
#554=DIRECTION('ref_axis',(0.,0.799995161094623,-0.600006451819635));
#555=DIRECTION('',(0.,-0.799995161094623,0.600006451819635));
#556=DIRECTION('',(-1.,0.,0.));
#557=DIRECTION('',(0.,0.799995161094623,-0.600006451819635));
#558=DIRECTION('center_axis',(-1.,0.,0.));
#559=DIRECTION('ref_axis',(0.,-0.139351958443621,0.990242915489895));
#560=DIRECTION('center_axis',(1.,0.,0.));
#561=DIRECTION('ref_axis',(0.,-0.139351958443621,0.990242915489895));
#562=DIRECTION('center_axis',(-1.,0.,0.));
#563=DIRECTION('ref_axis',(0.,-0.139351958443621,0.990242915489895));
#564=DIRECTION('',(1.,0.,0.));
#565=DIRECTION('center_axis',(1.,0.,0.));
#566=DIRECTION('ref_axis',(0.,1.,0.));
#567=DIRECTION('center_axis',(-1.,0.,0.));
#568=DIRECTION('ref_axis',(0.,1.,0.));
#569=DIRECTION('center_axis',(-1.,0.,0.));
#570=DIRECTION('ref_axis',(0.,-0.706779437998788,0.707433972906389));
#571=DIRECTION('center_axis',(1.,0.,0.));
#572=DIRECTION('ref_axis',(0.,-0.643252368255719,0.765654224002852));
#573=DIRECTION('center_axis',(1.,0.,0.));
#574=DIRECTION('ref_axis',(0.,1.,0.));
#575=DIRECTION('center_axis',(1.,0.,0.));
#576=DIRECTION('ref_axis',(0.,1.,0.));
#577=DIRECTION('center_axis',(1.,0.,0.));
#578=DIRECTION('ref_axis',(0.,1.,0.));
#579=DIRECTION('center_axis',(-1.,0.,0.));
#580=DIRECTION('ref_axis',(0.,-0.643252368255719,0.765654224002852));
#581=DIRECTION('center_axis',(1.,0.,0.));
#582=DIRECTION('ref_axis',(0.,-0.706779437998788,0.707433972906389));
#583=DIRECTION('center_axis',(-1.,0.,0.));
#584=DIRECTION('ref_axis',(0.,1.,0.));
#585=DIRECTION('center_axis',(1.,0.,0.));
#586=DIRECTION('ref_axis',(0.,1.,0.));
#587=DIRECTION('',(1.,0.,0.));
#588=DIRECTION('center_axis',(-1.,0.,0.));
#589=DIRECTION('ref_axis',(0.,1.,0.));
#590=DIRECTION('',(-1.,0.,0.));
#591=DIRECTION('center_axis',(1.,0.,0.));
#592=DIRECTION('ref_axis',(0.,1.,0.));
#593=DIRECTION('',(-1.,0.,0.));
#594=DIRECTION('center_axis',(1.,0.,0.));
#595=DIRECTION('ref_axis',(0.,1.,0.));
#596=DIRECTION('',(1.,0.,0.));
#597=DIRECTION('center_axis',(1.,0.,0.));
#598=DIRECTION('ref_axis',(0.,-0.706779437998788,0.707433972906389));
#599=DIRECTION('center_axis',(-1.,0.,0.));
#600=DIRECTION('ref_axis',(0.,-0.706779437998788,0.707433972906389));
#601=DIRECTION('',(1.,0.,0.));
#602=DIRECTION('center_axis',(-1.,0.,0.));
#603=DIRECTION('ref_axis',(0.,-0.706779437998788,0.707433972906389));
#604=DIRECTION('',(-1.,0.,0.));
#605=DIRECTION('center_axis',(1.,0.,0.));
#606=DIRECTION('ref_axis',(0.,-0.706779437998788,0.707433972906389));
#607=DIRECTION('',(1.,0.,0.));
#608=DIRECTION('center_axis',(1.,0.,0.));
#609=DIRECTION('ref_axis',(0.,-0.706779437998788,0.707433972906389));
#610=DIRECTION('center_axis',(1.,0.,0.));
#611=DIRECTION('ref_axis',(0.,1.,0.));
#612=DIRECTION('center_axis',(-1.,0.,0.));
#613=DIRECTION('ref_axis',(0.,1.,0.));
#614=DIRECTION('',(-1.,0.,0.));
#615=DIRECTION('center_axis',(1.,3.09911394928455E-25,2.67189073236363E-24));
#616=DIRECTION('ref_axis',(0.,-0.746731911459714,-0.665125140411729));
#617=DIRECTION('center_axis',(-1.,0.,0.));
#618=DIRECTION('ref_axis',(0.,-0.746731911459714,-0.665125140411729));
#619=DIRECTION('',(1.,3.09911394928455E-25,2.67189073236363E-24));
#620=DIRECTION('center_axis',(1.,0.,0.));
#621=DIRECTION('ref_axis',(0.,-0.746731911459714,-0.665125140411729));
#622=DIRECTION('center_axis',(-2.67189073236363E-24,0.,1.));
#623=DIRECTION('ref_axis',(-1.,-1.23259516440783E-32,-2.67189073236363E-24));
#624=DIRECTION('',(0.,1.,0.));
#625=DIRECTION('',(-1.,0.,0.));
#626=DIRECTION('',(0.,1.,0.));
#627=DIRECTION('center_axis',(1.,0.,0.));
#628=DIRECTION('ref_axis',(0.,1.,0.));
#629=DIRECTION('center_axis',(-1.,0.,-2.67189073236363E-24));
#630=DIRECTION('ref_axis',(0.,1.,0.));
#631=DIRECTION('center_axis',(1.,0.,2.67189073236363E-24));
#632=DIRECTION('ref_axis',(0.,-0.492685812959995,0.870207268245875));
#633=DIRECTION('center_axis',(1.,0.,0.));
#634=DIRECTION('ref_axis',(0.,1.,0.));
#635=DIRECTION('center_axis',(1.,0.,0.));
#636=DIRECTION('ref_axis',(0.,1.,0.));
#637=DIRECTION('center_axis',(-1.,0.,0.));
#638=DIRECTION('ref_axis',(0.,1.,0.));
#639=DIRECTION('',(1.,0.,0.));
#640=DIRECTION('center_axis',(1.,0.,0.));
#641=DIRECTION('ref_axis',(0.,1.,0.));
#642=DIRECTION('center_axis',(1.,0.,0.));
#643=DIRECTION('ref_axis',(0.,1.,0.));
#644=DIRECTION('center_axis',(-1.,0.,0.));
#645=DIRECTION('ref_axis',(0.,1.,0.));
#646=DIRECTION('',(1.,0.,0.));
#647=DIRECTION('center_axis',(1.,0.,0.));
#648=DIRECTION('ref_axis',(0.,1.,0.));
#649=DIRECTION('center_axis',(-1.,0.,-2.67189073236363E-24));
#650=DIRECTION('ref_axis',(0.,-0.492685812959995,0.870207268245875));
#651=DIRECTION('center_axis',(-1.,0.,0.));
#652=DIRECTION('ref_axis',(0.,1.,0.));
#653=DIRECTION('center_axis',(1.,0.,0.));
#654=DIRECTION('ref_axis',(0.,1.,0.));
#655=DIRECTION('center_axis',(-1.,0.,0.));
#656=DIRECTION('ref_axis',(0.,1.,0.));
#657=DIRECTION('',(-1.,0.,0.));
#658=DIRECTION('center_axis',(1.,0.,0.));
#659=DIRECTION('ref_axis',(0.,1.,0.));
#660=DIRECTION('',(-1.,0.,0.));
#661=DIRECTION('center_axis',(-1.,0.,0.));
#662=DIRECTION('ref_axis',(0.,1.,0.));
#663=DIRECTION('',(1.,0.,0.));
#664=DIRECTION('center_axis',(1.,0.,0.));
#665=DIRECTION('ref_axis',(0.,1.,0.));
#666=DIRECTION('center_axis',(1.,0.,0.));
#667=DIRECTION('ref_axis',(0.,1.,0.));
#668=DIRECTION('center_axis',(1.,0.,0.));
#669=DIRECTION('ref_axis',(0.,-0.643252368255719,0.765654224002852));
#670=DIRECTION('center_axis',(1.,0.,0.));
#671=DIRECTION('ref_axis',(0.,-0.492685812959995,0.870207268245875));
#672=DIRECTION('center_axis',(1.,0.,0.));
#673=DIRECTION('ref_axis',(0.,1.,0.));
#674=DIRECTION('center_axis',(1.,0.,0.));
#675=DIRECTION('ref_axis',(0.,1.,0.));
#676=DIRECTION('center_axis',(1.,0.,0.));
#677=DIRECTION('ref_axis',(0.,1.,0.));
#678=DIRECTION('center_axis',(1.,0.,0.));
#679=DIRECTION('ref_axis',(0.,1.,0.));
#680=DIRECTION('',(-1.,0.,0.));
#681=DIRECTION('center_axis',(1.,0.,0.));
#682=DIRECTION('ref_axis',(0.,1.,0.));
#683=DIRECTION('center_axis',(-1.,0.,0.));
#684=DIRECTION('ref_axis',(0.,1.,0.));
#685=DIRECTION('',(-1.,0.,0.));
#686=DIRECTION('center_axis',(1.,0.,0.));
#687=DIRECTION('ref_axis',(0.,1.,0.));
#688=DIRECTION('',(-1.,0.,0.));
#689=DIRECTION('center_axis',(1.,0.,0.));
#690=DIRECTION('ref_axis',(0.,-0.643252368255719,0.765654224002852));
#691=DIRECTION('center_axis',(-1.,0.,0.));
#692=DIRECTION('ref_axis',(0.,-0.643252368255719,0.765654224002852));
#693=DIRECTION('center_axis',(1.,0.,0.));
#694=DIRECTION('ref_axis',(0.,-0.492685812959995,0.870207268245875));
#695=DIRECTION('center_axis',(-1.,0.,0.));
#696=DIRECTION('ref_axis',(0.,-0.492685812959995,0.870207268245875));
#697=DIRECTION('center_axis',(1.,0.,0.));
#698=DIRECTION('ref_axis',(0.,1.,0.));
#699=CARTESIAN_POINT('',(0.,0.,0.));
#700=CARTESIAN_POINT('Origin',(-1454.5,-936.348710453784,934.370199687497));
#701=CARTESIAN_POINT('',(-1529.5,-893.666804317587,908.326872546348));
#702=CARTESIAN_POINT('',(-1529.5,-906.348387862802,974.369957742228));
#703=CARTESIAN_POINT('Origin',(-1529.5,-936.348710453784,934.370199687497));
#704=CARTESIAN_POINT('',(-1379.5,-906.348387862802,974.369957742228));
#705=CARTESIAN_POINT('',(-1454.5,-906.348387862802,974.369957742228));
#706=CARTESIAN_POINT('',(-1379.5,-893.666804317587,908.326872546348));
#707=CARTESIAN_POINT('Origin',(-1379.5,-936.348710453784,934.370199687497));
#708=CARTESIAN_POINT('',(-1454.5,-893.666804317587,908.326872546348));
#709=CARTESIAN_POINT('Origin',(-1454.5,-1026.26616668487,1064.30980298163));
#710=CARTESIAN_POINT('',(-1529.5,-987.052340506273,1034.89893920153));
#711=CARTESIAN_POINT('',(-1529.5,-1026.26616668487,1064.30980298163));
#712=CARTESIAN_POINT('',(-1379.5,-987.052340506273,1034.89893920153));
#713=CARTESIAN_POINT('',(-1454.5,-987.052340506273,1034.89893920153));
#714=CARTESIAN_POINT('',(-1379.5,-1026.26616668487,1064.30980298163));
#715=CARTESIAN_POINT('Origin',(-1454.5,-1017.05266309725,994.8991811468));
#716=CARTESIAN_POINT('',(-1379.5,-1056.92715145566,1025.06580472578));
#717=CARTESIAN_POINT('Origin',(-1379.5,-1017.05266309725,994.8991811468));
#718=CARTESIAN_POINT('',(-1529.5,-1056.92715145566,1025.06580472578));
#719=CARTESIAN_POINT('Origin',(-1529.5,-1017.05266309725,994.8991811468));
#720=CARTESIAN_POINT('',(-1454.5,-1056.92715145566,1025.06580472578));
#721=CARTESIAN_POINT('Origin',(-1529.5,-883.650507970208,1083.48598191848));
#722=CARTESIAN_POINT('',(-1529.5,-911.712793056576,1191.71752853838));
#723=CARTESIAN_POINT('',(-1529.5,-776.709612430224,1044.40870884646));
#724=CARTESIAN_POINT('Origin',(-1529.5,-841.034849256217,1120.97413124727));
#725=CARTESIAN_POINT('Origin',(-1529.5,219.740742158858,59.216175863488));
#726=CARTESIAN_POINT('Origin',(-1529.5,-419.114152337161,618.767874834555));
#727=CARTESIAN_POINT('',(-1529.5,-891.034849256217,1120.97413124727));
#728=CARTESIAN_POINT('Origin',(-1529.5,-841.034849256217,1120.97413124727));
#729=CARTESIAN_POINT('Origin',(-1379.5,-883.650507970208,1083.48598191848));
#730=CARTESIAN_POINT('',(-1379.5,-776.709612430224,1044.40870884646));
#731=CARTESIAN_POINT('',(-1379.5,-911.712793056576,1191.71752853838));
#732=CARTESIAN_POINT('Origin',(-1379.5,-841.034849256217,1120.97413124727));
#733=CARTESIAN_POINT('Origin',(-1379.5,-419.114152337161,618.767874834555));
#734=CARTESIAN_POINT('Origin',(-1379.5,219.740742158858,59.216175863488));
#735=CARTESIAN_POINT('',(-1379.5,-891.034849256217,1120.97413124727));
#736=CARTESIAN_POINT('Origin',(-1379.5,-841.034849256217,1120.97413124727));
#737=CARTESIAN_POINT('Origin',(-1454.5,-841.034849256217,1120.97413124727));
#738=CARTESIAN_POINT('',(-1604.5,-776.709612430221,1044.40870884646));
#739=CARTESIAN_POINT('',(-1454.5,-776.709612430221,1044.40870884646));
#740=CARTESIAN_POINT('',(-1604.5,-911.712793056038,1191.71752853785));
#741=CARTESIAN_POINT('Origin',(-1604.5,-841.034849256217,1120.97413124727));
#742=CARTESIAN_POINT('',(-1454.5,-911.712793056038,1191.71752853785));
#743=CARTESIAN_POINT('Origin',(-1454.5,-841.034849256217,1120.97413124727));
#744=CARTESIAN_POINT('',(-1304.5,-911.712793056038,1191.71752853785));
#745=CARTESIAN_POINT('',(-1454.5,-911.712793056038,1191.71752853785));
#746=CARTESIAN_POINT('',(-1304.5,-776.709612430221,1044.40870884646));
#747=CARTESIAN_POINT('Origin',(-1304.5,-841.034849256217,1120.97413124727));
#748=CARTESIAN_POINT('',(-1454.5,-776.709612430221,1044.40870884646));
#749=CARTESIAN_POINT('Origin',(-1454.5,219.740742158858,59.216175863488));
#750=CARTESIAN_POINT('',(-1604.5,-1354.36364297601,-232.231591084054));
#751=CARTESIAN_POINT('Origin',(-1604.5,219.740742158858,59.216175863488));
#752=CARTESIAN_POINT('',(-1544.5,-1354.36364297601,-232.231591084054));
#753=CARTESIAN_POINT('',(-1454.5,-1354.36364297601,-232.231591084054));
#754=CARTESIAN_POINT('',(-1544.5,-1370.45610453791,243.662387305175));
#755=CARTESIAN_POINT('Origin',(-1544.5,219.740742158858,59.216175863488));
#756=CARTESIAN_POINT('',(-1364.5,-1370.45610453791,243.662387305175));
#757=CARTESIAN_POINT('',(-1454.5,-1370.45610453791,243.662387305175));
#758=CARTESIAN_POINT('',(-1364.5,-1354.36364297601,-232.231591084054));
#759=CARTESIAN_POINT('Origin',(-1364.5,219.740742158858,59.216175863488));
#760=CARTESIAN_POINT('',(-1304.5,-1354.36364297601,-232.231591084054));
#761=CARTESIAN_POINT('',(-1454.5,-1354.36364297601,-232.231591084054));
#762=CARTESIAN_POINT('Origin',(-1304.5,219.740742158858,59.216175863488));
#763=CARTESIAN_POINT('Origin',(-1454.5,-841.034849256217,1120.97413124727));
#764=CARTESIAN_POINT('',(-1304.5,-891.034849256217,1120.97413124727));
#765=CARTESIAN_POINT('Origin',(-1304.5,-841.034849256217,1120.97413124727));
#766=CARTESIAN_POINT('',(-1454.5,-891.034849256217,1120.97413124727));
#767=CARTESIAN_POINT('Origin',(-1454.5,-1271.122071046,232.140677786719));
#768=CARTESIAN_POINT('',(-1544.5,-1271.122071046,132.140677786719));
#769=CARTESIAN_POINT('Origin',(-1544.5,-1271.122071046,232.140677786719));
#770=CARTESIAN_POINT('',(-1364.5,-1271.122071046,132.140677786719));
#771=CARTESIAN_POINT('',(-1454.5,-1271.122071046,132.140677786719));
#772=CARTESIAN_POINT('Origin',(-1364.5,-1271.122071046,232.140677786719));
#773=CARTESIAN_POINT('Origin',(-1364.5,-933.962599446425,132.140677786719));
#774=CARTESIAN_POINT('',(-1544.5,-1150.70665524628,132.140677786719));
#775=CARTESIAN_POINT('',(-1544.5,-1209.05456640155,132.140677786719));
#776=CARTESIAN_POINT('',(-1364.5,-1150.70665524628,132.140677786719));
#777=CARTESIAN_POINT('',(-1454.5,-1150.70665524628,132.140677786719));
#778=CARTESIAN_POINT('',(-1364.5,-1209.05456640155,132.140677786719));
#779=CARTESIAN_POINT('Origin',(-1544.5,-1484.14653335668,33.5195115140808));
#780=CARTESIAN_POINT('',(-1544.5,-1162.5637366633,-178.485031527368));
#781=CARTESIAN_POINT('Origin',(-1544.5,-1256.03484925622,-214.025868752733));
#782=CARTESIAN_POINT('Origin',(-1544.5,-790.820659770705,-37.1359043049976));
#783=CARTESIAN_POINT('',(-1544.5,-1306.03484925622,-214.025868752733));
#784=CARTESIAN_POINT('Origin',(-1544.5,-1256.03484925622,-214.025868752733));
#785=CARTESIAN_POINT('Origin',(-1454.5,-1256.03484925622,-214.025868752733));
#786=CARTESIAN_POINT('',(-1364.5,-1162.5637366633,-178.485031527368));
#787=CARTESIAN_POINT('Origin',(-1364.5,-1256.03484925622,-214.025868752733));
#788=CARTESIAN_POINT('',(-1304.5,-1162.5637366633,-178.485031527368));
#789=CARTESIAN_POINT('',(-1454.5,-1162.5637366633,-178.485031527368));
#790=CARTESIAN_POINT('Origin',(-1304.5,-1256.03484925622,-214.025868752733));
#791=CARTESIAN_POINT('Origin',(-1454.5,-1256.03484925622,-214.025868752733));
#792=CARTESIAN_POINT('',(-1604.5,-1162.5637366633,-178.485031527368));
#793=CARTESIAN_POINT('Origin',(-1604.5,-1256.03484925622,-214.025868752733));
#794=CARTESIAN_POINT('',(-1454.5,-1162.5637366633,-178.485031527368));
#795=CARTESIAN_POINT('Origin',(-1364.5,-1484.14653335668,33.5195115140808));
#796=CARTESIAN_POINT('Origin',(-1364.5,-790.820659770705,-37.1359043049976));
#797=CARTESIAN_POINT('',(-1364.5,-1306.03484925622,-214.025868752733));
#798=CARTESIAN_POINT('Origin',(-1364.5,-1256.03484925622,-214.025868752733));
#799=CARTESIAN_POINT('Origin',(-1454.5,-1256.03484925622,-214.025868752733));
#800=CARTESIAN_POINT('',(-1304.5,-1306.03484925622,-214.025868752733));
#801=CARTESIAN_POINT('Origin',(-1304.5,-1256.03484925622,-214.025868752733));
#802=CARTESIAN_POINT('',(-1454.5,-1306.03484925622,-214.025868752733));
#803=CARTESIAN_POINT('Origin',(-1454.5,-1036.03484925622,395.974131247267));
#804=CARTESIAN_POINT('',(-1304.5,-986.766267959958,308.953404422452));
#805=CARTESIAN_POINT('',(-1604.5,-986.766267959958,308.953404422452));
#806=CARTESIAN_POINT('',(-1454.5,-986.766267960037,308.953404422408));
#807=CARTESIAN_POINT('',(-1604.5,-941.980278759974,429.940846850963));
#808=CARTESIAN_POINT('Origin',(-1604.5,-1036.03484925622,395.974131247267));
#809=CARTESIAN_POINT('',(-1304.5,-941.980278759974,429.940846850963));
#810=CARTESIAN_POINT('',(-1454.5,-941.980278759974,429.940846850963));
#811=CARTESIAN_POINT('Origin',(-1304.5,-1036.03484925622,395.974131247267));
#812=CARTESIAN_POINT('Origin',(-1604.5,-1061.07606604128,453.474131247267));
#813=CARTESIAN_POINT('Origin',(-1604.5,-419.114152337161,618.767874834555));
#814=CARTESIAN_POINT('Origin',(-1604.5,-790.820659770705,-37.1359043049976));
#815=CARTESIAN_POINT('',(-1604.5,-1306.03484925622,-214.025868752733));
#816=CARTESIAN_POINT('Origin',(-1604.5,-1256.03484925622,-214.025868752733));
#817=CARTESIAN_POINT('',(-1604.5,-1086.03484925622,395.974131247267));
#818=CARTESIAN_POINT('Origin',(-1604.5,-1036.03484925622,395.974131247267));
#819=CARTESIAN_POINT('',(-1604.5,-891.034849256217,1120.97413124727));
#820=CARTESIAN_POINT('Origin',(-1604.5,-841.034849256217,1120.97413124727));
#821=CARTESIAN_POINT('Origin',(-1454.5,-841.034849256217,1120.97413124727));
#822=CARTESIAN_POINT('',(-1454.5,-891.034849256217,1120.97413124727));
#823=CARTESIAN_POINT('Origin',(-1454.5,-1036.03484925622,395.974131247267));
#824=CARTESIAN_POINT('',(-1304.5,-1086.03484925622,395.974131247267));
#825=CARTESIAN_POINT('Origin',(-1304.5,-1036.03484925622,395.974131247267));
#826=CARTESIAN_POINT('',(-1454.5,-1086.03484925622,395.974131247267));
#827=CARTESIAN_POINT('Origin',(-1454.5,-1256.03484925622,-214.025868752733));
#828=CARTESIAN_POINT('',(-1454.5,-1306.03484925622,-214.025868752733));
#829=CARTESIAN_POINT('Origin',(-1454.5,-419.114152337161,618.767874834555));
#830=CARTESIAN_POINT('Origin',(-1304.5,-419.114152337161,618.767874834555));
#831=CARTESIAN_POINT('Origin',(-1454.5,-790.820659770705,-37.1359043049976));
#832=CARTESIAN_POINT('Origin',(-1304.5,-790.820659770705,-37.1359043049976));
#833=CARTESIAN_POINT('Origin',(-1304.5,-1061.07606604128,453.474131247267));
#834=UNCERTAINTY_MEASURE_WITH_UNIT(LENGTH_MEASURE(0.01),#838,
'DISTANCE_ACCURACY_VALUE',
'Maximum model space distance between geometric entities at asserted c
onnectivities');
#835=UNCERTAINTY_MEASURE_WITH_UNIT(LENGTH_MEASURE(0.01),#838,
'DISTANCE_ACCURACY_VALUE',
'Maximum model space distance between geometric entities at asserted c
onnectivities');
#836=(
GEOMETRIC_REPRESENTATION_CONTEXT(3)
GLOBAL_UNCERTAINTY_ASSIGNED_CONTEXT((#834))
GLOBAL_UNIT_ASSIGNED_CONTEXT((#838,#840,#841))
REPRESENTATION_CONTEXT('','3D')
);
#837=(
GEOMETRIC_REPRESENTATION_CONTEXT(3)
GLOBAL_UNCERTAINTY_ASSIGNED_CONTEXT((#835))
GLOBAL_UNIT_ASSIGNED_CONTEXT((#838,#840,#841))
REPRESENTATION_CONTEXT('','3D')
);
#838=(
LENGTH_UNIT()
NAMED_UNIT(*)
SI_UNIT(.MILLI.,.METRE.)
);
#839=(
LENGTH_UNIT()
NAMED_UNIT(*)
SI_UNIT($,.METRE.)
);
#840=(
NAMED_UNIT(*)
PLANE_ANGLE_UNIT()
SI_UNIT($,.RADIAN.)
);
#841=(
NAMED_UNIT(*)
SI_UNIT($,.STERADIAN.)
SOLID_ANGLE_UNIT()
);
#842=SHAPE_DEFINITION_REPRESENTATION(#843,#844);
#843=PRODUCT_DEFINITION_SHAPE('',$,#846);
#844=SHAPE_REPRESENTATION('',(#478),#836);
#845=PRODUCT_DEFINITION_CONTEXT('part definition',#850,'design');
#846=PRODUCT_DEFINITION('BucketTiltRockerArm','BucketTiltRockerArm',#847,
#845);
#847=PRODUCT_DEFINITION_FORMATION('',$,#852);
#848=PRODUCT_RELATED_PRODUCT_CATEGORY('BucketTiltRockerArm',
'BucketTiltRockerArm',(#852));
#849=APPLICATION_PROTOCOL_DEFINITION('international standard',
'automotive_design',2009,#850);
#850=APPLICATION_CONTEXT(
'Core Data for Automotive Mechanical Design Process');
#851=PRODUCT_CONTEXT('part definition',#850,'mechanical');
#852=PRODUCT('BucketTiltRockerArm','BucketTiltRockerArm',$,(#851));
#853=PRESENTATION_STYLE_ASSIGNMENT((#854));
#854=SURFACE_STYLE_USAGE(.BOTH.,#855);
#855=SURFACE_SIDE_STYLE('',(#856));
#856=SURFACE_STYLE_FILL_AREA(#857);
#857=FILL_AREA_STYLE('Steel - Satin',(#858));
#858=FILL_AREA_STYLE_COLOUR('Steel - Satin',#859);
#859=COLOUR_RGB('Steel - Satin',0.627450980392157,0.627450980392157,0.627450980392157);
ENDSEC;
END-ISO-10303-21;
