ISO-10303-21;
HEADER;
/* Generated by software containing ST-Developer
 * from STEP Tools, Inc. (www.steptools.com) 
 */

FILE_DESCRIPTION(
/* description */ (''),
/* implementation_level */ '2;1');

FILE_NAME(
/* name */ 'FullLoad.step',
/* time_stamp */ '2026-04-19T21:32:28-04:00',
/* author */ (''),
/* organization */ (''),
/* preprocessor_version */ 'ST-DEVELOPER v20.1',
/* originating_system */ 'Autodesk Translation Framework v14.24.0.0',
/* authorisation */ '');

FILE_SCHEMA (('AUTOMOTIVE_DESIGN { 1 0 10303 214 3 1 1 }'));
ENDSEC;

DATA;
#10=MECHANICAL_DESIGN_GEOMETRIC_PRESENTATION_REPRESENTATION('',(#13),#1327);
#11=SHAPE_REPRESENTATION_RELATIONSHIP('SRR','None',#1334,#12);
#12=ADVANCED_BREP_SHAPE_REPRESENTATION('',(#14),#1326);
#13=STYLED_ITEM('',(#1343),#14);
#14=MANIFOLD_SOLID_BREP('Body2',#645);
#15=SPHERICAL_SURFACE('',#714,19.9999999999992);
#16=SPHERICAL_SURFACE('',#717,19.9999999999997);
#17=B_SPLINE_SURFACE_WITH_KNOTS('',3,3,((#1040,#1041,#1042,#1043,#1044,
#1045,#1046),(#1047,#1048,#1049,#1050,#1051,#1052,#1053),(#1054,#1055,#1056,
#1057,#1058,#1059,#1060),(#1061,#1062,#1063,#1064,#1065,#1066,#1067),(#1068,
#1069,#1070,#1071,#1072,#1073,#1074),(#1075,#1076,#1077,#1078,#1079,#1080,
#1081),(#1082,#1083,#1084,#1085,#1086,#1087,#1088)),.UNSPECIFIED.,.F.,.F.,
 .F.,(4,1,1,1,4),(4,1,1,1,4),(0.,0.285714285714286,0.571428571428571,0.857142857142857,
1.),(-6.28318530717959,-6.05878583192317,-5.60998688141035,-5.16118793089753,
-4.7123889803847),.UNSPECIFIED.);
#18=B_SPLINE_SURFACE_WITH_KNOTS('',3,3,((#1096,#1097,#1098,#1099,#1100,
#1101,#1102,#1103),(#1104,#1105,#1106,#1107,#1108,#1109,#1110,#1111),(#1112,
#1113,#1114,#1115,#1116,#1117,#1118,#1119),(#1120,#1121,#1122,#1123,#1124,
#1125,#1126,#1127),(#1128,#1129,#1130,#1131,#1132,#1133,#1134,#1135),(#1136,
#1137,#1138,#1139,#1140,#1141,#1142,#1143),(#1144,#1145,#1146,#1147,#1148,
#1149,#1150,#1151)),.UNSPECIFIED.,.F.,.F.,.F.,(4,1,1,1,4),(4,1,1,1,1,4),
(0.,0.285714285714286,0.571428571428571,0.857142857142857,1.),(-1.57079632679488,
-1.12199737628206,-0.897597901025648,-0.673198425769236,-0.448798950512824,
-1.11022302462516E-16),.UNSPECIFIED.);
#19=B_SPLINE_SURFACE_WITH_KNOTS('',3,3,((#1165,#1166,#1167,#1168,#1169,
#1170,#1171),(#1172,#1173,#1174,#1175,#1176,#1177,#1178),(#1179,#1180,#1181,
#1182,#1183,#1184,#1185),(#1186,#1187,#1188,#1189,#1190,#1191,#1192),(#1193,
#1194,#1195,#1196,#1197,#1198,#1199),(#1200,#1201,#1202,#1203,#1204,#1205,
#1206),(#1207,#1208,#1209,#1210,#1211,#1212,#1213)),.UNSPECIFIED.,.F.,.F.,
 .F.,(4,1,1,1,4),(4,1,1,1,4),(0.,0.285714285714286,0.571428571428571,0.857142857142857,
1.),(-6.28318530717959,-6.05878583192317,-5.60998688141034,-5.16118793089752,
-4.71238898038469),.UNSPECIFIED.);
#20=B_SPLINE_SURFACE_WITH_KNOTS('',3,3,((#1225,#1226,#1227,#1228,#1229,
#1230,#1231),(#1232,#1233,#1234,#1235,#1236,#1237,#1238),(#1239,#1240,#1241,
#1242,#1243,#1244,#1245),(#1246,#1247,#1248,#1249,#1250,#1251,#1252),(#1253,
#1254,#1255,#1256,#1257,#1258,#1259),(#1260,#1261,#1262,#1263,#1264,#1265,
#1266),(#1267,#1268,#1269,#1270,#1271,#1272,#1273)),.UNSPECIFIED.,.F.,.F.,
 .F.,(4,1,1,1,4),(4,1,1,1,4),(0.,0.285714285714286,0.571428571428571,0.857142857142857,
1.),(-1.5707963267949,-1.12199737628207,-0.897597901025656,-0.448798950512828,
2.77555756156289E-16),.UNSPECIFIED.);
#21=B_SPLINE_CURVE_WITH_KNOTS('',3,(#1011,#1012,#1013,#1014,#1015,#1016,
#1017,#1018),.UNSPECIFIED.,.F.,.F.,(4,1,1,1,1,4),(-1.57079632679488,-1.12199737628206,
-0.897597901025648,-0.673198425769236,-0.448798950512824,-1.11022302462516E-16),
 .UNSPECIFIED.);
#22=B_SPLINE_CURVE_WITH_KNOTS('',3,(#1022,#1023,#1024,#1025,#1026,#1027,
#1028),.UNSPECIFIED.,.F.,.F.,(4,1,1,1,4),(-6.28318530717959,-6.05878583192317,
-5.60998688141035,-5.16118793089753,-4.7123889803847),.UNSPECIFIED.);
#23=ELLIPSE('',#676,132.059353620433,100.);
#24=ELLIPSE('',#678,132.059353620433,100.);
#25=ELLIPSE('',#683,113.682201211534,100.);
#26=ELLIPSE('',#684,113.682201211534,100.);
#27=ELLIPSE('',#686,23.2839245574101,20.);
#28=ELLIPSE('',#689,39.9115386848503,20.);
#29=ELLIPSE('',#693,39.9115386848503,20.);
#30=ELLIPSE('',#695,23.2839245574103,20.);
#31=ELLIPSE('',#699,31.7862133386219,20.);
#32=ELLIPSE('',#700,47.014501575667,40.);
#33=ELLIPSE('',#704,31.7862133386219,20.);
#34=ELLIPSE('',#705,47.014501575667,40.);
#35=PLANE('',#662);
#36=PLANE('',#665);
#37=PLANE('',#668);
#38=PLANE('',#673);
#39=PLANE('',#675);
#40=PLANE('',#677);
#41=PLANE('',#679);
#42=PLANE('',#682);
#43=PLANE('',#707);
#44=PLANE('',#710);
#45=PLANE('',#713);
#46=PLANE('',#723);
#47=PLANE('',#724);
#48=PLANE('',#726);
#49=PLANE('',#728);
#50=FACE_OUTER_BOUND('',#88,.T.);
#51=FACE_OUTER_BOUND('',#89,.T.);
#52=FACE_OUTER_BOUND('',#90,.T.);
#53=FACE_OUTER_BOUND('',#91,.T.);
#54=FACE_OUTER_BOUND('',#92,.T.);
#55=FACE_OUTER_BOUND('',#93,.T.);
#56=FACE_OUTER_BOUND('',#94,.T.);
#57=FACE_OUTER_BOUND('',#95,.T.);
#58=FACE_OUTER_BOUND('',#96,.T.);
#59=FACE_OUTER_BOUND('',#97,.T.);
#60=FACE_OUTER_BOUND('',#98,.T.);
#61=FACE_OUTER_BOUND('',#99,.T.);
#62=FACE_OUTER_BOUND('',#100,.T.);
#63=FACE_OUTER_BOUND('',#101,.T.);
#64=FACE_OUTER_BOUND('',#102,.T.);
#65=FACE_OUTER_BOUND('',#103,.T.);
#66=FACE_OUTER_BOUND('',#104,.T.);
#67=FACE_OUTER_BOUND('',#105,.T.);
#68=FACE_OUTER_BOUND('',#106,.T.);
#69=FACE_OUTER_BOUND('',#107,.T.);
#70=FACE_OUTER_BOUND('',#108,.T.);
#71=FACE_OUTER_BOUND('',#109,.T.);
#72=FACE_OUTER_BOUND('',#110,.T.);
#73=FACE_OUTER_BOUND('',#111,.T.);
#74=FACE_OUTER_BOUND('',#112,.T.);
#75=FACE_OUTER_BOUND('',#113,.T.);
#76=FACE_OUTER_BOUND('',#114,.T.);
#77=FACE_OUTER_BOUND('',#115,.T.);
#78=FACE_OUTER_BOUND('',#116,.T.);
#79=FACE_OUTER_BOUND('',#117,.T.);
#80=FACE_OUTER_BOUND('',#118,.T.);
#81=FACE_OUTER_BOUND('',#119,.T.);
#82=FACE_OUTER_BOUND('',#120,.T.);
#83=FACE_OUTER_BOUND('',#121,.T.);
#84=FACE_OUTER_BOUND('',#122,.T.);
#85=FACE_OUTER_BOUND('',#123,.T.);
#86=FACE_OUTER_BOUND('',#124,.T.);
#87=FACE_OUTER_BOUND('',#125,.T.);
#88=EDGE_LOOP('',(#406,#407,#408,#409));
#89=EDGE_LOOP('',(#410,#411,#412,#413,#414,#415,#416));
#90=EDGE_LOOP('',(#417,#418,#419,#420,#421,#422,#423));
#91=EDGE_LOOP('',(#424,#425,#426,#427,#428,#429,#430,#431,#432,#433));
#92=EDGE_LOOP('',(#434,#435,#436,#437));
#93=EDGE_LOOP('',(#438,#439,#440,#441));
#94=EDGE_LOOP('',(#442,#443,#444,#445));
#95=EDGE_LOOP('',(#446,#447,#448,#449,#450));
#96=EDGE_LOOP('',(#451,#452,#453,#454,#455));
#97=EDGE_LOOP('',(#456,#457,#458,#459));
#98=EDGE_LOOP('',(#460,#461,#462,#463));
#99=EDGE_LOOP('',(#464,#465,#466,#467,#468,#469,#470,#471,#472,#473,#474,
#475,#476,#477));
#100=EDGE_LOOP('',(#478,#479,#480,#481));
#101=EDGE_LOOP('',(#482,#483,#484,#485));
#102=EDGE_LOOP('',(#486,#487,#488,#489));
#103=EDGE_LOOP('',(#490,#491,#492,#493));
#104=EDGE_LOOP('',(#494,#495,#496,#497));
#105=EDGE_LOOP('',(#498,#499,#500,#501));
#106=EDGE_LOOP('',(#502,#503,#504,#505));
#107=EDGE_LOOP('',(#506,#507,#508,#509));
#108=EDGE_LOOP('',(#510,#511,#512,#513));
#109=EDGE_LOOP('',(#514,#515,#516,#517));
#110=EDGE_LOOP('',(#518,#519,#520,#521));
#111=EDGE_LOOP('',(#522,#523,#524,#525));
#112=EDGE_LOOP('',(#526,#527,#528,#529));
#113=EDGE_LOOP('',(#530,#531,#532,#533));
#114=EDGE_LOOP('',(#534,#535,#536,#537,#538,#539,#540,#541,#542,#543));
#115=EDGE_LOOP('',(#544,#545,#546));
#116=EDGE_LOOP('',(#547,#548,#549));
#117=EDGE_LOOP('',(#550,#551,#552,#553));
#118=EDGE_LOOP('',(#554,#555,#556,#557));
#119=EDGE_LOOP('',(#558,#559,#560,#561));
#120=EDGE_LOOP('',(#562,#563,#564,#565));
#121=EDGE_LOOP('',(#566,#567,#568,#569));
#122=EDGE_LOOP('',(#570,#571,#572,#573,#574));
#123=EDGE_LOOP('',(#575,#576,#577,#578,#579));
#124=EDGE_LOOP('',(#580,#581,#582,#583,#584));
#125=EDGE_LOOP('',(#585,#586,#587,#588,#589));
#126=LINE('',#931,#180);
#127=LINE('',#934,#181);
#128=LINE('',#939,#182);
#129=LINE('',#941,#183);
#130=LINE('',#943,#184);
#131=LINE('',#946,#185);
#132=LINE('',#949,#186);
#133=LINE('',#953,#187);
#134=LINE('',#955,#188);
#135=LINE('',#957,#189);
#136=LINE('',#961,#190);
#137=LINE('',#963,#191);
#138=LINE('',#967,#192);
#139=LINE('',#971,#193);
#140=LINE('',#972,#194);
#141=LINE('',#976,#195);
#142=LINE('',#979,#196);
#143=LINE('',#980,#197);
#144=LINE('',#982,#198);
#145=LINE('',#985,#199);
#146=LINE('',#988,#200);
#147=LINE('',#994,#201);
#148=LINE('',#995,#202);
#149=LINE('',#996,#203);
#150=LINE('',#999,#204);
#151=LINE('',#1000,#205);
#152=LINE('',#1007,#206);
#153=LINE('',#1009,#207);
#154=LINE('',#1020,#208);
#155=LINE('',#1030,#209);
#156=LINE('',#1032,#210);
#157=LINE('',#1037,#211);
#158=LINE('',#1095,#212);
#159=LINE('',#1158,#213);
#160=LINE('',#1161,#214);
#161=LINE('',#1163,#215);
#162=LINE('',#1223,#216);
#163=LINE('',#1224,#217);
#164=LINE('',#1280,#218);
#165=LINE('',#1281,#219);
#166=LINE('',#1284,#220);
#167=LINE('',#1285,#221);
#168=LINE('',#1289,#222);
#169=LINE('',#1292,#223);
#170=LINE('',#1293,#224);
#171=LINE('',#1297,#225);
#172=LINE('',#1299,#226);
#173=LINE('',#1300,#227);
#174=LINE('',#1310,#228);
#175=LINE('',#1312,#229);
#176=LINE('',#1314,#230);
#177=LINE('',#1315,#231);
#178=LINE('',#1319,#232);
#179=LINE('',#1322,#233);
#180=VECTOR('',#735,10.);
#181=VECTOR('',#738,10.);
#182=VECTOR('',#743,10.);
#183=VECTOR('',#744,10.);
#184=VECTOR('',#745,10.);
#185=VECTOR('',#748,10.);
#186=VECTOR('',#751,10.);
#187=VECTOR('',#754,10.);
#188=VECTOR('',#755,10.);
#189=VECTOR('',#756,10.);
#190=VECTOR('',#761,10.);
#191=VECTOR('',#762,10.);
#192=VECTOR('',#765,10.);
#193=VECTOR('',#768,10.);
#194=VECTOR('',#769,10.);
#195=VECTOR('',#774,10.);
#196=VECTOR('',#777,10.);
#197=VECTOR('',#778,10.);
#198=VECTOR('',#781,10.);
#199=VECTOR('',#784,10.);
#200=VECTOR('',#787,10.);
#201=VECTOR('',#792,10.);
#202=VECTOR('',#793,10.);
#203=VECTOR('',#794,10.);
#204=VECTOR('',#797,10.);
#205=VECTOR('',#798,10.);
#206=VECTOR('',#807,10.);
#207=VECTOR('',#808,10.);
#208=VECTOR('',#809,10.);
#209=VECTOR('',#810,10.);
#210=VECTOR('',#811,10.);
#211=VECTOR('',#816,10.);
#212=VECTOR('',#829,10.);
#213=VECTOR('',#838,10.);
#214=VECTOR('',#841,10.);
#215=VECTOR('',#842,10.);
#216=VECTOR('',#855,10.);
#217=VECTOR('',#856,10.);
#218=VECTOR('',#865,10.);
#219=VECTOR('',#866,10.);
#220=VECTOR('',#869,10.);
#221=VECTOR('',#870,10.);
#222=VECTOR('',#875,10.);
#223=VECTOR('',#878,10.);
#224=VECTOR('',#879,10.);
#225=VECTOR('',#884,10.);
#226=VECTOR('',#887,10.);
#227=VECTOR('',#888,10.);
#228=VECTOR('',#903,10.);
#229=VECTOR('',#906,10.);
#230=VECTOR('',#909,10.);
#231=VECTOR('',#910,10.);
#232=VECTOR('',#917,10.);
#233=VECTOR('',#922,10.);
#234=CIRCLE('',#660,9291.3792689298);
#235=CIRCLE('',#661,9291.3792689298);
#236=CIRCLE('',#663,2829.03115354955);
#237=CIRCLE('',#664,299.999999999997);
#238=CIRCLE('',#666,299.999999999997);
#239=CIRCLE('',#667,2829.03115354955);
#240=CIRCLE('',#669,100.);
#241=CIRCLE('',#670,100.);
#242=CIRCLE('',#672,299.999999999997);
#243=CIRCLE('',#681,299.999999999997);
#244=CIRCLE('',#687,20.);
#245=CIRCLE('',#688,20.0000000000004);
#246=CIRCLE('',#691,19.9999999999997);
#247=CIRCLE('',#692,20.);
#248=CIRCLE('',#697,20.);
#249=CIRCLE('',#698,20.0000000000001);
#250=CIRCLE('',#702,20.0000000000001);
#251=CIRCLE('',#703,20.);
#252=CIRCLE('',#709,19.9999999999997);
#253=CIRCLE('',#712,20.);
#254=CIRCLE('',#715,19.9999999999999);
#255=CIRCLE('',#716,19.9999999999992);
#256=CIRCLE('',#718,20.);
#257=CIRCLE('',#719,19.9999999999998);
#258=VERTEX_POINT('',#927);
#259=VERTEX_POINT('',#928);
#260=VERTEX_POINT('',#930);
#261=VERTEX_POINT('',#932);
#262=VERTEX_POINT('',#936);
#263=VERTEX_POINT('',#938);
#264=VERTEX_POINT('',#940);
#265=VERTEX_POINT('',#942);
#266=VERTEX_POINT('',#944);
#267=VERTEX_POINT('',#948);
#268=VERTEX_POINT('',#950);
#269=VERTEX_POINT('',#952);
#270=VERTEX_POINT('',#954);
#271=VERTEX_POINT('',#956);
#272=VERTEX_POINT('',#960);
#273=VERTEX_POINT('',#962);
#274=VERTEX_POINT('',#964);
#275=VERTEX_POINT('',#966);
#276=VERTEX_POINT('',#968);
#277=VERTEX_POINT('',#970);
#278=VERTEX_POINT('',#974);
#279=VERTEX_POINT('',#978);
#280=VERTEX_POINT('',#984);
#281=VERTEX_POINT('',#986);
#282=VERTEX_POINT('',#990);
#283=VERTEX_POINT('',#991);
#284=VERTEX_POINT('',#993);
#285=VERTEX_POINT('',#998);
#286=VERTEX_POINT('',#1004);
#287=VERTEX_POINT('',#1006);
#288=VERTEX_POINT('',#1008);
#289=VERTEX_POINT('',#1010);
#290=VERTEX_POINT('',#1019);
#291=VERTEX_POINT('',#1021);
#292=VERTEX_POINT('',#1029);
#293=VERTEX_POINT('',#1031);
#294=VERTEX_POINT('',#1035);
#295=VERTEX_POINT('',#1036);
#296=VERTEX_POINT('',#1089);
#297=VERTEX_POINT('',#1093);
#298=VERTEX_POINT('',#1152);
#299=VERTEX_POINT('',#1156);
#300=VERTEX_POINT('',#1160);
#301=VERTEX_POINT('',#1162);
#302=VERTEX_POINT('',#1214);
#303=VERTEX_POINT('',#1215);
#304=VERTEX_POINT('',#1220);
#305=VERTEX_POINT('',#1221);
#306=VERTEX_POINT('',#1274);
#307=VERTEX_POINT('',#1275);
#308=VERTEX_POINT('',#1283);
#309=VERTEX_POINT('',#1287);
#310=VERTEX_POINT('',#1291);
#311=VERTEX_POINT('',#1295);
#312=VERTEX_POINT('',#1302);
#313=VERTEX_POINT('',#1306);
#314=EDGE_CURVE('',#258,#259,#234,.T.);
#315=EDGE_CURVE('',#260,#258,#126,.T.);
#316=EDGE_CURVE('',#261,#260,#235,.T.);
#317=EDGE_CURVE('',#259,#261,#127,.T.);
#318=EDGE_CURVE('',#259,#262,#236,.T.);
#319=EDGE_CURVE('',#263,#262,#128,.T.);
#320=EDGE_CURVE('',#264,#263,#129,.F.);
#321=EDGE_CURVE('',#265,#264,#130,.F.);
#322=EDGE_CURVE('',#266,#265,#237,.F.);
#323=EDGE_CURVE('',#258,#266,#131,.F.);
#324=EDGE_CURVE('',#260,#267,#132,.T.);
#325=EDGE_CURVE('',#267,#268,#238,.T.);
#326=EDGE_CURVE('',#268,#269,#133,.T.);
#327=EDGE_CURVE('',#269,#270,#134,.T.);
#328=EDGE_CURVE('',#270,#271,#135,.T.);
#329=EDGE_CURVE('',#271,#261,#239,.T.);
#330=EDGE_CURVE('',#266,#272,#136,.T.);
#331=EDGE_CURVE('',#272,#273,#137,.T.);
#332=EDGE_CURVE('',#273,#274,#240,.T.);
#333=EDGE_CURVE('',#274,#275,#138,.T.);
#334=EDGE_CURVE('',#275,#276,#241,.T.);
#335=EDGE_CURVE('',#276,#277,#139,.T.);
#336=EDGE_CURVE('',#277,#267,#140,.T.);
#337=EDGE_CURVE('',#277,#278,#242,.T.);
#338=EDGE_CURVE('',#278,#268,#141,.T.);
#339=EDGE_CURVE('',#278,#279,#142,.T.);
#340=EDGE_CURVE('',#279,#269,#143,.T.);
#341=EDGE_CURVE('',#262,#271,#144,.T.);
#342=EDGE_CURVE('',#279,#280,#145,.T.);
#343=EDGE_CURVE('',#280,#281,#23,.T.);
#344=EDGE_CURVE('',#281,#270,#146,.T.);
#345=EDGE_CURVE('',#282,#283,#24,.T.);
#346=EDGE_CURVE('',#283,#284,#147,.T.);
#347=EDGE_CURVE('',#264,#284,#148,.T.);
#348=EDGE_CURVE('',#263,#282,#149,.T.);
#349=EDGE_CURVE('',#284,#285,#150,.T.);
#350=EDGE_CURVE('',#265,#285,#151,.T.);
#351=EDGE_CURVE('',#285,#272,#243,.T.);
#352=EDGE_CURVE('',#281,#286,#25,.T.);
#353=EDGE_CURVE('',#286,#287,#152,.T.);
#354=EDGE_CURVE('',#287,#288,#153,.T.);
#355=EDGE_CURVE('',#288,#289,#21,.T.);
#356=EDGE_CURVE('',#289,#290,#154,.T.);
#357=EDGE_CURVE('',#290,#291,#22,.T.);
#358=EDGE_CURVE('',#291,#292,#155,.T.);
#359=EDGE_CURVE('',#292,#293,#156,.T.);
#360=EDGE_CURVE('',#293,#282,#26,.T.);
#361=EDGE_CURVE('',#294,#295,#157,.T.);
#362=EDGE_CURVE('',#294,#292,#27,.T.);
#363=EDGE_CURVE('',#295,#291,#244,.T.);
#364=EDGE_CURVE('',#296,#290,#245,.T.);
#365=EDGE_CURVE('',#295,#296,#28,.T.);
#366=EDGE_CURVE('',#297,#289,#246,.T.);
#367=EDGE_CURVE('',#296,#297,#158,.T.);
#368=EDGE_CURVE('',#298,#288,#247,.T.);
#369=EDGE_CURVE('',#297,#298,#29,.T.);
#370=EDGE_CURVE('',#299,#287,#30,.T.);
#371=EDGE_CURVE('',#298,#299,#159,.T.);
#372=EDGE_CURVE('',#299,#300,#160,.T.);
#373=EDGE_CURVE('',#301,#287,#161,.T.);
#374=EDGE_CURVE('',#300,#301,#248,.T.);
#375=EDGE_CURVE('',#302,#303,#249,.T.);
#376=EDGE_CURVE('',#300,#302,#31,.T.);
#377=EDGE_CURVE('',#303,#301,#32,.T.);
#378=EDGE_CURVE('',#304,#305,#250,.T.);
#379=EDGE_CURVE('',#302,#304,#162,.T.);
#380=EDGE_CURVE('',#305,#303,#163,.T.);
#381=EDGE_CURVE('',#306,#307,#251,.T.);
#382=EDGE_CURVE('',#304,#306,#33,.T.);
#383=EDGE_CURVE('',#307,#305,#34,.T.);
#384=EDGE_CURVE('',#292,#307,#164,.T.);
#385=EDGE_CURVE('',#306,#294,#165,.T.);
#386=EDGE_CURVE('',#300,#308,#166,.T.);
#387=EDGE_CURVE('',#308,#298,#167,.T.);
#388=EDGE_CURVE('',#309,#308,#252,.F.);
#389=EDGE_CURVE('',#297,#309,#168,.T.);
#390=EDGE_CURVE('',#309,#310,#169,.T.);
#391=EDGE_CURVE('',#310,#296,#170,.T.);
#392=EDGE_CURVE('',#311,#310,#253,.F.);
#393=EDGE_CURVE('',#295,#311,#171,.T.);
#394=EDGE_CURVE('',#275,#286,#172,.T.);
#395=EDGE_CURVE('',#274,#293,#173,.T.);
#396=EDGE_CURVE('',#312,#311,#254,.F.);
#397=EDGE_CURVE('',#310,#312,#255,.F.);
#398=EDGE_CURVE('',#308,#313,#256,.F.);
#399=EDGE_CURVE('',#313,#309,#257,.F.);
#400=EDGE_CURVE('',#312,#313,#174,.T.);
#401=EDGE_CURVE('',#313,#302,#175,.T.);
#402=EDGE_CURVE('',#311,#306,#176,.T.);
#403=EDGE_CURVE('',#304,#312,#177,.T.);
#404=EDGE_CURVE('',#280,#276,#178,.T.);
#405=EDGE_CURVE('',#283,#273,#179,.T.);
#406=ORIENTED_EDGE('',*,*,#314,.F.);
#407=ORIENTED_EDGE('',*,*,#315,.F.);
#408=ORIENTED_EDGE('',*,*,#316,.F.);
#409=ORIENTED_EDGE('',*,*,#317,.F.);
#410=ORIENTED_EDGE('',*,*,#314,.T.);
#411=ORIENTED_EDGE('',*,*,#318,.T.);
#412=ORIENTED_EDGE('',*,*,#319,.F.);
#413=ORIENTED_EDGE('',*,*,#320,.F.);
#414=ORIENTED_EDGE('',*,*,#321,.F.);
#415=ORIENTED_EDGE('',*,*,#322,.F.);
#416=ORIENTED_EDGE('',*,*,#323,.F.);
#417=ORIENTED_EDGE('',*,*,#316,.T.);
#418=ORIENTED_EDGE('',*,*,#324,.T.);
#419=ORIENTED_EDGE('',*,*,#325,.T.);
#420=ORIENTED_EDGE('',*,*,#326,.T.);
#421=ORIENTED_EDGE('',*,*,#327,.T.);
#422=ORIENTED_EDGE('',*,*,#328,.T.);
#423=ORIENTED_EDGE('',*,*,#329,.T.);
#424=ORIENTED_EDGE('',*,*,#315,.T.);
#425=ORIENTED_EDGE('',*,*,#323,.T.);
#426=ORIENTED_EDGE('',*,*,#330,.T.);
#427=ORIENTED_EDGE('',*,*,#331,.T.);
#428=ORIENTED_EDGE('',*,*,#332,.T.);
#429=ORIENTED_EDGE('',*,*,#333,.T.);
#430=ORIENTED_EDGE('',*,*,#334,.T.);
#431=ORIENTED_EDGE('',*,*,#335,.T.);
#432=ORIENTED_EDGE('',*,*,#336,.T.);
#433=ORIENTED_EDGE('',*,*,#324,.F.);
#434=ORIENTED_EDGE('',*,*,#337,.T.);
#435=ORIENTED_EDGE('',*,*,#338,.T.);
#436=ORIENTED_EDGE('',*,*,#325,.F.);
#437=ORIENTED_EDGE('',*,*,#336,.F.);
#438=ORIENTED_EDGE('',*,*,#339,.T.);
#439=ORIENTED_EDGE('',*,*,#340,.T.);
#440=ORIENTED_EDGE('',*,*,#326,.F.);
#441=ORIENTED_EDGE('',*,*,#338,.F.);
#442=ORIENTED_EDGE('',*,*,#318,.F.);
#443=ORIENTED_EDGE('',*,*,#317,.T.);
#444=ORIENTED_EDGE('',*,*,#329,.F.);
#445=ORIENTED_EDGE('',*,*,#341,.F.);
#446=ORIENTED_EDGE('',*,*,#342,.T.);
#447=ORIENTED_EDGE('',*,*,#343,.T.);
#448=ORIENTED_EDGE('',*,*,#344,.T.);
#449=ORIENTED_EDGE('',*,*,#327,.F.);
#450=ORIENTED_EDGE('',*,*,#340,.F.);
#451=ORIENTED_EDGE('',*,*,#345,.T.);
#452=ORIENTED_EDGE('',*,*,#346,.T.);
#453=ORIENTED_EDGE('',*,*,#347,.F.);
#454=ORIENTED_EDGE('',*,*,#320,.T.);
#455=ORIENTED_EDGE('',*,*,#348,.T.);
#456=ORIENTED_EDGE('',*,*,#349,.T.);
#457=ORIENTED_EDGE('',*,*,#350,.F.);
#458=ORIENTED_EDGE('',*,*,#321,.T.);
#459=ORIENTED_EDGE('',*,*,#347,.T.);
#460=ORIENTED_EDGE('',*,*,#351,.T.);
#461=ORIENTED_EDGE('',*,*,#330,.F.);
#462=ORIENTED_EDGE('',*,*,#322,.T.);
#463=ORIENTED_EDGE('',*,*,#350,.T.);
#464=ORIENTED_EDGE('',*,*,#352,.T.);
#465=ORIENTED_EDGE('',*,*,#353,.T.);
#466=ORIENTED_EDGE('',*,*,#354,.T.);
#467=ORIENTED_EDGE('',*,*,#355,.T.);
#468=ORIENTED_EDGE('',*,*,#356,.T.);
#469=ORIENTED_EDGE('',*,*,#357,.T.);
#470=ORIENTED_EDGE('',*,*,#358,.T.);
#471=ORIENTED_EDGE('',*,*,#359,.T.);
#472=ORIENTED_EDGE('',*,*,#360,.T.);
#473=ORIENTED_EDGE('',*,*,#348,.F.);
#474=ORIENTED_EDGE('',*,*,#319,.T.);
#475=ORIENTED_EDGE('',*,*,#341,.T.);
#476=ORIENTED_EDGE('',*,*,#328,.F.);
#477=ORIENTED_EDGE('',*,*,#344,.F.);
#478=ORIENTED_EDGE('',*,*,#361,.F.);
#479=ORIENTED_EDGE('',*,*,#362,.T.);
#480=ORIENTED_EDGE('',*,*,#358,.F.);
#481=ORIENTED_EDGE('',*,*,#363,.F.);
#482=ORIENTED_EDGE('',*,*,#364,.F.);
#483=ORIENTED_EDGE('',*,*,#365,.F.);
#484=ORIENTED_EDGE('',*,*,#363,.T.);
#485=ORIENTED_EDGE('',*,*,#357,.F.);
#486=ORIENTED_EDGE('',*,*,#366,.F.);
#487=ORIENTED_EDGE('',*,*,#367,.F.);
#488=ORIENTED_EDGE('',*,*,#364,.T.);
#489=ORIENTED_EDGE('',*,*,#356,.F.);
#490=ORIENTED_EDGE('',*,*,#368,.F.);
#491=ORIENTED_EDGE('',*,*,#369,.F.);
#492=ORIENTED_EDGE('',*,*,#366,.T.);
#493=ORIENTED_EDGE('',*,*,#355,.F.);
#494=ORIENTED_EDGE('',*,*,#354,.F.);
#495=ORIENTED_EDGE('',*,*,#370,.F.);
#496=ORIENTED_EDGE('',*,*,#371,.F.);
#497=ORIENTED_EDGE('',*,*,#368,.T.);
#498=ORIENTED_EDGE('',*,*,#372,.F.);
#499=ORIENTED_EDGE('',*,*,#370,.T.);
#500=ORIENTED_EDGE('',*,*,#373,.F.);
#501=ORIENTED_EDGE('',*,*,#374,.F.);
#502=ORIENTED_EDGE('',*,*,#375,.F.);
#503=ORIENTED_EDGE('',*,*,#376,.F.);
#504=ORIENTED_EDGE('',*,*,#374,.T.);
#505=ORIENTED_EDGE('',*,*,#377,.F.);
#506=ORIENTED_EDGE('',*,*,#378,.F.);
#507=ORIENTED_EDGE('',*,*,#379,.F.);
#508=ORIENTED_EDGE('',*,*,#375,.T.);
#509=ORIENTED_EDGE('',*,*,#380,.F.);
#510=ORIENTED_EDGE('',*,*,#381,.F.);
#511=ORIENTED_EDGE('',*,*,#382,.F.);
#512=ORIENTED_EDGE('',*,*,#378,.T.);
#513=ORIENTED_EDGE('',*,*,#383,.F.);
#514=ORIENTED_EDGE('',*,*,#384,.F.);
#515=ORIENTED_EDGE('',*,*,#362,.F.);
#516=ORIENTED_EDGE('',*,*,#385,.F.);
#517=ORIENTED_EDGE('',*,*,#381,.T.);
#518=ORIENTED_EDGE('',*,*,#372,.T.);
#519=ORIENTED_EDGE('',*,*,#386,.T.);
#520=ORIENTED_EDGE('',*,*,#387,.T.);
#521=ORIENTED_EDGE('',*,*,#371,.T.);
#522=ORIENTED_EDGE('',*,*,#369,.T.);
#523=ORIENTED_EDGE('',*,*,#387,.F.);
#524=ORIENTED_EDGE('',*,*,#388,.F.);
#525=ORIENTED_EDGE('',*,*,#389,.F.);
#526=ORIENTED_EDGE('',*,*,#367,.T.);
#527=ORIENTED_EDGE('',*,*,#389,.T.);
#528=ORIENTED_EDGE('',*,*,#390,.T.);
#529=ORIENTED_EDGE('',*,*,#391,.T.);
#530=ORIENTED_EDGE('',*,*,#365,.T.);
#531=ORIENTED_EDGE('',*,*,#391,.F.);
#532=ORIENTED_EDGE('',*,*,#392,.F.);
#533=ORIENTED_EDGE('',*,*,#393,.F.);
#534=ORIENTED_EDGE('',*,*,#373,.T.);
#535=ORIENTED_EDGE('',*,*,#353,.F.);
#536=ORIENTED_EDGE('',*,*,#394,.F.);
#537=ORIENTED_EDGE('',*,*,#333,.F.);
#538=ORIENTED_EDGE('',*,*,#395,.T.);
#539=ORIENTED_EDGE('',*,*,#359,.F.);
#540=ORIENTED_EDGE('',*,*,#384,.T.);
#541=ORIENTED_EDGE('',*,*,#383,.T.);
#542=ORIENTED_EDGE('',*,*,#380,.T.);
#543=ORIENTED_EDGE('',*,*,#377,.T.);
#544=ORIENTED_EDGE('',*,*,#396,.T.);
#545=ORIENTED_EDGE('',*,*,#392,.T.);
#546=ORIENTED_EDGE('',*,*,#397,.T.);
#547=ORIENTED_EDGE('',*,*,#398,.T.);
#548=ORIENTED_EDGE('',*,*,#399,.T.);
#549=ORIENTED_EDGE('',*,*,#388,.T.);
#550=ORIENTED_EDGE('',*,*,#399,.F.);
#551=ORIENTED_EDGE('',*,*,#400,.F.);
#552=ORIENTED_EDGE('',*,*,#397,.F.);
#553=ORIENTED_EDGE('',*,*,#390,.F.);
#554=ORIENTED_EDGE('',*,*,#376,.T.);
#555=ORIENTED_EDGE('',*,*,#401,.F.);
#556=ORIENTED_EDGE('',*,*,#398,.F.);
#557=ORIENTED_EDGE('',*,*,#386,.F.);
#558=ORIENTED_EDGE('',*,*,#382,.T.);
#559=ORIENTED_EDGE('',*,*,#402,.F.);
#560=ORIENTED_EDGE('',*,*,#396,.F.);
#561=ORIENTED_EDGE('',*,*,#403,.F.);
#562=ORIENTED_EDGE('',*,*,#379,.T.);
#563=ORIENTED_EDGE('',*,*,#403,.T.);
#564=ORIENTED_EDGE('',*,*,#400,.T.);
#565=ORIENTED_EDGE('',*,*,#401,.T.);
#566=ORIENTED_EDGE('',*,*,#385,.T.);
#567=ORIENTED_EDGE('',*,*,#361,.T.);
#568=ORIENTED_EDGE('',*,*,#393,.T.);
#569=ORIENTED_EDGE('',*,*,#402,.T.);
#570=ORIENTED_EDGE('',*,*,#352,.F.);
#571=ORIENTED_EDGE('',*,*,#343,.F.);
#572=ORIENTED_EDGE('',*,*,#404,.T.);
#573=ORIENTED_EDGE('',*,*,#334,.F.);
#574=ORIENTED_EDGE('',*,*,#394,.T.);
#575=ORIENTED_EDGE('',*,*,#339,.F.);
#576=ORIENTED_EDGE('',*,*,#337,.F.);
#577=ORIENTED_EDGE('',*,*,#335,.F.);
#578=ORIENTED_EDGE('',*,*,#404,.F.);
#579=ORIENTED_EDGE('',*,*,#342,.F.);
#580=ORIENTED_EDGE('',*,*,#360,.F.);
#581=ORIENTED_EDGE('',*,*,#395,.F.);
#582=ORIENTED_EDGE('',*,*,#332,.F.);
#583=ORIENTED_EDGE('',*,*,#405,.F.);
#584=ORIENTED_EDGE('',*,*,#345,.F.);
#585=ORIENTED_EDGE('',*,*,#349,.F.);
#586=ORIENTED_EDGE('',*,*,#346,.F.);
#587=ORIENTED_EDGE('',*,*,#405,.T.);
#588=ORIENTED_EDGE('',*,*,#331,.F.);
#589=ORIENTED_EDGE('',*,*,#351,.F.);
#590=CYLINDRICAL_SURFACE('',#659,9291.3792689298);
#591=CYLINDRICAL_SURFACE('',#671,299.999999999997);
#592=CYLINDRICAL_SURFACE('',#674,2829.03115354955);
#593=CYLINDRICAL_SURFACE('',#680,299.999999999997);
#594=CYLINDRICAL_SURFACE('',#685,20.);
#595=CYLINDRICAL_SURFACE('',#690,20.);
#596=CYLINDRICAL_SURFACE('',#694,20.);
#597=CYLINDRICAL_SURFACE('',#696,20.);
#598=CYLINDRICAL_SURFACE('',#701,20.);
#599=CYLINDRICAL_SURFACE('',#706,20.);
#600=CYLINDRICAL_SURFACE('',#708,20.);
#601=CYLINDRICAL_SURFACE('',#711,20.);
#602=CYLINDRICAL_SURFACE('',#720,20.);
#603=CYLINDRICAL_SURFACE('',#721,20.);
#604=CYLINDRICAL_SURFACE('',#722,20.);
#605=CYLINDRICAL_SURFACE('',#725,100.);
#606=CYLINDRICAL_SURFACE('',#727,100.);
#607=ADVANCED_FACE('',(#50),#590,.F.);
#608=ADVANCED_FACE('',(#51),#35,.F.);
#609=ADVANCED_FACE('',(#52),#36,.T.);
#610=ADVANCED_FACE('',(#53),#37,.T.);
#611=ADVANCED_FACE('',(#54),#591,.T.);
#612=ADVANCED_FACE('',(#55),#38,.T.);
#613=ADVANCED_FACE('',(#56),#592,.F.);
#614=ADVANCED_FACE('',(#57),#39,.T.);
#615=ADVANCED_FACE('',(#58),#40,.T.);
#616=ADVANCED_FACE('',(#59),#41,.T.);
#617=ADVANCED_FACE('',(#60),#593,.T.);
#618=ADVANCED_FACE('',(#61),#42,.T.);
#619=ADVANCED_FACE('',(#62),#594,.T.);
#620=ADVANCED_FACE('',(#63),#17,.F.);
#621=ADVANCED_FACE('',(#64),#595,.T.);
#622=ADVANCED_FACE('',(#65),#18,.F.);
#623=ADVANCED_FACE('',(#66),#596,.T.);
#624=ADVANCED_FACE('',(#67),#597,.T.);
#625=ADVANCED_FACE('',(#68),#19,.F.);
#626=ADVANCED_FACE('',(#69),#598,.T.);
#627=ADVANCED_FACE('',(#70),#20,.F.);
#628=ADVANCED_FACE('',(#71),#599,.T.);
#629=ADVANCED_FACE('',(#72),#43,.T.);
#630=ADVANCED_FACE('',(#73),#600,.F.);
#631=ADVANCED_FACE('',(#74),#44,.F.);
#632=ADVANCED_FACE('',(#75),#601,.F.);
#633=ADVANCED_FACE('',(#76),#45,.F.);
#634=ADVANCED_FACE('',(#77),#15,.F.);
#635=ADVANCED_FACE('',(#78),#16,.F.);
#636=ADVANCED_FACE('',(#79),#602,.F.);
#637=ADVANCED_FACE('',(#80),#603,.F.);
#638=ADVANCED_FACE('',(#81),#604,.F.);
#639=ADVANCED_FACE('',(#82),#46,.F.);
#640=ADVANCED_FACE('',(#83),#47,.T.);
#641=ADVANCED_FACE('',(#84),#605,.F.);
#642=ADVANCED_FACE('',(#85),#48,.F.);
#643=ADVANCED_FACE('',(#86),#606,.F.);
#644=ADVANCED_FACE('',(#87),#49,.T.);
#645=CLOSED_SHELL('',(#607,#608,#609,#610,#611,#612,#613,#614,#615,#616,
#617,#618,#619,#620,#621,#622,#623,#624,#625,#626,#627,#628,#629,#630,#631,
#632,#633,#634,#635,#636,#637,#638,#639,#640,#641,#642,#643,#644));
#646=DERIVED_UNIT_ELEMENT(#648,1.);
#647=DERIVED_UNIT_ELEMENT(#1329,-3.);
#648=(
MASS_UNIT()
NAMED_UNIT(*)
SI_UNIT(.KILO.,.GRAM.)
);
#649=DERIVED_UNIT((#646,#647));
#650=MEASURE_REPRESENTATION_ITEM('density measure',
POSITIVE_RATIO_MEASURE(7850.),#649);
#651=PROPERTY_DEFINITION_REPRESENTATION(#656,#653);
#652=PROPERTY_DEFINITION_REPRESENTATION(#657,#654);
#653=REPRESENTATION('material name',(#655),#1326);
#654=REPRESENTATION('density',(#650),#1326);
#655=DESCRIPTIVE_REPRESENTATION_ITEM('Steel','Steel');
#656=PROPERTY_DEFINITION('material property','material name',#1336);
#657=PROPERTY_DEFINITION('material property','density of part',#1336);
#658=AXIS2_PLACEMENT_3D('',#925,#729,#730);
#659=AXIS2_PLACEMENT_3D('',#926,#731,#732);
#660=AXIS2_PLACEMENT_3D('',#929,#733,#734);
#661=AXIS2_PLACEMENT_3D('',#933,#736,#737);
#662=AXIS2_PLACEMENT_3D('',#935,#739,#740);
#663=AXIS2_PLACEMENT_3D('',#937,#741,#742);
#664=AXIS2_PLACEMENT_3D('',#945,#746,#747);
#665=AXIS2_PLACEMENT_3D('',#947,#749,#750);
#666=AXIS2_PLACEMENT_3D('',#951,#752,#753);
#667=AXIS2_PLACEMENT_3D('',#958,#757,#758);
#668=AXIS2_PLACEMENT_3D('',#959,#759,#760);
#669=AXIS2_PLACEMENT_3D('',#965,#763,#764);
#670=AXIS2_PLACEMENT_3D('',#969,#766,#767);
#671=AXIS2_PLACEMENT_3D('',#973,#770,#771);
#672=AXIS2_PLACEMENT_3D('',#975,#772,#773);
#673=AXIS2_PLACEMENT_3D('',#977,#775,#776);
#674=AXIS2_PLACEMENT_3D('',#981,#779,#780);
#675=AXIS2_PLACEMENT_3D('',#983,#782,#783);
#676=AXIS2_PLACEMENT_3D('',#987,#785,#786);
#677=AXIS2_PLACEMENT_3D('',#989,#788,#789);
#678=AXIS2_PLACEMENT_3D('',#992,#790,#791);
#679=AXIS2_PLACEMENT_3D('',#997,#795,#796);
#680=AXIS2_PLACEMENT_3D('',#1001,#799,#800);
#681=AXIS2_PLACEMENT_3D('',#1002,#801,#802);
#682=AXIS2_PLACEMENT_3D('',#1003,#803,#804);
#683=AXIS2_PLACEMENT_3D('',#1005,#805,#806);
#684=AXIS2_PLACEMENT_3D('',#1033,#812,#813);
#685=AXIS2_PLACEMENT_3D('',#1034,#814,#815);
#686=AXIS2_PLACEMENT_3D('',#1038,#817,#818);
#687=AXIS2_PLACEMENT_3D('',#1039,#819,#820);
#688=AXIS2_PLACEMENT_3D('',#1090,#821,#822);
#689=AXIS2_PLACEMENT_3D('',#1091,#823,#824);
#690=AXIS2_PLACEMENT_3D('',#1092,#825,#826);
#691=AXIS2_PLACEMENT_3D('',#1094,#827,#828);
#692=AXIS2_PLACEMENT_3D('',#1153,#830,#831);
#693=AXIS2_PLACEMENT_3D('',#1154,#832,#833);
#694=AXIS2_PLACEMENT_3D('',#1155,#834,#835);
#695=AXIS2_PLACEMENT_3D('',#1157,#836,#837);
#696=AXIS2_PLACEMENT_3D('',#1159,#839,#840);
#697=AXIS2_PLACEMENT_3D('',#1164,#843,#844);
#698=AXIS2_PLACEMENT_3D('',#1216,#845,#846);
#699=AXIS2_PLACEMENT_3D('',#1217,#847,#848);
#700=AXIS2_PLACEMENT_3D('',#1218,#849,#850);
#701=AXIS2_PLACEMENT_3D('',#1219,#851,#852);
#702=AXIS2_PLACEMENT_3D('',#1222,#853,#854);
#703=AXIS2_PLACEMENT_3D('',#1276,#857,#858);
#704=AXIS2_PLACEMENT_3D('',#1277,#859,#860);
#705=AXIS2_PLACEMENT_3D('',#1278,#861,#862);
#706=AXIS2_PLACEMENT_3D('',#1279,#863,#864);
#707=AXIS2_PLACEMENT_3D('',#1282,#867,#868);
#708=AXIS2_PLACEMENT_3D('',#1286,#871,#872);
#709=AXIS2_PLACEMENT_3D('',#1288,#873,#874);
#710=AXIS2_PLACEMENT_3D('',#1290,#876,#877);
#711=AXIS2_PLACEMENT_3D('',#1294,#880,#881);
#712=AXIS2_PLACEMENT_3D('',#1296,#882,#883);
#713=AXIS2_PLACEMENT_3D('',#1298,#885,#886);
#714=AXIS2_PLACEMENT_3D('',#1301,#889,#890);
#715=AXIS2_PLACEMENT_3D('',#1303,#891,#892);
#716=AXIS2_PLACEMENT_3D('',#1304,#893,#894);
#717=AXIS2_PLACEMENT_3D('',#1305,#895,#896);
#718=AXIS2_PLACEMENT_3D('',#1307,#897,#898);
#719=AXIS2_PLACEMENT_3D('',#1308,#899,#900);
#720=AXIS2_PLACEMENT_3D('',#1309,#901,#902);
#721=AXIS2_PLACEMENT_3D('',#1311,#904,#905);
#722=AXIS2_PLACEMENT_3D('',#1313,#907,#908);
#723=AXIS2_PLACEMENT_3D('',#1316,#911,#912);
#724=AXIS2_PLACEMENT_3D('',#1317,#913,#914);
#725=AXIS2_PLACEMENT_3D('',#1318,#915,#916);
#726=AXIS2_PLACEMENT_3D('',#1320,#918,#919);
#727=AXIS2_PLACEMENT_3D('',#1321,#920,#921);
#728=AXIS2_PLACEMENT_3D('',#1323,#923,#924);
#729=DIRECTION('axis',(0.,0.,1.));
#730=DIRECTION('refdir',(1.,0.,0.));
#731=DIRECTION('center_axis',(-1.,0.,0.));
#732=DIRECTION('ref_axis',(0.,0.816281721660773,-0.577654006203129));
#733=DIRECTION('center_axis',(1.,0.,0.));
#734=DIRECTION('ref_axis',(0.,0.816281721660773,-0.577654006203129));
#735=DIRECTION('',(-1.,0.,0.));
#736=DIRECTION('center_axis',(-1.,0.,0.));
#737=DIRECTION('ref_axis',(0.,0.816281721660773,-0.577654006203129));
#738=DIRECTION('',(1.,0.,0.));
#739=DIRECTION('center_axis',(1.,0.,0.));
#740=DIRECTION('ref_axis',(0.,1.,0.));
#741=DIRECTION('center_axis',(1.,0.,0.));
#742=DIRECTION('ref_axis',(0.,0.960142508823753,-0.279510934937491));
#743=DIRECTION('',(0.,-0.879645176943093,0.475630489645853));
#744=DIRECTION('',(0.,0.757235267767716,-0.653142212116746));
#745=DIRECTION('',(0.,0.,-1.));
#746=DIRECTION('center_axis',(-1.,0.,0.));
#747=DIRECTION('ref_axis',(0.,-5.68434188608084E-15,-1.));
#748=DIRECTION('',(0.,-1.,0.));
#749=DIRECTION('center_axis',(1.,0.,0.));
#750=DIRECTION('ref_axis',(0.,1.,0.));
#751=DIRECTION('',(0.,1.,0.));
#752=DIRECTION('center_axis',(1.,0.,0.));
#753=DIRECTION('ref_axis',(0.,-5.68434188608084E-15,-1.));
#754=DIRECTION('',(0.,0.,1.));
#755=DIRECTION('',(0.,-0.757235267767716,0.653142212116746));
#756=DIRECTION('',(0.,-0.879645176943093,0.475630489645853));
#757=DIRECTION('center_axis',(-1.,0.,0.));
#758=DIRECTION('ref_axis',(0.,0.960142508823753,-0.279510934937491));
#759=DIRECTION('center_axis',(0.,0.,-1.));
#760=DIRECTION('ref_axis',(0.,1.,0.));
#761=DIRECTION('',(1.,0.,0.));
#762=DIRECTION('',(0.,-1.,0.));
#763=DIRECTION('center_axis',(0.,0.,1.));
#764=DIRECTION('ref_axis',(-0.707106781186547,-0.707106781186547,0.));
#765=DIRECTION('',(1.,0.,0.));
#766=DIRECTION('center_axis',(0.,0.,1.));
#767=DIRECTION('ref_axis',(0.707106781186547,-0.707106781186547,0.));
#768=DIRECTION('',(0.,1.,0.));
#769=DIRECTION('',(1.,0.,0.));
#770=DIRECTION('center_axis',(1.,0.,0.));
#771=DIRECTION('ref_axis',(0.,-5.68434188608084E-15,-1.));
#772=DIRECTION('center_axis',(1.,0.,0.));
#773=DIRECTION('ref_axis',(0.,-5.68434188608084E-15,-1.));
#774=DIRECTION('',(1.,0.,0.));
#775=DIRECTION('center_axis',(0.,1.,0.));
#776=DIRECTION('ref_axis',(0.,0.,1.));
#777=DIRECTION('',(0.,0.,1.));
#778=DIRECTION('',(1.,0.,0.));
#779=DIRECTION('center_axis',(1.,0.,0.));
#780=DIRECTION('ref_axis',(0.,0.960142508823753,-0.279510934937491));
#781=DIRECTION('',(1.,0.,0.));
#782=DIRECTION('center_axis',(0.,0.653142212116746,0.757235267767716));
#783=DIRECTION('ref_axis',(0.,-0.757235267767716,0.653142212116746));
#784=DIRECTION('',(0.,-0.757235267767716,0.653142212116746));
#785=DIRECTION('center_axis',(0.,-0.653142212116746,-0.757235267767716));
#786=DIRECTION('ref_axis',(0.,-0.757235267767716,0.653142212116746));
#787=DIRECTION('',(1.,0.,0.));
#788=DIRECTION('center_axis',(0.,0.653142212116746,0.757235267767716));
#789=DIRECTION('ref_axis',(0.,-0.757235267767716,0.653142212116746));
#790=DIRECTION('center_axis',(0.,-0.653142212116746,-0.757235267767716));
#791=DIRECTION('ref_axis',(0.,-0.757235267767716,0.653142212116746));
#792=DIRECTION('',(0.,0.757235267767716,-0.653142212116746));
#793=DIRECTION('',(1.,0.,0.));
#794=DIRECTION('',(1.,0.,0.));
#795=DIRECTION('center_axis',(0.,1.,0.));
#796=DIRECTION('ref_axis',(0.,0.,1.));
#797=DIRECTION('',(0.,0.,-1.));
#798=DIRECTION('',(1.,0.,0.));
#799=DIRECTION('center_axis',(1.,0.,0.));
#800=DIRECTION('ref_axis',(0.,-5.68434188608084E-15,-1.));
#801=DIRECTION('center_axis',(-1.,0.,0.));
#802=DIRECTION('ref_axis',(0.,-5.68434188608084E-15,-1.));
#803=DIRECTION('center_axis',(0.,0.475630489645853,0.879645176943093));
#804=DIRECTION('ref_axis',(0.,-0.879645176943093,0.475630489645853));
#805=DIRECTION('center_axis',(0.,-0.475630489645853,-0.879645176943093));
#806=DIRECTION('ref_axis',(0.,-0.879645176943093,0.475630489645853));
#807=DIRECTION('',(-1.,0.,0.));
#808=DIRECTION('',(0.,-0.879645176943093,0.475630489645853));
#809=DIRECTION('',(-1.,2.31097593363656E-17,-1.24956135006064E-17));
#810=DIRECTION('',(0.,0.879645176943093,-0.475630489645853));
#811=DIRECTION('',(-1.,0.,0.));
#812=DIRECTION('center_axis',(0.,-0.475630489645853,-0.879645176943093));
#813=DIRECTION('ref_axis',(0.,-0.879645176943093,0.475630489645853));
#814=DIRECTION('center_axis',(0.,-0.879645176943093,0.475630489645853));
#815=DIRECTION('ref_axis',(0.707106781186546,0.336321544567659,0.622003069654505));
#816=DIRECTION('',(0.,-0.879645176943093,0.475630489645853));
#817=DIRECTION('center_axis',(0.,-0.512039798430814,0.858961724888212));
#818=DIRECTION('ref_axis',(0.,-0.858961724888212,-0.512039798430814));
#819=DIRECTION('center_axis',(3.3795578932388E-15,-0.879645176943094,0.475630489645852));
#820=DIRECTION('ref_axis',(1.,0.,-7.105427357601E-15));
#821=DIRECTION('center_axis',(1.,0.,0.));
#822=DIRECTION('ref_axis',(0.,0.976637632087101,0.214892846766243));
#823=DIRECTION('center_axis',(0.,0.737482622681382,0.67536610904234));
#824=DIRECTION('ref_axis',(0.,-0.67536610904234,0.737482622681382));
#825=DIRECTION('center_axis',(1.,-2.31097593363656E-17,1.24956135006064E-17));
#826=DIRECTION('ref_axis',(0.,0.798589124311955,0.601876574166718));
#827=DIRECTION('center_axis',(1.,0.,0.));
#828=DIRECTION('ref_axis',(0.,0.976637632087103,0.214892846766236));
#829=DIRECTION('',(1.,-2.31097593363656E-17,1.24956135006064E-17));
#830=DIRECTION('center_axis',(0.,0.879645176943094,-0.475630489645852));
#831=DIRECTION('ref_axis',(-1.,0.,0.));
#832=DIRECTION('center_axis',(0.,0.737482622681382,0.67536610904234));
#833=DIRECTION('ref_axis',(0.,-0.67536610904234,0.737482622681382));
#834=DIRECTION('center_axis',(0.,0.879645176943093,-0.475630489645853));
#835=DIRECTION('ref_axis',(-0.707106781186546,0.336321544567659,0.622003069654505));
#836=DIRECTION('center_axis',(0.,0.512039798430814,-0.858961724888212));
#837=DIRECTION('ref_axis',(0.,-0.858961724888211,-0.512039798430814));
#838=DIRECTION('',(0.,0.879645176943093,-0.475630489645853));
#839=DIRECTION('center_axis',(0.,0.,-1.));
#840=DIRECTION('ref_axis',(-0.707106781186547,0.707106781186547,0.));
#841=DIRECTION('',(0.,0.,-1.));
#842=DIRECTION('',(0.,0.,1.));
#843=DIRECTION('center_axis',(0.,0.,-1.));
#844=DIRECTION('ref_axis',(-1.,0.,0.));
#845=DIRECTION('center_axis',(-1.,0.,0.));
#846=DIRECTION('ref_axis',(0.,0.525487501160679,0.850801320005972));
#847=DIRECTION('center_axis',(0.,0.943757435211633,0.330638629749702));
#848=DIRECTION('ref_axis',(0.,0.330638629749702,-0.943757435211633));
#849=DIRECTION('center_axis',(0.,-1.,0.));
#850=DIRECTION('ref_axis',(2.36144803713025E-16,0.,-1.));
#851=DIRECTION('center_axis',(1.,0.,-1.25753063058969E-17));
#852=DIRECTION('ref_axis',(0.,0.873352019852444,0.487089570222619));
#853=DIRECTION('center_axis',(-1.,0.,0.));
#854=DIRECTION('ref_axis',(0.,0.525487501160694,0.850801320005963));
#855=DIRECTION('',(-1.,0.,1.25753063058969E-17));
#856=DIRECTION('',(1.,0.,-1.25753063058969E-17));
#857=DIRECTION('center_axis',(0.,0.,1.));
#858=DIRECTION('ref_axis',(1.,0.,0.));
#859=DIRECTION('center_axis',(0.,0.943757435211633,0.330638629749702));
#860=DIRECTION('ref_axis',(0.,0.330638629749702,-0.943757435211633));
#861=DIRECTION('center_axis',(0.,-1.,0.));
#862=DIRECTION('ref_axis',(-2.36144803713025E-16,0.,-1.));
#863=DIRECTION('center_axis',(0.,0.,1.));
#864=DIRECTION('ref_axis',(0.707106781186547,0.707106781186547,0.));
#865=DIRECTION('',(0.,0.,-1.));
#866=DIRECTION('',(0.,0.,1.));
#867=DIRECTION('center_axis',(-1.,0.,0.));
#868=DIRECTION('ref_axis',(0.,0.,1.));
#869=DIRECTION('',(0.,-0.850801320005965,0.525487501160691));
#870=DIRECTION('',(0.,-0.214892846766236,0.976637632087103));
#871=DIRECTION('center_axis',(0.,-0.214892846766236,0.976637632087103));
#872=DIRECTION('ref_axis',(0.707106781186552,-0.690587092410759,-0.151952189176886));
#873=DIRECTION('center_axis',(-2.77577109979775E-14,0.214892846766236,-0.976637632087103));
#874=DIRECTION('ref_axis',(0.,-0.976637632087103,-0.214892846766236));
#875=DIRECTION('',(0.,0.214892846766236,-0.976637632087103));
#876=DIRECTION('center_axis',(-1.9884642679135E-17,-0.976637632087103,-0.214892846766236));
#877=DIRECTION('ref_axis',(-1.50122594306183E-17,-0.214892846766236,0.976637632087103));
#878=DIRECTION('',(-1.,2.03603076779265E-17,-6.14035581920363E-33));
#879=DIRECTION('',(0.,-0.214892846766236,0.976637632087103));
#880=DIRECTION('center_axis',(0.,0.214892846766236,-0.976637632087103));
#881=DIRECTION('ref_axis',(-0.707106781186552,-0.690587092410759,-0.151952189176886));
#882=DIRECTION('center_axis',(0.,0.214892846766209,-0.976637632087109));
#883=DIRECTION('ref_axis',(-1.,0.,0.));
#884=DIRECTION('',(0.,0.214892846766236,-0.976637632087103));
#885=DIRECTION('center_axis',(0.,-1.,0.));
#886=DIRECTION('ref_axis',(-1.,0.,0.));
#887=DIRECTION('',(0.,0.,1.));
#888=DIRECTION('',(0.,0.,1.));
#889=DIRECTION('center_axis',(0.,0.,1.));
#890=DIRECTION('ref_axis',(1.,0.,0.));
#891=DIRECTION('center_axis',(-3.53826677006874E-14,-0.850801320005968,
0.525487501160686));
#892=DIRECTION('ref_axis',(0.,-0.525487501160686,-0.850801320005969));
#893=DIRECTION('center_axis',(-1.,0.,0.));
#894=DIRECTION('ref_axis',(0.,-0.976637632087103,-0.214892846766235));
#895=DIRECTION('center_axis',(0.,0.,1.));
#896=DIRECTION('ref_axis',(1.,0.,0.));
#897=DIRECTION('center_axis',(0.,-0.85080132000595,0.525487501160716));
#898=DIRECTION('ref_axis',(1.,0.,0.));
#899=DIRECTION('center_axis',(1.,0.,0.));
#900=DIRECTION('ref_axis',(0.,-0.525487501160689,-0.850801320005967));
#901=DIRECTION('center_axis',(1.,-2.03603076779265E-17,6.43763914252637E-33));
#902=DIRECTION('ref_axis',(0.,-0.815591733386367,-0.578627794382383));
#903=DIRECTION('',(1.,-2.03603076779265E-17,7.02113905754885E-33));
#904=DIRECTION('center_axis',(0.,-0.850801320005965,0.525487501160691));
#905=DIRECTION('ref_axis',(0.707106781186549,-0.371575775499494,-0.601607382818684));
#906=DIRECTION('',(0.,0.850801320005965,-0.525487501160691));
#907=DIRECTION('center_axis',(0.,0.850801320005965,-0.525487501160691));
#908=DIRECTION('ref_axis',(-0.707106781186549,-0.371575775499494,-0.601607382818684));
#909=DIRECTION('',(0.,0.850801320005965,-0.525487501160691));
#910=DIRECTION('',(0.,-0.850801320005965,0.525487501160691));
#911=DIRECTION('center_axis',(-1.06990872045364E-17,-0.525487501160691,
-0.850801320005965));
#912=DIRECTION('ref_axis',(-2.48961896994371E-17,-0.850801320005965,0.525487501160691));
#913=DIRECTION('center_axis',(1.,0.,0.));
#914=DIRECTION('ref_axis',(0.,0.,-1.));
#915=DIRECTION('center_axis',(0.,0.,1.));
#916=DIRECTION('ref_axis',(0.707106781186547,-0.707106781186547,0.));
#917=DIRECTION('',(0.,0.,-1.));
#918=DIRECTION('center_axis',(1.,0.,0.));
#919=DIRECTION('ref_axis',(0.,-1.,0.));
#920=DIRECTION('center_axis',(0.,0.,-1.));
#921=DIRECTION('ref_axis',(-0.707106781186547,-0.707106781186547,0.));
#922=DIRECTION('',(0.,0.,-1.));
#923=DIRECTION('center_axis',(1.,0.,0.));
#924=DIRECTION('ref_axis',(0.,-1.,0.));
#925=CARTESIAN_POINT('',(0.,0.,0.));
#926=CARTESIAN_POINT('Origin',(-100.,-11284.8805573991,4577.20245785));
#927=CARTESIAN_POINT('',(-2809.,-3700.49749115391,-789.999999999999));
#928=CARTESIAN_POINT('',(-2809.,-3384.84014172456,-313.512229167296));
#929=CARTESIAN_POINT('Origin',(-2809.,-11284.8805573991,4577.20245785));
#930=CARTESIAN_POINT('',(-100.,-3700.49749115391,-789.999999999999));
#931=CARTESIAN_POINT('',(-100.,-3700.49749115391,-789.999999999999));
#932=CARTESIAN_POINT('',(-100.,-3384.84014172456,-313.512229167296));
#933=CARTESIAN_POINT('Origin',(-100.,-11284.8805573991,4577.20245785));
#934=CARTESIAN_POINT('',(-2809.,-3384.84014172456,-313.512229167296));
#935=CARTESIAN_POINT('Origin',(-2809.,-2935.84499999244,305.));
#936=CARTESIAN_POINT('',(-2809.,-2961.62437358358,1126.98474822745));
#937=CARTESIAN_POINT('Origin',(-2809.,-5790.23764013258,1175.60836447391));
#938=CARTESIAN_POINT('',(-2809.,-2315.76555897681,777.764230357911));
#939=CARTESIAN_POINT('',(-2809.,-2456.76775801158,854.005136038893));
#940=CARTESIAN_POINT('',(-2809.,-1824.68999998487,354.194184733924));
#941=CARTESIAN_POINT('',(-2809.,-2113.7528793361,603.521146243347));
#942=CARTESIAN_POINT('',(-2809.,-1824.68999998487,-490.000000000003));
#943=CARTESIAN_POINT('',(-2809.,-1824.68999998487,-92.5000000000003));
#944=CARTESIAN_POINT('',(-2809.,-2124.68999998487,-790.));
#945=CARTESIAN_POINT('Origin',(-2809.,-2124.68999998487,-490.000000000003));
#946=CARTESIAN_POINT('',(-2809.,-3541.42249999622,-790.));
#947=CARTESIAN_POINT('Origin',(-100.,-2935.84499999244,305.));
#948=CARTESIAN_POINT('',(-100.,-2124.68999998487,-790.));
#949=CARTESIAN_POINT('',(-100.,-3541.42249999622,-790.));
#950=CARTESIAN_POINT('',(-100.,-1824.68999998487,-490.000000000003));
#951=CARTESIAN_POINT('Origin',(-100.,-2124.68999998487,-490.000000000003));
#952=CARTESIAN_POINT('',(-100.,-1824.68999998487,354.194184733924));
#953=CARTESIAN_POINT('',(-100.,-1824.68999998487,-92.5000000000003));
#954=CARTESIAN_POINT('',(-100.,-2315.76555897681,777.764230357911));
#955=CARTESIAN_POINT('',(-100.,-2113.7528793361,603.521146243347));
#956=CARTESIAN_POINT('',(-100.,-2961.62437358358,1126.98474822745));
#957=CARTESIAN_POINT('',(-100.,-2456.76775801158,854.005136038893));
#958=CARTESIAN_POINT('Origin',(-100.,-5790.23764013258,1175.60836447391));
#959=CARTESIAN_POINT('Origin',(-2809.,-3988.12211598223,-790.));
#960=CARTESIAN_POINT('',(-2393.,-2124.68999998487,-790.));
#961=CARTESIAN_POINT('',(-2809.,-2124.68999998487,-790.));
#962=CARTESIAN_POINT('',(-2393.,-2256.68999998487,-790.));
#963=CARTESIAN_POINT('',(-2393.,-2856.40605798355,-790.));
#964=CARTESIAN_POINT('',(-2293.,-2356.68999998487,-790.));
#965=CARTESIAN_POINT('Origin',(-2293.,-2256.68999998487,-790.));
#966=CARTESIAN_POINT('',(-616.,-2356.68999998487,-790.));
#967=CARTESIAN_POINT('',(-1712.5,-2356.68999998487,-790.));
#968=CARTESIAN_POINT('',(-516.,-2256.68999998487,-790.));
#969=CARTESIAN_POINT('Origin',(-616.,-2256.68999998487,-790.));
#970=CARTESIAN_POINT('',(-516.,-2124.68999998487,-790.));
#971=CARTESIAN_POINT('',(-516.,-2856.40605798355,-790.));
#972=CARTESIAN_POINT('',(-2809.,-2124.68999998487,-790.));
#973=CARTESIAN_POINT('Origin',(-2809.,-2124.68999998487,-490.000000000003));
#974=CARTESIAN_POINT('',(-516.,-1824.68999998487,-490.000000000003));
#975=CARTESIAN_POINT('Origin',(-516.,-2124.68999998487,-490.000000000003));
#976=CARTESIAN_POINT('',(-2809.,-1824.68999998487,-490.000000000003));
#977=CARTESIAN_POINT('Origin',(-2809.,-1824.68999998487,-490.000000000003));
#978=CARTESIAN_POINT('',(-516.,-1824.68999998487,354.194184733924));
#979=CARTESIAN_POINT('',(-516.,-1824.68999998487,40.9544789877185));
#980=CARTESIAN_POINT('',(-2809.,-1824.68999998487,354.194184733924));
#981=CARTESIAN_POINT('Origin',(-2809.,-5790.23764013258,1175.60836447391));
#982=CARTESIAN_POINT('',(-2809.,-2961.62437358358,1126.98474822745));
#983=CARTESIAN_POINT('Origin',(-2809.,-1824.68999998487,354.194184733924));
#984=CARTESIAN_POINT('',(-516.,-2256.68999998487,726.809470424747));
#985=CARTESIAN_POINT('',(-516.,-1849.85867604085,375.90305838915));
#986=CARTESIAN_POINT('',(-535.314943578196,-2315.76555897681,777.764230357911));
#987=CARTESIAN_POINT('Origin',(-616.,-2256.68999998487,726.809470424747));
#988=CARTESIAN_POINT('',(-2809.,-2315.76555897681,777.764230357911));
#989=CARTESIAN_POINT('Origin',(-2809.,-1824.68999998487,354.194184733924));
#990=CARTESIAN_POINT('',(-2373.6850564218,-2315.76555897681,777.764230357911));
#991=CARTESIAN_POINT('',(-2393.,-2256.68999998487,726.809470424747));
#992=CARTESIAN_POINT('Origin',(-2293.,-2256.68999998487,726.809470424747));
#993=CARTESIAN_POINT('',(-2393.,-1824.68999998487,354.194184733924));
#994=CARTESIAN_POINT('',(-2393.,-1849.85867604085,375.90305838915));
#995=CARTESIAN_POINT('',(-2809.,-1824.68999998487,354.194184733924));
#996=CARTESIAN_POINT('',(-2809.,-2315.76555897681,777.764230357911));
#997=CARTESIAN_POINT('Origin',(-2809.,-1824.68999998487,-490.000000000003));
#998=CARTESIAN_POINT('',(-2393.,-1824.68999998487,-490.000000000003));
#999=CARTESIAN_POINT('',(-2393.,-1824.68999998487,40.9544789877185));
#1000=CARTESIAN_POINT('',(-2809.,-1824.68999998487,-490.000000000003));
#1001=CARTESIAN_POINT('Origin',(-2809.,-2124.68999998487,-490.000000000003));
#1002=CARTESIAN_POINT('Origin',(-2393.,-2124.68999998487,-490.000000000003));
#1003=CARTESIAN_POINT('Origin',(-2809.,-2315.76555897681,777.764230357911));
#1004=CARTESIAN_POINT('',(-616.,-2356.68999998487,799.892370686936));
#1005=CARTESIAN_POINT('Origin',(-616.,-2256.68999998487,745.821649660675));
#1006=CARTESIAN_POINT('',(-1196.,-2356.68999998487,799.892370686936));
#1007=CARTESIAN_POINT('',(-1712.5,-2356.68999998487,799.892370686936));
#1008=CARTESIAN_POINT('',(-1196.,-2814.05757320624,1047.19431526804));
#1009=CARTESIAN_POINT('',(-1196.,-2429.13085763323,839.061664735008));
#1010=CARTESIAN_POINT('',(-1236.,-2860.54522643546,1072.33052455726));
#1011=CARTESIAN_POINT('Ctrl Pts',(-1196.,-2814.05757320624,1047.19431526804));
#1012=CARTESIAN_POINT('Ctrl Pts',(-1196.,-2821.0121098666,1050.95468338433));
#1013=CARTESIAN_POINT('Ctrl Pts',(-1198.05565612305,-2831.43253914537,1056.58908462939));
#1014=CARTESIAN_POINT('Ctrl Pts',(-1204.46752987584,-2843.28361115052,1062.99704471192));
#1015=CARTESIAN_POINT('Ctrl Pts',(-1210.85321627956,-2850.70382785217,1067.00920938421));
#1016=CARTESIAN_POINT('Ctrl Pts',(-1221.05009381134,-2858.15587659377,1071.03858587002));
#1017=CARTESIAN_POINT('Ctrl Pts',(-1230.01601399316,-2860.54522643546,1072.33052455727));
#1018=CARTESIAN_POINT('Ctrl Pts',(-1236.,-2860.54522643546,1072.33052455727));
#1019=CARTESIAN_POINT('',(-1673.,-2860.54522643546,1072.33052455727));
#1020=CARTESIAN_POINT('',(-852.25,-2860.54522643546,1072.33052455726));
#1021=CARTESIAN_POINT('',(-1713.,-2814.05757320624,1047.19431526804));
#1022=CARTESIAN_POINT('Ctrl Pts',(-1673.,-2860.54522643546,1072.33052455727));
#1023=CARTESIAN_POINT('Ctrl Pts',(-1675.99199300342,-2860.54522643546,1072.33052455727));
#1024=CARTESIAN_POINT('Ctrl Pts',(-1684.96950701584,-2859.38035232643,1071.70066872746));
#1025=CARTESIAN_POINT('Ctrl Pts',(-1698.79118975601,-2851.64833321083,1067.51991024177));
#1026=CARTESIAN_POINT('Ctrl Pts',(-1710.26667308045,-2834.91591642104,1058.47257183841));
#1027=CARTESIAN_POINT('Ctrl Pts',(-1713.,-2821.0121098666,1050.95468338433));
#1028=CARTESIAN_POINT('Ctrl Pts',(-1713.,-2814.05757320624,1047.19431526804));
#1029=CARTESIAN_POINT('',(-1713.,-2356.68999998487,799.892370686936));
#1030=CARTESIAN_POINT('',(-1713.,-2429.13085763323,839.061664735008));
#1031=CARTESIAN_POINT('',(-2293.,-2356.68999998487,799.892370686936));
#1032=CARTESIAN_POINT('',(-1712.5,-2356.68999998487,799.892370686936));
#1033=CARTESIAN_POINT('Origin',(-2293.,-2256.68999998487,745.821649660675));
#1034=CARTESIAN_POINT('Origin',(-1713.,-2438.64346742614,821.468761196146));
#1035=CARTESIAN_POINT('',(-1693.,-2376.68999998487,787.970074649881));
#1036=CARTESIAN_POINT('',(-1693.,-2823.57018299916,1029.60141172918));
#1037=CARTESIAN_POINT('',(-1693.,-2438.64346742614,821.468761196146));
#1038=CARTESIAN_POINT('Origin',(-1713.,-2376.68999998487,787.970074649881));
#1039=CARTESIAN_POINT('Origin',(-1713.,-2823.57018299916,1029.60141172918));
#1040=CARTESIAN_POINT('Ctrl Pts',(-1673.,-2850.52508358664,1059.03547795373));
#1041=CARTESIAN_POINT('Ctrl Pts',(-1674.49599650171,-2850.52508358664,1059.03547795373));
#1042=CARTESIAN_POINT('Ctrl Pts',(-1678.98475350792,-2849.84965551865,1058.29792767345));
#1043=CARTESIAN_POINT('Ctrl Pts',(-1685.89559487801,-2845.36640476013,1053.40233181328));
#1044=CARTESIAN_POINT('Ctrl Pts',(-1691.63333654023,-2835.66446026891,1042.80805506072));
#1045=CARTESIAN_POINT('Ctrl Pts',(-1693.,-2827.60262669744,1034.00473773948));
#1046=CARTESIAN_POINT('Ctrl Pts',(-1693.,-2823.57018299916,1029.60141172918));
#1047=CARTESIAN_POINT('Ctrl Pts',(-1673.,-2850.87649829582,1060.63257545894));
#1048=CARTESIAN_POINT('Ctrl Pts',(-1674.60159674188,-2850.87649829582,1060.63257545894));
#1049=CARTESIAN_POINT('Ctrl Pts',(-1679.40798452503,-2850.13472358767,1059.9207008273));
#1050=CARTESIAN_POINT('Ctrl Pts',(-1686.71700954562,-2845.21424463112,1055.19510828627));
#1051=CARTESIAN_POINT('Ctrl Pts',(-1692.39005402736,-2834.72650182773,1044.96657638425));
#1052=CARTESIAN_POINT('Ctrl Pts',(-1693.29318902799,-2826.26761399036,1036.47308254469));
#1053=CARTESIAN_POINT('Ctrl Pts',(-1693.,-2822.14709990192,1032.23330394408));
#1054=CARTESIAN_POINT('Ctrl Pts',(-1673.,-2851.97315335417,1063.73999655921));
#1055=CARTESIAN_POINT('Ctrl Pts',(-1674.8430058824,-2851.97315335417,1063.73999655921));
#1056=CARTESIAN_POINT('Ctrl Pts',(-1680.37364481897,-2851.10848619255,1063.07699747706));
#1057=CARTESIAN_POINT('Ctrl Pts',(-1688.68783792251,-2845.37464135045,1058.67749938682));
#1058=CARTESIAN_POINT('Ctrl Pts',(-1694.69603876249,-2833.2926008341,1049.18507799451));
#1059=CARTESIAN_POINT('Ctrl Pts',(-1695.0713675886,-2823.79944739055,1041.36348875604));
#1060=CARTESIAN_POINT('Ctrl Pts',(-1694.36672694195,-2819.30200948099,1037.49509880632));
#1061=CARTESIAN_POINT('Ctrl Pts',(-1673.,-2854.70050926768,1067.86244943276));
#1062=CARTESIAN_POINT('Ctrl Pts',(-1675.2738740837,-2854.70050926768,1067.86244943276));
#1063=CARTESIAN_POINT('Ctrl Pts',(-1682.09710214372,-2853.68652559493,1067.24833484388));
#1064=CARTESIAN_POINT('Ctrl Pts',(-1692.4077148985,-2846.96168756709,1063.17286775498));
#1065=CARTESIAN_POINT('Ctrl Pts',(-1700.08453070754,-2832.69005623165,1054.42890653298));
#1066=CARTESIAN_POINT('Ctrl Pts',(-1700.83620449721,-2821.3233171924,1047.30892987278));
#1067=CARTESIAN_POINT('Ctrl Pts',(-1700.10444256195,-2815.8781115958,1043.82735741171));
#1068=CARTESIAN_POINT('Ctrl Pts',(-1673.,-2857.73968659281,1070.64275997629));
#1069=CARTESIAN_POINT('Ctrl Pts',(-1675.66876862608,-2857.73968659281,1070.64275997629));
#1070=CARTESIAN_POINT('Ctrl Pts',(-1683.67659141619,-2856.63219533392,1070.03511342973));
#1071=CARTESIAN_POINT('Ctrl Pts',(-1695.90838544219,-2849.28304622034,1066.00368917319));
#1072=CARTESIAN_POINT('Ctrl Pts',(-1705.62044687998,-2833.50649825507,1057.33873674592));
#1073=CARTESIAN_POINT('Ctrl Pts',(-1707.38806561918,-2820.62497521147,1050.24586326647));
#1074=CARTESIAN_POINT('Ctrl Pts',(-1707.01527087087,-2814.29593530881,1046.75348130458));
#1075=CARTESIAN_POINT('Ctrl Pts',(-1673.,-2859.8259836624,1071.94162480394));
#1076=CARTESIAN_POINT('Ctrl Pts',(-1675.91118864114,-2859.8259836624,1071.94162480394));
#1077=CARTESIAN_POINT('Ctrl Pts',(-1684.64623617068,-2858.67440210934,1071.31927584731));
#1078=CARTESIAN_POINT('Ctrl Pts',(-1698.07039077935,-2851.03192323137,1067.18730379042));
#1079=CARTESIAN_POINT('Ctrl Pts',(-1709.10504188482,-2834.52446171521,1058.26154018649));
#1080=CARTESIAN_POINT('Ctrl Pts',(-1711.59703417986,-2820.86289049981,1050.87456765797));
#1081=CARTESIAN_POINT('Ctrl Pts',(-1711.50400349829,-2814.05757320624,1047.19431526804));
#1082=CARTESIAN_POINT('Ctrl Pts',(-1673.,-2860.54522643546,1072.33052455727));
#1083=CARTESIAN_POINT('Ctrl Pts',(-1675.99199300342,-2860.54522643546,1072.33052455727));
#1084=CARTESIAN_POINT('Ctrl Pts',(-1684.96950701584,-2859.38035232643,1071.70066872746));
#1085=CARTESIAN_POINT('Ctrl Pts',(-1698.79118975601,-2851.64833321083,1067.51991024177));
#1086=CARTESIAN_POINT('Ctrl Pts',(-1710.26667308045,-2834.91591642104,1058.47257183841));
#1087=CARTESIAN_POINT('Ctrl Pts',(-1713.,-2821.0121098666,1050.95468338433));
#1088=CARTESIAN_POINT('Ctrl Pts',(-1713.,-2814.05757320624,1047.19431526804));
#1089=CARTESIAN_POINT('',(-1673.,-2850.52508358664,1059.03547795373));
#1090=CARTESIAN_POINT('Origin',(-1673.,-2870.05783622838,1054.7376210184));
#1091=CARTESIAN_POINT('Origin',(-1673.,-2823.57018299916,1029.60141172918));
#1092=CARTESIAN_POINT('Origin',(-852.25,-2870.05783622838,1054.7376210184));
#1093=CARTESIAN_POINT('',(-1236.,-2850.52508358664,1059.03547795373));
#1094=CARTESIAN_POINT('Origin',(-1236.,-2870.05783622838,1054.7376210184));
#1095=CARTESIAN_POINT('',(-852.25,-2850.52508358664,1059.03547795373));
#1096=CARTESIAN_POINT('Ctrl Pts',(-1216.,-2823.57018299916,1029.60141172918));
#1097=CARTESIAN_POINT('Ctrl Pts',(-1216.,-2827.60262669744,1034.00473773948));
#1098=CARTESIAN_POINT('Ctrl Pts',(-1217.02782806153,-2833.64469627456,1040.60252412304));
#1099=CARTESIAN_POINT('Ctrl Pts',(-1220.23376493792,-2840.51629433478,1048.10613452281));
#1100=CARTESIAN_POINT('Ctrl Pts',(-1223.42660813978,-2844.81875293694,1052.80430994414));
#1101=CARTESIAN_POINT('Ctrl Pts',(-1228.52504690567,-2849.1396686866,1057.52264010134));
#1102=CARTESIAN_POINT('Ctrl Pts',(-1233.00800699658,-2850.52508358664,1059.03547795373));
#1103=CARTESIAN_POINT('Ctrl Pts',(-1236.,-2850.52508358664,1059.03547795373));
#1104=CARTESIAN_POINT('Ctrl Pts',(-1216.,-2822.14709990192,1032.23330394408));
#1105=CARTESIAN_POINT('Ctrl Pts',(-1215.70681097201,-2826.26761399036,1036.47308254469));
#1106=CARTESIAN_POINT('Ctrl Pts',(-1216.38862453176,-2832.60656375539,1042.83852067891));
#1107=CARTESIAN_POINT('Ctrl Pts',(-1219.44377812606,-2839.97133332447,1050.0818333152));
#1108=CARTESIAN_POINT('Ctrl Pts',(-1222.67436176387,-2844.63220576197,1054.61753322988));
#1109=CARTESIAN_POINT('Ctrl Pts',(-1227.9984528221,-2849.34980327947,1059.17247971103));
#1110=CARTESIAN_POINT('Ctrl Pts',(-1232.79680651623,-2850.87649829582,1060.63257545894));
#1111=CARTESIAN_POINT('Ctrl Pts',(-1236.,-2850.87649829582,1060.63257545894));
#1112=CARTESIAN_POINT('Ctrl Pts',(-1214.63327505952,-2819.30200954318,1037.49509869129));
#1113=CARTESIAN_POINT('Ctrl Pts',(-1213.92863441287,-2823.79944745275,1041.36348864102));
#1114=CARTESIAN_POINT('Ctrl Pts',(-1214.21586995288,-2830.91237416127,1047.22523698242));
#1115=CARTESIAN_POINT('Ctrl Pts',(-1217.30445464801,-2839.33498113481,1053.93227497758));
#1116=CARTESIAN_POINT('Ctrl Pts',(-1220.81388319058,-2844.71271755226,1058.14331647904));
#1117=CARTESIAN_POINT('Ctrl Pts',(-1226.79496745347,-2850.18903727604,1062.3791679935));
#1118=CARTESIAN_POINT('Ctrl Pts',(-1232.3139882352,-2851.97315318807,1063.73999658819));
#1119=CARTESIAN_POINT('Ctrl Pts',(-1236.,-2851.97315318807,1063.73999658819));
#1120=CARTESIAN_POINT('Ctrl Pts',(-1208.89555863087,-2815.87811167494,1043.82735726536));
#1121=CARTESIAN_POINT('Ctrl Pts',(-1208.16379669561,-2821.32331727154,1047.30892972642));
#1122=CARTESIAN_POINT('Ctrl Pts',(-1208.73367598603,-2829.84056187061,1052.64440721035));
#1123=CARTESIAN_POINT('Ctrl Pts',(-1212.74997245396,-2839.82752739289,1058.80189082438));
#1124=CARTESIAN_POINT('Ctrl Pts',(-1217.18534685297,-2846.17327586475,1062.6838176626));
#1125=CARTESIAN_POINT('Ctrl Pts',(-1224.64179812163,-2852.61158571638,1066.60037211));
#1126=CARTESIAN_POINT('Ctrl Pts',(-1231.45225183259,-2854.70050917125,1067.86244944429));
#1127=CARTESIAN_POINT('Ctrl Pts',(-1236.,-2854.70050917125,1067.86244944429));
#1128=CARTESIAN_POINT('Ctrl Pts',(-1201.9847299056,-2814.29593537521,1046.75348118177));
#1129=CARTESIAN_POINT('Ctrl Pts',(-1201.61193515729,-2820.62497527787,1050.24586314366));
#1130=CARTESIAN_POINT('Ctrl Pts',(-1202.94352491811,-2830.27832250138,1055.56141681996));
#1131=CARTESIAN_POINT('Ctrl Pts',(-1208.23185631902,-2841.39640518257,1061.67206823015));
#1132=CARTESIAN_POINT('Ctrl Pts',(-1213.71822517044,-2848.40024018126,1065.51818245942));
#1133=CARTESIAN_POINT('Ctrl Pts',(-1222.66694921656,-2855.4639356452,1069.39446250139));
#1134=CARTESIAN_POINT('Ctrl Pts',(-1230.66246274785,-2857.73968652989,1070.64275998247));
#1135=CARTESIAN_POINT('Ctrl Pts',(-1236.,-2857.73968652989,1070.64275998247));
#1136=CARTESIAN_POINT('Ctrl Pts',(-1197.49599650171,-2814.05757320624,1047.19431526804));
#1137=CARTESIAN_POINT('Ctrl Pts',(-1197.40296582014,-2820.86289049981,1050.87456765797));
#1138=CARTESIAN_POINT('Ctrl Pts',(-1199.27764132387,-2831.10165720098,1056.41055984406));
#1139=CARTESIAN_POINT('Ctrl Pts',(-1205.40870624731,-2842.77968554848,1062.72529347642));
#1140=CARTESIAN_POINT('Ctrl Pts',(-1211.56955085982,-2850.10202779329,1066.68441108025));
#1141=CARTESIAN_POINT('Ctrl Pts',(-1221.45440459222,-2857.46288880209,1070.66457668207));
#1142=CARTESIAN_POINT('Ctrl Pts',(-1230.17762271771,-2859.8259836624,1071.94162480394));
#1143=CARTESIAN_POINT('Ctrl Pts',(-1236.,-2859.8259836624,1071.94162480394));
#1144=CARTESIAN_POINT('Ctrl Pts',(-1196.,-2814.05757320624,1047.19431526804));
#1145=CARTESIAN_POINT('Ctrl Pts',(-1196.,-2821.0121098666,1050.95468338433));
#1146=CARTESIAN_POINT('Ctrl Pts',(-1198.05565612305,-2831.43253914537,1056.58908462939));
#1147=CARTESIAN_POINT('Ctrl Pts',(-1204.46752987584,-2843.28361115052,1062.99704471192));
#1148=CARTESIAN_POINT('Ctrl Pts',(-1210.85321627956,-2850.70382785217,1067.00920938421));
#1149=CARTESIAN_POINT('Ctrl Pts',(-1221.05009381134,-2858.15587659377,1071.03858587002));
#1150=CARTESIAN_POINT('Ctrl Pts',(-1230.01601399316,-2860.54522643546,1072.33052455727));
#1151=CARTESIAN_POINT('Ctrl Pts',(-1236.,-2860.54522643546,1072.33052455727));
#1152=CARTESIAN_POINT('',(-1216.,-2823.57018299916,1029.60141172918));
#1153=CARTESIAN_POINT('Origin',(-1196.,-2823.57018299916,1029.60141172918));
#1154=CARTESIAN_POINT('Origin',(-1236.,-2823.57018299916,1029.60141172918));
#1155=CARTESIAN_POINT('Origin',(-1196.,-2438.64346742614,821.468761196146));
#1156=CARTESIAN_POINT('',(-1216.,-2376.68999998487,787.970074649881));
#1157=CARTESIAN_POINT('Origin',(-1196.,-2376.68999998487,787.970074649881));
#1158=CARTESIAN_POINT('',(-1216.,-2438.64346742614,821.468761196146));
#1159=CARTESIAN_POINT('Origin',(-1196.,-2376.68999998487,648.144736758192));
#1160=CARTESIAN_POINT('',(-1216.,-2376.68999998487,482.760499843598));
#1161=CARTESIAN_POINT('',(-1216.,-2376.68999998487,648.144736758192));
#1162=CARTESIAN_POINT('',(-1196.,-2356.68999998487,482.760499843598));
#1163=CARTESIAN_POINT('',(-1196.,-2356.68999998487,648.144736758192));
#1164=CARTESIAN_POINT('Origin',(-1196.,-2376.68999998487,482.760499843598));
#1165=CARTESIAN_POINT('Ctrl Pts',(-1236.,-2366.18024996166,452.762024668051));
#1166=CARTESIAN_POINT('Ctrl Pts',(-1234.50400349829,-2366.18024996166,452.762024668051));
#1167=CARTESIAN_POINT('Ctrl Pts',(-1230.01524529587,-2366.44360034037,453.513718074714));
#1168=CARTESIAN_POINT('Ctrl Pts',(-1223.10440328557,-2368.19162553406,458.503188829351));
#1169=CARTESIAN_POINT('Ctrl Pts',(-1217.36666030949,-2371.97442599977,469.300614611504));
#1170=CARTESIAN_POINT('Ctrl Pts',(-1216.,-2375.11774505802,478.272738451674));
#1171=CARTESIAN_POINT('Ctrl Pts',(-1216.,-2376.68999998487,482.760499843598));
#1172=CARTESIAN_POINT('Ctrl Pts',(-1236.,-2364.53130248445,451.743571512223));
#1173=CARTESIAN_POINT('Ctrl Pts',(-1234.41450297711,-2364.53130248445,451.743571512223));
#1174=CARTESIAN_POINT('Ctrl Pts',(-1229.65639531289,-2364.75389573047,452.540089443798));
#1175=CARTESIAN_POINT('Ctrl Pts',(-1222.41170089289,-2366.23294321765,457.824398494161));
#1176=CARTESIAN_POINT('Ctrl Pts',(-1216.74140273532,-2369.48918856244,469.115944757443));
#1177=CARTESIAN_POINT('Ctrl Pts',(-1215.76426039381,-2372.27510708862,478.273095281174));
#1178=CARTESIAN_POINT('Ctrl Pts',(-1216.,-2373.69800698145,482.760499843598));
#1179=CARTESIAN_POINT('Ctrl Pts',(-1236.,-2361.53193502728,449.22384088103));
#1180=CARTESIAN_POINT('Ctrl Pts',(-1234.19295307997,-2361.53193502728,449.22384088103));
#1181=CARTESIAN_POINT('Ctrl Pts',(-1228.77011622872,-2361.67490136368,450.107571941475));
#1182=CARTESIAN_POINT('Ctrl Pts',(-1220.6023370433,-2362.62483120885,455.968152104099));
#1183=CARTESIAN_POINT('Ctrl Pts',(-1214.60969266039,-2364.77415699751,468.33575982159));
#1184=CARTESIAN_POINT('Ctrl Pts',(-1214.06670828353,-2366.7002073121,478.098957499013));
#1185=CARTESIAN_POINT('Ctrl Pts',(-1214.63327692249,-2367.7162830112,482.760499843598));
#1186=CARTESIAN_POINT('Ctrl Pts',(-1236.,-2358.3042228095,444.313513226427));
#1187=CARTESIAN_POINT('Ctrl Pts',(-1233.76125124149,-2358.3042228095,444.313513226427));
#1188=CARTESIAN_POINT('Ctrl Pts',(-1227.04329745467,-2358.3531864401,445.319592432508));
#1189=CARTESIAN_POINT('Ctrl Pts',(-1216.87794768103,-2358.67979767427,451.992406202301));
#1190=CARTESIAN_POINT('Ctrl Pts',(-1209.22434768099,-2359.4355981521,466.13036823373));
#1191=CARTESIAN_POINT('Ctrl Pts',(-1208.3071841398,-2360.13760225201,477.368621771219));
#1192=CARTESIAN_POINT('Ctrl Pts',(-1208.89555974044,-2360.51763211102,482.760499843598));
#1193=CARTESIAN_POINT('Ctrl Pts',(-1236.,-2356.90090500221,439.622289262539));
#1194=CARTESIAN_POINT('Ctrl Pts',(-1233.34880118497,-2356.90090500221,439.622289262539));
#1195=CARTESIAN_POINT('Ctrl Pts',(-1225.39363303955,-2356.90747714233,440.724626210946));
#1196=CARTESIAN_POINT('Ctrl Pts',(-1213.23483393644,-2356.95039711033,448.038992250747));
#1197=CARTESIAN_POINT('Ctrl Pts',(-1203.53560937548,-2357.04936524953,463.717218801419));
#1198=CARTESIAN_POINT('Ctrl Pts',(-1201.68498377937,-2357.14148154402,476.488912506607));
#1199=CARTESIAN_POINT('Ctrl Pts',(-1201.98473062788,-2357.1911500078,482.760499843598));
#1200=CARTESIAN_POINT('Ctrl Pts',(-1236.,-2356.68999998487,436.715053814998));
#1201=CARTESIAN_POINT('Ctrl Pts',(-1233.09320173616,-2356.68999998487,436.715053814998));
#1202=CARTESIAN_POINT('Ctrl Pts',(-1224.371310116,-2356.68974827688,437.874189092286));
#1203=CARTESIAN_POINT('Ctrl Pts',(-1210.96539026849,-2356.68948225105,445.567495733957));
#1204=CARTESIAN_POINT('Ctrl Pts',(-1199.93392522923,-2356.68957250178,462.178556875456));
#1205=CARTESIAN_POINT('Ctrl Pts',(-1197.42119487496,-2356.68959806419,475.917527770242));
#1206=CARTESIAN_POINT('Ctrl Pts',(-1197.49599650171,-2356.68999998487,482.760499843598));
#1207=CARTESIAN_POINT('Ctrl Pts',(-1236.,-2356.68999998487,435.745998267931));
#1208=CARTESIAN_POINT('Ctrl Pts',(-1233.00800699658,-2356.68999998487,435.745998267931));
#1209=CARTESIAN_POINT('Ctrl Pts',(-1224.03049059175,-2356.68999998487,436.924074508312));
#1210=CARTESIAN_POINT('Ctrl Pts',(-1210.20880657115,-2356.68999998487,444.743721316456));
#1211=CARTESIAN_POINT('Ctrl Pts',(-1198.73332061899,-2356.68999998487,461.66576780307));
#1212=CARTESIAN_POINT('Ctrl Pts',(-1196.,-2356.68999998487,475.727146854917));
#1213=CARTESIAN_POINT('Ctrl Pts',(-1196.,-2356.68999998487,482.760499843598));
#1214=CARTESIAN_POINT('',(-1236.,-2366.18024996166,452.762024668051));
#1215=CARTESIAN_POINT('',(-1236.,-2356.68999998487,435.745998267931));
#1216=CARTESIAN_POINT('Origin',(-1236.,-2376.68999998487,435.745998267931));
#1217=CARTESIAN_POINT('Origin',(-1236.,-2376.68999998487,482.760499843598));
#1218=CARTESIAN_POINT('Origin',(-1236.,-2356.68999998487,482.760499843598));
#1219=CARTESIAN_POINT('Origin',(-1110.25,-2376.68999998487,435.745998267931));
#1220=CARTESIAN_POINT('',(-1673.,-2366.18024996166,452.762024668051));
#1221=CARTESIAN_POINT('',(-1673.,-2356.68999998487,435.745998267931));
#1222=CARTESIAN_POINT('Origin',(-1673.,-2376.68999998487,435.745998267931));
#1223=CARTESIAN_POINT('',(-1110.25,-2366.18024996166,452.762024668051));
#1224=CARTESIAN_POINT('',(-1110.25,-2356.68999998487,435.745998267931));
#1225=CARTESIAN_POINT('Ctrl Pts',(-1693.,-2376.68999998487,482.760499843598));
#1226=CARTESIAN_POINT('Ctrl Pts',(-1693.,-2375.11774505802,478.272738451674));
#1227=CARTESIAN_POINT('Ctrl Pts',(-1691.97077744935,-2372.76247362816,471.549976124863));
#1228=CARTESIAN_POINT('Ctrl Pts',(-1687.96720204605,-2369.41186136563,461.986165514861));
#1229=CARTESIAN_POINT('Ctrl Pts',(-1681.9748873395,-2366.89835424235,454.811743585254));
#1230=CARTESIAN_POINT('Ctrl Pts',(-1675.99199300342,-2366.18024996166,452.762024668051));
#1231=CARTESIAN_POINT('Ctrl Pts',(-1673.,-2366.18024996166,452.762024668051));
#1232=CARTESIAN_POINT('Ctrl Pts',(-1693.,-2373.69800698145,482.760499843598));
#1233=CARTESIAN_POINT('Ctrl Pts',(-1693.23573960619,-2372.27510708862,478.273095281174));
#1234=CARTESIAN_POINT('Ctrl Pts',(-1692.49651773034,-2370.1874991879,471.412441584919));
#1235=CARTESIAN_POINT('Ctrl Pts',(-1688.66165102853,-2367.27824488291,461.480558497468));
#1236=CARTESIAN_POINT('Ctrl Pts',(-1682.51225589546,-2365.13593545849,453.92151766169));
#1237=CARTESIAN_POINT('Ctrl Pts',(-1676.17099404579,-2364.53130248445,451.743571512223));
#1238=CARTESIAN_POINT('Ctrl Pts',(-1673.,-2364.53130248445,451.743571512223));
#1239=CARTESIAN_POINT('Ctrl Pts',(-1694.36672590241,-2367.71628282676,482.760499843598));
#1240=CARTESIAN_POINT('Ctrl Pts',(-1694.93329454136,-2366.70020712766,478.098957499013));
#1241=CARTESIAN_POINT('Ctrl Pts',(-1694.51730120445,-2365.25660298992,470.785481239187));
#1242=CARTESIAN_POINT('Ctrl Pts',(-1690.62211638862,-2363.30950719162,459.988578592697));
#1243=CARTESIAN_POINT('Ctrl Pts',(-1683.8405954902,-2361.91757526984,451.64647935607));
#1244=CARTESIAN_POINT('Ctrl Pts',(-1676.61409384005,-2361.53193525604,449.223840465298));
#1245=CARTESIAN_POINT('Ctrl Pts',(-1673.,-2361.53193525604,449.223840465298));
#1246=CARTESIAN_POINT('Ctrl Pts',(-1700.10444194231,-2360.51763187623,482.760499843598));
#1247=CARTESIAN_POINT('Ctrl Pts',(-1700.69281754294,-2360.13760201722,477.368621771219));
#1248=CARTESIAN_POINT('Ctrl Pts',(-1699.9952988803,-2359.61143132242,468.950096614488));
#1249=CARTESIAN_POINT('Ctrl Pts',(-1694.94715848646,-2358.91896735723,456.583344279894));
#1250=CARTESIAN_POINT('Ctrl Pts',(-1686.43055671573,-2358.43578538321,447.068921478171));
#1251=CARTESIAN_POINT('Ctrl Pts',(-1677.47749751702,-2358.30422292743,444.313512977473));
#1252=CARTESIAN_POINT('Ctrl Pts',(-1673.,-2358.30422292743,444.313512977473));
#1253=CARTESIAN_POINT('Ctrl Pts',(-1707.01527046752,-2357.19114981073,482.760499843598));
#1254=CARTESIAN_POINT('Ctrl Pts',(-1707.31501731602,-2357.14148134695,476.488912506607));
#1255=CARTESIAN_POINT('Ctrl Pts',(-1705.91795004802,-2357.07236866751,466.920312731208));
#1256=CARTESIAN_POINT('Ctrl Pts',(-1699.29831279016,-2356.98178537087,453.111611552416));
#1257=CARTESIAN_POINT('Ctrl Pts',(-1688.90504145908,-2356.91840400144,442.634083974842));
#1258=CARTESIAN_POINT('Ctrl Pts',(-1678.30239763006,-2356.90090507496,439.622289098433));
#1259=CARTESIAN_POINT('Ctrl Pts',(-1673.,-2356.90090507496,439.622289098433));
#1260=CARTESIAN_POINT('Ctrl Pts',(-1711.50400349829,-2356.68999998487,482.760499843598));
#1261=CARTESIAN_POINT('Ctrl Pts',(-1711.57880512504,-2356.68959806419,475.917527770242));
#1262=CARTESIAN_POINT('Ctrl Pts',(-1709.68566071797,-2356.68968428674,465.623284796138));
#1263=CARTESIAN_POINT('Ctrl Pts',(-1702.02529334015,-2356.68938839537,450.92960534872));
#1264=CARTESIAN_POINT('Ctrl Pts',(-1690.43852558074,-2356.68956182989,439.877275546247));
#1265=CARTESIAN_POINT('Ctrl Pts',(-1678.81359652768,-2356.68999998487,436.715053814998));
#1266=CARTESIAN_POINT('Ctrl Pts',(-1673.,-2356.68999998487,436.715053814998));
#1267=CARTESIAN_POINT('Ctrl Pts',(-1713.,-2356.68999998487,482.760499843598));
#1268=CARTESIAN_POINT('Ctrl Pts',(-1713.,-2356.68999998487,475.727146854917));
#1269=CARTESIAN_POINT('Ctrl Pts',(-1710.94155489869,-2356.68999998487,465.191033997276));
#1270=CARTESIAN_POINT('Ctrl Pts',(-1702.93440409211,-2356.68999998487,450.202345860226));
#1271=CARTESIAN_POINT('Ctrl Pts',(-1690.949774679,-2356.68999998487,438.958378653888));
#1272=CARTESIAN_POINT('Ctrl Pts',(-1678.98398600684,-2356.68999998487,435.745998267931));
#1273=CARTESIAN_POINT('Ctrl Pts',(-1673.,-2356.68999998487,435.745998267931));
#1274=CARTESIAN_POINT('',(-1693.,-2376.68999998487,482.760499843598));
#1275=CARTESIAN_POINT('',(-1713.,-2356.68999998487,482.760499843598));
#1276=CARTESIAN_POINT('Origin',(-1713.,-2376.68999998487,482.760499843598));
#1277=CARTESIAN_POINT('Origin',(-1673.,-2376.68999998487,482.760499843598));
#1278=CARTESIAN_POINT('Origin',(-1673.,-2356.68999998487,482.760499843598));
#1279=CARTESIAN_POINT('Origin',(-1713.,-2376.68999998487,648.144736758192));
#1280=CARTESIAN_POINT('',(-1713.,-2356.68999998487,648.144736758192));
#1281=CARTESIAN_POINT('',(-1693.,-2376.68999998487,648.144736758192));
#1282=CARTESIAN_POINT('Origin',(-1216.,-2637.64904527837,724.380515540945));
#1283=CARTESIAN_POINT('',(-1216.,-2754.60613853591,716.175990188736));
#1284=CARTESIAN_POINT('',(-1216.,-2509.89680670384,565.034128661962));
#1285=CARTESIAN_POINT('',(-1216.,-2751.85688769076,703.681289337451));
#1286=CARTESIAN_POINT('Origin',(-1236.,-2751.85688769076,703.681289337451));
#1287=CARTESIAN_POINT('',(-1236.,-2774.13889117765,711.878133253412));
#1288=CARTESIAN_POINT('Origin',(-1236.,-2754.60613853591,716.175990188737));
#1289=CARTESIAN_POINT('',(-1236.,-2771.3896403325,699.383432402126));
#1290=CARTESIAN_POINT('Origin',(-1604.5,-2772.31943980077,703.609153102787));
#1291=CARTESIAN_POINT('',(-1673.,-2774.13889117765,711.878133253412));
#1292=CARTESIAN_POINT('',(-1604.5,-2774.13889117765,711.878133253412));
#1293=CARTESIAN_POINT('',(-1673.,-2771.3896403325,699.383432402126));
#1294=CARTESIAN_POINT('Origin',(-1673.,-2751.85688769076,703.681289337451));
#1295=CARTESIAN_POINT('',(-1693.,-2754.60613853591,716.175990188736));
#1296=CARTESIAN_POINT('Origin',(-1673.,-2754.60613853591,716.175990188736));
#1297=CARTESIAN_POINT('',(-1693.,-2751.85688769076,703.681289337451));
#1298=CARTESIAN_POINT('Origin',(-616.,-2356.68999998487,571.90895797544));
#1299=CARTESIAN_POINT('',(-616.,-2356.68999998487,571.90895797544));
#1300=CARTESIAN_POINT('',(-2293.,-2356.68999998487,571.90895797544));
#1301=CARTESIAN_POINT('Origin',(-1673.,-2754.60613853591,716.175990188737));
#1302=CARTESIAN_POINT('',(-1673.,-2765.11588855913,699.159963788617));
#1303=CARTESIAN_POINT('Origin',(-1673.,-2754.60613853591,716.175990188737));
#1304=CARTESIAN_POINT('Origin',(-1673.,-2754.60613853591,716.175990188737));
#1305=CARTESIAN_POINT('Origin',(-1236.,-2754.60613853591,716.175990188737));
#1306=CARTESIAN_POINT('',(-1236.,-2765.11588855913,699.159963788617));
#1307=CARTESIAN_POINT('Origin',(-1236.,-2754.60613853591,716.175990188736));
#1308=CARTESIAN_POINT('Origin',(-1236.,-2754.60613853591,716.175990188737));
#1309=CARTESIAN_POINT('Origin',(-1604.5,-2754.60613853591,716.175990188737));
#1310=CARTESIAN_POINT('',(-1604.5,-2765.11588855913,699.159963788617));
#1311=CARTESIAN_POINT('Origin',(-1236.,-2509.89680670384,565.034128661962));
#1312=CARTESIAN_POINT('',(-1236.,-2520.40655672705,548.018102261842));
#1313=CARTESIAN_POINT('Origin',(-1673.,-2509.89680670384,565.034128661962));
#1314=CARTESIAN_POINT('',(-1693.,-2509.89680670384,565.034128661962));
#1315=CARTESIAN_POINT('',(-1673.,-2520.40655672705,548.018102261842));
#1316=CARTESIAN_POINT('Origin',(-1604.5,-2356.68999998487,446.900482580108));
#1317=CARTESIAN_POINT('Origin',(-1693.,-2637.64904527837,724.380515540945));
#1318=CARTESIAN_POINT('Origin',(-616.,-2256.68999998487,571.90895797544));
#1319=CARTESIAN_POINT('',(-516.,-2256.68999998487,571.90895797544));
#1320=CARTESIAN_POINT('Origin',(-516.,-1724.68999998487,571.90895797544));
#1321=CARTESIAN_POINT('Origin',(-2293.,-2256.68999998487,571.90895797544));
#1322=CARTESIAN_POINT('',(-2393.,-2256.68999998487,571.90895797544));
#1323=CARTESIAN_POINT('Origin',(-2393.,-1724.68999998487,571.90895797544));
#1324=UNCERTAINTY_MEASURE_WITH_UNIT(LENGTH_MEASURE(0.01),#1328,
'DISTANCE_ACCURACY_VALUE',
'Maximum model space distance between geometric entities at asserted c
onnectivities');
#1325=UNCERTAINTY_MEASURE_WITH_UNIT(LENGTH_MEASURE(0.01),#1328,
'DISTANCE_ACCURACY_VALUE',
'Maximum model space distance between geometric entities at asserted c
onnectivities');
#1326=(
GEOMETRIC_REPRESENTATION_CONTEXT(3)
GLOBAL_UNCERTAINTY_ASSIGNED_CONTEXT((#1324))
GLOBAL_UNIT_ASSIGNED_CONTEXT((#1328,#1330,#1331))
REPRESENTATION_CONTEXT('','3D')
);
#1327=(
GEOMETRIC_REPRESENTATION_CONTEXT(3)
GLOBAL_UNCERTAINTY_ASSIGNED_CONTEXT((#1325))
GLOBAL_UNIT_ASSIGNED_CONTEXT((#1328,#1330,#1331))
REPRESENTATION_CONTEXT('','3D')
);
#1328=(
LENGTH_UNIT()
NAMED_UNIT(*)
SI_UNIT(.MILLI.,.METRE.)
);
#1329=(
LENGTH_UNIT()
NAMED_UNIT(*)
SI_UNIT($,.METRE.)
);
#1330=(
NAMED_UNIT(*)
PLANE_ANGLE_UNIT()
SI_UNIT($,.RADIAN.)
);
#1331=(
NAMED_UNIT(*)
SI_UNIT($,.STERADIAN.)
SOLID_ANGLE_UNIT()
);
#1332=SHAPE_DEFINITION_REPRESENTATION(#1333,#1334);
#1333=PRODUCT_DEFINITION_SHAPE('',$,#1336);
#1334=SHAPE_REPRESENTATION('',(#658),#1326);
#1335=PRODUCT_DEFINITION_CONTEXT('part definition',#1340,'design');
#1336=PRODUCT_DEFINITION('FullLoad','FullLoad',#1337,#1335);
#1337=PRODUCT_DEFINITION_FORMATION('',$,#1342);
#1338=PRODUCT_RELATED_PRODUCT_CATEGORY('FullLoad','FullLoad',(#1342));
#1339=APPLICATION_PROTOCOL_DEFINITION('international standard',
'automotive_design',2009,#1340);
#1340=APPLICATION_CONTEXT(
'Core Data for Automotive Mechanical Design Process');
#1341=PRODUCT_CONTEXT('part definition',#1340,'mechanical');
#1342=PRODUCT('FullLoad','FullLoad',$,(#1341));
#1343=PRESENTATION_STYLE_ASSIGNMENT((#1344));
#1344=SURFACE_STYLE_USAGE(.BOTH.,#1345);
#1345=SURFACE_SIDE_STYLE('',(#1346));
#1346=SURFACE_STYLE_FILL_AREA(#1347);
#1347=FILL_AREA_STYLE('Steel - Satin',(#1348));
#1348=FILL_AREA_STYLE_COLOUR('Steel - Satin',#1349);
#1349=COLOUR_RGB('Steel - Satin',0.627450980392157,0.627450980392157,0.627450980392157);
ENDSEC;
END-ISO-10303-21;
