ISO-10303-21;
HEADER;
/* Generated by software containing ST-Developer
 * from STEP Tools, Inc. (www.steptools.com) 
 */

FILE_DESCRIPTION(
/* description */ (''),
/* implementation_level */ '2;1');

FILE_NAME(
/* name */ 'OneQuarterLoad.step',
/* time_stamp */ '2026-04-19T21:32:46-04:00',
/* author */ (''),
/* organization */ (''),
/* preprocessor_version */ 'ST-DEVELOPER v20.1',
/* originating_system */ 'Autodesk Translation Framework v14.24.0.0',
/* authorisation */ '');

FILE_SCHEMA (('AUTOMOTIVE_DESIGN { 1 0 10303 214 3 1 1 }'));
ENDSEC;

DATA;
#10=MECHANICAL_DESIGN_GEOMETRIC_PRESENTATION_REPRESENTATION('',(#13),#1002);
#11=SHAPE_REPRESENTATION_RELATIONSHIP('SRR','None',#1009,#12);
#12=ADVANCED_BREP_SHAPE_REPRESENTATION('',(#14),#1001);
#13=STYLED_ITEM('',(#1018),#14);
#14=MANIFOLD_SOLID_BREP('Body2',#530);
#15=B_SPLINE_SURFACE_WITH_KNOTS('',3,3,((#874,#875,#876,#877,#878,#879,
#880),(#881,#882,#883,#884,#885,#886,#887),(#888,#889,#890,#891,#892,#893,
#894),(#895,#896,#897,#898,#899,#900,#901),(#902,#903,#904,#905,#906,#907,
#908),(#909,#910,#911,#912,#913,#914,#915),(#916,#917,#918,#919,#920,#921,
#922)),.UNSPECIFIED.,.F.,.F.,.F.,(4,1,1,1,4),(4,1,1,1,4),(0.,0.285714285714286,
0.571428571428571,0.857142857142857,1.),(-6.28318530717959,-6.05878583192317,
-5.60998688141034,-5.16118793089752,-4.71238898038469),.UNSPECIFIED.);
#16=B_SPLINE_SURFACE_WITH_KNOTS('',3,3,((#932,#933,#934,#935,#936,#937,
#938),(#939,#940,#941,#942,#943,#944,#945),(#946,#947,#948,#949,#950,#951,
#952),(#953,#954,#955,#956,#957,#958,#959),(#960,#961,#962,#963,#964,#965,
#966),(#967,#968,#969,#970,#971,#972,#973),(#974,#975,#976,#977,#978,#979,
#980)),.UNSPECIFIED.,.F.,.F.,.F.,(4,1,1,1,4),(4,1,1,1,4),(0.,0.285714285714286,
0.571428571428571,0.857142857142857,1.),(-1.5707963267949,-1.12199737628207,
-0.897597901025656,-0.448798950512828,2.77555756156289E-16),
 .UNSPECIFIED.);
#17=CYLINDRICAL_SURFACE('',#558,20.);
#18=CYLINDRICAL_SURFACE('',#561,20.);
#19=CYLINDRICAL_SURFACE('',#564,20.);
#20=CYLINDRICAL_SURFACE('',#568,299.999999999997);
#21=CYLINDRICAL_SURFACE('',#576,299.999999999997);
#22=CYLINDRICAL_SURFACE('',#578,20.);
#23=CYLINDRICAL_SURFACE('',#582,20.);
#24=CYLINDRICAL_SURFACE('',#587,20.);
#25=CYLINDRICAL_SURFACE('',#589,20.);
#26=CYLINDRICAL_SURFACE('',#591,100.);
#27=CYLINDRICAL_SURFACE('',#593,100.);
#28=CIRCLE('',#550,299.999999999997);
#29=CIRCLE('',#552,100.);
#30=CIRCLE('',#553,100.);
#31=CIRCLE('',#555,299.999999999997);
#32=CIRCLE('',#569,299.999999999997);
#33=CIRCLE('',#577,299.999999999997);
#34=CIRCLE('',#579,20.);
#35=CIRCLE('',#580,20.0000000000001);
#36=CIRCLE('',#583,20.0000000000001);
#37=CIRCLE('',#584,20.);
#38=FACE_OUTER_BOUND('',#67,.T.);
#39=FACE_OUTER_BOUND('',#68,.T.);
#40=FACE_OUTER_BOUND('',#69,.T.);
#41=FACE_OUTER_BOUND('',#70,.T.);
#42=FACE_OUTER_BOUND('',#71,.T.);
#43=FACE_OUTER_BOUND('',#72,.T.);
#44=FACE_OUTER_BOUND('',#73,.T.);
#45=FACE_OUTER_BOUND('',#74,.T.);
#46=FACE_OUTER_BOUND('',#75,.T.);
#47=FACE_OUTER_BOUND('',#76,.T.);
#48=FACE_OUTER_BOUND('',#77,.T.);
#49=FACE_OUTER_BOUND('',#78,.T.);
#50=FACE_OUTER_BOUND('',#79,.T.);
#51=FACE_OUTER_BOUND('',#80,.T.);
#52=FACE_OUTER_BOUND('',#81,.T.);
#53=FACE_OUTER_BOUND('',#82,.T.);
#54=FACE_OUTER_BOUND('',#83,.T.);
#55=FACE_OUTER_BOUND('',#84,.T.);
#56=FACE_OUTER_BOUND('',#85,.T.);
#57=FACE_OUTER_BOUND('',#86,.T.);
#58=FACE_OUTER_BOUND('',#87,.T.);
#59=FACE_OUTER_BOUND('',#88,.T.);
#60=FACE_OUTER_BOUND('',#89,.T.);
#61=FACE_OUTER_BOUND('',#90,.T.);
#62=FACE_OUTER_BOUND('',#91,.T.);
#63=FACE_OUTER_BOUND('',#92,.T.);
#64=FACE_OUTER_BOUND('',#93,.T.);
#65=FACE_OUTER_BOUND('',#94,.T.);
#66=FACE_OUTER_BOUND('',#95,.T.);
#67=EDGE_LOOP('',(#335,#336,#337,#338,#339,#340,#341,#342,#343,#344,#345,
#346));
#68=EDGE_LOOP('',(#347,#348,#349,#350,#351,#352));
#69=EDGE_LOOP('',(#353,#354,#355,#356,#357,#358,#359,#360,#361,#362));
#70=EDGE_LOOP('',(#363,#364,#365,#366,#367,#368));
#71=EDGE_LOOP('',(#369,#370,#371,#372,#373,#374));
#72=EDGE_LOOP('',(#375,#376,#377,#378));
#73=EDGE_LOOP('',(#379,#380,#381,#382));
#74=EDGE_LOOP('',(#383,#384,#385,#386));
#75=EDGE_LOOP('',(#387,#388,#389,#390));
#76=EDGE_LOOP('',(#391,#392,#393,#394));
#77=EDGE_LOOP('',(#395,#396,#397,#398,#399,#400));
#78=EDGE_LOOP('',(#401,#402,#403,#404));
#79=EDGE_LOOP('',(#405,#406,#407,#408));
#80=EDGE_LOOP('',(#409,#410,#411,#412,#413));
#81=EDGE_LOOP('',(#414,#415,#416,#417,#418));
#82=EDGE_LOOP('',(#419,#420,#421,#422));
#83=EDGE_LOOP('',(#423,#424,#425,#426));
#84=EDGE_LOOP('',(#427,#428,#429,#430));
#85=EDGE_LOOP('',(#431,#432,#433,#434));
#86=EDGE_LOOP('',(#435,#436,#437,#438));
#87=EDGE_LOOP('',(#439,#440,#441,#442));
#88=EDGE_LOOP('',(#443,#444,#445,#446));
#89=EDGE_LOOP('',(#447,#448,#449,#450,#451,#452,#453,#454,#455,#456));
#90=EDGE_LOOP('',(#457,#458,#459,#460));
#91=EDGE_LOOP('',(#461,#462,#463,#464));
#92=EDGE_LOOP('',(#465,#466,#467,#468,#469));
#93=EDGE_LOOP('',(#470,#471,#472,#473,#474));
#94=EDGE_LOOP('',(#475,#476,#477,#478,#479));
#95=EDGE_LOOP('',(#480,#481,#482,#483,#484));
#96=ELLIPSE('',#545,22.7364402423068,20.);
#97=ELLIPSE('',#546,23.5072507878335,20.);
#98=ELLIPSE('',#547,23.5072507878335,20.);
#99=ELLIPSE('',#548,22.7364402423068,20.);
#100=ELLIPSE('',#557,113.682201211534,100.);
#101=ELLIPSE('',#559,23.2839245574101,20.);
#102=ELLIPSE('',#562,31.7862133386219,20.);
#103=ELLIPSE('',#565,23.2839245574103,20.);
#104=ELLIPSE('',#567,113.682201211534,100.);
#105=ELLIPSE('',#572,132.059353620433,100.);
#106=ELLIPSE('',#574,132.059353620433,100.);
#107=ELLIPSE('',#581,47.014501575667,40.);
#108=ELLIPSE('',#585,31.7862133386219,20.);
#109=ELLIPSE('',#586,47.014501575667,40.);
#110=LINE('',#754,#161);
#111=LINE('',#758,#162);
#112=LINE('',#762,#163);
#113=LINE('',#766,#164);
#114=LINE('',#770,#165);
#115=LINE('',#772,#166);
#116=LINE('',#774,#167);
#117=LINE('',#775,#168);
#118=LINE('',#778,#169);
#119=LINE('',#782,#170);
#120=LINE('',#784,#171);
#121=LINE('',#785,#172);
#122=LINE('',#788,#173);
#123=LINE('',#790,#174);
#124=LINE('',#792,#175);
#125=LINE('',#796,#176);
#126=LINE('',#800,#177);
#127=LINE('',#801,#178);
#128=LINE('',#804,#179);
#129=LINE('',#806,#180);
#130=LINE('',#808,#181);
#131=LINE('',#812,#182);
#132=LINE('',#814,#183);
#133=LINE('',#817,#184);
#134=LINE('',#820,#185);
#135=LINE('',#824,#186);
#136=LINE('',#825,#187);
#137=LINE('',#828,#188);
#138=LINE('',#831,#189);
#139=LINE('',#834,#190);
#140=LINE('',#835,#191);
#141=LINE('',#838,#192);
#142=LINE('',#842,#193);
#143=LINE('',#845,#194);
#144=LINE('',#849,#195);
#145=LINE('',#852,#196);
#146=LINE('',#853,#197);
#147=LINE('',#856,#198);
#148=LINE('',#862,#199);
#149=LINE('',#863,#200);
#150=LINE('',#866,#201);
#151=LINE('',#867,#202);
#152=LINE('',#872,#203);
#153=LINE('',#930,#204);
#154=LINE('',#931,#205);
#155=LINE('',#986,#206);
#156=LINE('',#988,#207);
#157=LINE('',#989,#208);
#158=LINE('',#991,#209);
#159=LINE('',#994,#210);
#160=LINE('',#997,#211);
#161=VECTOR('',#599,10.);
#162=VECTOR('',#602,10.);
#163=VECTOR('',#605,10.);
#164=VECTOR('',#608,10.);
#165=VECTOR('',#611,10.);
#166=VECTOR('',#612,10.);
#167=VECTOR('',#613,10.);
#168=VECTOR('',#614,10.);
#169=VECTOR('',#617,10.);
#170=VECTOR('',#620,10.);
#171=VECTOR('',#621,10.);
#172=VECTOR('',#622,10.);
#173=VECTOR('',#625,10.);
#174=VECTOR('',#626,10.);
#175=VECTOR('',#627,10.);
#176=VECTOR('',#630,10.);
#177=VECTOR('',#633,10.);
#178=VECTOR('',#634,10.);
#179=VECTOR('',#637,10.);
#180=VECTOR('',#638,10.);
#181=VECTOR('',#639,10.);
#182=VECTOR('',#644,10.);
#183=VECTOR('',#645,10.);
#184=VECTOR('',#648,10.);
#185=VECTOR('',#651,10.);
#186=VECTOR('',#656,10.);
#187=VECTOR('',#657,10.);
#188=VECTOR('',#660,10.);
#189=VECTOR('',#663,10.);
#190=VECTOR('',#666,10.);
#191=VECTOR('',#667,10.);
#192=VECTOR('',#670,10.);
#193=VECTOR('',#675,10.);
#194=VECTOR('',#678,10.);
#195=VECTOR('',#683,10.);
#196=VECTOR('',#686,10.);
#197=VECTOR('',#687,10.);
#198=VECTOR('',#690,10.);
#199=VECTOR('',#697,10.);
#200=VECTOR('',#698,10.);
#201=VECTOR('',#701,10.);
#202=VECTOR('',#702,10.);
#203=VECTOR('',#709,10.);
#204=VECTOR('',#720,10.);
#205=VECTOR('',#721,10.);
#206=VECTOR('',#730,10.);
#207=VECTOR('',#733,10.);
#208=VECTOR('',#734,10.);
#209=VECTOR('',#737,10.);
#210=VECTOR('',#742,10.);
#211=VECTOR('',#747,10.);
#212=VERTEX_POINT('',#752);
#213=VERTEX_POINT('',#753);
#214=VERTEX_POINT('',#755);
#215=VERTEX_POINT('',#757);
#216=VERTEX_POINT('',#759);
#217=VERTEX_POINT('',#761);
#218=VERTEX_POINT('',#763);
#219=VERTEX_POINT('',#765);
#220=VERTEX_POINT('',#767);
#221=VERTEX_POINT('',#769);
#222=VERTEX_POINT('',#771);
#223=VERTEX_POINT('',#773);
#224=VERTEX_POINT('',#777);
#225=VERTEX_POINT('',#779);
#226=VERTEX_POINT('',#781);
#227=VERTEX_POINT('',#783);
#228=VERTEX_POINT('',#787);
#229=VERTEX_POINT('',#789);
#230=VERTEX_POINT('',#791);
#231=VERTEX_POINT('',#793);
#232=VERTEX_POINT('',#795);
#233=VERTEX_POINT('',#797);
#234=VERTEX_POINT('',#799);
#235=VERTEX_POINT('',#803);
#236=VERTEX_POINT('',#805);
#237=VERTEX_POINT('',#807);
#238=VERTEX_POINT('',#811);
#239=VERTEX_POINT('',#813);
#240=VERTEX_POINT('',#815);
#241=VERTEX_POINT('',#819);
#242=VERTEX_POINT('',#823);
#243=VERTEX_POINT('',#827);
#244=VERTEX_POINT('',#829);
#245=VERTEX_POINT('',#833);
#246=VERTEX_POINT('',#837);
#247=VERTEX_POINT('',#841);
#248=VERTEX_POINT('',#843);
#249=VERTEX_POINT('',#847);
#250=VERTEX_POINT('',#851);
#251=VERTEX_POINT('',#855);
#252=VERTEX_POINT('',#859);
#253=VERTEX_POINT('',#861);
#254=VERTEX_POINT('',#865);
#255=VERTEX_POINT('',#871);
#256=VERTEX_POINT('',#923);
#257=VERTEX_POINT('',#927);
#258=VERTEX_POINT('',#928);
#259=VERTEX_POINT('',#981);
#260=EDGE_CURVE('',#212,#213,#110,.T.);
#261=EDGE_CURVE('',#214,#212,#96,.T.);
#262=EDGE_CURVE('',#215,#214,#111,.T.);
#263=EDGE_CURVE('',#216,#215,#97,.T.);
#264=EDGE_CURVE('',#217,#216,#112,.T.);
#265=EDGE_CURVE('',#218,#217,#98,.T.);
#266=EDGE_CURVE('',#219,#218,#113,.T.);
#267=EDGE_CURVE('',#220,#219,#99,.T.);
#268=EDGE_CURVE('',#221,#220,#114,.T.);
#269=EDGE_CURVE('',#222,#221,#115,.T.);
#270=EDGE_CURVE('',#223,#222,#116,.T.);
#271=EDGE_CURVE('',#213,#223,#117,.T.);
#272=EDGE_CURVE('',#223,#224,#118,.T.);
#273=EDGE_CURVE('',#224,#225,#28,.T.);
#274=EDGE_CURVE('',#225,#226,#119,.T.);
#275=EDGE_CURVE('',#226,#227,#120,.T.);
#276=EDGE_CURVE('',#227,#213,#121,.T.);
#277=EDGE_CURVE('',#222,#228,#122,.F.);
#278=EDGE_CURVE('',#228,#229,#123,.T.);
#279=EDGE_CURVE('',#229,#230,#124,.T.);
#280=EDGE_CURVE('',#230,#231,#29,.T.);
#281=EDGE_CURVE('',#231,#232,#125,.T.);
#282=EDGE_CURVE('',#232,#233,#30,.T.);
#283=EDGE_CURVE('',#233,#234,#126,.T.);
#284=EDGE_CURVE('',#234,#224,#127,.T.);
#285=EDGE_CURVE('',#235,#221,#128,.T.);
#286=EDGE_CURVE('',#236,#235,#129,.F.);
#287=EDGE_CURVE('',#237,#236,#130,.F.);
#288=EDGE_CURVE('',#228,#237,#31,.F.);
#289=EDGE_CURVE('',#220,#238,#131,.T.);
#290=EDGE_CURVE('',#238,#239,#132,.T.);
#291=EDGE_CURVE('',#239,#240,#100,.T.);
#292=EDGE_CURVE('',#235,#240,#133,.T.);
#293=EDGE_CURVE('',#241,#219,#134,.T.);
#294=EDGE_CURVE('',#241,#238,#101,.T.);
#295=EDGE_CURVE('',#218,#242,#135,.T.);
#296=EDGE_CURVE('',#242,#241,#136,.T.);
#297=EDGE_CURVE('',#243,#215,#137,.T.);
#298=EDGE_CURVE('',#243,#244,#102,.T.);
#299=EDGE_CURVE('',#216,#244,#138,.T.);
#300=EDGE_CURVE('',#214,#245,#139,.T.);
#301=EDGE_CURVE('',#245,#243,#140,.T.);
#302=EDGE_CURVE('',#246,#212,#141,.T.);
#303=EDGE_CURVE('',#245,#246,#103,.T.);
#304=EDGE_CURVE('',#247,#227,#142,.T.);
#305=EDGE_CURVE('',#247,#248,#104,.T.);
#306=EDGE_CURVE('',#248,#246,#143,.T.);
#307=EDGE_CURVE('',#234,#249,#32,.T.);
#308=EDGE_CURVE('',#249,#225,#144,.T.);
#309=EDGE_CURVE('',#249,#250,#145,.T.);
#310=EDGE_CURVE('',#250,#226,#146,.T.);
#311=EDGE_CURVE('',#250,#251,#147,.T.);
#312=EDGE_CURVE('',#251,#247,#105,.T.);
#313=EDGE_CURVE('',#240,#252,#106,.T.);
#314=EDGE_CURVE('',#252,#253,#148,.T.);
#315=EDGE_CURVE('',#236,#253,#149,.T.);
#316=EDGE_CURVE('',#253,#254,#150,.T.);
#317=EDGE_CURVE('',#237,#254,#151,.T.);
#318=EDGE_CURVE('',#254,#229,#33,.T.);
#319=EDGE_CURVE('',#255,#246,#152,.T.);
#320=EDGE_CURVE('',#243,#255,#34,.T.);
#321=EDGE_CURVE('',#244,#256,#35,.T.);
#322=EDGE_CURVE('',#256,#255,#107,.T.);
#323=EDGE_CURVE('',#257,#258,#36,.T.);
#324=EDGE_CURVE('',#244,#257,#153,.T.);
#325=EDGE_CURVE('',#258,#256,#154,.T.);
#326=EDGE_CURVE('',#242,#259,#37,.T.);
#327=EDGE_CURVE('',#257,#242,#108,.T.);
#328=EDGE_CURVE('',#259,#258,#109,.T.);
#329=EDGE_CURVE('',#238,#259,#155,.T.);
#330=EDGE_CURVE('',#232,#248,#156,.T.);
#331=EDGE_CURVE('',#231,#239,#157,.T.);
#332=EDGE_CURVE('',#257,#217,#158,.T.);
#333=EDGE_CURVE('',#251,#233,#159,.T.);
#334=EDGE_CURVE('',#252,#230,#160,.T.);
#335=ORIENTED_EDGE('',*,*,#260,.F.);
#336=ORIENTED_EDGE('',*,*,#261,.F.);
#337=ORIENTED_EDGE('',*,*,#262,.F.);
#338=ORIENTED_EDGE('',*,*,#263,.F.);
#339=ORIENTED_EDGE('',*,*,#264,.F.);
#340=ORIENTED_EDGE('',*,*,#265,.F.);
#341=ORIENTED_EDGE('',*,*,#266,.F.);
#342=ORIENTED_EDGE('',*,*,#267,.F.);
#343=ORIENTED_EDGE('',*,*,#268,.F.);
#344=ORIENTED_EDGE('',*,*,#269,.F.);
#345=ORIENTED_EDGE('',*,*,#270,.F.);
#346=ORIENTED_EDGE('',*,*,#271,.F.);
#347=ORIENTED_EDGE('',*,*,#271,.T.);
#348=ORIENTED_EDGE('',*,*,#272,.T.);
#349=ORIENTED_EDGE('',*,*,#273,.T.);
#350=ORIENTED_EDGE('',*,*,#274,.T.);
#351=ORIENTED_EDGE('',*,*,#275,.T.);
#352=ORIENTED_EDGE('',*,*,#276,.T.);
#353=ORIENTED_EDGE('',*,*,#270,.T.);
#354=ORIENTED_EDGE('',*,*,#277,.T.);
#355=ORIENTED_EDGE('',*,*,#278,.T.);
#356=ORIENTED_EDGE('',*,*,#279,.T.);
#357=ORIENTED_EDGE('',*,*,#280,.T.);
#358=ORIENTED_EDGE('',*,*,#281,.T.);
#359=ORIENTED_EDGE('',*,*,#282,.T.);
#360=ORIENTED_EDGE('',*,*,#283,.T.);
#361=ORIENTED_EDGE('',*,*,#284,.T.);
#362=ORIENTED_EDGE('',*,*,#272,.F.);
#363=ORIENTED_EDGE('',*,*,#269,.T.);
#364=ORIENTED_EDGE('',*,*,#285,.F.);
#365=ORIENTED_EDGE('',*,*,#286,.F.);
#366=ORIENTED_EDGE('',*,*,#287,.F.);
#367=ORIENTED_EDGE('',*,*,#288,.F.);
#368=ORIENTED_EDGE('',*,*,#277,.F.);
#369=ORIENTED_EDGE('',*,*,#268,.T.);
#370=ORIENTED_EDGE('',*,*,#289,.T.);
#371=ORIENTED_EDGE('',*,*,#290,.T.);
#372=ORIENTED_EDGE('',*,*,#291,.T.);
#373=ORIENTED_EDGE('',*,*,#292,.F.);
#374=ORIENTED_EDGE('',*,*,#285,.T.);
#375=ORIENTED_EDGE('',*,*,#267,.T.);
#376=ORIENTED_EDGE('',*,*,#293,.F.);
#377=ORIENTED_EDGE('',*,*,#294,.T.);
#378=ORIENTED_EDGE('',*,*,#289,.F.);
#379=ORIENTED_EDGE('',*,*,#266,.T.);
#380=ORIENTED_EDGE('',*,*,#295,.T.);
#381=ORIENTED_EDGE('',*,*,#296,.T.);
#382=ORIENTED_EDGE('',*,*,#293,.T.);
#383=ORIENTED_EDGE('',*,*,#263,.T.);
#384=ORIENTED_EDGE('',*,*,#297,.F.);
#385=ORIENTED_EDGE('',*,*,#298,.T.);
#386=ORIENTED_EDGE('',*,*,#299,.F.);
#387=ORIENTED_EDGE('',*,*,#262,.T.);
#388=ORIENTED_EDGE('',*,*,#300,.T.);
#389=ORIENTED_EDGE('',*,*,#301,.T.);
#390=ORIENTED_EDGE('',*,*,#297,.T.);
#391=ORIENTED_EDGE('',*,*,#261,.T.);
#392=ORIENTED_EDGE('',*,*,#302,.F.);
#393=ORIENTED_EDGE('',*,*,#303,.F.);
#394=ORIENTED_EDGE('',*,*,#300,.F.);
#395=ORIENTED_EDGE('',*,*,#260,.T.);
#396=ORIENTED_EDGE('',*,*,#276,.F.);
#397=ORIENTED_EDGE('',*,*,#304,.F.);
#398=ORIENTED_EDGE('',*,*,#305,.T.);
#399=ORIENTED_EDGE('',*,*,#306,.T.);
#400=ORIENTED_EDGE('',*,*,#302,.T.);
#401=ORIENTED_EDGE('',*,*,#307,.T.);
#402=ORIENTED_EDGE('',*,*,#308,.T.);
#403=ORIENTED_EDGE('',*,*,#273,.F.);
#404=ORIENTED_EDGE('',*,*,#284,.F.);
#405=ORIENTED_EDGE('',*,*,#309,.T.);
#406=ORIENTED_EDGE('',*,*,#310,.T.);
#407=ORIENTED_EDGE('',*,*,#274,.F.);
#408=ORIENTED_EDGE('',*,*,#308,.F.);
#409=ORIENTED_EDGE('',*,*,#311,.T.);
#410=ORIENTED_EDGE('',*,*,#312,.T.);
#411=ORIENTED_EDGE('',*,*,#304,.T.);
#412=ORIENTED_EDGE('',*,*,#275,.F.);
#413=ORIENTED_EDGE('',*,*,#310,.F.);
#414=ORIENTED_EDGE('',*,*,#313,.T.);
#415=ORIENTED_EDGE('',*,*,#314,.T.);
#416=ORIENTED_EDGE('',*,*,#315,.F.);
#417=ORIENTED_EDGE('',*,*,#286,.T.);
#418=ORIENTED_EDGE('',*,*,#292,.T.);
#419=ORIENTED_EDGE('',*,*,#316,.T.);
#420=ORIENTED_EDGE('',*,*,#317,.F.);
#421=ORIENTED_EDGE('',*,*,#287,.T.);
#422=ORIENTED_EDGE('',*,*,#315,.T.);
#423=ORIENTED_EDGE('',*,*,#318,.T.);
#424=ORIENTED_EDGE('',*,*,#278,.F.);
#425=ORIENTED_EDGE('',*,*,#288,.T.);
#426=ORIENTED_EDGE('',*,*,#317,.T.);
#427=ORIENTED_EDGE('',*,*,#301,.F.);
#428=ORIENTED_EDGE('',*,*,#303,.T.);
#429=ORIENTED_EDGE('',*,*,#319,.F.);
#430=ORIENTED_EDGE('',*,*,#320,.F.);
#431=ORIENTED_EDGE('',*,*,#321,.F.);
#432=ORIENTED_EDGE('',*,*,#298,.F.);
#433=ORIENTED_EDGE('',*,*,#320,.T.);
#434=ORIENTED_EDGE('',*,*,#322,.F.);
#435=ORIENTED_EDGE('',*,*,#323,.F.);
#436=ORIENTED_EDGE('',*,*,#324,.F.);
#437=ORIENTED_EDGE('',*,*,#321,.T.);
#438=ORIENTED_EDGE('',*,*,#325,.F.);
#439=ORIENTED_EDGE('',*,*,#326,.F.);
#440=ORIENTED_EDGE('',*,*,#327,.F.);
#441=ORIENTED_EDGE('',*,*,#323,.T.);
#442=ORIENTED_EDGE('',*,*,#328,.F.);
#443=ORIENTED_EDGE('',*,*,#329,.F.);
#444=ORIENTED_EDGE('',*,*,#294,.F.);
#445=ORIENTED_EDGE('',*,*,#296,.F.);
#446=ORIENTED_EDGE('',*,*,#326,.T.);
#447=ORIENTED_EDGE('',*,*,#319,.T.);
#448=ORIENTED_EDGE('',*,*,#306,.F.);
#449=ORIENTED_EDGE('',*,*,#330,.F.);
#450=ORIENTED_EDGE('',*,*,#281,.F.);
#451=ORIENTED_EDGE('',*,*,#331,.T.);
#452=ORIENTED_EDGE('',*,*,#290,.F.);
#453=ORIENTED_EDGE('',*,*,#329,.T.);
#454=ORIENTED_EDGE('',*,*,#328,.T.);
#455=ORIENTED_EDGE('',*,*,#325,.T.);
#456=ORIENTED_EDGE('',*,*,#322,.T.);
#457=ORIENTED_EDGE('',*,*,#265,.T.);
#458=ORIENTED_EDGE('',*,*,#332,.F.);
#459=ORIENTED_EDGE('',*,*,#327,.T.);
#460=ORIENTED_EDGE('',*,*,#295,.F.);
#461=ORIENTED_EDGE('',*,*,#264,.T.);
#462=ORIENTED_EDGE('',*,*,#299,.T.);
#463=ORIENTED_EDGE('',*,*,#324,.T.);
#464=ORIENTED_EDGE('',*,*,#332,.T.);
#465=ORIENTED_EDGE('',*,*,#305,.F.);
#466=ORIENTED_EDGE('',*,*,#312,.F.);
#467=ORIENTED_EDGE('',*,*,#333,.T.);
#468=ORIENTED_EDGE('',*,*,#282,.F.);
#469=ORIENTED_EDGE('',*,*,#330,.T.);
#470=ORIENTED_EDGE('',*,*,#309,.F.);
#471=ORIENTED_EDGE('',*,*,#307,.F.);
#472=ORIENTED_EDGE('',*,*,#283,.F.);
#473=ORIENTED_EDGE('',*,*,#333,.F.);
#474=ORIENTED_EDGE('',*,*,#311,.F.);
#475=ORIENTED_EDGE('',*,*,#291,.F.);
#476=ORIENTED_EDGE('',*,*,#331,.F.);
#477=ORIENTED_EDGE('',*,*,#280,.F.);
#478=ORIENTED_EDGE('',*,*,#334,.F.);
#479=ORIENTED_EDGE('',*,*,#313,.F.);
#480=ORIENTED_EDGE('',*,*,#316,.F.);
#481=ORIENTED_EDGE('',*,*,#314,.F.);
#482=ORIENTED_EDGE('',*,*,#334,.T.);
#483=ORIENTED_EDGE('',*,*,#279,.F.);
#484=ORIENTED_EDGE('',*,*,#318,.F.);
#485=PLANE('',#544);
#486=PLANE('',#549);
#487=PLANE('',#551);
#488=PLANE('',#554);
#489=PLANE('',#556);
#490=PLANE('',#560);
#491=PLANE('',#563);
#492=PLANE('',#566);
#493=PLANE('',#570);
#494=PLANE('',#571);
#495=PLANE('',#573);
#496=PLANE('',#575);
#497=PLANE('',#588);
#498=PLANE('',#590);
#499=PLANE('',#592);
#500=PLANE('',#594);
#501=ADVANCED_FACE('',(#38),#485,.F.);
#502=ADVANCED_FACE('',(#39),#486,.T.);
#503=ADVANCED_FACE('',(#40),#487,.T.);
#504=ADVANCED_FACE('',(#41),#488,.F.);
#505=ADVANCED_FACE('',(#42),#489,.T.);
#506=ADVANCED_FACE('',(#43),#17,.T.);
#507=ADVANCED_FACE('',(#44),#490,.T.);
#508=ADVANCED_FACE('',(#45),#18,.F.);
#509=ADVANCED_FACE('',(#46),#491,.T.);
#510=ADVANCED_FACE('',(#47),#19,.T.);
#511=ADVANCED_FACE('',(#48),#492,.T.);
#512=ADVANCED_FACE('',(#49),#20,.T.);
#513=ADVANCED_FACE('',(#50),#493,.T.);
#514=ADVANCED_FACE('',(#51),#494,.T.);
#515=ADVANCED_FACE('',(#52),#495,.T.);
#516=ADVANCED_FACE('',(#53),#496,.T.);
#517=ADVANCED_FACE('',(#54),#21,.T.);
#518=ADVANCED_FACE('',(#55),#22,.T.);
#519=ADVANCED_FACE('',(#56),#15,.F.);
#520=ADVANCED_FACE('',(#57),#23,.T.);
#521=ADVANCED_FACE('',(#58),#16,.F.);
#522=ADVANCED_FACE('',(#59),#24,.T.);
#523=ADVANCED_FACE('',(#60),#497,.F.);
#524=ADVANCED_FACE('',(#61),#25,.F.);
#525=ADVANCED_FACE('',(#62),#498,.F.);
#526=ADVANCED_FACE('',(#63),#26,.F.);
#527=ADVANCED_FACE('',(#64),#499,.F.);
#528=ADVANCED_FACE('',(#65),#27,.F.);
#529=ADVANCED_FACE('',(#66),#500,.T.);
#530=CLOSED_SHELL('',(#501,#502,#503,#504,#505,#506,#507,#508,#509,#510,
#511,#512,#513,#514,#515,#516,#517,#518,#519,#520,#521,#522,#523,#524,#525,
#526,#527,#528,#529));
#531=DERIVED_UNIT_ELEMENT(#533,1.);
#532=DERIVED_UNIT_ELEMENT(#1004,-3.);
#533=(
MASS_UNIT()
NAMED_UNIT(*)
SI_UNIT(.KILO.,.GRAM.)
);
#534=DERIVED_UNIT((#531,#532));
#535=MEASURE_REPRESENTATION_ITEM('density measure',
POSITIVE_RATIO_MEASURE(7850.),#534);
#536=PROPERTY_DEFINITION_REPRESENTATION(#541,#538);
#537=PROPERTY_DEFINITION_REPRESENTATION(#542,#539);
#538=REPRESENTATION('material name',(#540),#1001);
#539=REPRESENTATION('density',(#535),#1001);
#540=DESCRIPTIVE_REPRESENTATION_ITEM('Steel','Steel');
#541=PROPERTY_DEFINITION('material property','material name',#1011);
#542=PROPERTY_DEFINITION('material property','density of part',#1011);
#543=AXIS2_PLACEMENT_3D('',#750,#595,#596);
#544=AXIS2_PLACEMENT_3D('',#751,#597,#598);
#545=AXIS2_PLACEMENT_3D('',#756,#600,#601);
#546=AXIS2_PLACEMENT_3D('',#760,#603,#604);
#547=AXIS2_PLACEMENT_3D('',#764,#606,#607);
#548=AXIS2_PLACEMENT_3D('',#768,#609,#610);
#549=AXIS2_PLACEMENT_3D('',#776,#615,#616);
#550=AXIS2_PLACEMENT_3D('',#780,#618,#619);
#551=AXIS2_PLACEMENT_3D('',#786,#623,#624);
#552=AXIS2_PLACEMENT_3D('',#794,#628,#629);
#553=AXIS2_PLACEMENT_3D('',#798,#631,#632);
#554=AXIS2_PLACEMENT_3D('',#802,#635,#636);
#555=AXIS2_PLACEMENT_3D('',#809,#640,#641);
#556=AXIS2_PLACEMENT_3D('',#810,#642,#643);
#557=AXIS2_PLACEMENT_3D('',#816,#646,#647);
#558=AXIS2_PLACEMENT_3D('',#818,#649,#650);
#559=AXIS2_PLACEMENT_3D('',#821,#652,#653);
#560=AXIS2_PLACEMENT_3D('',#822,#654,#655);
#561=AXIS2_PLACEMENT_3D('',#826,#658,#659);
#562=AXIS2_PLACEMENT_3D('',#830,#661,#662);
#563=AXIS2_PLACEMENT_3D('',#832,#664,#665);
#564=AXIS2_PLACEMENT_3D('',#836,#668,#669);
#565=AXIS2_PLACEMENT_3D('',#839,#671,#672);
#566=AXIS2_PLACEMENT_3D('',#840,#673,#674);
#567=AXIS2_PLACEMENT_3D('',#844,#676,#677);
#568=AXIS2_PLACEMENT_3D('',#846,#679,#680);
#569=AXIS2_PLACEMENT_3D('',#848,#681,#682);
#570=AXIS2_PLACEMENT_3D('',#850,#684,#685);
#571=AXIS2_PLACEMENT_3D('',#854,#688,#689);
#572=AXIS2_PLACEMENT_3D('',#857,#691,#692);
#573=AXIS2_PLACEMENT_3D('',#858,#693,#694);
#574=AXIS2_PLACEMENT_3D('',#860,#695,#696);
#575=AXIS2_PLACEMENT_3D('',#864,#699,#700);
#576=AXIS2_PLACEMENT_3D('',#868,#703,#704);
#577=AXIS2_PLACEMENT_3D('',#869,#705,#706);
#578=AXIS2_PLACEMENT_3D('',#870,#707,#708);
#579=AXIS2_PLACEMENT_3D('',#873,#710,#711);
#580=AXIS2_PLACEMENT_3D('',#924,#712,#713);
#581=AXIS2_PLACEMENT_3D('',#925,#714,#715);
#582=AXIS2_PLACEMENT_3D('',#926,#716,#717);
#583=AXIS2_PLACEMENT_3D('',#929,#718,#719);
#584=AXIS2_PLACEMENT_3D('',#982,#722,#723);
#585=AXIS2_PLACEMENT_3D('',#983,#724,#725);
#586=AXIS2_PLACEMENT_3D('',#984,#726,#727);
#587=AXIS2_PLACEMENT_3D('',#985,#728,#729);
#588=AXIS2_PLACEMENT_3D('',#987,#731,#732);
#589=AXIS2_PLACEMENT_3D('',#990,#735,#736);
#590=AXIS2_PLACEMENT_3D('',#992,#738,#739);
#591=AXIS2_PLACEMENT_3D('',#993,#740,#741);
#592=AXIS2_PLACEMENT_3D('',#995,#743,#744);
#593=AXIS2_PLACEMENT_3D('',#996,#745,#746);
#594=AXIS2_PLACEMENT_3D('',#998,#748,#749);
#595=DIRECTION('axis',(0.,0.,1.));
#596=DIRECTION('refdir',(1.,0.,0.));
#597=DIRECTION('center_axis',(0.,1.,0.));
#598=DIRECTION('ref_axis',(7.70371977754894E-34,0.,-1.));
#599=DIRECTION('',(1.,0.,0.));
#600=DIRECTION('center_axis',(0.,1.,0.));
#601=DIRECTION('ref_axis',(2.92980698682808E-16,0.,1.));
#602=DIRECTION('',(0.,0.,1.));
#603=DIRECTION('center_axis',(0.,-1.,0.));
#604=DIRECTION('ref_axis',(2.36144803713025E-16,0.,-1.));
#605=DIRECTION('',(1.,0.,-1.25753063058969E-17));
#606=DIRECTION('center_axis',(0.,-1.,0.));
#607=DIRECTION('ref_axis',(-2.36144803713025E-16,0.,-1.));
#608=DIRECTION('',(0.,0.,-1.));
#609=DIRECTION('center_axis',(0.,1.,0.));
#610=DIRECTION('ref_axis',(-2.92980698682808E-16,0.,1.));
#611=DIRECTION('',(1.,0.,0.));
#612=DIRECTION('',(0.,0.,1.));
#613=DIRECTION('',(-1.,0.,0.));
#614=DIRECTION('',(0.,0.,-1.));
#615=DIRECTION('center_axis',(1.,0.,0.));
#616=DIRECTION('ref_axis',(0.,1.,0.));
#617=DIRECTION('',(0.,1.,0.));
#618=DIRECTION('center_axis',(1.,0.,0.));
#619=DIRECTION('ref_axis',(0.,-5.68434188608084E-15,-1.));
#620=DIRECTION('',(0.,0.,1.));
#621=DIRECTION('',(0.,-0.757235267767716,0.653142212116746));
#622=DIRECTION('',(0.,-0.879645176943093,0.475630489645853));
#623=DIRECTION('center_axis',(0.,0.,-1.));
#624=DIRECTION('ref_axis',(0.,1.,0.));
#625=DIRECTION('',(0.,-1.,0.));
#626=DIRECTION('',(1.,0.,0.));
#627=DIRECTION('',(0.,-1.,0.));
#628=DIRECTION('center_axis',(0.,0.,1.));
#629=DIRECTION('ref_axis',(-0.707106781186547,-0.707106781186547,0.));
#630=DIRECTION('',(1.,0.,0.));
#631=DIRECTION('center_axis',(0.,0.,1.));
#632=DIRECTION('ref_axis',(0.707106781186547,-0.707106781186547,0.));
#633=DIRECTION('',(0.,1.,0.));
#634=DIRECTION('',(1.,0.,0.));
#635=DIRECTION('center_axis',(1.,0.,0.));
#636=DIRECTION('ref_axis',(0.,1.,0.));
#637=DIRECTION('',(0.,-0.879645176943093,0.475630489645853));
#638=DIRECTION('',(0.,0.757235267767716,-0.653142212116746));
#639=DIRECTION('',(0.,0.,-1.));
#640=DIRECTION('center_axis',(-1.,0.,0.));
#641=DIRECTION('ref_axis',(0.,-5.68434188608084E-15,-1.));
#642=DIRECTION('center_axis',(0.,0.475630489645853,0.879645176943093));
#643=DIRECTION('ref_axis',(0.,-0.879645176943093,0.475630489645853));
#644=DIRECTION('',(0.,0.879645176943093,-0.475630489645853));
#645=DIRECTION('',(-1.,0.,0.));
#646=DIRECTION('center_axis',(0.,-0.475630489645853,-0.879645176943093));
#647=DIRECTION('ref_axis',(0.,-0.879645176943093,0.475630489645853));
#648=DIRECTION('',(1.,0.,0.));
#649=DIRECTION('center_axis',(0.,-0.879645176943093,0.475630489645853));
#650=DIRECTION('ref_axis',(0.707106781186546,0.336321544567659,0.622003069654505));
#651=DIRECTION('',(0.,-0.879645176943093,0.475630489645853));
#652=DIRECTION('center_axis',(0.,-0.512039798430814,0.858961724888212));
#653=DIRECTION('ref_axis',(0.,-0.858961724888212,-0.512039798430814));
#654=DIRECTION('center_axis',(1.,0.,0.));
#655=DIRECTION('ref_axis',(0.,0.,-1.));
#656=DIRECTION('',(0.,0.850801320005965,-0.525487501160691));
#657=DIRECTION('',(0.,0.,1.));
#658=DIRECTION('center_axis',(0.,-0.850801320005965,0.525487501160691));
#659=DIRECTION('ref_axis',(0.707106781186549,-0.371575775499494,-0.601607382818684));
#660=DIRECTION('',(0.,-0.850801320005965,0.525487501160691));
#661=DIRECTION('center_axis',(0.,0.943757435211633,0.330638629749702));
#662=DIRECTION('ref_axis',(0.,0.330638629749702,-0.943757435211633));
#663=DIRECTION('',(0.,0.850801320005965,-0.525487501160691));
#664=DIRECTION('center_axis',(-1.,0.,0.));
#665=DIRECTION('ref_axis',(0.,0.,1.));
#666=DIRECTION('',(0.,0.879645176943093,-0.475630489645853));
#667=DIRECTION('',(0.,0.,-1.));
#668=DIRECTION('center_axis',(0.,0.879645176943093,-0.475630489645853));
#669=DIRECTION('ref_axis',(-0.707106781186546,0.336321544567659,0.622003069654505));
#670=DIRECTION('',(0.,-0.879645176943093,0.475630489645853));
#671=DIRECTION('center_axis',(0.,0.512039798430814,-0.858961724888212));
#672=DIRECTION('ref_axis',(0.,-0.858961724888211,-0.512039798430814));
#673=DIRECTION('center_axis',(0.,0.475630489645853,0.879645176943093));
#674=DIRECTION('ref_axis',(0.,-0.879645176943093,0.475630489645853));
#675=DIRECTION('',(1.,0.,0.));
#676=DIRECTION('center_axis',(0.,-0.475630489645853,-0.879645176943093));
#677=DIRECTION('ref_axis',(0.,-0.879645176943093,0.475630489645853));
#678=DIRECTION('',(-1.,0.,0.));
#679=DIRECTION('center_axis',(1.,0.,0.));
#680=DIRECTION('ref_axis',(0.,-5.68434188608084E-15,-1.));
#681=DIRECTION('center_axis',(1.,0.,0.));
#682=DIRECTION('ref_axis',(0.,-5.68434188608084E-15,-1.));
#683=DIRECTION('',(1.,0.,0.));
#684=DIRECTION('center_axis',(0.,1.,0.));
#685=DIRECTION('ref_axis',(0.,0.,1.));
#686=DIRECTION('',(0.,0.,1.));
#687=DIRECTION('',(1.,0.,0.));
#688=DIRECTION('center_axis',(0.,0.653142212116746,0.757235267767716));
#689=DIRECTION('ref_axis',(0.,-0.757235267767716,0.653142212116746));
#690=DIRECTION('',(0.,-0.757235267767716,0.653142212116746));
#691=DIRECTION('center_axis',(0.,-0.653142212116746,-0.757235267767716));
#692=DIRECTION('ref_axis',(0.,-0.757235267767716,0.653142212116746));
#693=DIRECTION('center_axis',(0.,0.653142212116746,0.757235267767716));
#694=DIRECTION('ref_axis',(0.,-0.757235267767716,0.653142212116746));
#695=DIRECTION('center_axis',(0.,-0.653142212116746,-0.757235267767716));
#696=DIRECTION('ref_axis',(0.,-0.757235267767716,0.653142212116746));
#697=DIRECTION('',(0.,0.757235267767716,-0.653142212116746));
#698=DIRECTION('',(1.,0.,0.));
#699=DIRECTION('center_axis',(0.,1.,0.));
#700=DIRECTION('ref_axis',(0.,0.,1.));
#701=DIRECTION('',(0.,0.,-1.));
#702=DIRECTION('',(1.,0.,0.));
#703=DIRECTION('center_axis',(1.,0.,0.));
#704=DIRECTION('ref_axis',(0.,-5.68434188608084E-15,-1.));
#705=DIRECTION('center_axis',(-1.,0.,0.));
#706=DIRECTION('ref_axis',(0.,-5.68434188608084E-15,-1.));
#707=DIRECTION('center_axis',(0.,0.,-1.));
#708=DIRECTION('ref_axis',(-0.707106781186547,0.707106781186547,0.));
#709=DIRECTION('',(0.,0.,1.));
#710=DIRECTION('center_axis',(0.,0.,-1.));
#711=DIRECTION('ref_axis',(-1.,0.,0.));
#712=DIRECTION('center_axis',(-1.,0.,0.));
#713=DIRECTION('ref_axis',(0.,0.525487501160679,0.850801320005972));
#714=DIRECTION('center_axis',(0.,-1.,0.));
#715=DIRECTION('ref_axis',(2.36144803713025E-16,0.,-1.));
#716=DIRECTION('center_axis',(1.,0.,-1.25753063058969E-17));
#717=DIRECTION('ref_axis',(0.,0.873352019852444,0.487089570222619));
#718=DIRECTION('center_axis',(-1.,0.,0.));
#719=DIRECTION('ref_axis',(0.,0.525487501160694,0.850801320005963));
#720=DIRECTION('',(-1.,0.,1.25753063058969E-17));
#721=DIRECTION('',(1.,0.,-1.25753063058969E-17));
#722=DIRECTION('center_axis',(0.,0.,1.));
#723=DIRECTION('ref_axis',(1.,0.,0.));
#724=DIRECTION('center_axis',(0.,0.943757435211633,0.330638629749702));
#725=DIRECTION('ref_axis',(0.,0.330638629749702,-0.943757435211633));
#726=DIRECTION('center_axis',(0.,-1.,0.));
#727=DIRECTION('ref_axis',(-2.36144803713025E-16,0.,-1.));
#728=DIRECTION('center_axis',(0.,0.,1.));
#729=DIRECTION('ref_axis',(0.707106781186547,0.707106781186547,0.));
#730=DIRECTION('',(0.,0.,-1.));
#731=DIRECTION('center_axis',(0.,-1.,0.));
#732=DIRECTION('ref_axis',(-1.,0.,0.));
#733=DIRECTION('',(0.,0.,1.));
#734=DIRECTION('',(0.,0.,1.));
#735=DIRECTION('center_axis',(0.,0.850801320005965,-0.525487501160691));
#736=DIRECTION('ref_axis',(-0.707106781186549,-0.371575775499494,-0.601607382818684));
#737=DIRECTION('',(0.,-0.850801320005965,0.525487501160691));
#738=DIRECTION('center_axis',(-1.06990872045364E-17,-0.525487501160691,
-0.850801320005965));
#739=DIRECTION('ref_axis',(-2.48961896994371E-17,-0.850801320005965,0.525487501160691));
#740=DIRECTION('center_axis',(0.,0.,1.));
#741=DIRECTION('ref_axis',(0.707106781186547,-0.707106781186547,0.));
#742=DIRECTION('',(0.,0.,-1.));
#743=DIRECTION('center_axis',(1.,0.,0.));
#744=DIRECTION('ref_axis',(0.,-1.,0.));
#745=DIRECTION('center_axis',(0.,0.,-1.));
#746=DIRECTION('ref_axis',(-0.707106781186547,-0.707106781186547,0.));
#747=DIRECTION('',(0.,0.,-1.));
#748=DIRECTION('center_axis',(1.,0.,0.));
#749=DIRECTION('ref_axis',(0.,-1.,0.));
#750=CARTESIAN_POINT('',(0.,0.,0.));
#751=CARTESIAN_POINT('Origin',(-99.9999999999997,-2538.69496628019,952.374489292678));
#752=CARTESIAN_POINT('',(-1196.,-2538.69496628019,898.303768266418));
#753=CARTESIAN_POINT('',(-100.,-2538.69496628019,898.303768266418));
#754=CARTESIAN_POINT('',(-1454.5,-2538.69496628019,898.303768266418));
#755=CARTESIAN_POINT('',(-1216.,-2538.69496628019,875.567328024111));
#756=CARTESIAN_POINT('Origin',(-1196.,-2538.69496628019,875.567328024111));
#757=CARTESIAN_POINT('',(-1216.,-2538.69496628019,582.820975670732));
#758=CARTESIAN_POINT('',(-1216.,-2538.69496628019,838.377502416811));
#759=CARTESIAN_POINT('',(-1236.,-2538.69496628019,559.313724882899));
#760=CARTESIAN_POINT('Origin',(-1236.,-2538.69496628019,582.820975670732));
#761=CARTESIAN_POINT('',(-1673.,-2538.69496628019,559.313724882899));
#762=CARTESIAN_POINT('',(-852.25,-2538.69496628019,559.313724882899));
#763=CARTESIAN_POINT('',(-1693.,-2538.69496628019,582.820975670732));
#764=CARTESIAN_POINT('Origin',(-1673.,-2538.69496628019,582.820975670732));
#765=CARTESIAN_POINT('',(-1693.,-2538.69496628019,875.567328024111));
#766=CARTESIAN_POINT('',(-1693.,-2538.69496628019,838.377502416811));
#767=CARTESIAN_POINT('',(-1713.,-2538.69496628019,898.303768266418));
#768=CARTESIAN_POINT('Origin',(-1713.,-2538.69496628019,875.567328024111));
#769=CARTESIAN_POINT('',(-2809.,-2538.69496628019,898.303768266418));
#770=CARTESIAN_POINT('',(-1454.5,-2538.69496628019,898.303768266418));
#771=CARTESIAN_POINT('',(-2809.,-2538.69496628019,-789.999999999997));
#772=CARTESIAN_POINT('',(-2809.,-2538.69496628019,628.687244646339));
#773=CARTESIAN_POINT('',(-99.9999999999997,-2538.69496628019,-789.999999999997));
#774=CARTESIAN_POINT('',(-1454.5,-2538.69496628019,-790.));
#775=CARTESIAN_POINT('',(-100.,-2538.69496628019,628.687244646339));
#776=CARTESIAN_POINT('Origin',(-100.,-2935.84499999244,305.));
#777=CARTESIAN_POINT('',(-100.,-2124.68999998487,-790.));
#778=CARTESIAN_POINT('',(-100.,-3541.42249999622,-790.));
#779=CARTESIAN_POINT('',(-100.,-1824.68999998487,-490.000000000003));
#780=CARTESIAN_POINT('Origin',(-100.,-2124.68999998487,-490.000000000003));
#781=CARTESIAN_POINT('',(-100.,-1824.68999998487,354.194184733924));
#782=CARTESIAN_POINT('',(-100.,-1824.68999998487,-92.5000000000003));
#783=CARTESIAN_POINT('',(-100.,-2315.76555897681,777.764230357911));
#784=CARTESIAN_POINT('',(-100.,-2113.7528793361,603.521146243347));
#785=CARTESIAN_POINT('',(-100.,-2456.76775801158,854.005136038893));
#786=CARTESIAN_POINT('Origin',(-2809.,-3988.12211598223,-790.));
#787=CARTESIAN_POINT('',(-2809.,-2124.68999998487,-790.));
#788=CARTESIAN_POINT('',(-2809.,-3541.42249999622,-790.));
#789=CARTESIAN_POINT('',(-2393.,-2124.68999998487,-790.));
#790=CARTESIAN_POINT('',(-2809.,-2124.68999998487,-790.));
#791=CARTESIAN_POINT('',(-2393.,-2256.68999998487,-790.));
#792=CARTESIAN_POINT('',(-2393.,-2856.40605798355,-790.));
#793=CARTESIAN_POINT('',(-2293.,-2356.68999998487,-790.));
#794=CARTESIAN_POINT('Origin',(-2293.,-2256.68999998487,-790.));
#795=CARTESIAN_POINT('',(-616.,-2356.68999998487,-790.));
#796=CARTESIAN_POINT('',(-1712.5,-2356.68999998487,-790.));
#797=CARTESIAN_POINT('',(-516.,-2256.68999998487,-790.));
#798=CARTESIAN_POINT('Origin',(-616.,-2256.68999998487,-790.));
#799=CARTESIAN_POINT('',(-516.,-2124.68999998487,-790.));
#800=CARTESIAN_POINT('',(-516.,-2856.40605798355,-790.));
#801=CARTESIAN_POINT('',(-2809.,-2124.68999998487,-790.));
#802=CARTESIAN_POINT('Origin',(-2809.,-2935.84499999244,305.));
#803=CARTESIAN_POINT('',(-2809.,-2315.76555897681,777.764230357911));
#804=CARTESIAN_POINT('',(-2809.,-2456.76775801158,854.005136038893));
#805=CARTESIAN_POINT('',(-2809.,-1824.68999998487,354.194184733924));
#806=CARTESIAN_POINT('',(-2809.,-2113.7528793361,603.521146243347));
#807=CARTESIAN_POINT('',(-2809.,-1824.68999998487,-490.000000000003));
#808=CARTESIAN_POINT('',(-2809.,-1824.68999998487,-92.5000000000003));
#809=CARTESIAN_POINT('Origin',(-2809.,-2124.68999998487,-490.000000000003));
#810=CARTESIAN_POINT('Origin',(-2809.,-2315.76555897681,777.764230357911));
#811=CARTESIAN_POINT('',(-1713.,-2356.68999998487,799.892370686936));
#812=CARTESIAN_POINT('',(-1713.,-2429.13085763323,839.061664735008));
#813=CARTESIAN_POINT('',(-2293.,-2356.68999998487,799.892370686936));
#814=CARTESIAN_POINT('',(-1712.5,-2356.68999998487,799.892370686936));
#815=CARTESIAN_POINT('',(-2373.6850564218,-2315.76555897681,777.764230357911));
#816=CARTESIAN_POINT('Origin',(-2293.,-2256.68999998487,745.821649660675));
#817=CARTESIAN_POINT('',(-2809.,-2315.76555897681,777.764230357911));
#818=CARTESIAN_POINT('Origin',(-1713.,-2438.64346742614,821.468761196146));
#819=CARTESIAN_POINT('',(-1693.,-2376.68999998487,787.970074649881));
#820=CARTESIAN_POINT('',(-1693.,-2438.64346742614,821.468761196146));
#821=CARTESIAN_POINT('Origin',(-1713.,-2376.68999998487,787.970074649881));
#822=CARTESIAN_POINT('Origin',(-1693.,-2637.64904527837,724.380515540945));
#823=CARTESIAN_POINT('',(-1693.,-2376.68999998487,482.760499843598));
#824=CARTESIAN_POINT('',(-1693.,-2509.89680670384,565.034128661962));
#825=CARTESIAN_POINT('',(-1693.,-2376.68999998487,648.144736758192));
#826=CARTESIAN_POINT('Origin',(-1236.,-2509.89680670384,565.034128661962));
#827=CARTESIAN_POINT('',(-1216.,-2376.68999998487,482.760499843598));
#828=CARTESIAN_POINT('',(-1216.,-2509.89680670384,565.034128661962));
#829=CARTESIAN_POINT('',(-1236.,-2366.18024996166,452.762024668051));
#830=CARTESIAN_POINT('Origin',(-1236.,-2376.68999998487,482.760499843598));
#831=CARTESIAN_POINT('',(-1236.,-2520.40655672705,548.018102261842));
#832=CARTESIAN_POINT('Origin',(-1216.,-2637.64904527837,724.380515540945));
#833=CARTESIAN_POINT('',(-1216.,-2376.68999998487,787.970074649881));
#834=CARTESIAN_POINT('',(-1216.,-2438.64346742614,821.468761196146));
#835=CARTESIAN_POINT('',(-1216.,-2376.68999998487,648.144736758192));
#836=CARTESIAN_POINT('Origin',(-1196.,-2438.64346742614,821.468761196146));
#837=CARTESIAN_POINT('',(-1196.,-2356.68999998487,799.892370686936));
#838=CARTESIAN_POINT('',(-1196.,-2429.13085763323,839.061664735008));
#839=CARTESIAN_POINT('Origin',(-1196.,-2376.68999998487,787.970074649881));
#840=CARTESIAN_POINT('Origin',(-2809.,-2315.76555897681,777.764230357911));
#841=CARTESIAN_POINT('',(-535.314943578196,-2315.76555897681,777.764230357911));
#842=CARTESIAN_POINT('',(-2809.,-2315.76555897681,777.764230357911));
#843=CARTESIAN_POINT('',(-616.,-2356.68999998487,799.892370686936));
#844=CARTESIAN_POINT('Origin',(-616.,-2256.68999998487,745.821649660675));
#845=CARTESIAN_POINT('',(-1712.5,-2356.68999998487,799.892370686936));
#846=CARTESIAN_POINT('Origin',(-2809.,-2124.68999998487,-490.000000000003));
#847=CARTESIAN_POINT('',(-516.,-1824.68999998487,-490.000000000003));
#848=CARTESIAN_POINT('Origin',(-516.,-2124.68999998487,-490.000000000003));
#849=CARTESIAN_POINT('',(-2809.,-1824.68999998487,-490.000000000003));
#850=CARTESIAN_POINT('Origin',(-2809.,-1824.68999998487,-490.000000000003));
#851=CARTESIAN_POINT('',(-516.,-1824.68999998487,354.194184733924));
#852=CARTESIAN_POINT('',(-516.,-1824.68999998487,40.9544789877185));
#853=CARTESIAN_POINT('',(-2809.,-1824.68999998487,354.194184733924));
#854=CARTESIAN_POINT('Origin',(-2809.,-1824.68999998487,354.194184733924));
#855=CARTESIAN_POINT('',(-516.,-2256.68999998487,726.809470424747));
#856=CARTESIAN_POINT('',(-516.,-1849.85867604085,375.90305838915));
#857=CARTESIAN_POINT('Origin',(-616.,-2256.68999998487,726.809470424747));
#858=CARTESIAN_POINT('Origin',(-2809.,-1824.68999998487,354.194184733924));
#859=CARTESIAN_POINT('',(-2393.,-2256.68999998487,726.809470424747));
#860=CARTESIAN_POINT('Origin',(-2293.,-2256.68999998487,726.809470424747));
#861=CARTESIAN_POINT('',(-2393.,-1824.68999998487,354.194184733924));
#862=CARTESIAN_POINT('',(-2393.,-1849.85867604085,375.90305838915));
#863=CARTESIAN_POINT('',(-2809.,-1824.68999998487,354.194184733924));
#864=CARTESIAN_POINT('Origin',(-2809.,-1824.68999998487,-490.000000000003));
#865=CARTESIAN_POINT('',(-2393.,-1824.68999998487,-490.000000000003));
#866=CARTESIAN_POINT('',(-2393.,-1824.68999998487,40.9544789877185));
#867=CARTESIAN_POINT('',(-2809.,-1824.68999998487,-490.000000000003));
#868=CARTESIAN_POINT('Origin',(-2809.,-2124.68999998487,-490.000000000003));
#869=CARTESIAN_POINT('Origin',(-2393.,-2124.68999998487,-490.000000000003));
#870=CARTESIAN_POINT('Origin',(-1196.,-2376.68999998487,648.144736758192));
#871=CARTESIAN_POINT('',(-1196.,-2356.68999998487,482.760499843598));
#872=CARTESIAN_POINT('',(-1196.,-2356.68999998487,648.144736758192));
#873=CARTESIAN_POINT('Origin',(-1196.,-2376.68999998487,482.760499843598));
#874=CARTESIAN_POINT('Ctrl Pts',(-1236.,-2366.18024996166,452.762024668051));
#875=CARTESIAN_POINT('Ctrl Pts',(-1234.50400349829,-2366.18024996166,452.762024668051));
#876=CARTESIAN_POINT('Ctrl Pts',(-1230.01524529587,-2366.44360034037,453.513718074714));
#877=CARTESIAN_POINT('Ctrl Pts',(-1223.10440328557,-2368.19162553406,458.503188829351));
#878=CARTESIAN_POINT('Ctrl Pts',(-1217.36666030949,-2371.97442599977,469.300614611504));
#879=CARTESIAN_POINT('Ctrl Pts',(-1216.,-2375.11774505802,478.272738451674));
#880=CARTESIAN_POINT('Ctrl Pts',(-1216.,-2376.68999998487,482.760499843598));
#881=CARTESIAN_POINT('Ctrl Pts',(-1236.,-2364.53130248445,451.743571512223));
#882=CARTESIAN_POINT('Ctrl Pts',(-1234.41450297711,-2364.53130248445,451.743571512223));
#883=CARTESIAN_POINT('Ctrl Pts',(-1229.65639531289,-2364.75389573047,452.540089443798));
#884=CARTESIAN_POINT('Ctrl Pts',(-1222.41170089289,-2366.23294321765,457.824398494161));
#885=CARTESIAN_POINT('Ctrl Pts',(-1216.74140273532,-2369.48918856244,469.115944757443));
#886=CARTESIAN_POINT('Ctrl Pts',(-1215.76426039381,-2372.27510708862,478.273095281174));
#887=CARTESIAN_POINT('Ctrl Pts',(-1216.,-2373.69800698145,482.760499843598));
#888=CARTESIAN_POINT('Ctrl Pts',(-1236.,-2361.53193502728,449.22384088103));
#889=CARTESIAN_POINT('Ctrl Pts',(-1234.19295307997,-2361.53193502728,449.22384088103));
#890=CARTESIAN_POINT('Ctrl Pts',(-1228.77011622872,-2361.67490136368,450.107571941475));
#891=CARTESIAN_POINT('Ctrl Pts',(-1220.6023370433,-2362.62483120885,455.968152104099));
#892=CARTESIAN_POINT('Ctrl Pts',(-1214.60969266039,-2364.77415699751,468.33575982159));
#893=CARTESIAN_POINT('Ctrl Pts',(-1214.06670828353,-2366.7002073121,478.098957499013));
#894=CARTESIAN_POINT('Ctrl Pts',(-1214.63327692249,-2367.7162830112,482.760499843598));
#895=CARTESIAN_POINT('Ctrl Pts',(-1236.,-2358.3042228095,444.313513226427));
#896=CARTESIAN_POINT('Ctrl Pts',(-1233.76125124149,-2358.3042228095,444.313513226427));
#897=CARTESIAN_POINT('Ctrl Pts',(-1227.04329745467,-2358.3531864401,445.319592432508));
#898=CARTESIAN_POINT('Ctrl Pts',(-1216.87794768103,-2358.67979767427,451.992406202301));
#899=CARTESIAN_POINT('Ctrl Pts',(-1209.22434768099,-2359.4355981521,466.13036823373));
#900=CARTESIAN_POINT('Ctrl Pts',(-1208.3071841398,-2360.13760225201,477.368621771219));
#901=CARTESIAN_POINT('Ctrl Pts',(-1208.89555974044,-2360.51763211102,482.760499843598));
#902=CARTESIAN_POINT('Ctrl Pts',(-1236.,-2356.90090500221,439.622289262539));
#903=CARTESIAN_POINT('Ctrl Pts',(-1233.34880118497,-2356.90090500221,439.622289262539));
#904=CARTESIAN_POINT('Ctrl Pts',(-1225.39363303955,-2356.90747714233,440.724626210946));
#905=CARTESIAN_POINT('Ctrl Pts',(-1213.23483393644,-2356.95039711033,448.038992250747));
#906=CARTESIAN_POINT('Ctrl Pts',(-1203.53560937548,-2357.04936524953,463.717218801419));
#907=CARTESIAN_POINT('Ctrl Pts',(-1201.68498377937,-2357.14148154402,476.488912506607));
#908=CARTESIAN_POINT('Ctrl Pts',(-1201.98473062788,-2357.1911500078,482.760499843598));
#909=CARTESIAN_POINT('Ctrl Pts',(-1236.,-2356.68999998487,436.715053814998));
#910=CARTESIAN_POINT('Ctrl Pts',(-1233.09320173616,-2356.68999998487,436.715053814998));
#911=CARTESIAN_POINT('Ctrl Pts',(-1224.371310116,-2356.68974827688,437.874189092286));
#912=CARTESIAN_POINT('Ctrl Pts',(-1210.96539026849,-2356.68948225105,445.567495733957));
#913=CARTESIAN_POINT('Ctrl Pts',(-1199.93392522923,-2356.68957250178,462.178556875456));
#914=CARTESIAN_POINT('Ctrl Pts',(-1197.42119487496,-2356.68959806419,475.917527770242));
#915=CARTESIAN_POINT('Ctrl Pts',(-1197.49599650171,-2356.68999998487,482.760499843598));
#916=CARTESIAN_POINT('Ctrl Pts',(-1236.,-2356.68999998487,435.745998267931));
#917=CARTESIAN_POINT('Ctrl Pts',(-1233.00800699658,-2356.68999998487,435.745998267931));
#918=CARTESIAN_POINT('Ctrl Pts',(-1224.03049059175,-2356.68999998487,436.924074508312));
#919=CARTESIAN_POINT('Ctrl Pts',(-1210.20880657115,-2356.68999998487,444.743721316456));
#920=CARTESIAN_POINT('Ctrl Pts',(-1198.73332061899,-2356.68999998487,461.66576780307));
#921=CARTESIAN_POINT('Ctrl Pts',(-1196.,-2356.68999998487,475.727146854917));
#922=CARTESIAN_POINT('Ctrl Pts',(-1196.,-2356.68999998487,482.760499843598));
#923=CARTESIAN_POINT('',(-1236.,-2356.68999998487,435.745998267931));
#924=CARTESIAN_POINT('Origin',(-1236.,-2376.68999998487,435.745998267931));
#925=CARTESIAN_POINT('Origin',(-1236.,-2356.68999998487,482.760499843598));
#926=CARTESIAN_POINT('Origin',(-1110.25,-2376.68999998487,435.745998267931));
#927=CARTESIAN_POINT('',(-1673.,-2366.18024996166,452.762024668051));
#928=CARTESIAN_POINT('',(-1673.,-2356.68999998487,435.745998267931));
#929=CARTESIAN_POINT('Origin',(-1673.,-2376.68999998487,435.745998267931));
#930=CARTESIAN_POINT('',(-1110.25,-2366.18024996166,452.762024668051));
#931=CARTESIAN_POINT('',(-1110.25,-2356.68999998487,435.745998267931));
#932=CARTESIAN_POINT('Ctrl Pts',(-1693.,-2376.68999998487,482.760499843598));
#933=CARTESIAN_POINT('Ctrl Pts',(-1693.,-2375.11774505802,478.272738451674));
#934=CARTESIAN_POINT('Ctrl Pts',(-1691.97077744935,-2372.76247362816,471.549976124863));
#935=CARTESIAN_POINT('Ctrl Pts',(-1687.96720204605,-2369.41186136563,461.986165514861));
#936=CARTESIAN_POINT('Ctrl Pts',(-1681.9748873395,-2366.89835424235,454.811743585254));
#937=CARTESIAN_POINT('Ctrl Pts',(-1675.99199300342,-2366.18024996166,452.762024668051));
#938=CARTESIAN_POINT('Ctrl Pts',(-1673.,-2366.18024996166,452.762024668051));
#939=CARTESIAN_POINT('Ctrl Pts',(-1693.,-2373.69800698145,482.760499843598));
#940=CARTESIAN_POINT('Ctrl Pts',(-1693.23573960619,-2372.27510708862,478.273095281174));
#941=CARTESIAN_POINT('Ctrl Pts',(-1692.49651773034,-2370.1874991879,471.412441584919));
#942=CARTESIAN_POINT('Ctrl Pts',(-1688.66165102853,-2367.27824488291,461.480558497468));
#943=CARTESIAN_POINT('Ctrl Pts',(-1682.51225589546,-2365.13593545849,453.92151766169));
#944=CARTESIAN_POINT('Ctrl Pts',(-1676.17099404579,-2364.53130248445,451.743571512223));
#945=CARTESIAN_POINT('Ctrl Pts',(-1673.,-2364.53130248445,451.743571512223));
#946=CARTESIAN_POINT('Ctrl Pts',(-1694.36672590241,-2367.71628282676,482.760499843598));
#947=CARTESIAN_POINT('Ctrl Pts',(-1694.93329454136,-2366.70020712766,478.098957499013));
#948=CARTESIAN_POINT('Ctrl Pts',(-1694.51730120445,-2365.25660298992,470.785481239187));
#949=CARTESIAN_POINT('Ctrl Pts',(-1690.62211638862,-2363.30950719162,459.988578592697));
#950=CARTESIAN_POINT('Ctrl Pts',(-1683.8405954902,-2361.91757526984,451.64647935607));
#951=CARTESIAN_POINT('Ctrl Pts',(-1676.61409384005,-2361.53193525604,449.223840465298));
#952=CARTESIAN_POINT('Ctrl Pts',(-1673.,-2361.53193525604,449.223840465298));
#953=CARTESIAN_POINT('Ctrl Pts',(-1700.10444194231,-2360.51763187623,482.760499843598));
#954=CARTESIAN_POINT('Ctrl Pts',(-1700.69281754294,-2360.13760201722,477.368621771219));
#955=CARTESIAN_POINT('Ctrl Pts',(-1699.9952988803,-2359.61143132242,468.950096614488));
#956=CARTESIAN_POINT('Ctrl Pts',(-1694.94715848646,-2358.91896735723,456.583344279894));
#957=CARTESIAN_POINT('Ctrl Pts',(-1686.43055671573,-2358.43578538321,447.068921478171));
#958=CARTESIAN_POINT('Ctrl Pts',(-1677.47749751702,-2358.30422292743,444.313512977473));
#959=CARTESIAN_POINT('Ctrl Pts',(-1673.,-2358.30422292743,444.313512977473));
#960=CARTESIAN_POINT('Ctrl Pts',(-1707.01527046752,-2357.19114981073,482.760499843598));
#961=CARTESIAN_POINT('Ctrl Pts',(-1707.31501731602,-2357.14148134695,476.488912506607));
#962=CARTESIAN_POINT('Ctrl Pts',(-1705.91795004802,-2357.07236866751,466.920312731208));
#963=CARTESIAN_POINT('Ctrl Pts',(-1699.29831279016,-2356.98178537087,453.111611552416));
#964=CARTESIAN_POINT('Ctrl Pts',(-1688.90504145908,-2356.91840400144,442.634083974842));
#965=CARTESIAN_POINT('Ctrl Pts',(-1678.30239763006,-2356.90090507496,439.622289098433));
#966=CARTESIAN_POINT('Ctrl Pts',(-1673.,-2356.90090507496,439.622289098433));
#967=CARTESIAN_POINT('Ctrl Pts',(-1711.50400349829,-2356.68999998487,482.760499843598));
#968=CARTESIAN_POINT('Ctrl Pts',(-1711.57880512504,-2356.68959806419,475.917527770242));
#969=CARTESIAN_POINT('Ctrl Pts',(-1709.68566071797,-2356.68968428674,465.623284796138));
#970=CARTESIAN_POINT('Ctrl Pts',(-1702.02529334015,-2356.68938839537,450.92960534872));
#971=CARTESIAN_POINT('Ctrl Pts',(-1690.43852558074,-2356.68956182989,439.877275546247));
#972=CARTESIAN_POINT('Ctrl Pts',(-1678.81359652768,-2356.68999998487,436.715053814998));
#973=CARTESIAN_POINT('Ctrl Pts',(-1673.,-2356.68999998487,436.715053814998));
#974=CARTESIAN_POINT('Ctrl Pts',(-1713.,-2356.68999998487,482.760499843598));
#975=CARTESIAN_POINT('Ctrl Pts',(-1713.,-2356.68999998487,475.727146854917));
#976=CARTESIAN_POINT('Ctrl Pts',(-1710.94155489869,-2356.68999998487,465.191033997276));
#977=CARTESIAN_POINT('Ctrl Pts',(-1702.93440409211,-2356.68999998487,450.202345860226));
#978=CARTESIAN_POINT('Ctrl Pts',(-1690.949774679,-2356.68999998487,438.958378653888));
#979=CARTESIAN_POINT('Ctrl Pts',(-1678.98398600684,-2356.68999998487,435.745998267931));
#980=CARTESIAN_POINT('Ctrl Pts',(-1673.,-2356.68999998487,435.745998267931));
#981=CARTESIAN_POINT('',(-1713.,-2356.68999998487,482.760499843598));
#982=CARTESIAN_POINT('Origin',(-1713.,-2376.68999998487,482.760499843598));
#983=CARTESIAN_POINT('Origin',(-1673.,-2376.68999998487,482.760499843598));
#984=CARTESIAN_POINT('Origin',(-1673.,-2356.68999998487,482.760499843598));
#985=CARTESIAN_POINT('Origin',(-1713.,-2376.68999998487,648.144736758192));
#986=CARTESIAN_POINT('',(-1713.,-2356.68999998487,648.144736758192));
#987=CARTESIAN_POINT('Origin',(-616.,-2356.68999998487,571.90895797544));
#988=CARTESIAN_POINT('',(-616.,-2356.68999998487,571.90895797544));
#989=CARTESIAN_POINT('',(-2293.,-2356.68999998487,571.90895797544));
#990=CARTESIAN_POINT('Origin',(-1673.,-2509.89680670384,565.034128661962));
#991=CARTESIAN_POINT('',(-1673.,-2520.40655672705,548.018102261842));
#992=CARTESIAN_POINT('Origin',(-1604.5,-2356.68999998487,446.900482580108));
#993=CARTESIAN_POINT('Origin',(-616.,-2256.68999998487,571.90895797544));
#994=CARTESIAN_POINT('',(-516.,-2256.68999998487,571.90895797544));
#995=CARTESIAN_POINT('Origin',(-516.,-1724.68999998487,571.90895797544));
#996=CARTESIAN_POINT('Origin',(-2293.,-2256.68999998487,571.90895797544));
#997=CARTESIAN_POINT('',(-2393.,-2256.68999998487,571.90895797544));
#998=CARTESIAN_POINT('Origin',(-2393.,-1724.68999998487,571.90895797544));
#999=UNCERTAINTY_MEASURE_WITH_UNIT(LENGTH_MEASURE(0.01),#1003,
'DISTANCE_ACCURACY_VALUE',
'Maximum model space distance between geometric entities at asserted c
onnectivities');
#1000=UNCERTAINTY_MEASURE_WITH_UNIT(LENGTH_MEASURE(0.01),#1003,
'DISTANCE_ACCURACY_VALUE',
'Maximum model space distance between geometric entities at asserted c
onnectivities');
#1001=(
GEOMETRIC_REPRESENTATION_CONTEXT(3)
GLOBAL_UNCERTAINTY_ASSIGNED_CONTEXT((#999))
GLOBAL_UNIT_ASSIGNED_CONTEXT((#1003,#1005,#1006))
REPRESENTATION_CONTEXT('','3D')
);
#1002=(
GEOMETRIC_REPRESENTATION_CONTEXT(3)
GLOBAL_UNCERTAINTY_ASSIGNED_CONTEXT((#1000))
GLOBAL_UNIT_ASSIGNED_CONTEXT((#1003,#1005,#1006))
REPRESENTATION_CONTEXT('','3D')
);
#1003=(
LENGTH_UNIT()
NAMED_UNIT(*)
SI_UNIT(.MILLI.,.METRE.)
);
#1004=(
LENGTH_UNIT()
NAMED_UNIT(*)
SI_UNIT($,.METRE.)
);
#1005=(
NAMED_UNIT(*)
PLANE_ANGLE_UNIT()
SI_UNIT($,.RADIAN.)
);
#1006=(
NAMED_UNIT(*)
SI_UNIT($,.STERADIAN.)
SOLID_ANGLE_UNIT()
);
#1007=SHAPE_DEFINITION_REPRESENTATION(#1008,#1009);
#1008=PRODUCT_DEFINITION_SHAPE('',$,#1011);
#1009=SHAPE_REPRESENTATION('',(#543),#1001);
#1010=PRODUCT_DEFINITION_CONTEXT('part definition',#1015,'design');
#1011=PRODUCT_DEFINITION('OneQuarterLoad','OneQuarterLoad',#1012,#1010);
#1012=PRODUCT_DEFINITION_FORMATION('',$,#1017);
#1013=PRODUCT_RELATED_PRODUCT_CATEGORY('OneQuarterLoad',
'OneQuarterLoad',(#1017));
#1014=APPLICATION_PROTOCOL_DEFINITION('international standard',
'automotive_design',2009,#1015);
#1015=APPLICATION_CONTEXT(
'Core Data for Automotive Mechanical Design Process');
#1016=PRODUCT_CONTEXT('part definition',#1015,'mechanical');
#1017=PRODUCT('OneQuarterLoad','OneQuarterLoad',$,(#1016));
#1018=PRESENTATION_STYLE_ASSIGNMENT((#1019));
#1019=SURFACE_STYLE_USAGE(.BOTH.,#1020);
#1020=SURFACE_SIDE_STYLE('',(#1021));
#1021=SURFACE_STYLE_FILL_AREA(#1022);
#1022=FILL_AREA_STYLE('Steel - Satin',(#1023));
#1023=FILL_AREA_STYLE_COLOUR('Steel - Satin',#1024);
#1024=COLOUR_RGB('Steel - Satin',0.627450980392157,0.627450980392157,0.627450980392157);
ENDSEC;
END-ISO-10303-21;
