ISO-10303-21;
HEADER;
/* Generated by software containing ST-Developer
 * from STEP Tools, Inc. (www.steptools.com) 
 */

FILE_DESCRIPTION(
/* description */ (''),
/* implementation_level */ '2;1');

FILE_NAME(
/* name */ 'SteerCylinder.step',
/* time_stamp */ '2026-03-29T20:36:13-04:00',
/* author */ (''),
/* organization */ (''),
/* preprocessor_version */ 'ST-DEVELOPER v20.1',
/* originating_system */ 'Autodesk Translation Framework v14.24.0.0',
/* authorisation */ '');

FILE_SCHEMA (('AUTOMOTIVE_DESIGN { 1 0 10303 214 3 1 1 }'));
ENDSEC;

DATA;
#10=MECHANICAL_DESIGN_GEOMETRIC_PRESENTATION_REPRESENTATION('',(#13),#354);
#11=SHAPE_REPRESENTATION_RELATIONSHIP('SRR','None',#361,#12);
#12=ADVANCED_BREP_SHAPE_REPRESENTATION('',(#14),#353);
#13=STYLED_ITEM('',(#370),#14);
#14=MANIFOLD_SOLID_BREP('Body1',#200);
#15=LINE('',#305,#30);
#16=LINE('',#311,#31);
#17=LINE('',#313,#32);
#18=LINE('',#315,#33);
#19=LINE('',#320,#34);
#20=LINE('',#325,#35);
#21=LINE('',#326,#36);
#22=LINE('',#327,#37);
#23=LINE('',#330,#38);
#24=LINE('',#332,#39);
#25=LINE('',#333,#40);
#26=LINE('',#336,#41);
#27=LINE('',#342,#42);
#28=LINE('',#347,#43);
#29=LINE('',#349,#44);
#30=VECTOR('',#246,30.);
#31=VECTOR('',#253,10.);
#32=VECTOR('',#254,10.);
#33=VECTOR('',#255,10.);
#34=VECTOR('',#262,50.);
#35=VECTOR('',#267,10.);
#36=VECTOR('',#268,10.);
#37=VECTOR('',#269,10.);
#38=VECTOR('',#272,10.);
#39=VECTOR('',#273,10.);
#40=VECTOR('',#274,10.);
#41=VECTOR('',#277,10.);
#42=VECTOR('',#284,50.);
#43=VECTOR('',#291,10.);
#44=VECTOR('',#294,10.);
#45=CYLINDRICAL_SURFACE('',#217,30.);
#46=CYLINDRICAL_SURFACE('',#223,50.);
#47=CYLINDRICAL_SURFACE('',#230,50.);
#48=CYLINDRICAL_SURFACE('',#232,100.);
#49=FACE_BOUND('',#65,.T.);
#50=FACE_BOUND('',#73,.T.);
#51=FACE_BOUND('',#78,.T.);
#52=FACE_OUTER_BOUND('',#64,.T.);
#53=FACE_OUTER_BOUND('',#66,.T.);
#54=FACE_OUTER_BOUND('',#67,.T.);
#55=FACE_OUTER_BOUND('',#68,.T.);
#56=FACE_OUTER_BOUND('',#69,.T.);
#57=FACE_OUTER_BOUND('',#70,.T.);
#58=FACE_OUTER_BOUND('',#71,.T.);
#59=FACE_OUTER_BOUND('',#72,.T.);
#60=FACE_OUTER_BOUND('',#74,.T.);
#61=FACE_OUTER_BOUND('',#75,.T.);
#62=FACE_OUTER_BOUND('',#76,.T.);
#63=FACE_OUTER_BOUND('',#77,.T.);
#64=EDGE_LOOP('',(#130));
#65=EDGE_LOOP('',(#131));
#66=EDGE_LOOP('',(#132,#133,#134,#135));
#67=EDGE_LOOP('',(#136));
#68=EDGE_LOOP('',(#137,#138,#139,#140,#141));
#69=EDGE_LOOP('',(#142,#143,#144,#145,#146,#147));
#70=EDGE_LOOP('',(#148,#149,#150,#151));
#71=EDGE_LOOP('',(#152,#153,#154,#155));
#72=EDGE_LOOP('',(#156,#157,#158,#159,#160));
#73=EDGE_LOOP('',(#161));
#74=EDGE_LOOP('',(#162,#163,#164,#165));
#75=EDGE_LOOP('',(#166,#167,#168,#169));
#76=EDGE_LOOP('',(#170,#171,#172,#173));
#77=EDGE_LOOP('',(#174,#175,#176,#177,#178));
#78=EDGE_LOOP('',(#179));
#79=CIRCLE('',#215,50.);
#80=CIRCLE('',#216,30.);
#81=CIRCLE('',#218,30.);
#82=CIRCLE('',#221,50.);
#83=CIRCLE('',#222,50.);
#84=CIRCLE('',#224,50.);
#85=CIRCLE('',#228,100.);
#86=CIRCLE('',#229,50.);
#87=CIRCLE('',#231,50.);
#88=CIRCLE('',#233,100.);
#89=VERTEX_POINT('',#299);
#90=VERTEX_POINT('',#301);
#91=VERTEX_POINT('',#304);
#92=VERTEX_POINT('',#309);
#93=VERTEX_POINT('',#310);
#94=VERTEX_POINT('',#312);
#95=VERTEX_POINT('',#314);
#96=VERTEX_POINT('',#316);
#97=VERTEX_POINT('',#323);
#98=VERTEX_POINT('',#324);
#99=VERTEX_POINT('',#329);
#100=VERTEX_POINT('',#331);
#101=VERTEX_POINT('',#335);
#102=VERTEX_POINT('',#338);
#103=VERTEX_POINT('',#341);
#104=VERTEX_POINT('',#345);
#105=EDGE_CURVE('',#89,#89,#79,.T.);
#106=EDGE_CURVE('',#90,#90,#80,.T.);
#107=EDGE_CURVE('',#90,#91,#15,.T.);
#108=EDGE_CURVE('',#91,#91,#81,.T.);
#109=EDGE_CURVE('',#92,#93,#16,.T.);
#110=EDGE_CURVE('',#94,#92,#17,.T.);
#111=EDGE_CURVE('',#95,#94,#18,.T.);
#112=EDGE_CURVE('',#96,#95,#82,.T.);
#113=EDGE_CURVE('',#93,#96,#83,.T.);
#114=EDGE_CURVE('',#89,#96,#19,.T.);
#115=EDGE_CURVE('',#95,#93,#84,.T.);
#116=EDGE_CURVE('',#97,#98,#20,.T.);
#117=EDGE_CURVE('',#93,#97,#21,.T.);
#118=EDGE_CURVE('',#98,#95,#22,.T.);
#119=EDGE_CURVE('',#99,#98,#23,.T.);
#120=EDGE_CURVE('',#100,#99,#24,.T.);
#121=EDGE_CURVE('',#100,#97,#25,.T.);
#122=EDGE_CURVE('',#94,#101,#26,.T.);
#123=EDGE_CURVE('',#101,#99,#85,.T.);
#124=EDGE_CURVE('',#102,#102,#86,.T.);
#125=EDGE_CURVE('',#102,#103,#27,.T.);
#126=EDGE_CURVE('',#103,#103,#87,.T.);
#127=EDGE_CURVE('',#104,#100,#88,.T.);
#128=EDGE_CURVE('',#104,#101,#28,.T.);
#129=EDGE_CURVE('',#92,#104,#29,.T.);
#130=ORIENTED_EDGE('',*,*,#105,.F.);
#131=ORIENTED_EDGE('',*,*,#106,.F.);
#132=ORIENTED_EDGE('',*,*,#106,.T.);
#133=ORIENTED_EDGE('',*,*,#107,.T.);
#134=ORIENTED_EDGE('',*,*,#108,.T.);
#135=ORIENTED_EDGE('',*,*,#107,.F.);
#136=ORIENTED_EDGE('',*,*,#108,.F.);
#137=ORIENTED_EDGE('',*,*,#109,.F.);
#138=ORIENTED_EDGE('',*,*,#110,.F.);
#139=ORIENTED_EDGE('',*,*,#111,.F.);
#140=ORIENTED_EDGE('',*,*,#112,.F.);
#141=ORIENTED_EDGE('',*,*,#113,.F.);
#142=ORIENTED_EDGE('',*,*,#105,.T.);
#143=ORIENTED_EDGE('',*,*,#114,.T.);
#144=ORIENTED_EDGE('',*,*,#112,.T.);
#145=ORIENTED_EDGE('',*,*,#115,.T.);
#146=ORIENTED_EDGE('',*,*,#113,.T.);
#147=ORIENTED_EDGE('',*,*,#114,.F.);
#148=ORIENTED_EDGE('',*,*,#116,.F.);
#149=ORIENTED_EDGE('',*,*,#117,.F.);
#150=ORIENTED_EDGE('',*,*,#115,.F.);
#151=ORIENTED_EDGE('',*,*,#118,.F.);
#152=ORIENTED_EDGE('',*,*,#116,.T.);
#153=ORIENTED_EDGE('',*,*,#119,.F.);
#154=ORIENTED_EDGE('',*,*,#120,.F.);
#155=ORIENTED_EDGE('',*,*,#121,.T.);
#156=ORIENTED_EDGE('',*,*,#118,.T.);
#157=ORIENTED_EDGE('',*,*,#111,.T.);
#158=ORIENTED_EDGE('',*,*,#122,.T.);
#159=ORIENTED_EDGE('',*,*,#123,.T.);
#160=ORIENTED_EDGE('',*,*,#119,.T.);
#161=ORIENTED_EDGE('',*,*,#124,.T.);
#162=ORIENTED_EDGE('',*,*,#124,.F.);
#163=ORIENTED_EDGE('',*,*,#125,.T.);
#164=ORIENTED_EDGE('',*,*,#126,.T.);
#165=ORIENTED_EDGE('',*,*,#125,.F.);
#166=ORIENTED_EDGE('',*,*,#127,.T.);
#167=ORIENTED_EDGE('',*,*,#120,.T.);
#168=ORIENTED_EDGE('',*,*,#123,.F.);
#169=ORIENTED_EDGE('',*,*,#128,.F.);
#170=ORIENTED_EDGE('',*,*,#110,.T.);
#171=ORIENTED_EDGE('',*,*,#129,.T.);
#172=ORIENTED_EDGE('',*,*,#128,.T.);
#173=ORIENTED_EDGE('',*,*,#122,.F.);
#174=ORIENTED_EDGE('',*,*,#117,.T.);
#175=ORIENTED_EDGE('',*,*,#121,.F.);
#176=ORIENTED_EDGE('',*,*,#127,.F.);
#177=ORIENTED_EDGE('',*,*,#129,.F.);
#178=ORIENTED_EDGE('',*,*,#109,.T.);
#179=ORIENTED_EDGE('',*,*,#126,.F.);
#180=PLANE('',#214);
#181=PLANE('',#219);
#182=PLANE('',#220);
#183=PLANE('',#225);
#184=PLANE('',#226);
#185=PLANE('',#227);
#186=PLANE('',#234);
#187=PLANE('',#235);
#188=ADVANCED_FACE('',(#52,#49),#180,.T.);
#189=ADVANCED_FACE('',(#53),#45,.F.);
#190=ADVANCED_FACE('',(#54),#181,.T.);
#191=ADVANCED_FACE('',(#55),#182,.T.);
#192=ADVANCED_FACE('',(#56),#46,.T.);
#193=ADVANCED_FACE('',(#57),#183,.T.);
#194=ADVANCED_FACE('',(#58),#184,.T.);
#195=ADVANCED_FACE('',(#59,#50),#185,.T.);
#196=ADVANCED_FACE('',(#60),#47,.F.);
#197=ADVANCED_FACE('',(#61),#48,.T.);
#198=ADVANCED_FACE('',(#62),#186,.T.);
#199=ADVANCED_FACE('',(#63,#51),#187,.F.);
#200=CLOSED_SHELL('',(#188,#189,#190,#191,#192,#193,#194,#195,#196,#197,
#198,#199));
#201=DERIVED_UNIT_ELEMENT(#203,1.);
#202=DERIVED_UNIT_ELEMENT(#356,-3.);
#203=(
MASS_UNIT()
NAMED_UNIT(*)
SI_UNIT(.KILO.,.GRAM.)
);
#204=DERIVED_UNIT((#201,#202));
#205=MEASURE_REPRESENTATION_ITEM('density measure',
POSITIVE_RATIO_MEASURE(7850.),#204);
#206=PROPERTY_DEFINITION_REPRESENTATION(#211,#208);
#207=PROPERTY_DEFINITION_REPRESENTATION(#212,#209);
#208=REPRESENTATION('material name',(#210),#353);
#209=REPRESENTATION('density',(#205),#353);
#210=DESCRIPTIVE_REPRESENTATION_ITEM('Steel','Steel');
#211=PROPERTY_DEFINITION('material property','material name',#363);
#212=PROPERTY_DEFINITION('material property','density of part',#363);
#213=AXIS2_PLACEMENT_3D('',#297,#236,#237);
#214=AXIS2_PLACEMENT_3D('',#298,#238,#239);
#215=AXIS2_PLACEMENT_3D('',#300,#240,#241);
#216=AXIS2_PLACEMENT_3D('',#302,#242,#243);
#217=AXIS2_PLACEMENT_3D('',#303,#244,#245);
#218=AXIS2_PLACEMENT_3D('',#306,#247,#248);
#219=AXIS2_PLACEMENT_3D('',#307,#249,#250);
#220=AXIS2_PLACEMENT_3D('',#308,#251,#252);
#221=AXIS2_PLACEMENT_3D('',#317,#256,#257);
#222=AXIS2_PLACEMENT_3D('',#318,#258,#259);
#223=AXIS2_PLACEMENT_3D('',#319,#260,#261);
#224=AXIS2_PLACEMENT_3D('',#321,#263,#264);
#225=AXIS2_PLACEMENT_3D('',#322,#265,#266);
#226=AXIS2_PLACEMENT_3D('',#328,#270,#271);
#227=AXIS2_PLACEMENT_3D('',#334,#275,#276);
#228=AXIS2_PLACEMENT_3D('',#337,#278,#279);
#229=AXIS2_PLACEMENT_3D('',#339,#280,#281);
#230=AXIS2_PLACEMENT_3D('',#340,#282,#283);
#231=AXIS2_PLACEMENT_3D('',#343,#285,#286);
#232=AXIS2_PLACEMENT_3D('',#344,#287,#288);
#233=AXIS2_PLACEMENT_3D('',#346,#289,#290);
#234=AXIS2_PLACEMENT_3D('',#348,#292,#293);
#235=AXIS2_PLACEMENT_3D('',#350,#295,#296);
#236=DIRECTION('axis',(0.,0.,1.));
#237=DIRECTION('refdir',(1.,0.,0.));
#238=DIRECTION('center_axis',(0.,-1.,0.));
#239=DIRECTION('ref_axis',(-1.,0.,0.));
#240=DIRECTION('center_axis',(0.,1.,0.));
#241=DIRECTION('ref_axis',(1.,0.,0.));
#242=DIRECTION('center_axis',(0.,-1.,0.));
#243=DIRECTION('ref_axis',(1.,0.,0.));
#244=DIRECTION('center_axis',(0.,1.,0.));
#245=DIRECTION('ref_axis',(1.,0.,0.));
#246=DIRECTION('',(0.,1.,0.));
#247=DIRECTION('center_axis',(0.,1.,0.));
#248=DIRECTION('ref_axis',(1.,0.,0.));
#249=DIRECTION('center_axis',(0.,-1.,0.));
#250=DIRECTION('ref_axis',(1.,0.,0.));
#251=DIRECTION('center_axis',(0.,-1.,0.));
#252=DIRECTION('ref_axis',(1.,0.,0.));
#253=DIRECTION('',(1.,0.,0.));
#254=DIRECTION('',(0.,0.,1.));
#255=DIRECTION('',(-1.,0.,0.));
#256=DIRECTION('center_axis',(0.,-1.,0.));
#257=DIRECTION('ref_axis',(1.,0.,0.));
#258=DIRECTION('center_axis',(0.,-1.,0.));
#259=DIRECTION('ref_axis',(1.,0.,0.));
#260=DIRECTION('center_axis',(0.,1.,0.));
#261=DIRECTION('ref_axis',(1.,0.,0.));
#262=DIRECTION('',(0.,1.,0.));
#263=DIRECTION('center_axis',(0.,-1.,0.));
#264=DIRECTION('ref_axis',(1.,0.,0.));
#265=DIRECTION('center_axis',(0.,-1.,0.));
#266=DIRECTION('ref_axis',(1.,0.,0.));
#267=DIRECTION('',(0.,0.,-1.));
#268=DIRECTION('',(1.,0.,0.));
#269=DIRECTION('',(-1.,0.,0.));
#270=DIRECTION('center_axis',(1.,0.,0.));
#271=DIRECTION('ref_axis',(0.,-1.,0.));
#272=DIRECTION('',(0.,-1.,0.));
#273=DIRECTION('',(0.,0.,-1.));
#274=DIRECTION('',(0.,-1.,0.));
#275=DIRECTION('center_axis',(0.,0.,-1.));
#276=DIRECTION('ref_axis',(1.,0.,0.));
#277=DIRECTION('',(0.,1.,0.));
#278=DIRECTION('center_axis',(0.,0.,-1.));
#279=DIRECTION('ref_axis',(1.,0.,0.));
#280=DIRECTION('center_axis',(0.,0.,1.));
#281=DIRECTION('ref_axis',(1.,0.,0.));
#282=DIRECTION('center_axis',(0.,0.,-1.));
#283=DIRECTION('ref_axis',(1.,0.,0.));
#284=DIRECTION('',(0.,0.,1.));
#285=DIRECTION('center_axis',(0.,0.,1.));
#286=DIRECTION('ref_axis',(1.,0.,0.));
#287=DIRECTION('center_axis',(0.,0.,-1.));
#288=DIRECTION('ref_axis',(1.,0.,0.));
#289=DIRECTION('center_axis',(0.,0.,-1.));
#290=DIRECTION('ref_axis',(1.,0.,0.));
#291=DIRECTION('',(0.,0.,-1.));
#292=DIRECTION('center_axis',(-1.,0.,0.));
#293=DIRECTION('ref_axis',(0.,1.,0.));
#294=DIRECTION('',(0.,1.,0.));
#295=DIRECTION('center_axis',(0.,0.,-1.));
#296=DIRECTION('ref_axis',(1.,0.,0.));
#297=CARTESIAN_POINT('',(0.,0.,0.));
#298=CARTESIAN_POINT('Origin',(-1804.5,1312.6032344439,-51.9999999999997));
#299=CARTESIAN_POINT('',(-1954.5,1312.6032344439,-102.));
#300=CARTESIAN_POINT('Origin',(-1904.5,1312.6032344439,-102.));
#301=CARTESIAN_POINT('',(-1934.5,1312.6032344439,-102.));
#302=CARTESIAN_POINT('Origin',(-1904.5,1312.6032344439,-102.));
#303=CARTESIAN_POINT('Origin',(-1904.5,1492.6032344439,-102.));
#304=CARTESIAN_POINT('',(-1934.5,2012.6032344439,-102.));
#305=CARTESIAN_POINT('',(-1934.5,1492.6032344439,-102.));
#306=CARTESIAN_POINT('Origin',(-1904.5,2012.6032344439,-102.));
#307=CARTESIAN_POINT('Origin',(-1904.5,2012.6032344439,-102.));
#308=CARTESIAN_POINT('Origin',(-1954.5,2012.6032344439,-102.));
#309=CARTESIAN_POINT('',(-2004.5,2012.6032344439,-51.9999999999997));
#310=CARTESIAN_POINT('',(-1904.5,2012.6032344439,-51.9999999999997));
#311=CARTESIAN_POINT('',(-1929.5,2012.6032344439,-51.9999999999997));
#312=CARTESIAN_POINT('',(-2004.5,2012.6032344439,-152.));
#313=CARTESIAN_POINT('',(-2004.5,2012.6032344439,-76.9999999999997));
#314=CARTESIAN_POINT('',(-1904.5,2012.6032344439,-152.));
#315=CARTESIAN_POINT('',(-1929.5,2012.6032344439,-152.));
#316=CARTESIAN_POINT('',(-1954.5,2012.6032344439,-102.));
#317=CARTESIAN_POINT('Origin',(-1904.5,2012.6032344439,-102.));
#318=CARTESIAN_POINT('Origin',(-1904.5,2012.6032344439,-102.));
#319=CARTESIAN_POINT('Origin',(-1904.5,1792.6032344439,-102.));
#320=CARTESIAN_POINT('',(-1954.5,1792.6032344439,-102.));
#321=CARTESIAN_POINT('Origin',(-1904.5,2012.6032344439,-102.));
#322=CARTESIAN_POINT('Origin',(-1854.5,2012.6032344439,-102.));
#323=CARTESIAN_POINT('',(-1804.5,2012.6032344439,-51.9999999999997));
#324=CARTESIAN_POINT('',(-1804.5,2012.6032344439,-152.));
#325=CARTESIAN_POINT('',(-1804.5,2012.6032344439,-76.9999999999997));
#326=CARTESIAN_POINT('',(-1879.5,2012.6032344439,-51.9999999999997));
#327=CARTESIAN_POINT('',(-1879.5,2012.6032344439,-152.));
#328=CARTESIAN_POINT('Origin',(-1804.5,2135.,-51.9999999999997));
#329=CARTESIAN_POINT('',(-1804.5,2135.,-152.));
#330=CARTESIAN_POINT('',(-1804.5,2135.,-152.));
#331=CARTESIAN_POINT('',(-1804.5,2135.,-51.9999999999997));
#332=CARTESIAN_POINT('',(-1804.5,2135.,-51.9999999999997));
#333=CARTESIAN_POINT('',(-1804.5,2135.,-51.9999999999997));
#334=CARTESIAN_POINT('Origin',(-1904.5,2013.80161722195,-152.));
#335=CARTESIAN_POINT('',(-2004.5,2135.,-152.));
#336=CARTESIAN_POINT('',(-2004.5,1792.6032344439,-152.));
#337=CARTESIAN_POINT('Origin',(-1904.5,2135.,-152.));
#338=CARTESIAN_POINT('',(-1954.5,2135.,-152.));
#339=CARTESIAN_POINT('Origin',(-1904.5,2135.,-152.));
#340=CARTESIAN_POINT('Origin',(-1904.5,2135.,-51.9999999999997));
#341=CARTESIAN_POINT('',(-1954.5,2135.,-51.9999999999997));
#342=CARTESIAN_POINT('',(-1954.5,2135.,-51.9999999999997));
#343=CARTESIAN_POINT('Origin',(-1904.5,2135.,-51.9999999999997));
#344=CARTESIAN_POINT('Origin',(-1904.5,2135.,-51.9999999999997));
#345=CARTESIAN_POINT('',(-2004.5,2135.,-51.9999999999997));
#346=CARTESIAN_POINT('Origin',(-1904.5,2135.,-51.9999999999997));
#347=CARTESIAN_POINT('',(-2004.5,2135.,-51.9999999999997));
#348=CARTESIAN_POINT('Origin',(-2004.5,1792.6032344439,-51.9999999999997));
#349=CARTESIAN_POINT('',(-2004.5,1792.6032344439,-51.9999999999997));
#350=CARTESIAN_POINT('Origin',(-1904.5,2013.80161722195,-51.9999999999997));
#351=UNCERTAINTY_MEASURE_WITH_UNIT(LENGTH_MEASURE(0.01),#355,
'DISTANCE_ACCURACY_VALUE',
'Maximum model space distance between geometric entities at asserted c
onnectivities');
#352=UNCERTAINTY_MEASURE_WITH_UNIT(LENGTH_MEASURE(0.01),#355,
'DISTANCE_ACCURACY_VALUE',
'Maximum model space distance between geometric entities at asserted c
onnectivities');
#353=(
GEOMETRIC_REPRESENTATION_CONTEXT(3)
GLOBAL_UNCERTAINTY_ASSIGNED_CONTEXT((#351))
GLOBAL_UNIT_ASSIGNED_CONTEXT((#355,#357,#358))
REPRESENTATION_CONTEXT('','3D')
);
#354=(
GEOMETRIC_REPRESENTATION_CONTEXT(3)
GLOBAL_UNCERTAINTY_ASSIGNED_CONTEXT((#352))
GLOBAL_UNIT_ASSIGNED_CONTEXT((#355,#357,#358))
REPRESENTATION_CONTEXT('','3D')
);
#355=(
LENGTH_UNIT()
NAMED_UNIT(*)
SI_UNIT(.MILLI.,.METRE.)
);
#356=(
LENGTH_UNIT()
NAMED_UNIT(*)
SI_UNIT($,.METRE.)
);
#357=(
NAMED_UNIT(*)
PLANE_ANGLE_UNIT()
SI_UNIT($,.RADIAN.)
);
#358=(
NAMED_UNIT(*)
SI_UNIT($,.STERADIAN.)
SOLID_ANGLE_UNIT()
);
#359=SHAPE_DEFINITION_REPRESENTATION(#360,#361);
#360=PRODUCT_DEFINITION_SHAPE('',$,#363);
#361=SHAPE_REPRESENTATION('',(#213),#353);
#362=PRODUCT_DEFINITION_CONTEXT('part definition',#367,'design');
#363=PRODUCT_DEFINITION('SteerCylinder','SteerCylinder',#364,#362);
#364=PRODUCT_DEFINITION_FORMATION('',$,#369);
#365=PRODUCT_RELATED_PRODUCT_CATEGORY('SteerCylinder','SteerCylinder',(#369));
#366=APPLICATION_PROTOCOL_DEFINITION('international standard',
'automotive_design',2009,#367);
#367=APPLICATION_CONTEXT(
'Core Data for Automotive Mechanical Design Process');
#368=PRODUCT_CONTEXT('part definition',#367,'mechanical');
#369=PRODUCT('SteerCylinder','SteerCylinder',$,(#368));
#370=PRESENTATION_STYLE_ASSIGNMENT((#371));
#371=SURFACE_STYLE_USAGE(.BOTH.,#372);
#372=SURFACE_SIDE_STYLE('',(#373));
#373=SURFACE_STYLE_FILL_AREA(#374);
#374=FILL_AREA_STYLE('Steel - Satin',(#375));
#375=FILL_AREA_STYLE_COLOUR('Steel - Satin',#376);
#376=COLOUR_RGB('Steel - Satin',0.627450980392157,0.627450980392157,0.627450980392157);
ENDSEC;
END-ISO-10303-21;
