ISO-10303-21;
HEADER;
/* Generated by software containing ST-Developer
 * from STEP Tools, Inc. (www.steptools.com) 
 */

FILE_DESCRIPTION(
/* description */ (''),
/* implementation_level */ '2;1');

FILE_NAME(
/* name */ 'SteerRod.step',
/* time_stamp */ '2026-03-29T20:36:18-04:00',
/* author */ (''),
/* organization */ (''),
/* preprocessor_version */ 'ST-DEVELOPER v20.1',
/* originating_system */ 'Autodesk Translation Framework v14.24.0.0',
/* authorisation */ '');

FILE_SCHEMA (('AUTOMOTIVE_DESIGN { 1 0 10303 214 3 1 1 }'));
ENDSEC;

DATA;
#10=MECHANICAL_DESIGN_GEOMETRIC_PRESENTATION_REPRESENTATION('',(#13),#417);
#11=SHAPE_REPRESENTATION_RELATIONSHIP('SRR','None',#424,#12);
#12=ADVANCED_BREP_SHAPE_REPRESENTATION('',(#14),#416);
#13=STYLED_ITEM('',(#433),#14);
#14=MANIFOLD_SOLID_BREP('Body1',#238);
#15=FACE_BOUND('',#80,.T.);
#16=FACE_BOUND('',#83,.T.);
#17=LINE('',#357,#37);
#18=LINE('',#364,#38);
#19=LINE('',#367,#39);
#20=LINE('',#370,#40);
#21=LINE('',#372,#41);
#22=LINE('',#373,#42);
#23=LINE('',#376,#43);
#24=LINE('',#378,#44);
#25=LINE('',#380,#45);
#26=LINE('',#382,#46);
#27=LINE('',#387,#47);
#28=LINE('',#390,#48);
#29=LINE('',#392,#49);
#30=LINE('',#394,#50);
#31=LINE('',#395,#51);
#32=LINE('',#398,#52);
#33=LINE('',#399,#53);
#34=LINE('',#405,#54);
#35=LINE('',#408,#55);
#36=LINE('',#413,#56);
#37=VECTOR('',#287,20.);
#38=VECTOR('',#294,10.);
#39=VECTOR('',#297,10.);
#40=VECTOR('',#300,10.);
#41=VECTOR('',#301,10.);
#42=VECTOR('',#302,10.);
#43=VECTOR('',#305,10.);
#44=VECTOR('',#306,10.);
#45=VECTOR('',#307,10.);
#46=VECTOR('',#308,10.);
#47=VECTOR('',#315,10.);
#48=VECTOR('',#318,10.);
#49=VECTOR('',#319,10.);
#50=VECTOR('',#320,10.);
#51=VECTOR('',#321,10.);
#52=VECTOR('',#324,10.);
#53=VECTOR('',#325,10.);
#54=VECTOR('',#334,10.);
#55=VECTOR('',#339,10.);
#56=VECTOR('',#348,30.);
#57=CYLINDRICAL_SURFACE('',#254,20.);
#58=CYLINDRICAL_SURFACE('',#257,20.);
#59=CYLINDRICAL_SURFACE('',#263,20.);
#60=CYLINDRICAL_SURFACE('',#276,30.);
#61=FACE_OUTER_BOUND('',#75,.T.);
#62=FACE_OUTER_BOUND('',#76,.T.);
#63=FACE_OUTER_BOUND('',#77,.T.);
#64=FACE_OUTER_BOUND('',#78,.T.);
#65=FACE_OUTER_BOUND('',#79,.T.);
#66=FACE_OUTER_BOUND('',#81,.T.);
#67=FACE_OUTER_BOUND('',#82,.T.);
#68=FACE_OUTER_BOUND('',#84,.T.);
#69=FACE_OUTER_BOUND('',#85,.T.);
#70=FACE_OUTER_BOUND('',#86,.T.);
#71=FACE_OUTER_BOUND('',#87,.T.);
#72=FACE_OUTER_BOUND('',#88,.T.);
#73=FACE_OUTER_BOUND('',#89,.T.);
#74=FACE_OUTER_BOUND('',#90,.T.);
#75=EDGE_LOOP('',(#152));
#76=EDGE_LOOP('',(#153,#154,#155,#156));
#77=EDGE_LOOP('',(#157,#158,#159,#160));
#78=EDGE_LOOP('',(#161,#162,#163,#164));
#79=EDGE_LOOP('',(#165,#166,#167,#168,#169,#170,#171));
#80=EDGE_LOOP('',(#172));
#81=EDGE_LOOP('',(#173,#174,#175,#176));
#82=EDGE_LOOP('',(#177,#178,#179,#180,#181,#182,#183));
#83=EDGE_LOOP('',(#184));
#84=EDGE_LOOP('',(#185,#186,#187,#188,#189));
#85=EDGE_LOOP('',(#190,#191,#192));
#86=EDGE_LOOP('',(#193,#194,#195));
#87=EDGE_LOOP('',(#196,#197,#198));
#88=EDGE_LOOP('',(#199,#200,#201));
#89=EDGE_LOOP('',(#202,#203,#204,#205,#206));
#90=EDGE_LOOP('',(#207,#208,#209,#210,#211,#212,#213));
#91=CIRCLE('',#253,30.);
#92=CIRCLE('',#255,20.);
#93=CIRCLE('',#256,20.);
#94=CIRCLE('',#258,20.);
#95=CIRCLE('',#259,20.);
#96=CIRCLE('',#262,20.);
#97=CIRCLE('',#264,20.);
#98=CIRCLE('',#268,30.);
#99=CIRCLE('',#270,30.);
#100=CIRCLE('',#272,30.);
#101=CIRCLE('',#274,30.);
#102=VERTEX_POINT('',#351);
#103=VERTEX_POINT('',#354);
#104=VERTEX_POINT('',#356);
#105=VERTEX_POINT('',#360);
#106=VERTEX_POINT('',#361);
#107=VERTEX_POINT('',#363);
#108=VERTEX_POINT('',#365);
#109=VERTEX_POINT('',#369);
#110=VERTEX_POINT('',#371);
#111=VERTEX_POINT('',#375);
#112=VERTEX_POINT('',#377);
#113=VERTEX_POINT('',#379);
#114=VERTEX_POINT('',#381);
#115=VERTEX_POINT('',#385);
#116=VERTEX_POINT('',#389);
#117=VERTEX_POINT('',#391);
#118=VERTEX_POINT('',#393);
#119=VERTEX_POINT('',#397);
#120=VERTEX_POINT('',#403);
#121=EDGE_CURVE('',#102,#102,#91,.T.);
#122=EDGE_CURVE('',#103,#103,#92,.T.);
#123=EDGE_CURVE('',#103,#104,#17,.T.);
#124=EDGE_CURVE('',#104,#104,#93,.T.);
#125=EDGE_CURVE('',#105,#106,#94,.T.);
#126=EDGE_CURVE('',#106,#107,#18,.T.);
#127=EDGE_CURVE('',#107,#108,#95,.T.);
#128=EDGE_CURVE('',#108,#105,#19,.T.);
#129=EDGE_CURVE('',#106,#109,#20,.T.);
#130=EDGE_CURVE('',#110,#109,#21,.T.);
#131=EDGE_CURVE('',#110,#107,#22,.T.);
#132=EDGE_CURVE('',#111,#105,#23,.T.);
#133=EDGE_CURVE('',#111,#112,#24,.T.);
#134=EDGE_CURVE('',#112,#113,#25,.T.);
#135=EDGE_CURVE('',#113,#114,#26,.T.);
#136=EDGE_CURVE('',#109,#114,#96,.T.);
#137=EDGE_CURVE('',#115,#110,#97,.T.);
#138=EDGE_CURVE('',#114,#115,#27,.T.);
#139=EDGE_CURVE('',#116,#115,#28,.T.);
#140=EDGE_CURVE('',#116,#117,#29,.T.);
#141=EDGE_CURVE('',#117,#118,#30,.T.);
#142=EDGE_CURVE('',#118,#108,#31,.T.);
#143=EDGE_CURVE('',#119,#113,#32,.T.);
#144=EDGE_CURVE('',#116,#119,#33,.T.);
#145=EDGE_CURVE('',#119,#117,#98,.T.);
#146=EDGE_CURVE('',#117,#120,#99,.T.);
#147=EDGE_CURVE('',#118,#120,#34,.T.);
#148=EDGE_CURVE('',#120,#112,#100,.T.);
#149=EDGE_CURVE('',#120,#111,#35,.T.);
#150=EDGE_CURVE('',#112,#119,#101,.T.);
#151=EDGE_CURVE('',#119,#102,#36,.T.);
#152=ORIENTED_EDGE('',*,*,#121,.T.);
#153=ORIENTED_EDGE('',*,*,#122,.F.);
#154=ORIENTED_EDGE('',*,*,#123,.T.);
#155=ORIENTED_EDGE('',*,*,#124,.F.);
#156=ORIENTED_EDGE('',*,*,#123,.F.);
#157=ORIENTED_EDGE('',*,*,#125,.T.);
#158=ORIENTED_EDGE('',*,*,#126,.T.);
#159=ORIENTED_EDGE('',*,*,#127,.T.);
#160=ORIENTED_EDGE('',*,*,#128,.T.);
#161=ORIENTED_EDGE('',*,*,#126,.F.);
#162=ORIENTED_EDGE('',*,*,#129,.T.);
#163=ORIENTED_EDGE('',*,*,#130,.F.);
#164=ORIENTED_EDGE('',*,*,#131,.T.);
#165=ORIENTED_EDGE('',*,*,#125,.F.);
#166=ORIENTED_EDGE('',*,*,#132,.F.);
#167=ORIENTED_EDGE('',*,*,#133,.T.);
#168=ORIENTED_EDGE('',*,*,#134,.T.);
#169=ORIENTED_EDGE('',*,*,#135,.T.);
#170=ORIENTED_EDGE('',*,*,#136,.F.);
#171=ORIENTED_EDGE('',*,*,#129,.F.);
#172=ORIENTED_EDGE('',*,*,#122,.T.);
#173=ORIENTED_EDGE('',*,*,#137,.T.);
#174=ORIENTED_EDGE('',*,*,#130,.T.);
#175=ORIENTED_EDGE('',*,*,#136,.T.);
#176=ORIENTED_EDGE('',*,*,#138,.T.);
#177=ORIENTED_EDGE('',*,*,#127,.F.);
#178=ORIENTED_EDGE('',*,*,#131,.F.);
#179=ORIENTED_EDGE('',*,*,#137,.F.);
#180=ORIENTED_EDGE('',*,*,#139,.F.);
#181=ORIENTED_EDGE('',*,*,#140,.T.);
#182=ORIENTED_EDGE('',*,*,#141,.T.);
#183=ORIENTED_EDGE('',*,*,#142,.T.);
#184=ORIENTED_EDGE('',*,*,#124,.T.);
#185=ORIENTED_EDGE('',*,*,#138,.F.);
#186=ORIENTED_EDGE('',*,*,#135,.F.);
#187=ORIENTED_EDGE('',*,*,#143,.F.);
#188=ORIENTED_EDGE('',*,*,#144,.F.);
#189=ORIENTED_EDGE('',*,*,#139,.T.);
#190=ORIENTED_EDGE('',*,*,#145,.T.);
#191=ORIENTED_EDGE('',*,*,#140,.F.);
#192=ORIENTED_EDGE('',*,*,#144,.T.);
#193=ORIENTED_EDGE('',*,*,#146,.T.);
#194=ORIENTED_EDGE('',*,*,#147,.F.);
#195=ORIENTED_EDGE('',*,*,#141,.F.);
#196=ORIENTED_EDGE('',*,*,#148,.T.);
#197=ORIENTED_EDGE('',*,*,#133,.F.);
#198=ORIENTED_EDGE('',*,*,#149,.F.);
#199=ORIENTED_EDGE('',*,*,#150,.T.);
#200=ORIENTED_EDGE('',*,*,#143,.T.);
#201=ORIENTED_EDGE('',*,*,#134,.F.);
#202=ORIENTED_EDGE('',*,*,#128,.F.);
#203=ORIENTED_EDGE('',*,*,#142,.F.);
#204=ORIENTED_EDGE('',*,*,#147,.T.);
#205=ORIENTED_EDGE('',*,*,#149,.T.);
#206=ORIENTED_EDGE('',*,*,#132,.T.);
#207=ORIENTED_EDGE('',*,*,#145,.F.);
#208=ORIENTED_EDGE('',*,*,#151,.T.);
#209=ORIENTED_EDGE('',*,*,#121,.F.);
#210=ORIENTED_EDGE('',*,*,#151,.F.);
#211=ORIENTED_EDGE('',*,*,#150,.F.);
#212=ORIENTED_EDGE('',*,*,#148,.F.);
#213=ORIENTED_EDGE('',*,*,#146,.F.);
#214=PLANE('',#252);
#215=PLANE('',#260);
#216=PLANE('',#261);
#217=PLANE('',#265);
#218=PLANE('',#266);
#219=PLANE('',#267);
#220=PLANE('',#269);
#221=PLANE('',#271);
#222=PLANE('',#273);
#223=PLANE('',#275);
#224=ADVANCED_FACE('',(#61),#214,.F.);
#225=ADVANCED_FACE('',(#62),#57,.F.);
#226=ADVANCED_FACE('',(#63),#58,.T.);
#227=ADVANCED_FACE('',(#64),#215,.T.);
#228=ADVANCED_FACE('',(#65,#15),#216,.T.);
#229=ADVANCED_FACE('',(#66),#59,.T.);
#230=ADVANCED_FACE('',(#67,#16),#217,.T.);
#231=ADVANCED_FACE('',(#68),#218,.T.);
#232=ADVANCED_FACE('',(#69),#219,.F.);
#233=ADVANCED_FACE('',(#70),#220,.F.);
#234=ADVANCED_FACE('',(#71),#221,.F.);
#235=ADVANCED_FACE('',(#72),#222,.F.);
#236=ADVANCED_FACE('',(#73),#223,.T.);
#237=ADVANCED_FACE('',(#74),#60,.T.);
#238=CLOSED_SHELL('',(#224,#225,#226,#227,#228,#229,#230,#231,#232,#233,
#234,#235,#236,#237));
#239=DERIVED_UNIT_ELEMENT(#241,1.);
#240=DERIVED_UNIT_ELEMENT(#419,-3.);
#241=(
MASS_UNIT()
NAMED_UNIT(*)
SI_UNIT(.KILO.,.GRAM.)
);
#242=DERIVED_UNIT((#239,#240));
#243=MEASURE_REPRESENTATION_ITEM('density measure',
POSITIVE_RATIO_MEASURE(7850.),#242);
#244=PROPERTY_DEFINITION_REPRESENTATION(#249,#246);
#245=PROPERTY_DEFINITION_REPRESENTATION(#250,#247);
#246=REPRESENTATION('material name',(#248),#416);
#247=REPRESENTATION('density',(#243),#416);
#248=DESCRIPTIVE_REPRESENTATION_ITEM('Steel','Steel');
#249=PROPERTY_DEFINITION('material property','material name',#426);
#250=PROPERTY_DEFINITION('material property','density of part',#426);
#251=AXIS2_PLACEMENT_3D('',#349,#277,#278);
#252=AXIS2_PLACEMENT_3D('',#350,#279,#280);
#253=AXIS2_PLACEMENT_3D('',#352,#281,#282);
#254=AXIS2_PLACEMENT_3D('',#353,#283,#284);
#255=AXIS2_PLACEMENT_3D('',#355,#285,#286);
#256=AXIS2_PLACEMENT_3D('',#358,#288,#289);
#257=AXIS2_PLACEMENT_3D('',#359,#290,#291);
#258=AXIS2_PLACEMENT_3D('',#362,#292,#293);
#259=AXIS2_PLACEMENT_3D('',#366,#295,#296);
#260=AXIS2_PLACEMENT_3D('',#368,#298,#299);
#261=AXIS2_PLACEMENT_3D('',#374,#303,#304);
#262=AXIS2_PLACEMENT_3D('',#383,#309,#310);
#263=AXIS2_PLACEMENT_3D('',#384,#311,#312);
#264=AXIS2_PLACEMENT_3D('',#386,#313,#314);
#265=AXIS2_PLACEMENT_3D('',#388,#316,#317);
#266=AXIS2_PLACEMENT_3D('',#396,#322,#323);
#267=AXIS2_PLACEMENT_3D('',#400,#326,#327);
#268=AXIS2_PLACEMENT_3D('',#401,#328,#329);
#269=AXIS2_PLACEMENT_3D('',#402,#330,#331);
#270=AXIS2_PLACEMENT_3D('',#404,#332,#333);
#271=AXIS2_PLACEMENT_3D('',#406,#335,#336);
#272=AXIS2_PLACEMENT_3D('',#407,#337,#338);
#273=AXIS2_PLACEMENT_3D('',#409,#340,#341);
#274=AXIS2_PLACEMENT_3D('',#410,#342,#343);
#275=AXIS2_PLACEMENT_3D('',#411,#344,#345);
#276=AXIS2_PLACEMENT_3D('',#412,#346,#347);
#277=DIRECTION('axis',(0.,0.,1.));
#278=DIRECTION('refdir',(1.,0.,0.));
#279=DIRECTION('center_axis',(0.,-1.,0.));
#280=DIRECTION('ref_axis',(1.,0.,0.));
#281=DIRECTION('center_axis',(0.,1.,0.));
#282=DIRECTION('ref_axis',(1.,0.,0.));
#283=DIRECTION('center_axis',(0.,0.,-1.));
#284=DIRECTION('ref_axis',(-1.,0.,0.));
#285=DIRECTION('center_axis',(0.,0.,-1.));
#286=DIRECTION('ref_axis',(-1.,0.,0.));
#287=DIRECTION('',(0.,0.,-1.));
#288=DIRECTION('center_axis',(0.,0.,1.));
#289=DIRECTION('ref_axis',(-1.,0.,0.));
#290=DIRECTION('center_axis',(0.,0.,1.));
#291=DIRECTION('ref_axis',(0.707106781186547,-0.707106781186547,0.));
#292=DIRECTION('center_axis',(0.,0.,-1.));
#293=DIRECTION('ref_axis',(0.707106781186547,-0.707106781186547,0.));
#294=DIRECTION('',(0.,0.,-1.));
#295=DIRECTION('center_axis',(0.,0.,1.));
#296=DIRECTION('ref_axis',(0.707106781186547,-0.707106781186547,0.));
#297=DIRECTION('',(0.,0.,1.));
#298=DIRECTION('center_axis',(0.,-1.,0.));
#299=DIRECTION('ref_axis',(0.,0.,-1.));
#300=DIRECTION('',(-1.,0.,0.));
#301=DIRECTION('',(0.,0.,1.));
#302=DIRECTION('',(1.,0.,0.));
#303=DIRECTION('center_axis',(0.,0.,1.));
#304=DIRECTION('ref_axis',(-1.,0.,0.));
#305=DIRECTION('',(0.,-1.,0.));
#306=DIRECTION('',(-1.,0.,0.));
#307=DIRECTION('',(-1.,0.,0.));
#308=DIRECTION('',(0.,-1.,0.));
#309=DIRECTION('center_axis',(0.,0.,-1.));
#310=DIRECTION('ref_axis',(-0.707106781186547,-0.707106781186547,0.));
#311=DIRECTION('center_axis',(0.,0.,-1.));
#312=DIRECTION('ref_axis',(-0.707106781186547,-0.707106781186547,0.));
#313=DIRECTION('center_axis',(0.,0.,1.));
#314=DIRECTION('ref_axis',(-0.707106781186547,-0.707106781186547,0.));
#315=DIRECTION('',(0.,0.,-1.));
#316=DIRECTION('center_axis',(0.,0.,-1.));
#317=DIRECTION('ref_axis',(1.,0.,0.));
#318=DIRECTION('',(0.,-1.,0.));
#319=DIRECTION('',(1.,0.,0.));
#320=DIRECTION('',(1.,0.,0.));
#321=DIRECTION('',(0.,-1.,0.));
#322=DIRECTION('center_axis',(-1.,0.,0.));
#323=DIRECTION('ref_axis',(0.,0.,-1.));
#324=DIRECTION('',(0.,0.,1.));
#325=DIRECTION('',(0.,0.,1.));
#326=DIRECTION('center_axis',(0.,-1.,0.));
#327=DIRECTION('ref_axis',(1.,0.,0.));
#328=DIRECTION('center_axis',(0.,-1.,0.));
#329=DIRECTION('ref_axis',(1.,0.,0.));
#330=DIRECTION('center_axis',(0.,-1.,0.));
#331=DIRECTION('ref_axis',(1.,0.,0.));
#332=DIRECTION('center_axis',(0.,-1.,0.));
#333=DIRECTION('ref_axis',(1.,0.,0.));
#334=DIRECTION('',(0.,0.,1.));
#335=DIRECTION('center_axis',(0.,-1.,0.));
#336=DIRECTION('ref_axis',(1.,0.,0.));
#337=DIRECTION('center_axis',(0.,-1.,0.));
#338=DIRECTION('ref_axis',(1.,0.,0.));
#339=DIRECTION('',(0.,0.,1.));
#340=DIRECTION('center_axis',(0.,-1.,0.));
#341=DIRECTION('ref_axis',(1.,0.,0.));
#342=DIRECTION('center_axis',(0.,-1.,0.));
#343=DIRECTION('ref_axis',(1.,0.,0.));
#344=DIRECTION('center_axis',(1.,0.,0.));
#345=DIRECTION('ref_axis',(0.,0.,1.));
#346=DIRECTION('center_axis',(0.,-1.,0.));
#347=DIRECTION('ref_axis',(1.,0.,0.));
#348=DIRECTION('',(0.,1.,0.));
#349=CARTESIAN_POINT('',(0.,0.,0.));
#350=CARTESIAN_POINT('Origin',(-1904.5,2222.1152344439,-102.));
#351=CARTESIAN_POINT('',(-1934.5,2222.1152344439,-102.));
#352=CARTESIAN_POINT('Origin',(-1904.5,2222.1152344439,-102.));
#353=CARTESIAN_POINT('Origin',(-1904.5,1332.6032344439,-71.9999999999997));
#354=CARTESIAN_POINT('',(-1884.5,1332.6032344439,-71.9999999999997));
#355=CARTESIAN_POINT('Origin',(-1904.5,1332.6032344439,-71.9999999999997));
#356=CARTESIAN_POINT('',(-1884.5,1332.6032344439,-132.));
#357=CARTESIAN_POINT('',(-1884.5,1332.6032344439,-71.9999999999997));
#358=CARTESIAN_POINT('Origin',(-1904.5,1332.6032344439,-132.));
#359=CARTESIAN_POINT('Origin',(-1894.5,1322.6032344439,-117.));
#360=CARTESIAN_POINT('',(-1874.5,1322.6032344439,-71.9999999999997));
#361=CARTESIAN_POINT('',(-1894.5,1302.6032344439,-71.9999999999997));
#362=CARTESIAN_POINT('Origin',(-1894.5,1322.6032344439,-71.9999999999997));
#363=CARTESIAN_POINT('',(-1894.5,1302.6032344439,-132.));
#364=CARTESIAN_POINT('',(-1894.5,1302.6032344439,-117.));
#365=CARTESIAN_POINT('',(-1874.5,1322.6032344439,-132.));
#366=CARTESIAN_POINT('Origin',(-1894.5,1322.6032344439,-132.));
#367=CARTESIAN_POINT('',(-1874.5,1322.6032344439,-117.));
#368=CARTESIAN_POINT('Origin',(-1904.5,1302.6032344439,-102.));
#369=CARTESIAN_POINT('',(-1914.5,1302.6032344439,-71.9999999999997));
#370=CARTESIAN_POINT('',(-1874.5,1302.6032344439,-71.9999999999997));
#371=CARTESIAN_POINT('',(-1914.5,1302.6032344439,-132.));
#372=CARTESIAN_POINT('',(-1914.5,1302.6032344439,-86.9999999999997));
#373=CARTESIAN_POINT('',(-1904.5,1302.6032344439,-132.));
#374=CARTESIAN_POINT('Origin',(-1874.5,1362.6032344439,-71.9999999999997));
#375=CARTESIAN_POINT('',(-1874.5,1362.6032344439,-71.9999999999997));
#376=CARTESIAN_POINT('',(-1874.5,1362.6032344439,-71.9999999999997));
#377=CARTESIAN_POINT('',(-1904.5,1362.6032344439,-71.9999999999997));
#378=CARTESIAN_POINT('',(-1874.5,1362.6032344439,-71.9999999999997));
#379=CARTESIAN_POINT('',(-1934.5,1362.6032344439,-71.9999999999997));
#380=CARTESIAN_POINT('',(-1874.5,1362.6032344439,-71.9999999999997));
#381=CARTESIAN_POINT('',(-1934.5,1322.6032344439,-71.9999999999997));
#382=CARTESIAN_POINT('',(-1934.5,1362.6032344439,-71.9999999999997));
#383=CARTESIAN_POINT('Origin',(-1914.5,1322.6032344439,-71.9999999999997));
#384=CARTESIAN_POINT('Origin',(-1914.5,1322.6032344439,-86.9999999999997));
#385=CARTESIAN_POINT('',(-1934.5,1322.6032344439,-132.));
#386=CARTESIAN_POINT('Origin',(-1914.5,1322.6032344439,-132.));
#387=CARTESIAN_POINT('',(-1934.5,1322.6032344439,-86.9999999999997));
#388=CARTESIAN_POINT('Origin',(-1934.5,1362.6032344439,-132.));
#389=CARTESIAN_POINT('',(-1934.5,1362.6032344439,-132.));
#390=CARTESIAN_POINT('',(-1934.5,1362.6032344439,-132.));
#391=CARTESIAN_POINT('',(-1904.5,1362.6032344439,-132.));
#392=CARTESIAN_POINT('',(-1904.5,1362.6032344439,-132.));
#393=CARTESIAN_POINT('',(-1874.5,1362.6032344439,-132.));
#394=CARTESIAN_POINT('',(-1904.5,1362.6032344439,-132.));
#395=CARTESIAN_POINT('',(-1874.5,1362.6032344439,-132.));
#396=CARTESIAN_POINT('Origin',(-1934.5,1362.6032344439,-71.9999999999997));
#397=CARTESIAN_POINT('',(-1934.5,1362.6032344439,-102.));
#398=CARTESIAN_POINT('',(-1934.5,1362.6032344439,-132.));
#399=CARTESIAN_POINT('',(-1934.5,1362.6032344439,-132.));
#400=CARTESIAN_POINT('Origin',(-1904.5,1362.6032344439,-102.));
#401=CARTESIAN_POINT('Origin',(-1904.5,1362.6032344439,-102.));
#402=CARTESIAN_POINT('Origin',(-1904.5,1362.6032344439,-102.));
#403=CARTESIAN_POINT('',(-1874.5,1362.6032344439,-102.));
#404=CARTESIAN_POINT('Origin',(-1904.5,1362.6032344439,-102.));
#405=CARTESIAN_POINT('',(-1874.5,1362.6032344439,-132.));
#406=CARTESIAN_POINT('Origin',(-1904.5,1362.6032344439,-102.));
#407=CARTESIAN_POINT('Origin',(-1904.5,1362.6032344439,-102.));
#408=CARTESIAN_POINT('',(-1874.5,1362.6032344439,-132.));
#409=CARTESIAN_POINT('Origin',(-1904.5,1362.6032344439,-102.));
#410=CARTESIAN_POINT('Origin',(-1904.5,1362.6032344439,-102.));
#411=CARTESIAN_POINT('Origin',(-1874.5,1362.6032344439,-132.));
#412=CARTESIAN_POINT('Origin',(-1904.5,2012.6032344439,-102.));
#413=CARTESIAN_POINT('',(-1934.5,2012.6032344439,-102.));
#414=UNCERTAINTY_MEASURE_WITH_UNIT(LENGTH_MEASURE(0.01),#418,
'DISTANCE_ACCURACY_VALUE',
'Maximum model space distance between geometric entities at asserted c
onnectivities');
#415=UNCERTAINTY_MEASURE_WITH_UNIT(LENGTH_MEASURE(0.01),#418,
'DISTANCE_ACCURACY_VALUE',
'Maximum model space distance between geometric entities at asserted c
onnectivities');
#416=(
GEOMETRIC_REPRESENTATION_CONTEXT(3)
GLOBAL_UNCERTAINTY_ASSIGNED_CONTEXT((#414))
GLOBAL_UNIT_ASSIGNED_CONTEXT((#418,#420,#421))
REPRESENTATION_CONTEXT('','3D')
);
#417=(
GEOMETRIC_REPRESENTATION_CONTEXT(3)
GLOBAL_UNCERTAINTY_ASSIGNED_CONTEXT((#415))
GLOBAL_UNIT_ASSIGNED_CONTEXT((#418,#420,#421))
REPRESENTATION_CONTEXT('','3D')
);
#418=(
LENGTH_UNIT()
NAMED_UNIT(*)
SI_UNIT(.MILLI.,.METRE.)
);
#419=(
LENGTH_UNIT()
NAMED_UNIT(*)
SI_UNIT($,.METRE.)
);
#420=(
NAMED_UNIT(*)
PLANE_ANGLE_UNIT()
SI_UNIT($,.RADIAN.)
);
#421=(
NAMED_UNIT(*)
SI_UNIT($,.STERADIAN.)
SOLID_ANGLE_UNIT()
);
#422=SHAPE_DEFINITION_REPRESENTATION(#423,#424);
#423=PRODUCT_DEFINITION_SHAPE('',$,#426);
#424=SHAPE_REPRESENTATION('',(#251),#416);
#425=PRODUCT_DEFINITION_CONTEXT('part definition',#430,'design');
#426=PRODUCT_DEFINITION('SteerRod','SteerRod',#427,#425);
#427=PRODUCT_DEFINITION_FORMATION('',$,#432);
#428=PRODUCT_RELATED_PRODUCT_CATEGORY('SteerRod','SteerRod',(#432));
#429=APPLICATION_PROTOCOL_DEFINITION('international standard',
'automotive_design',2009,#430);
#430=APPLICATION_CONTEXT(
'Core Data for Automotive Mechanical Design Process');
#431=PRODUCT_CONTEXT('part definition',#430,'mechanical');
#432=PRODUCT('SteerRod','SteerRod',$,(#431));
#433=PRESENTATION_STYLE_ASSIGNMENT((#434));
#434=SURFACE_STYLE_USAGE(.BOTH.,#435);
#435=SURFACE_SIDE_STYLE('',(#436));
#436=SURFACE_STYLE_FILL_AREA(#437);
#437=FILL_AREA_STYLE('Steel - Satin',(#438));
#438=FILL_AREA_STYLE_COLOUR('Steel - Satin',#439);
#439=COLOUR_RGB('Steel - Satin',0.627450980392157,0.627450980392157,0.627450980392157);
ENDSEC;
END-ISO-10303-21;
