ISO-10303-21;
HEADER;
/* Generated by software containing ST-Developer
 * from STEP Tools, Inc. (www.steptools.com) 
 */

FILE_DESCRIPTION(
/* description */ (''),
/* implementation_level */ '2;1');

FILE_NAME(
/* name */ 'ThreeQuarterLoad.step',
/* time_stamp */ '2026-04-19T21:32:36-04:00',
/* author */ (''),
/* organization */ (''),
/* preprocessor_version */ 'ST-DEVELOPER v20.1',
/* originating_system */ 'Autodesk Translation Framework v14.24.0.0',
/* authorisation */ '');

FILE_SCHEMA (('AUTOMOTIVE_DESIGN { 1 0 10303 214 3 1 1 }'));
ENDSEC;

DATA;
#10=MECHANICAL_DESIGN_GEOMETRIC_PRESENTATION_REPRESENTATION('',(#13),#1290);
#11=SHAPE_REPRESENTATION_RELATIONSHIP('SRR','None',#1297,#12);
#12=ADVANCED_BREP_SHAPE_REPRESENTATION('',(#14),#1289);
#13=STYLED_ITEM('',(#1306),#14);
#14=MANIFOLD_SOLID_BREP('Body2',#628);
#15=SPHERICAL_SURFACE('',#692,19.9999999999992);
#16=SPHERICAL_SURFACE('',#695,19.9999999999997);
#17=B_SPLINE_SURFACE_WITH_KNOTS('',3,3,((#1003,#1004,#1005,#1006,#1007,
#1008,#1009),(#1010,#1011,#1012,#1013,#1014,#1015,#1016),(#1017,#1018,#1019,
#1020,#1021,#1022,#1023),(#1024,#1025,#1026,#1027,#1028,#1029,#1030),(#1031,
#1032,#1033,#1034,#1035,#1036,#1037),(#1038,#1039,#1040,#1041,#1042,#1043,
#1044),(#1045,#1046,#1047,#1048,#1049,#1050,#1051)),.UNSPECIFIED.,.F.,.F.,
 .F.,(4,1,1,1,4),(4,1,1,1,4),(0.,0.285714285714286,0.571428571428571,0.857142857142857,
1.),(-6.28318530717959,-6.05878583192317,-5.60998688141035,-5.16118793089753,
-4.7123889803847),.UNSPECIFIED.);
#18=B_SPLINE_SURFACE_WITH_KNOTS('',3,3,((#1059,#1060,#1061,#1062,#1063,
#1064,#1065,#1066),(#1067,#1068,#1069,#1070,#1071,#1072,#1073,#1074),(#1075,
#1076,#1077,#1078,#1079,#1080,#1081,#1082),(#1083,#1084,#1085,#1086,#1087,
#1088,#1089,#1090),(#1091,#1092,#1093,#1094,#1095,#1096,#1097,#1098),(#1099,
#1100,#1101,#1102,#1103,#1104,#1105,#1106),(#1107,#1108,#1109,#1110,#1111,
#1112,#1113,#1114)),.UNSPECIFIED.,.F.,.F.,.F.,(4,1,1,1,4),(4,1,1,1,1,4),
(0.,0.285714285714286,0.571428571428571,0.857142857142857,1.),(-1.57079632679488,
-1.12199737628206,-0.897597901025648,-0.673198425769236,-0.448798950512824,
-1.11022302462516E-16),.UNSPECIFIED.);
#19=B_SPLINE_SURFACE_WITH_KNOTS('',3,3,((#1128,#1129,#1130,#1131,#1132,
#1133,#1134),(#1135,#1136,#1137,#1138,#1139,#1140,#1141),(#1142,#1143,#1144,
#1145,#1146,#1147,#1148),(#1149,#1150,#1151,#1152,#1153,#1154,#1155),(#1156,
#1157,#1158,#1159,#1160,#1161,#1162),(#1163,#1164,#1165,#1166,#1167,#1168,
#1169),(#1170,#1171,#1172,#1173,#1174,#1175,#1176)),.UNSPECIFIED.,.F.,.F.,
 .F.,(4,1,1,1,4),(4,1,1,1,4),(0.,0.285714285714286,0.571428571428571,0.857142857142857,
1.),(-6.28318530717959,-6.05878583192317,-5.60998688141034,-5.16118793089752,
-4.71238898038469),.UNSPECIFIED.);
#20=B_SPLINE_SURFACE_WITH_KNOTS('',3,3,((#1188,#1189,#1190,#1191,#1192,
#1193,#1194),(#1195,#1196,#1197,#1198,#1199,#1200,#1201),(#1202,#1203,#1204,
#1205,#1206,#1207,#1208),(#1209,#1210,#1211,#1212,#1213,#1214,#1215),(#1216,
#1217,#1218,#1219,#1220,#1221,#1222),(#1223,#1224,#1225,#1226,#1227,#1228,
#1229),(#1230,#1231,#1232,#1233,#1234,#1235,#1236)),.UNSPECIFIED.,.F.,.F.,
 .F.,(4,1,1,1,4),(4,1,1,1,4),(0.,0.285714285714286,0.571428571428571,0.857142857142857,
1.),(-1.5707963267949,-1.12199737628207,-0.897597901025656,-0.448798950512828,
2.77555756156289E-16),.UNSPECIFIED.);
#21=B_SPLINE_CURVE_WITH_KNOTS('',3,(#974,#975,#976,#977,#978,#979,#980,
#981),.UNSPECIFIED.,.F.,.F.,(4,1,1,1,1,4),(-1.57079632679488,-1.12199737628206,
-0.897597901025648,-0.673198425769236,-0.448798950512824,-1.11022302462516E-16),
 .UNSPECIFIED.);
#22=B_SPLINE_CURVE_WITH_KNOTS('',3,(#985,#986,#987,#988,#989,#990,#991),
 .UNSPECIFIED.,.F.,.F.,(4,1,1,1,4),(-6.28318530717959,-6.05878583192317,
-5.60998688141035,-5.16118793089753,-4.7123889803847),.UNSPECIFIED.);
#23=ELLIPSE('',#654,132.059353620433,100.);
#24=ELLIPSE('',#656,132.059353620433,100.);
#25=ELLIPSE('',#661,113.682201211534,100.);
#26=ELLIPSE('',#662,113.682201211534,100.);
#27=ELLIPSE('',#664,23.2839245574101,20.);
#28=ELLIPSE('',#667,39.9115386848503,20.);
#29=ELLIPSE('',#671,39.9115386848503,20.);
#30=ELLIPSE('',#673,23.2839245574103,20.);
#31=ELLIPSE('',#677,31.7862133386219,20.);
#32=ELLIPSE('',#678,47.014501575667,40.);
#33=ELLIPSE('',#682,31.7862133386219,20.);
#34=ELLIPSE('',#683,47.014501575667,40.);
#35=CYLINDRICAL_SURFACE('',#650,299.999999999997);
#36=CYLINDRICAL_SURFACE('',#658,299.999999999997);
#37=CYLINDRICAL_SURFACE('',#663,20.);
#38=CYLINDRICAL_SURFACE('',#668,20.);
#39=CYLINDRICAL_SURFACE('',#672,20.);
#40=CYLINDRICAL_SURFACE('',#674,20.);
#41=CYLINDRICAL_SURFACE('',#679,20.);
#42=CYLINDRICAL_SURFACE('',#684,20.);
#43=CYLINDRICAL_SURFACE('',#686,20.);
#44=CYLINDRICAL_SURFACE('',#689,20.);
#45=CYLINDRICAL_SURFACE('',#698,20.);
#46=CYLINDRICAL_SURFACE('',#699,20.);
#47=CYLINDRICAL_SURFACE('',#700,20.);
#48=CYLINDRICAL_SURFACE('',#703,100.);
#49=CYLINDRICAL_SURFACE('',#705,100.);
#50=CIRCLE('',#644,299.999999999997);
#51=CIRCLE('',#646,299.999999999997);
#52=CIRCLE('',#648,100.);
#53=CIRCLE('',#649,100.);
#54=CIRCLE('',#651,299.999999999997);
#55=CIRCLE('',#659,299.999999999997);
#56=CIRCLE('',#665,20.);
#57=CIRCLE('',#666,20.0000000000004);
#58=CIRCLE('',#669,19.9999999999997);
#59=CIRCLE('',#670,20.);
#60=CIRCLE('',#675,20.);
#61=CIRCLE('',#676,20.0000000000001);
#62=CIRCLE('',#680,20.0000000000001);
#63=CIRCLE('',#681,20.);
#64=CIRCLE('',#687,19.9999999999997);
#65=CIRCLE('',#690,20.);
#66=CIRCLE('',#693,19.9999999999999);
#67=CIRCLE('',#694,19.9999999999992);
#68=CIRCLE('',#696,20.);
#69=CIRCLE('',#697,19.9999999999998);
#70=FACE_OUTER_BOUND('',#107,.T.);
#71=FACE_OUTER_BOUND('',#108,.T.);
#72=FACE_OUTER_BOUND('',#109,.T.);
#73=FACE_OUTER_BOUND('',#110,.T.);
#74=FACE_OUTER_BOUND('',#111,.T.);
#75=FACE_OUTER_BOUND('',#112,.T.);
#76=FACE_OUTER_BOUND('',#113,.T.);
#77=FACE_OUTER_BOUND('',#114,.T.);
#78=FACE_OUTER_BOUND('',#115,.T.);
#79=FACE_OUTER_BOUND('',#116,.T.);
#80=FACE_OUTER_BOUND('',#117,.T.);
#81=FACE_OUTER_BOUND('',#118,.T.);
#82=FACE_OUTER_BOUND('',#119,.T.);
#83=FACE_OUTER_BOUND('',#120,.T.);
#84=FACE_OUTER_BOUND('',#121,.T.);
#85=FACE_OUTER_BOUND('',#122,.T.);
#86=FACE_OUTER_BOUND('',#123,.T.);
#87=FACE_OUTER_BOUND('',#124,.T.);
#88=FACE_OUTER_BOUND('',#125,.T.);
#89=FACE_OUTER_BOUND('',#126,.T.);
#90=FACE_OUTER_BOUND('',#127,.T.);
#91=FACE_OUTER_BOUND('',#128,.T.);
#92=FACE_OUTER_BOUND('',#129,.T.);
#93=FACE_OUTER_BOUND('',#130,.T.);
#94=FACE_OUTER_BOUND('',#131,.T.);
#95=FACE_OUTER_BOUND('',#132,.T.);
#96=FACE_OUTER_BOUND('',#133,.T.);
#97=FACE_OUTER_BOUND('',#134,.T.);
#98=FACE_OUTER_BOUND('',#135,.T.);
#99=FACE_OUTER_BOUND('',#136,.T.);
#100=FACE_OUTER_BOUND('',#137,.T.);
#101=FACE_OUTER_BOUND('',#138,.T.);
#102=FACE_OUTER_BOUND('',#139,.T.);
#103=FACE_OUTER_BOUND('',#140,.T.);
#104=FACE_OUTER_BOUND('',#141,.T.);
#105=FACE_OUTER_BOUND('',#142,.T.);
#106=FACE_OUTER_BOUND('',#143,.T.);
#107=EDGE_LOOP('',(#397,#398,#399,#400));
#108=EDGE_LOOP('',(#401,#402,#403,#404,#405,#406));
#109=EDGE_LOOP('',(#407,#408,#409,#410,#411,#412));
#110=EDGE_LOOP('',(#413,#414,#415,#416,#417,#418,#419,#420,#421,#422));
#111=EDGE_LOOP('',(#423,#424,#425,#426));
#112=EDGE_LOOP('',(#427,#428,#429,#430));
#113=EDGE_LOOP('',(#431,#432,#433,#434,#435));
#114=EDGE_LOOP('',(#436,#437,#438,#439,#440));
#115=EDGE_LOOP('',(#441,#442,#443,#444));
#116=EDGE_LOOP('',(#445,#446,#447,#448));
#117=EDGE_LOOP('',(#449,#450,#451,#452,#453,#454,#455,#456,#457,#458,#459,
#460,#461,#462));
#118=EDGE_LOOP('',(#463,#464,#465,#466));
#119=EDGE_LOOP('',(#467,#468,#469,#470));
#120=EDGE_LOOP('',(#471,#472,#473,#474));
#121=EDGE_LOOP('',(#475,#476,#477,#478));
#122=EDGE_LOOP('',(#479,#480,#481,#482));
#123=EDGE_LOOP('',(#483,#484,#485,#486));
#124=EDGE_LOOP('',(#487,#488,#489,#490));
#125=EDGE_LOOP('',(#491,#492,#493,#494));
#126=EDGE_LOOP('',(#495,#496,#497,#498));
#127=EDGE_LOOP('',(#499,#500,#501,#502));
#128=EDGE_LOOP('',(#503,#504,#505,#506));
#129=EDGE_LOOP('',(#507,#508,#509,#510));
#130=EDGE_LOOP('',(#511,#512,#513,#514));
#131=EDGE_LOOP('',(#515,#516,#517,#518));
#132=EDGE_LOOP('',(#519,#520,#521,#522,#523,#524,#525,#526,#527,#528));
#133=EDGE_LOOP('',(#529,#530,#531));
#134=EDGE_LOOP('',(#532,#533,#534));
#135=EDGE_LOOP('',(#535,#536,#537,#538));
#136=EDGE_LOOP('',(#539,#540,#541,#542));
#137=EDGE_LOOP('',(#543,#544,#545,#546));
#138=EDGE_LOOP('',(#547,#548,#549,#550));
#139=EDGE_LOOP('',(#551,#552,#553,#554));
#140=EDGE_LOOP('',(#555,#556,#557,#558,#559));
#141=EDGE_LOOP('',(#560,#561,#562,#563,#564));
#142=EDGE_LOOP('',(#565,#566,#567,#568,#569));
#143=EDGE_LOOP('',(#570,#571,#572,#573,#574));
#144=LINE('',#898,#199);
#145=LINE('',#900,#200);
#146=LINE('',#902,#201);
#147=LINE('',#903,#202);
#148=LINE('',#906,#203);
#149=LINE('',#908,#204);
#150=LINE('',#910,#205);
#151=LINE('',#913,#206);
#152=LINE('',#916,#207);
#153=LINE('',#920,#208);
#154=LINE('',#922,#209);
#155=LINE('',#923,#210);
#156=LINE('',#926,#211);
#157=LINE('',#928,#212);
#158=LINE('',#932,#213);
#159=LINE('',#936,#214);
#160=LINE('',#937,#215);
#161=LINE('',#941,#216);
#162=LINE('',#944,#217);
#163=LINE('',#945,#218);
#164=LINE('',#948,#219);
#165=LINE('',#951,#220);
#166=LINE('',#957,#221);
#167=LINE('',#958,#222);
#168=LINE('',#959,#223);
#169=LINE('',#962,#224);
#170=LINE('',#963,#225);
#171=LINE('',#970,#226);
#172=LINE('',#972,#227);
#173=LINE('',#983,#228);
#174=LINE('',#993,#229);
#175=LINE('',#995,#230);
#176=LINE('',#1000,#231);
#177=LINE('',#1058,#232);
#178=LINE('',#1121,#233);
#179=LINE('',#1124,#234);
#180=LINE('',#1126,#235);
#181=LINE('',#1186,#236);
#182=LINE('',#1187,#237);
#183=LINE('',#1243,#238);
#184=LINE('',#1244,#239);
#185=LINE('',#1247,#240);
#186=LINE('',#1248,#241);
#187=LINE('',#1252,#242);
#188=LINE('',#1255,#243);
#189=LINE('',#1256,#244);
#190=LINE('',#1260,#245);
#191=LINE('',#1262,#246);
#192=LINE('',#1263,#247);
#193=LINE('',#1273,#248);
#194=LINE('',#1275,#249);
#195=LINE('',#1277,#250);
#196=LINE('',#1278,#251);
#197=LINE('',#1282,#252);
#198=LINE('',#1285,#253);
#199=VECTOR('',#711,10.);
#200=VECTOR('',#712,10.);
#201=VECTOR('',#713,10.);
#202=VECTOR('',#714,10.);
#203=VECTOR('',#717,10.);
#204=VECTOR('',#718,10.);
#205=VECTOR('',#719,10.);
#206=VECTOR('',#722,10.);
#207=VECTOR('',#725,10.);
#208=VECTOR('',#728,10.);
#209=VECTOR('',#729,10.);
#210=VECTOR('',#730,10.);
#211=VECTOR('',#733,10.);
#212=VECTOR('',#734,10.);
#213=VECTOR('',#737,10.);
#214=VECTOR('',#740,10.);
#215=VECTOR('',#741,10.);
#216=VECTOR('',#746,10.);
#217=VECTOR('',#749,10.);
#218=VECTOR('',#750,10.);
#219=VECTOR('',#753,10.);
#220=VECTOR('',#756,10.);
#221=VECTOR('',#761,10.);
#222=VECTOR('',#762,10.);
#223=VECTOR('',#763,10.);
#224=VECTOR('',#766,10.);
#225=VECTOR('',#767,10.);
#226=VECTOR('',#776,10.);
#227=VECTOR('',#777,10.);
#228=VECTOR('',#778,10.);
#229=VECTOR('',#779,10.);
#230=VECTOR('',#780,10.);
#231=VECTOR('',#785,10.);
#232=VECTOR('',#798,10.);
#233=VECTOR('',#807,10.);
#234=VECTOR('',#810,10.);
#235=VECTOR('',#811,10.);
#236=VECTOR('',#824,10.);
#237=VECTOR('',#825,10.);
#238=VECTOR('',#834,10.);
#239=VECTOR('',#835,10.);
#240=VECTOR('',#838,10.);
#241=VECTOR('',#839,10.);
#242=VECTOR('',#844,10.);
#243=VECTOR('',#847,10.);
#244=VECTOR('',#848,10.);
#245=VECTOR('',#853,10.);
#246=VECTOR('',#856,10.);
#247=VECTOR('',#857,10.);
#248=VECTOR('',#872,10.);
#249=VECTOR('',#875,10.);
#250=VECTOR('',#878,10.);
#251=VECTOR('',#879,10.);
#252=VECTOR('',#886,10.);
#253=VECTOR('',#891,10.);
#254=VERTEX_POINT('',#896);
#255=VERTEX_POINT('',#897);
#256=VERTEX_POINT('',#899);
#257=VERTEX_POINT('',#901);
#258=VERTEX_POINT('',#905);
#259=VERTEX_POINT('',#907);
#260=VERTEX_POINT('',#909);
#261=VERTEX_POINT('',#911);
#262=VERTEX_POINT('',#915);
#263=VERTEX_POINT('',#917);
#264=VERTEX_POINT('',#919);
#265=VERTEX_POINT('',#921);
#266=VERTEX_POINT('',#925);
#267=VERTEX_POINT('',#927);
#268=VERTEX_POINT('',#929);
#269=VERTEX_POINT('',#931);
#270=VERTEX_POINT('',#933);
#271=VERTEX_POINT('',#935);
#272=VERTEX_POINT('',#939);
#273=VERTEX_POINT('',#943);
#274=VERTEX_POINT('',#947);
#275=VERTEX_POINT('',#949);
#276=VERTEX_POINT('',#953);
#277=VERTEX_POINT('',#954);
#278=VERTEX_POINT('',#956);
#279=VERTEX_POINT('',#961);
#280=VERTEX_POINT('',#967);
#281=VERTEX_POINT('',#969);
#282=VERTEX_POINT('',#971);
#283=VERTEX_POINT('',#973);
#284=VERTEX_POINT('',#982);
#285=VERTEX_POINT('',#984);
#286=VERTEX_POINT('',#992);
#287=VERTEX_POINT('',#994);
#288=VERTEX_POINT('',#998);
#289=VERTEX_POINT('',#999);
#290=VERTEX_POINT('',#1052);
#291=VERTEX_POINT('',#1056);
#292=VERTEX_POINT('',#1115);
#293=VERTEX_POINT('',#1119);
#294=VERTEX_POINT('',#1123);
#295=VERTEX_POINT('',#1125);
#296=VERTEX_POINT('',#1177);
#297=VERTEX_POINT('',#1178);
#298=VERTEX_POINT('',#1183);
#299=VERTEX_POINT('',#1184);
#300=VERTEX_POINT('',#1237);
#301=VERTEX_POINT('',#1238);
#302=VERTEX_POINT('',#1246);
#303=VERTEX_POINT('',#1250);
#304=VERTEX_POINT('',#1254);
#305=VERTEX_POINT('',#1258);
#306=VERTEX_POINT('',#1265);
#307=VERTEX_POINT('',#1269);
#308=EDGE_CURVE('',#254,#255,#144,.T.);
#309=EDGE_CURVE('',#256,#254,#145,.T.);
#310=EDGE_CURVE('',#257,#256,#146,.T.);
#311=EDGE_CURVE('',#255,#257,#147,.T.);
#312=EDGE_CURVE('',#258,#255,#148,.T.);
#313=EDGE_CURVE('',#259,#258,#149,.F.);
#314=EDGE_CURVE('',#260,#259,#150,.F.);
#315=EDGE_CURVE('',#261,#260,#50,.F.);
#316=EDGE_CURVE('',#254,#261,#151,.F.);
#317=EDGE_CURVE('',#256,#262,#152,.T.);
#318=EDGE_CURVE('',#262,#263,#51,.T.);
#319=EDGE_CURVE('',#263,#264,#153,.T.);
#320=EDGE_CURVE('',#264,#265,#154,.T.);
#321=EDGE_CURVE('',#265,#257,#155,.T.);
#322=EDGE_CURVE('',#261,#266,#156,.T.);
#323=EDGE_CURVE('',#266,#267,#157,.T.);
#324=EDGE_CURVE('',#267,#268,#52,.T.);
#325=EDGE_CURVE('',#268,#269,#158,.T.);
#326=EDGE_CURVE('',#269,#270,#53,.T.);
#327=EDGE_CURVE('',#270,#271,#159,.T.);
#328=EDGE_CURVE('',#271,#262,#160,.T.);
#329=EDGE_CURVE('',#271,#272,#54,.T.);
#330=EDGE_CURVE('',#272,#263,#161,.T.);
#331=EDGE_CURVE('',#272,#273,#162,.T.);
#332=EDGE_CURVE('',#273,#264,#163,.T.);
#333=EDGE_CURVE('',#273,#274,#164,.T.);
#334=EDGE_CURVE('',#274,#275,#23,.T.);
#335=EDGE_CURVE('',#275,#265,#165,.T.);
#336=EDGE_CURVE('',#276,#277,#24,.T.);
#337=EDGE_CURVE('',#277,#278,#166,.T.);
#338=EDGE_CURVE('',#259,#278,#167,.T.);
#339=EDGE_CURVE('',#258,#276,#168,.T.);
#340=EDGE_CURVE('',#278,#279,#169,.T.);
#341=EDGE_CURVE('',#260,#279,#170,.T.);
#342=EDGE_CURVE('',#279,#266,#55,.T.);
#343=EDGE_CURVE('',#275,#280,#25,.T.);
#344=EDGE_CURVE('',#280,#281,#171,.T.);
#345=EDGE_CURVE('',#281,#282,#172,.T.);
#346=EDGE_CURVE('',#282,#283,#21,.T.);
#347=EDGE_CURVE('',#283,#284,#173,.T.);
#348=EDGE_CURVE('',#284,#285,#22,.T.);
#349=EDGE_CURVE('',#285,#286,#174,.T.);
#350=EDGE_CURVE('',#286,#287,#175,.T.);
#351=EDGE_CURVE('',#287,#276,#26,.T.);
#352=EDGE_CURVE('',#288,#289,#176,.T.);
#353=EDGE_CURVE('',#288,#286,#27,.T.);
#354=EDGE_CURVE('',#289,#285,#56,.T.);
#355=EDGE_CURVE('',#290,#284,#57,.T.);
#356=EDGE_CURVE('',#289,#290,#28,.T.);
#357=EDGE_CURVE('',#291,#283,#58,.T.);
#358=EDGE_CURVE('',#290,#291,#177,.T.);
#359=EDGE_CURVE('',#292,#282,#59,.T.);
#360=EDGE_CURVE('',#291,#292,#29,.T.);
#361=EDGE_CURVE('',#293,#281,#30,.T.);
#362=EDGE_CURVE('',#292,#293,#178,.T.);
#363=EDGE_CURVE('',#293,#294,#179,.T.);
#364=EDGE_CURVE('',#295,#281,#180,.T.);
#365=EDGE_CURVE('',#294,#295,#60,.T.);
#366=EDGE_CURVE('',#296,#297,#61,.T.);
#367=EDGE_CURVE('',#294,#296,#31,.T.);
#368=EDGE_CURVE('',#297,#295,#32,.T.);
#369=EDGE_CURVE('',#298,#299,#62,.T.);
#370=EDGE_CURVE('',#296,#298,#181,.T.);
#371=EDGE_CURVE('',#299,#297,#182,.T.);
#372=EDGE_CURVE('',#300,#301,#63,.T.);
#373=EDGE_CURVE('',#298,#300,#33,.T.);
#374=EDGE_CURVE('',#301,#299,#34,.T.);
#375=EDGE_CURVE('',#286,#301,#183,.T.);
#376=EDGE_CURVE('',#300,#288,#184,.T.);
#377=EDGE_CURVE('',#294,#302,#185,.T.);
#378=EDGE_CURVE('',#302,#292,#186,.T.);
#379=EDGE_CURVE('',#303,#302,#64,.F.);
#380=EDGE_CURVE('',#291,#303,#187,.T.);
#381=EDGE_CURVE('',#303,#304,#188,.T.);
#382=EDGE_CURVE('',#304,#290,#189,.T.);
#383=EDGE_CURVE('',#305,#304,#65,.F.);
#384=EDGE_CURVE('',#289,#305,#190,.T.);
#385=EDGE_CURVE('',#269,#280,#191,.T.);
#386=EDGE_CURVE('',#268,#287,#192,.T.);
#387=EDGE_CURVE('',#306,#305,#66,.F.);
#388=EDGE_CURVE('',#304,#306,#67,.F.);
#389=EDGE_CURVE('',#302,#307,#68,.F.);
#390=EDGE_CURVE('',#307,#303,#69,.F.);
#391=EDGE_CURVE('',#306,#307,#193,.T.);
#392=EDGE_CURVE('',#307,#296,#194,.T.);
#393=EDGE_CURVE('',#305,#300,#195,.T.);
#394=EDGE_CURVE('',#298,#306,#196,.T.);
#395=EDGE_CURVE('',#274,#270,#197,.T.);
#396=EDGE_CURVE('',#277,#267,#198,.T.);
#397=ORIENTED_EDGE('',*,*,#308,.F.);
#398=ORIENTED_EDGE('',*,*,#309,.F.);
#399=ORIENTED_EDGE('',*,*,#310,.F.);
#400=ORIENTED_EDGE('',*,*,#311,.F.);
#401=ORIENTED_EDGE('',*,*,#308,.T.);
#402=ORIENTED_EDGE('',*,*,#312,.F.);
#403=ORIENTED_EDGE('',*,*,#313,.F.);
#404=ORIENTED_EDGE('',*,*,#314,.F.);
#405=ORIENTED_EDGE('',*,*,#315,.F.);
#406=ORIENTED_EDGE('',*,*,#316,.F.);
#407=ORIENTED_EDGE('',*,*,#310,.T.);
#408=ORIENTED_EDGE('',*,*,#317,.T.);
#409=ORIENTED_EDGE('',*,*,#318,.T.);
#410=ORIENTED_EDGE('',*,*,#319,.T.);
#411=ORIENTED_EDGE('',*,*,#320,.T.);
#412=ORIENTED_EDGE('',*,*,#321,.T.);
#413=ORIENTED_EDGE('',*,*,#309,.T.);
#414=ORIENTED_EDGE('',*,*,#316,.T.);
#415=ORIENTED_EDGE('',*,*,#322,.T.);
#416=ORIENTED_EDGE('',*,*,#323,.T.);
#417=ORIENTED_EDGE('',*,*,#324,.T.);
#418=ORIENTED_EDGE('',*,*,#325,.T.);
#419=ORIENTED_EDGE('',*,*,#326,.T.);
#420=ORIENTED_EDGE('',*,*,#327,.T.);
#421=ORIENTED_EDGE('',*,*,#328,.T.);
#422=ORIENTED_EDGE('',*,*,#317,.F.);
#423=ORIENTED_EDGE('',*,*,#329,.T.);
#424=ORIENTED_EDGE('',*,*,#330,.T.);
#425=ORIENTED_EDGE('',*,*,#318,.F.);
#426=ORIENTED_EDGE('',*,*,#328,.F.);
#427=ORIENTED_EDGE('',*,*,#331,.T.);
#428=ORIENTED_EDGE('',*,*,#332,.T.);
#429=ORIENTED_EDGE('',*,*,#319,.F.);
#430=ORIENTED_EDGE('',*,*,#330,.F.);
#431=ORIENTED_EDGE('',*,*,#333,.T.);
#432=ORIENTED_EDGE('',*,*,#334,.T.);
#433=ORIENTED_EDGE('',*,*,#335,.T.);
#434=ORIENTED_EDGE('',*,*,#320,.F.);
#435=ORIENTED_EDGE('',*,*,#332,.F.);
#436=ORIENTED_EDGE('',*,*,#336,.T.);
#437=ORIENTED_EDGE('',*,*,#337,.T.);
#438=ORIENTED_EDGE('',*,*,#338,.F.);
#439=ORIENTED_EDGE('',*,*,#313,.T.);
#440=ORIENTED_EDGE('',*,*,#339,.T.);
#441=ORIENTED_EDGE('',*,*,#340,.T.);
#442=ORIENTED_EDGE('',*,*,#341,.F.);
#443=ORIENTED_EDGE('',*,*,#314,.T.);
#444=ORIENTED_EDGE('',*,*,#338,.T.);
#445=ORIENTED_EDGE('',*,*,#342,.T.);
#446=ORIENTED_EDGE('',*,*,#322,.F.);
#447=ORIENTED_EDGE('',*,*,#315,.T.);
#448=ORIENTED_EDGE('',*,*,#341,.T.);
#449=ORIENTED_EDGE('',*,*,#311,.T.);
#450=ORIENTED_EDGE('',*,*,#321,.F.);
#451=ORIENTED_EDGE('',*,*,#335,.F.);
#452=ORIENTED_EDGE('',*,*,#343,.T.);
#453=ORIENTED_EDGE('',*,*,#344,.T.);
#454=ORIENTED_EDGE('',*,*,#345,.T.);
#455=ORIENTED_EDGE('',*,*,#346,.T.);
#456=ORIENTED_EDGE('',*,*,#347,.T.);
#457=ORIENTED_EDGE('',*,*,#348,.T.);
#458=ORIENTED_EDGE('',*,*,#349,.T.);
#459=ORIENTED_EDGE('',*,*,#350,.T.);
#460=ORIENTED_EDGE('',*,*,#351,.T.);
#461=ORIENTED_EDGE('',*,*,#339,.F.);
#462=ORIENTED_EDGE('',*,*,#312,.T.);
#463=ORIENTED_EDGE('',*,*,#352,.F.);
#464=ORIENTED_EDGE('',*,*,#353,.T.);
#465=ORIENTED_EDGE('',*,*,#349,.F.);
#466=ORIENTED_EDGE('',*,*,#354,.F.);
#467=ORIENTED_EDGE('',*,*,#355,.F.);
#468=ORIENTED_EDGE('',*,*,#356,.F.);
#469=ORIENTED_EDGE('',*,*,#354,.T.);
#470=ORIENTED_EDGE('',*,*,#348,.F.);
#471=ORIENTED_EDGE('',*,*,#357,.F.);
#472=ORIENTED_EDGE('',*,*,#358,.F.);
#473=ORIENTED_EDGE('',*,*,#355,.T.);
#474=ORIENTED_EDGE('',*,*,#347,.F.);
#475=ORIENTED_EDGE('',*,*,#359,.F.);
#476=ORIENTED_EDGE('',*,*,#360,.F.);
#477=ORIENTED_EDGE('',*,*,#357,.T.);
#478=ORIENTED_EDGE('',*,*,#346,.F.);
#479=ORIENTED_EDGE('',*,*,#345,.F.);
#480=ORIENTED_EDGE('',*,*,#361,.F.);
#481=ORIENTED_EDGE('',*,*,#362,.F.);
#482=ORIENTED_EDGE('',*,*,#359,.T.);
#483=ORIENTED_EDGE('',*,*,#363,.F.);
#484=ORIENTED_EDGE('',*,*,#361,.T.);
#485=ORIENTED_EDGE('',*,*,#364,.F.);
#486=ORIENTED_EDGE('',*,*,#365,.F.);
#487=ORIENTED_EDGE('',*,*,#366,.F.);
#488=ORIENTED_EDGE('',*,*,#367,.F.);
#489=ORIENTED_EDGE('',*,*,#365,.T.);
#490=ORIENTED_EDGE('',*,*,#368,.F.);
#491=ORIENTED_EDGE('',*,*,#369,.F.);
#492=ORIENTED_EDGE('',*,*,#370,.F.);
#493=ORIENTED_EDGE('',*,*,#366,.T.);
#494=ORIENTED_EDGE('',*,*,#371,.F.);
#495=ORIENTED_EDGE('',*,*,#372,.F.);
#496=ORIENTED_EDGE('',*,*,#373,.F.);
#497=ORIENTED_EDGE('',*,*,#369,.T.);
#498=ORIENTED_EDGE('',*,*,#374,.F.);
#499=ORIENTED_EDGE('',*,*,#375,.F.);
#500=ORIENTED_EDGE('',*,*,#353,.F.);
#501=ORIENTED_EDGE('',*,*,#376,.F.);
#502=ORIENTED_EDGE('',*,*,#372,.T.);
#503=ORIENTED_EDGE('',*,*,#363,.T.);
#504=ORIENTED_EDGE('',*,*,#377,.T.);
#505=ORIENTED_EDGE('',*,*,#378,.T.);
#506=ORIENTED_EDGE('',*,*,#362,.T.);
#507=ORIENTED_EDGE('',*,*,#360,.T.);
#508=ORIENTED_EDGE('',*,*,#378,.F.);
#509=ORIENTED_EDGE('',*,*,#379,.F.);
#510=ORIENTED_EDGE('',*,*,#380,.F.);
#511=ORIENTED_EDGE('',*,*,#358,.T.);
#512=ORIENTED_EDGE('',*,*,#380,.T.);
#513=ORIENTED_EDGE('',*,*,#381,.T.);
#514=ORIENTED_EDGE('',*,*,#382,.T.);
#515=ORIENTED_EDGE('',*,*,#356,.T.);
#516=ORIENTED_EDGE('',*,*,#382,.F.);
#517=ORIENTED_EDGE('',*,*,#383,.F.);
#518=ORIENTED_EDGE('',*,*,#384,.F.);
#519=ORIENTED_EDGE('',*,*,#364,.T.);
#520=ORIENTED_EDGE('',*,*,#344,.F.);
#521=ORIENTED_EDGE('',*,*,#385,.F.);
#522=ORIENTED_EDGE('',*,*,#325,.F.);
#523=ORIENTED_EDGE('',*,*,#386,.T.);
#524=ORIENTED_EDGE('',*,*,#350,.F.);
#525=ORIENTED_EDGE('',*,*,#375,.T.);
#526=ORIENTED_EDGE('',*,*,#374,.T.);
#527=ORIENTED_EDGE('',*,*,#371,.T.);
#528=ORIENTED_EDGE('',*,*,#368,.T.);
#529=ORIENTED_EDGE('',*,*,#387,.T.);
#530=ORIENTED_EDGE('',*,*,#383,.T.);
#531=ORIENTED_EDGE('',*,*,#388,.T.);
#532=ORIENTED_EDGE('',*,*,#389,.T.);
#533=ORIENTED_EDGE('',*,*,#390,.T.);
#534=ORIENTED_EDGE('',*,*,#379,.T.);
#535=ORIENTED_EDGE('',*,*,#390,.F.);
#536=ORIENTED_EDGE('',*,*,#391,.F.);
#537=ORIENTED_EDGE('',*,*,#388,.F.);
#538=ORIENTED_EDGE('',*,*,#381,.F.);
#539=ORIENTED_EDGE('',*,*,#367,.T.);
#540=ORIENTED_EDGE('',*,*,#392,.F.);
#541=ORIENTED_EDGE('',*,*,#389,.F.);
#542=ORIENTED_EDGE('',*,*,#377,.F.);
#543=ORIENTED_EDGE('',*,*,#373,.T.);
#544=ORIENTED_EDGE('',*,*,#393,.F.);
#545=ORIENTED_EDGE('',*,*,#387,.F.);
#546=ORIENTED_EDGE('',*,*,#394,.F.);
#547=ORIENTED_EDGE('',*,*,#370,.T.);
#548=ORIENTED_EDGE('',*,*,#394,.T.);
#549=ORIENTED_EDGE('',*,*,#391,.T.);
#550=ORIENTED_EDGE('',*,*,#392,.T.);
#551=ORIENTED_EDGE('',*,*,#376,.T.);
#552=ORIENTED_EDGE('',*,*,#352,.T.);
#553=ORIENTED_EDGE('',*,*,#384,.T.);
#554=ORIENTED_EDGE('',*,*,#393,.T.);
#555=ORIENTED_EDGE('',*,*,#343,.F.);
#556=ORIENTED_EDGE('',*,*,#334,.F.);
#557=ORIENTED_EDGE('',*,*,#395,.T.);
#558=ORIENTED_EDGE('',*,*,#326,.F.);
#559=ORIENTED_EDGE('',*,*,#385,.T.);
#560=ORIENTED_EDGE('',*,*,#331,.F.);
#561=ORIENTED_EDGE('',*,*,#329,.F.);
#562=ORIENTED_EDGE('',*,*,#327,.F.);
#563=ORIENTED_EDGE('',*,*,#395,.F.);
#564=ORIENTED_EDGE('',*,*,#333,.F.);
#565=ORIENTED_EDGE('',*,*,#351,.F.);
#566=ORIENTED_EDGE('',*,*,#386,.F.);
#567=ORIENTED_EDGE('',*,*,#324,.F.);
#568=ORIENTED_EDGE('',*,*,#396,.F.);
#569=ORIENTED_EDGE('',*,*,#336,.F.);
#570=ORIENTED_EDGE('',*,*,#340,.F.);
#571=ORIENTED_EDGE('',*,*,#337,.F.);
#572=ORIENTED_EDGE('',*,*,#396,.T.);
#573=ORIENTED_EDGE('',*,*,#323,.F.);
#574=ORIENTED_EDGE('',*,*,#342,.F.);
#575=PLANE('',#642);
#576=PLANE('',#643);
#577=PLANE('',#645);
#578=PLANE('',#647);
#579=PLANE('',#652);
#580=PLANE('',#653);
#581=PLANE('',#655);
#582=PLANE('',#657);
#583=PLANE('',#660);
#584=PLANE('',#685);
#585=PLANE('',#688);
#586=PLANE('',#691);
#587=PLANE('',#701);
#588=PLANE('',#702);
#589=PLANE('',#704);
#590=PLANE('',#706);
#591=ADVANCED_FACE('',(#70),#575,.F.);
#592=ADVANCED_FACE('',(#71),#576,.F.);
#593=ADVANCED_FACE('',(#72),#577,.T.);
#594=ADVANCED_FACE('',(#73),#578,.T.);
#595=ADVANCED_FACE('',(#74),#35,.T.);
#596=ADVANCED_FACE('',(#75),#579,.T.);
#597=ADVANCED_FACE('',(#76),#580,.T.);
#598=ADVANCED_FACE('',(#77),#581,.T.);
#599=ADVANCED_FACE('',(#78),#582,.T.);
#600=ADVANCED_FACE('',(#79),#36,.T.);
#601=ADVANCED_FACE('',(#80),#583,.T.);
#602=ADVANCED_FACE('',(#81),#37,.T.);
#603=ADVANCED_FACE('',(#82),#17,.F.);
#604=ADVANCED_FACE('',(#83),#38,.T.);
#605=ADVANCED_FACE('',(#84),#18,.F.);
#606=ADVANCED_FACE('',(#85),#39,.T.);
#607=ADVANCED_FACE('',(#86),#40,.T.);
#608=ADVANCED_FACE('',(#87),#19,.F.);
#609=ADVANCED_FACE('',(#88),#41,.T.);
#610=ADVANCED_FACE('',(#89),#20,.F.);
#611=ADVANCED_FACE('',(#90),#42,.T.);
#612=ADVANCED_FACE('',(#91),#584,.T.);
#613=ADVANCED_FACE('',(#92),#43,.F.);
#614=ADVANCED_FACE('',(#93),#585,.F.);
#615=ADVANCED_FACE('',(#94),#44,.F.);
#616=ADVANCED_FACE('',(#95),#586,.F.);
#617=ADVANCED_FACE('',(#96),#15,.F.);
#618=ADVANCED_FACE('',(#97),#16,.F.);
#619=ADVANCED_FACE('',(#98),#45,.F.);
#620=ADVANCED_FACE('',(#99),#46,.F.);
#621=ADVANCED_FACE('',(#100),#47,.F.);
#622=ADVANCED_FACE('',(#101),#587,.F.);
#623=ADVANCED_FACE('',(#102),#588,.T.);
#624=ADVANCED_FACE('',(#103),#48,.F.);
#625=ADVANCED_FACE('',(#104),#589,.F.);
#626=ADVANCED_FACE('',(#105),#49,.F.);
#627=ADVANCED_FACE('',(#106),#590,.T.);
#628=CLOSED_SHELL('',(#591,#592,#593,#594,#595,#596,#597,#598,#599,#600,
#601,#602,#603,#604,#605,#606,#607,#608,#609,#610,#611,#612,#613,#614,#615,
#616,#617,#618,#619,#620,#621,#622,#623,#624,#625,#626,#627));
#629=DERIVED_UNIT_ELEMENT(#631,1.);
#630=DERIVED_UNIT_ELEMENT(#1292,-3.);
#631=(
MASS_UNIT()
NAMED_UNIT(*)
SI_UNIT(.KILO.,.GRAM.)
);
#632=DERIVED_UNIT((#629,#630));
#633=MEASURE_REPRESENTATION_ITEM('density measure',
POSITIVE_RATIO_MEASURE(7850.),#632);
#634=PROPERTY_DEFINITION_REPRESENTATION(#639,#636);
#635=PROPERTY_DEFINITION_REPRESENTATION(#640,#637);
#636=REPRESENTATION('material name',(#638),#1289);
#637=REPRESENTATION('density',(#633),#1289);
#638=DESCRIPTIVE_REPRESENTATION_ITEM('Steel','Steel');
#639=PROPERTY_DEFINITION('material property','material name',#1299);
#640=PROPERTY_DEFINITION('material property','density of part',#1299);
#641=AXIS2_PLACEMENT_3D('',#894,#707,#708);
#642=AXIS2_PLACEMENT_3D('',#895,#709,#710);
#643=AXIS2_PLACEMENT_3D('',#904,#715,#716);
#644=AXIS2_PLACEMENT_3D('',#912,#720,#721);
#645=AXIS2_PLACEMENT_3D('',#914,#723,#724);
#646=AXIS2_PLACEMENT_3D('',#918,#726,#727);
#647=AXIS2_PLACEMENT_3D('',#924,#731,#732);
#648=AXIS2_PLACEMENT_3D('',#930,#735,#736);
#649=AXIS2_PLACEMENT_3D('',#934,#738,#739);
#650=AXIS2_PLACEMENT_3D('',#938,#742,#743);
#651=AXIS2_PLACEMENT_3D('',#940,#744,#745);
#652=AXIS2_PLACEMENT_3D('',#942,#747,#748);
#653=AXIS2_PLACEMENT_3D('',#946,#751,#752);
#654=AXIS2_PLACEMENT_3D('',#950,#754,#755);
#655=AXIS2_PLACEMENT_3D('',#952,#757,#758);
#656=AXIS2_PLACEMENT_3D('',#955,#759,#760);
#657=AXIS2_PLACEMENT_3D('',#960,#764,#765);
#658=AXIS2_PLACEMENT_3D('',#964,#768,#769);
#659=AXIS2_PLACEMENT_3D('',#965,#770,#771);
#660=AXIS2_PLACEMENT_3D('',#966,#772,#773);
#661=AXIS2_PLACEMENT_3D('',#968,#774,#775);
#662=AXIS2_PLACEMENT_3D('',#996,#781,#782);
#663=AXIS2_PLACEMENT_3D('',#997,#783,#784);
#664=AXIS2_PLACEMENT_3D('',#1001,#786,#787);
#665=AXIS2_PLACEMENT_3D('',#1002,#788,#789);
#666=AXIS2_PLACEMENT_3D('',#1053,#790,#791);
#667=AXIS2_PLACEMENT_3D('',#1054,#792,#793);
#668=AXIS2_PLACEMENT_3D('',#1055,#794,#795);
#669=AXIS2_PLACEMENT_3D('',#1057,#796,#797);
#670=AXIS2_PLACEMENT_3D('',#1116,#799,#800);
#671=AXIS2_PLACEMENT_3D('',#1117,#801,#802);
#672=AXIS2_PLACEMENT_3D('',#1118,#803,#804);
#673=AXIS2_PLACEMENT_3D('',#1120,#805,#806);
#674=AXIS2_PLACEMENT_3D('',#1122,#808,#809);
#675=AXIS2_PLACEMENT_3D('',#1127,#812,#813);
#676=AXIS2_PLACEMENT_3D('',#1179,#814,#815);
#677=AXIS2_PLACEMENT_3D('',#1180,#816,#817);
#678=AXIS2_PLACEMENT_3D('',#1181,#818,#819);
#679=AXIS2_PLACEMENT_3D('',#1182,#820,#821);
#680=AXIS2_PLACEMENT_3D('',#1185,#822,#823);
#681=AXIS2_PLACEMENT_3D('',#1239,#826,#827);
#682=AXIS2_PLACEMENT_3D('',#1240,#828,#829);
#683=AXIS2_PLACEMENT_3D('',#1241,#830,#831);
#684=AXIS2_PLACEMENT_3D('',#1242,#832,#833);
#685=AXIS2_PLACEMENT_3D('',#1245,#836,#837);
#686=AXIS2_PLACEMENT_3D('',#1249,#840,#841);
#687=AXIS2_PLACEMENT_3D('',#1251,#842,#843);
#688=AXIS2_PLACEMENT_3D('',#1253,#845,#846);
#689=AXIS2_PLACEMENT_3D('',#1257,#849,#850);
#690=AXIS2_PLACEMENT_3D('',#1259,#851,#852);
#691=AXIS2_PLACEMENT_3D('',#1261,#854,#855);
#692=AXIS2_PLACEMENT_3D('',#1264,#858,#859);
#693=AXIS2_PLACEMENT_3D('',#1266,#860,#861);
#694=AXIS2_PLACEMENT_3D('',#1267,#862,#863);
#695=AXIS2_PLACEMENT_3D('',#1268,#864,#865);
#696=AXIS2_PLACEMENT_3D('',#1270,#866,#867);
#697=AXIS2_PLACEMENT_3D('',#1271,#868,#869);
#698=AXIS2_PLACEMENT_3D('',#1272,#870,#871);
#699=AXIS2_PLACEMENT_3D('',#1274,#873,#874);
#700=AXIS2_PLACEMENT_3D('',#1276,#876,#877);
#701=AXIS2_PLACEMENT_3D('',#1279,#880,#881);
#702=AXIS2_PLACEMENT_3D('',#1280,#882,#883);
#703=AXIS2_PLACEMENT_3D('',#1281,#884,#885);
#704=AXIS2_PLACEMENT_3D('',#1283,#887,#888);
#705=AXIS2_PLACEMENT_3D('',#1284,#889,#890);
#706=AXIS2_PLACEMENT_3D('',#1286,#892,#893);
#707=DIRECTION('axis',(0.,0.,1.));
#708=DIRECTION('refdir',(1.,0.,0.));
#709=DIRECTION('center_axis',(0.,1.,0.));
#710=DIRECTION('ref_axis',(0.,0.,-1.));
#711=DIRECTION('',(0.,0.,1.));
#712=DIRECTION('',(-1.,0.,0.));
#713=DIRECTION('',(0.,0.,-1.));
#714=DIRECTION('',(1.,0.,0.));
#715=DIRECTION('center_axis',(1.,0.,0.));
#716=DIRECTION('ref_axis',(0.,1.,0.));
#717=DIRECTION('',(0.,-0.879645176943093,0.475630489645853));
#718=DIRECTION('',(0.,0.757235267767716,-0.653142212116746));
#719=DIRECTION('',(0.,0.,-1.));
#720=DIRECTION('center_axis',(-1.,0.,0.));
#721=DIRECTION('ref_axis',(0.,-5.68434188608084E-15,-1.));
#722=DIRECTION('',(0.,-1.,0.));
#723=DIRECTION('center_axis',(1.,0.,0.));
#724=DIRECTION('ref_axis',(0.,1.,0.));
#725=DIRECTION('',(0.,1.,0.));
#726=DIRECTION('center_axis',(1.,0.,0.));
#727=DIRECTION('ref_axis',(0.,-5.68434188608084E-15,-1.));
#728=DIRECTION('',(0.,0.,1.));
#729=DIRECTION('',(0.,-0.757235267767716,0.653142212116746));
#730=DIRECTION('',(0.,-0.879645176943093,0.475630489645853));
#731=DIRECTION('center_axis',(0.,0.,-1.));
#732=DIRECTION('ref_axis',(0.,1.,0.));
#733=DIRECTION('',(1.,0.,0.));
#734=DIRECTION('',(0.,-1.,0.));
#735=DIRECTION('center_axis',(0.,0.,1.));
#736=DIRECTION('ref_axis',(-0.707106781186547,-0.707106781186547,0.));
#737=DIRECTION('',(1.,0.,0.));
#738=DIRECTION('center_axis',(0.,0.,1.));
#739=DIRECTION('ref_axis',(0.707106781186547,-0.707106781186547,0.));
#740=DIRECTION('',(0.,1.,0.));
#741=DIRECTION('',(1.,0.,0.));
#742=DIRECTION('center_axis',(1.,0.,0.));
#743=DIRECTION('ref_axis',(0.,-5.68434188608084E-15,-1.));
#744=DIRECTION('center_axis',(1.,0.,0.));
#745=DIRECTION('ref_axis',(0.,-5.68434188608084E-15,-1.));
#746=DIRECTION('',(1.,0.,0.));
#747=DIRECTION('center_axis',(0.,1.,0.));
#748=DIRECTION('ref_axis',(0.,0.,1.));
#749=DIRECTION('',(0.,0.,1.));
#750=DIRECTION('',(1.,0.,0.));
#751=DIRECTION('center_axis',(0.,0.653142212116746,0.757235267767716));
#752=DIRECTION('ref_axis',(0.,-0.757235267767716,0.653142212116746));
#753=DIRECTION('',(0.,-0.757235267767716,0.653142212116746));
#754=DIRECTION('center_axis',(0.,-0.653142212116746,-0.757235267767716));
#755=DIRECTION('ref_axis',(0.,-0.757235267767716,0.653142212116746));
#756=DIRECTION('',(1.,0.,0.));
#757=DIRECTION('center_axis',(0.,0.653142212116746,0.757235267767716));
#758=DIRECTION('ref_axis',(0.,-0.757235267767716,0.653142212116746));
#759=DIRECTION('center_axis',(0.,-0.653142212116746,-0.757235267767716));
#760=DIRECTION('ref_axis',(0.,-0.757235267767716,0.653142212116746));
#761=DIRECTION('',(0.,0.757235267767716,-0.653142212116746));
#762=DIRECTION('',(1.,0.,0.));
#763=DIRECTION('',(1.,0.,0.));
#764=DIRECTION('center_axis',(0.,1.,0.));
#765=DIRECTION('ref_axis',(0.,0.,1.));
#766=DIRECTION('',(0.,0.,-1.));
#767=DIRECTION('',(1.,0.,0.));
#768=DIRECTION('center_axis',(1.,0.,0.));
#769=DIRECTION('ref_axis',(0.,-5.68434188608084E-15,-1.));
#770=DIRECTION('center_axis',(-1.,0.,0.));
#771=DIRECTION('ref_axis',(0.,-5.68434188608084E-15,-1.));
#772=DIRECTION('center_axis',(0.,0.475630489645853,0.879645176943093));
#773=DIRECTION('ref_axis',(0.,-0.879645176943093,0.475630489645853));
#774=DIRECTION('center_axis',(0.,-0.475630489645853,-0.879645176943093));
#775=DIRECTION('ref_axis',(0.,-0.879645176943093,0.475630489645853));
#776=DIRECTION('',(-1.,0.,0.));
#777=DIRECTION('',(0.,-0.879645176943093,0.475630489645853));
#778=DIRECTION('',(-1.,2.31097593363656E-17,-1.24956135006064E-17));
#779=DIRECTION('',(0.,0.879645176943093,-0.475630489645853));
#780=DIRECTION('',(-1.,0.,0.));
#781=DIRECTION('center_axis',(0.,-0.475630489645853,-0.879645176943093));
#782=DIRECTION('ref_axis',(0.,-0.879645176943093,0.475630489645853));
#783=DIRECTION('center_axis',(0.,-0.879645176943093,0.475630489645853));
#784=DIRECTION('ref_axis',(0.707106781186546,0.336321544567659,0.622003069654505));
#785=DIRECTION('',(0.,-0.879645176943093,0.475630489645853));
#786=DIRECTION('center_axis',(0.,-0.512039798430814,0.858961724888212));
#787=DIRECTION('ref_axis',(0.,-0.858961724888212,-0.512039798430814));
#788=DIRECTION('center_axis',(3.3795578932388E-15,-0.879645176943094,0.475630489645852));
#789=DIRECTION('ref_axis',(1.,0.,-7.105427357601E-15));
#790=DIRECTION('center_axis',(1.,0.,0.));
#791=DIRECTION('ref_axis',(0.,0.976637632087101,0.214892846766243));
#792=DIRECTION('center_axis',(0.,0.737482622681382,0.67536610904234));
#793=DIRECTION('ref_axis',(0.,-0.67536610904234,0.737482622681382));
#794=DIRECTION('center_axis',(1.,-2.31097593363656E-17,1.24956135006064E-17));
#795=DIRECTION('ref_axis',(0.,0.798589124311955,0.601876574166718));
#796=DIRECTION('center_axis',(1.,0.,0.));
#797=DIRECTION('ref_axis',(0.,0.976637632087103,0.214892846766236));
#798=DIRECTION('',(1.,-2.31097593363656E-17,1.24956135006064E-17));
#799=DIRECTION('center_axis',(0.,0.879645176943094,-0.475630489645852));
#800=DIRECTION('ref_axis',(-1.,0.,0.));
#801=DIRECTION('center_axis',(0.,0.737482622681382,0.67536610904234));
#802=DIRECTION('ref_axis',(0.,-0.67536610904234,0.737482622681382));
#803=DIRECTION('center_axis',(0.,0.879645176943093,-0.475630489645853));
#804=DIRECTION('ref_axis',(-0.707106781186546,0.336321544567659,0.622003069654505));
#805=DIRECTION('center_axis',(0.,0.512039798430814,-0.858961724888212));
#806=DIRECTION('ref_axis',(0.,-0.858961724888211,-0.512039798430814));
#807=DIRECTION('',(0.,0.879645176943093,-0.475630489645853));
#808=DIRECTION('center_axis',(0.,0.,-1.));
#809=DIRECTION('ref_axis',(-0.707106781186547,0.707106781186547,0.));
#810=DIRECTION('',(0.,0.,-1.));
#811=DIRECTION('',(0.,0.,1.));
#812=DIRECTION('center_axis',(0.,0.,-1.));
#813=DIRECTION('ref_axis',(-1.,0.,0.));
#814=DIRECTION('center_axis',(-1.,0.,0.));
#815=DIRECTION('ref_axis',(0.,0.525487501160679,0.850801320005972));
#816=DIRECTION('center_axis',(0.,0.943757435211633,0.330638629749702));
#817=DIRECTION('ref_axis',(0.,0.330638629749702,-0.943757435211633));
#818=DIRECTION('center_axis',(0.,-1.,0.));
#819=DIRECTION('ref_axis',(2.36144803713025E-16,0.,-1.));
#820=DIRECTION('center_axis',(1.,0.,-1.25753063058969E-17));
#821=DIRECTION('ref_axis',(0.,0.873352019852444,0.487089570222619));
#822=DIRECTION('center_axis',(-1.,0.,0.));
#823=DIRECTION('ref_axis',(0.,0.525487501160694,0.850801320005963));
#824=DIRECTION('',(-1.,0.,1.25753063058969E-17));
#825=DIRECTION('',(1.,0.,-1.25753063058969E-17));
#826=DIRECTION('center_axis',(0.,0.,1.));
#827=DIRECTION('ref_axis',(1.,0.,0.));
#828=DIRECTION('center_axis',(0.,0.943757435211633,0.330638629749702));
#829=DIRECTION('ref_axis',(0.,0.330638629749702,-0.943757435211633));
#830=DIRECTION('center_axis',(0.,-1.,0.));
#831=DIRECTION('ref_axis',(-2.36144803713025E-16,0.,-1.));
#832=DIRECTION('center_axis',(0.,0.,1.));
#833=DIRECTION('ref_axis',(0.707106781186547,0.707106781186547,0.));
#834=DIRECTION('',(0.,0.,-1.));
#835=DIRECTION('',(0.,0.,1.));
#836=DIRECTION('center_axis',(-1.,0.,0.));
#837=DIRECTION('ref_axis',(0.,0.,1.));
#838=DIRECTION('',(0.,-0.850801320005965,0.525487501160691));
#839=DIRECTION('',(0.,-0.214892846766236,0.976637632087103));
#840=DIRECTION('center_axis',(0.,-0.214892846766236,0.976637632087103));
#841=DIRECTION('ref_axis',(0.707106781186552,-0.690587092410759,-0.151952189176886));
#842=DIRECTION('center_axis',(-2.77577109979775E-14,0.214892846766236,-0.976637632087103));
#843=DIRECTION('ref_axis',(0.,-0.976637632087103,-0.214892846766236));
#844=DIRECTION('',(0.,0.214892846766236,-0.976637632087103));
#845=DIRECTION('center_axis',(-1.9884642679135E-17,-0.976637632087103,-0.214892846766236));
#846=DIRECTION('ref_axis',(-1.50122594306183E-17,-0.214892846766236,0.976637632087103));
#847=DIRECTION('',(-1.,2.03603076779265E-17,-6.14035581920363E-33));
#848=DIRECTION('',(0.,-0.214892846766236,0.976637632087103));
#849=DIRECTION('center_axis',(0.,0.214892846766236,-0.976637632087103));
#850=DIRECTION('ref_axis',(-0.707106781186552,-0.690587092410759,-0.151952189176886));
#851=DIRECTION('center_axis',(0.,0.214892846766209,-0.976637632087109));
#852=DIRECTION('ref_axis',(-1.,0.,0.));
#853=DIRECTION('',(0.,0.214892846766236,-0.976637632087103));
#854=DIRECTION('center_axis',(0.,-1.,0.));
#855=DIRECTION('ref_axis',(-1.,0.,0.));
#856=DIRECTION('',(0.,0.,1.));
#857=DIRECTION('',(0.,0.,1.));
#858=DIRECTION('center_axis',(0.,0.,1.));
#859=DIRECTION('ref_axis',(1.,0.,0.));
#860=DIRECTION('center_axis',(-3.53826677006874E-14,-0.850801320005968,
0.525487501160686));
#861=DIRECTION('ref_axis',(0.,-0.525487501160686,-0.850801320005969));
#862=DIRECTION('center_axis',(-1.,0.,0.));
#863=DIRECTION('ref_axis',(0.,-0.976637632087103,-0.214892846766235));
#864=DIRECTION('center_axis',(0.,0.,1.));
#865=DIRECTION('ref_axis',(1.,0.,0.));
#866=DIRECTION('center_axis',(0.,-0.85080132000595,0.525487501160716));
#867=DIRECTION('ref_axis',(1.,0.,0.));
#868=DIRECTION('center_axis',(1.,0.,0.));
#869=DIRECTION('ref_axis',(0.,-0.525487501160689,-0.850801320005967));
#870=DIRECTION('center_axis',(1.,-2.03603076779265E-17,6.43763914252637E-33));
#871=DIRECTION('ref_axis',(0.,-0.815591733386367,-0.578627794382383));
#872=DIRECTION('',(1.,-2.03603076779265E-17,7.02113905754885E-33));
#873=DIRECTION('center_axis',(0.,-0.850801320005965,0.525487501160691));
#874=DIRECTION('ref_axis',(0.707106781186549,-0.371575775499494,-0.601607382818684));
#875=DIRECTION('',(0.,0.850801320005965,-0.525487501160691));
#876=DIRECTION('center_axis',(0.,0.850801320005965,-0.525487501160691));
#877=DIRECTION('ref_axis',(-0.707106781186549,-0.371575775499494,-0.601607382818684));
#878=DIRECTION('',(0.,0.850801320005965,-0.525487501160691));
#879=DIRECTION('',(0.,-0.850801320005965,0.525487501160691));
#880=DIRECTION('center_axis',(-1.06990872045364E-17,-0.525487501160691,
-0.850801320005965));
#881=DIRECTION('ref_axis',(-2.48961896994371E-17,-0.850801320005965,0.525487501160691));
#882=DIRECTION('center_axis',(1.,0.,0.));
#883=DIRECTION('ref_axis',(0.,0.,-1.));
#884=DIRECTION('center_axis',(0.,0.,1.));
#885=DIRECTION('ref_axis',(0.707106781186547,-0.707106781186547,0.));
#886=DIRECTION('',(0.,0.,-1.));
#887=DIRECTION('center_axis',(1.,0.,0.));
#888=DIRECTION('ref_axis',(0.,-1.,0.));
#889=DIRECTION('center_axis',(0.,0.,-1.));
#890=DIRECTION('ref_axis',(-0.707106781186547,-0.707106781186547,0.));
#891=DIRECTION('',(0.,0.,-1.));
#892=DIRECTION('center_axis',(1.,0.,0.));
#893=DIRECTION('ref_axis',(0.,-1.,0.));
#894=CARTESIAN_POINT('',(0.,0.,0.));
#895=CARTESIAN_POINT('Origin',(-99.9999999999999,-2912.59374556939,1100.47353413647));
#896=CARTESIAN_POINT('',(-2809.,-2912.59374556939,-789.999999999999));
#897=CARTESIAN_POINT('',(-2809.,-2912.59374556939,1100.47353413647));
#898=CARTESIAN_POINT('',(-2809.,-2912.59374556939,702.736767068236));
#899=CARTESIAN_POINT('',(-99.9999999999999,-2912.59374556939,-789.999999999999));
#900=CARTESIAN_POINT('',(-1454.5,-2912.59374556939,-790.));
#901=CARTESIAN_POINT('',(-99.9999999999999,-2912.59374556939,1100.47353413647));
#902=CARTESIAN_POINT('',(-100.,-2912.59374556939,702.736767068236));
#903=CARTESIAN_POINT('',(-1454.5,-2912.59374556939,1100.47353413647));
#904=CARTESIAN_POINT('Origin',(-2809.,-2935.84499999244,305.));
#905=CARTESIAN_POINT('',(-2809.,-2315.76555897681,777.764230357911));
#906=CARTESIAN_POINT('',(-2809.,-2456.76775801158,854.005136038893));
#907=CARTESIAN_POINT('',(-2809.,-1824.68999998487,354.194184733924));
#908=CARTESIAN_POINT('',(-2809.,-2113.7528793361,603.521146243347));
#909=CARTESIAN_POINT('',(-2809.,-1824.68999998487,-490.000000000003));
#910=CARTESIAN_POINT('',(-2809.,-1824.68999998487,-92.5000000000003));
#911=CARTESIAN_POINT('',(-2809.,-2124.68999998487,-790.));
#912=CARTESIAN_POINT('Origin',(-2809.,-2124.68999998487,-490.000000000003));
#913=CARTESIAN_POINT('',(-2809.,-3541.42249999622,-790.));
#914=CARTESIAN_POINT('Origin',(-100.,-2935.84499999244,305.));
#915=CARTESIAN_POINT('',(-100.,-2124.68999998487,-790.));
#916=CARTESIAN_POINT('',(-100.,-3541.42249999622,-790.));
#917=CARTESIAN_POINT('',(-100.,-1824.68999998487,-490.000000000003));
#918=CARTESIAN_POINT('Origin',(-100.,-2124.68999998487,-490.000000000003));
#919=CARTESIAN_POINT('',(-100.,-1824.68999998487,354.194184733924));
#920=CARTESIAN_POINT('',(-100.,-1824.68999998487,-92.5000000000003));
#921=CARTESIAN_POINT('',(-100.,-2315.76555897681,777.764230357911));
#922=CARTESIAN_POINT('',(-100.,-2113.7528793361,603.521146243347));
#923=CARTESIAN_POINT('',(-100.,-2456.76775801158,854.005136038893));
#924=CARTESIAN_POINT('Origin',(-2809.,-3988.12211598223,-790.));
#925=CARTESIAN_POINT('',(-2393.,-2124.68999998487,-790.));
#926=CARTESIAN_POINT('',(-2809.,-2124.68999998487,-790.));
#927=CARTESIAN_POINT('',(-2393.,-2256.68999998487,-790.));
#928=CARTESIAN_POINT('',(-2393.,-2856.40605798355,-790.));
#929=CARTESIAN_POINT('',(-2293.,-2356.68999998487,-790.));
#930=CARTESIAN_POINT('Origin',(-2293.,-2256.68999998487,-790.));
#931=CARTESIAN_POINT('',(-616.,-2356.68999998487,-790.));
#932=CARTESIAN_POINT('',(-1712.5,-2356.68999998487,-790.));
#933=CARTESIAN_POINT('',(-516.,-2256.68999998487,-790.));
#934=CARTESIAN_POINT('Origin',(-616.,-2256.68999998487,-790.));
#935=CARTESIAN_POINT('',(-516.,-2124.68999998487,-790.));
#936=CARTESIAN_POINT('',(-516.,-2856.40605798355,-790.));
#937=CARTESIAN_POINT('',(-2809.,-2124.68999998487,-790.));
#938=CARTESIAN_POINT('Origin',(-2809.,-2124.68999998487,-490.000000000003));
#939=CARTESIAN_POINT('',(-516.,-1824.68999998487,-490.000000000003));
#940=CARTESIAN_POINT('Origin',(-516.,-2124.68999998487,-490.000000000003));
#941=CARTESIAN_POINT('',(-2809.,-1824.68999998487,-490.000000000003));
#942=CARTESIAN_POINT('Origin',(-2809.,-1824.68999998487,-490.000000000003));
#943=CARTESIAN_POINT('',(-516.,-1824.68999998487,354.194184733924));
#944=CARTESIAN_POINT('',(-516.,-1824.68999998487,40.9544789877185));
#945=CARTESIAN_POINT('',(-2809.,-1824.68999998487,354.194184733924));
#946=CARTESIAN_POINT('Origin',(-2809.,-1824.68999998487,354.194184733924));
#947=CARTESIAN_POINT('',(-516.,-2256.68999998487,726.809470424747));
#948=CARTESIAN_POINT('',(-516.,-1849.85867604085,375.90305838915));
#949=CARTESIAN_POINT('',(-535.314943578196,-2315.76555897681,777.764230357911));
#950=CARTESIAN_POINT('Origin',(-616.,-2256.68999998487,726.809470424747));
#951=CARTESIAN_POINT('',(-2809.,-2315.76555897681,777.764230357911));
#952=CARTESIAN_POINT('Origin',(-2809.,-1824.68999998487,354.194184733924));
#953=CARTESIAN_POINT('',(-2373.6850564218,-2315.76555897681,777.764230357911));
#954=CARTESIAN_POINT('',(-2393.,-2256.68999998487,726.809470424747));
#955=CARTESIAN_POINT('Origin',(-2293.,-2256.68999998487,726.809470424747));
#956=CARTESIAN_POINT('',(-2393.,-1824.68999998487,354.194184733924));
#957=CARTESIAN_POINT('',(-2393.,-1849.85867604085,375.90305838915));
#958=CARTESIAN_POINT('',(-2809.,-1824.68999998487,354.194184733924));
#959=CARTESIAN_POINT('',(-2809.,-2315.76555897681,777.764230357911));
#960=CARTESIAN_POINT('Origin',(-2809.,-1824.68999998487,-490.000000000003));
#961=CARTESIAN_POINT('',(-2393.,-1824.68999998487,-490.000000000003));
#962=CARTESIAN_POINT('',(-2393.,-1824.68999998487,40.9544789877185));
#963=CARTESIAN_POINT('',(-2809.,-1824.68999998487,-490.000000000003));
#964=CARTESIAN_POINT('Origin',(-2809.,-2124.68999998487,-490.000000000003));
#965=CARTESIAN_POINT('Origin',(-2393.,-2124.68999998487,-490.000000000003));
#966=CARTESIAN_POINT('Origin',(-2809.,-2315.76555897681,777.764230357911));
#967=CARTESIAN_POINT('',(-616.,-2356.68999998487,799.892370686936));
#968=CARTESIAN_POINT('Origin',(-616.,-2256.68999998487,745.821649660675));
#969=CARTESIAN_POINT('',(-1196.,-2356.68999998487,799.892370686936));
#970=CARTESIAN_POINT('',(-1712.5,-2356.68999998487,799.892370686936));
#971=CARTESIAN_POINT('',(-1196.,-2814.05757320624,1047.19431526804));
#972=CARTESIAN_POINT('',(-1196.,-2429.13085763323,839.061664735008));
#973=CARTESIAN_POINT('',(-1236.,-2860.54522643546,1072.33052455726));
#974=CARTESIAN_POINT('Ctrl Pts',(-1196.,-2814.05757320624,1047.19431526804));
#975=CARTESIAN_POINT('Ctrl Pts',(-1196.,-2821.0121098666,1050.95468338433));
#976=CARTESIAN_POINT('Ctrl Pts',(-1198.05565612305,-2831.43253914537,1056.58908462939));
#977=CARTESIAN_POINT('Ctrl Pts',(-1204.46752987584,-2843.28361115052,1062.99704471192));
#978=CARTESIAN_POINT('Ctrl Pts',(-1210.85321627956,-2850.70382785217,1067.00920938421));
#979=CARTESIAN_POINT('Ctrl Pts',(-1221.05009381134,-2858.15587659377,1071.03858587002));
#980=CARTESIAN_POINT('Ctrl Pts',(-1230.01601399316,-2860.54522643546,1072.33052455727));
#981=CARTESIAN_POINT('Ctrl Pts',(-1236.,-2860.54522643546,1072.33052455727));
#982=CARTESIAN_POINT('',(-1673.,-2860.54522643546,1072.33052455727));
#983=CARTESIAN_POINT('',(-852.25,-2860.54522643546,1072.33052455726));
#984=CARTESIAN_POINT('',(-1713.,-2814.05757320624,1047.19431526804));
#985=CARTESIAN_POINT('Ctrl Pts',(-1673.,-2860.54522643546,1072.33052455727));
#986=CARTESIAN_POINT('Ctrl Pts',(-1675.99199300342,-2860.54522643546,1072.33052455727));
#987=CARTESIAN_POINT('Ctrl Pts',(-1684.96950701584,-2859.38035232643,1071.70066872746));
#988=CARTESIAN_POINT('Ctrl Pts',(-1698.79118975601,-2851.64833321083,1067.51991024177));
#989=CARTESIAN_POINT('Ctrl Pts',(-1710.26667308045,-2834.91591642104,1058.47257183841));
#990=CARTESIAN_POINT('Ctrl Pts',(-1713.,-2821.0121098666,1050.95468338433));
#991=CARTESIAN_POINT('Ctrl Pts',(-1713.,-2814.05757320624,1047.19431526804));
#992=CARTESIAN_POINT('',(-1713.,-2356.68999998487,799.892370686936));
#993=CARTESIAN_POINT('',(-1713.,-2429.13085763323,839.061664735008));
#994=CARTESIAN_POINT('',(-2293.,-2356.68999998487,799.892370686936));
#995=CARTESIAN_POINT('',(-1712.5,-2356.68999998487,799.892370686936));
#996=CARTESIAN_POINT('Origin',(-2293.,-2256.68999998487,745.821649660675));
#997=CARTESIAN_POINT('Origin',(-1713.,-2438.64346742614,821.468761196146));
#998=CARTESIAN_POINT('',(-1693.,-2376.68999998487,787.970074649881));
#999=CARTESIAN_POINT('',(-1693.,-2823.57018299916,1029.60141172918));
#1000=CARTESIAN_POINT('',(-1693.,-2438.64346742614,821.468761196146));
#1001=CARTESIAN_POINT('Origin',(-1713.,-2376.68999998487,787.970074649881));
#1002=CARTESIAN_POINT('Origin',(-1713.,-2823.57018299916,1029.60141172918));
#1003=CARTESIAN_POINT('Ctrl Pts',(-1673.,-2850.52508358664,1059.03547795373));
#1004=CARTESIAN_POINT('Ctrl Pts',(-1674.49599650171,-2850.52508358664,1059.03547795373));
#1005=CARTESIAN_POINT('Ctrl Pts',(-1678.98475350792,-2849.84965551865,1058.29792767345));
#1006=CARTESIAN_POINT('Ctrl Pts',(-1685.89559487801,-2845.36640476013,1053.40233181328));
#1007=CARTESIAN_POINT('Ctrl Pts',(-1691.63333654023,-2835.66446026891,1042.80805506072));
#1008=CARTESIAN_POINT('Ctrl Pts',(-1693.,-2827.60262669744,1034.00473773948));
#1009=CARTESIAN_POINT('Ctrl Pts',(-1693.,-2823.57018299916,1029.60141172918));
#1010=CARTESIAN_POINT('Ctrl Pts',(-1673.,-2850.87649829582,1060.63257545894));
#1011=CARTESIAN_POINT('Ctrl Pts',(-1674.60159674188,-2850.87649829582,1060.63257545894));
#1012=CARTESIAN_POINT('Ctrl Pts',(-1679.40798452503,-2850.13472358767,1059.9207008273));
#1013=CARTESIAN_POINT('Ctrl Pts',(-1686.71700954562,-2845.21424463112,1055.19510828627));
#1014=CARTESIAN_POINT('Ctrl Pts',(-1692.39005402736,-2834.72650182773,1044.96657638425));
#1015=CARTESIAN_POINT('Ctrl Pts',(-1693.29318902799,-2826.26761399036,1036.47308254469));
#1016=CARTESIAN_POINT('Ctrl Pts',(-1693.,-2822.14709990192,1032.23330394408));
#1017=CARTESIAN_POINT('Ctrl Pts',(-1673.,-2851.97315335417,1063.73999655921));
#1018=CARTESIAN_POINT('Ctrl Pts',(-1674.8430058824,-2851.97315335417,1063.73999655921));
#1019=CARTESIAN_POINT('Ctrl Pts',(-1680.37364481897,-2851.10848619255,1063.07699747706));
#1020=CARTESIAN_POINT('Ctrl Pts',(-1688.68783792251,-2845.37464135045,1058.67749938682));
#1021=CARTESIAN_POINT('Ctrl Pts',(-1694.69603876249,-2833.2926008341,1049.18507799451));
#1022=CARTESIAN_POINT('Ctrl Pts',(-1695.0713675886,-2823.79944739055,1041.36348875604));
#1023=CARTESIAN_POINT('Ctrl Pts',(-1694.36672694195,-2819.30200948099,1037.49509880632));
#1024=CARTESIAN_POINT('Ctrl Pts',(-1673.,-2854.70050926768,1067.86244943276));
#1025=CARTESIAN_POINT('Ctrl Pts',(-1675.2738740837,-2854.70050926768,1067.86244943276));
#1026=CARTESIAN_POINT('Ctrl Pts',(-1682.09710214372,-2853.68652559493,1067.24833484388));
#1027=CARTESIAN_POINT('Ctrl Pts',(-1692.4077148985,-2846.96168756709,1063.17286775498));
#1028=CARTESIAN_POINT('Ctrl Pts',(-1700.08453070754,-2832.69005623165,1054.42890653298));
#1029=CARTESIAN_POINT('Ctrl Pts',(-1700.83620449721,-2821.3233171924,1047.30892987278));
#1030=CARTESIAN_POINT('Ctrl Pts',(-1700.10444256195,-2815.8781115958,1043.82735741171));
#1031=CARTESIAN_POINT('Ctrl Pts',(-1673.,-2857.73968659281,1070.64275997629));
#1032=CARTESIAN_POINT('Ctrl Pts',(-1675.66876862608,-2857.73968659281,1070.64275997629));
#1033=CARTESIAN_POINT('Ctrl Pts',(-1683.67659141619,-2856.63219533392,1070.03511342973));
#1034=CARTESIAN_POINT('Ctrl Pts',(-1695.90838544219,-2849.28304622034,1066.00368917319));
#1035=CARTESIAN_POINT('Ctrl Pts',(-1705.62044687998,-2833.50649825507,1057.33873674592));
#1036=CARTESIAN_POINT('Ctrl Pts',(-1707.38806561918,-2820.62497521147,1050.24586326647));
#1037=CARTESIAN_POINT('Ctrl Pts',(-1707.01527087087,-2814.29593530881,1046.75348130458));
#1038=CARTESIAN_POINT('Ctrl Pts',(-1673.,-2859.8259836624,1071.94162480394));
#1039=CARTESIAN_POINT('Ctrl Pts',(-1675.91118864114,-2859.8259836624,1071.94162480394));
#1040=CARTESIAN_POINT('Ctrl Pts',(-1684.64623617068,-2858.67440210934,1071.31927584731));
#1041=CARTESIAN_POINT('Ctrl Pts',(-1698.07039077935,-2851.03192323137,1067.18730379042));
#1042=CARTESIAN_POINT('Ctrl Pts',(-1709.10504188482,-2834.52446171521,1058.26154018649));
#1043=CARTESIAN_POINT('Ctrl Pts',(-1711.59703417986,-2820.86289049981,1050.87456765797));
#1044=CARTESIAN_POINT('Ctrl Pts',(-1711.50400349829,-2814.05757320624,1047.19431526804));
#1045=CARTESIAN_POINT('Ctrl Pts',(-1673.,-2860.54522643546,1072.33052455727));
#1046=CARTESIAN_POINT('Ctrl Pts',(-1675.99199300342,-2860.54522643546,1072.33052455727));
#1047=CARTESIAN_POINT('Ctrl Pts',(-1684.96950701584,-2859.38035232643,1071.70066872746));
#1048=CARTESIAN_POINT('Ctrl Pts',(-1698.79118975601,-2851.64833321083,1067.51991024177));
#1049=CARTESIAN_POINT('Ctrl Pts',(-1710.26667308045,-2834.91591642104,1058.47257183841));
#1050=CARTESIAN_POINT('Ctrl Pts',(-1713.,-2821.0121098666,1050.95468338433));
#1051=CARTESIAN_POINT('Ctrl Pts',(-1713.,-2814.05757320624,1047.19431526804));
#1052=CARTESIAN_POINT('',(-1673.,-2850.52508358664,1059.03547795373));
#1053=CARTESIAN_POINT('Origin',(-1673.,-2870.05783622838,1054.7376210184));
#1054=CARTESIAN_POINT('Origin',(-1673.,-2823.57018299916,1029.60141172918));
#1055=CARTESIAN_POINT('Origin',(-852.25,-2870.05783622838,1054.7376210184));
#1056=CARTESIAN_POINT('',(-1236.,-2850.52508358664,1059.03547795373));
#1057=CARTESIAN_POINT('Origin',(-1236.,-2870.05783622838,1054.7376210184));
#1058=CARTESIAN_POINT('',(-852.25,-2850.52508358664,1059.03547795373));
#1059=CARTESIAN_POINT('Ctrl Pts',(-1216.,-2823.57018299916,1029.60141172918));
#1060=CARTESIAN_POINT('Ctrl Pts',(-1216.,-2827.60262669744,1034.00473773948));
#1061=CARTESIAN_POINT('Ctrl Pts',(-1217.02782806153,-2833.64469627456,1040.60252412304));
#1062=CARTESIAN_POINT('Ctrl Pts',(-1220.23376493792,-2840.51629433478,1048.10613452281));
#1063=CARTESIAN_POINT('Ctrl Pts',(-1223.42660813978,-2844.81875293694,1052.80430994414));
#1064=CARTESIAN_POINT('Ctrl Pts',(-1228.52504690567,-2849.1396686866,1057.52264010134));
#1065=CARTESIAN_POINT('Ctrl Pts',(-1233.00800699658,-2850.52508358664,1059.03547795373));
#1066=CARTESIAN_POINT('Ctrl Pts',(-1236.,-2850.52508358664,1059.03547795373));
#1067=CARTESIAN_POINT('Ctrl Pts',(-1216.,-2822.14709990192,1032.23330394408));
#1068=CARTESIAN_POINT('Ctrl Pts',(-1215.70681097201,-2826.26761399036,1036.47308254469));
#1069=CARTESIAN_POINT('Ctrl Pts',(-1216.38862453176,-2832.60656375539,1042.83852067891));
#1070=CARTESIAN_POINT('Ctrl Pts',(-1219.44377812606,-2839.97133332447,1050.0818333152));
#1071=CARTESIAN_POINT('Ctrl Pts',(-1222.67436176387,-2844.63220576197,1054.61753322988));
#1072=CARTESIAN_POINT('Ctrl Pts',(-1227.9984528221,-2849.34980327947,1059.17247971103));
#1073=CARTESIAN_POINT('Ctrl Pts',(-1232.79680651623,-2850.87649829582,1060.63257545894));
#1074=CARTESIAN_POINT('Ctrl Pts',(-1236.,-2850.87649829582,1060.63257545894));
#1075=CARTESIAN_POINT('Ctrl Pts',(-1214.63327505952,-2819.30200954318,1037.49509869129));
#1076=CARTESIAN_POINT('Ctrl Pts',(-1213.92863441287,-2823.79944745275,1041.36348864102));
#1077=CARTESIAN_POINT('Ctrl Pts',(-1214.21586995288,-2830.91237416127,1047.22523698242));
#1078=CARTESIAN_POINT('Ctrl Pts',(-1217.30445464801,-2839.33498113481,1053.93227497758));
#1079=CARTESIAN_POINT('Ctrl Pts',(-1220.81388319058,-2844.71271755226,1058.14331647904));
#1080=CARTESIAN_POINT('Ctrl Pts',(-1226.79496745347,-2850.18903727604,1062.3791679935));
#1081=CARTESIAN_POINT('Ctrl Pts',(-1232.3139882352,-2851.97315318807,1063.73999658819));
#1082=CARTESIAN_POINT('Ctrl Pts',(-1236.,-2851.97315318807,1063.73999658819));
#1083=CARTESIAN_POINT('Ctrl Pts',(-1208.89555863087,-2815.87811167494,1043.82735726536));
#1084=CARTESIAN_POINT('Ctrl Pts',(-1208.16379669561,-2821.32331727154,1047.30892972642));
#1085=CARTESIAN_POINT('Ctrl Pts',(-1208.73367598603,-2829.84056187061,1052.64440721035));
#1086=CARTESIAN_POINT('Ctrl Pts',(-1212.74997245396,-2839.82752739289,1058.80189082438));
#1087=CARTESIAN_POINT('Ctrl Pts',(-1217.18534685297,-2846.17327586475,1062.6838176626));
#1088=CARTESIAN_POINT('Ctrl Pts',(-1224.64179812163,-2852.61158571638,1066.60037211));
#1089=CARTESIAN_POINT('Ctrl Pts',(-1231.45225183259,-2854.70050917125,1067.86244944429));
#1090=CARTESIAN_POINT('Ctrl Pts',(-1236.,-2854.70050917125,1067.86244944429));
#1091=CARTESIAN_POINT('Ctrl Pts',(-1201.9847299056,-2814.29593537521,1046.75348118177));
#1092=CARTESIAN_POINT('Ctrl Pts',(-1201.61193515729,-2820.62497527787,1050.24586314366));
#1093=CARTESIAN_POINT('Ctrl Pts',(-1202.94352491811,-2830.27832250138,1055.56141681996));
#1094=CARTESIAN_POINT('Ctrl Pts',(-1208.23185631902,-2841.39640518257,1061.67206823015));
#1095=CARTESIAN_POINT('Ctrl Pts',(-1213.71822517044,-2848.40024018126,1065.51818245942));
#1096=CARTESIAN_POINT('Ctrl Pts',(-1222.66694921656,-2855.4639356452,1069.39446250139));
#1097=CARTESIAN_POINT('Ctrl Pts',(-1230.66246274785,-2857.73968652989,1070.64275998247));
#1098=CARTESIAN_POINT('Ctrl Pts',(-1236.,-2857.73968652989,1070.64275998247));
#1099=CARTESIAN_POINT('Ctrl Pts',(-1197.49599650171,-2814.05757320624,1047.19431526804));
#1100=CARTESIAN_POINT('Ctrl Pts',(-1197.40296582014,-2820.86289049981,1050.87456765797));
#1101=CARTESIAN_POINT('Ctrl Pts',(-1199.27764132387,-2831.10165720098,1056.41055984406));
#1102=CARTESIAN_POINT('Ctrl Pts',(-1205.40870624731,-2842.77968554848,1062.72529347642));
#1103=CARTESIAN_POINT('Ctrl Pts',(-1211.56955085982,-2850.10202779329,1066.68441108025));
#1104=CARTESIAN_POINT('Ctrl Pts',(-1221.45440459222,-2857.46288880209,1070.66457668207));
#1105=CARTESIAN_POINT('Ctrl Pts',(-1230.17762271771,-2859.8259836624,1071.94162480394));
#1106=CARTESIAN_POINT('Ctrl Pts',(-1236.,-2859.8259836624,1071.94162480394));
#1107=CARTESIAN_POINT('Ctrl Pts',(-1196.,-2814.05757320624,1047.19431526804));
#1108=CARTESIAN_POINT('Ctrl Pts',(-1196.,-2821.0121098666,1050.95468338433));
#1109=CARTESIAN_POINT('Ctrl Pts',(-1198.05565612305,-2831.43253914537,1056.58908462939));
#1110=CARTESIAN_POINT('Ctrl Pts',(-1204.46752987584,-2843.28361115052,1062.99704471192));
#1111=CARTESIAN_POINT('Ctrl Pts',(-1210.85321627956,-2850.70382785217,1067.00920938421));
#1112=CARTESIAN_POINT('Ctrl Pts',(-1221.05009381134,-2858.15587659377,1071.03858587002));
#1113=CARTESIAN_POINT('Ctrl Pts',(-1230.01601399316,-2860.54522643546,1072.33052455727));
#1114=CARTESIAN_POINT('Ctrl Pts',(-1236.,-2860.54522643546,1072.33052455727));
#1115=CARTESIAN_POINT('',(-1216.,-2823.57018299916,1029.60141172918));
#1116=CARTESIAN_POINT('Origin',(-1196.,-2823.57018299916,1029.60141172918));
#1117=CARTESIAN_POINT('Origin',(-1236.,-2823.57018299916,1029.60141172918));
#1118=CARTESIAN_POINT('Origin',(-1196.,-2438.64346742614,821.468761196146));
#1119=CARTESIAN_POINT('',(-1216.,-2376.68999998487,787.970074649881));
#1120=CARTESIAN_POINT('Origin',(-1196.,-2376.68999998487,787.970074649881));
#1121=CARTESIAN_POINT('',(-1216.,-2438.64346742614,821.468761196146));
#1122=CARTESIAN_POINT('Origin',(-1196.,-2376.68999998487,648.144736758192));
#1123=CARTESIAN_POINT('',(-1216.,-2376.68999998487,482.760499843598));
#1124=CARTESIAN_POINT('',(-1216.,-2376.68999998487,648.144736758192));
#1125=CARTESIAN_POINT('',(-1196.,-2356.68999998487,482.760499843598));
#1126=CARTESIAN_POINT('',(-1196.,-2356.68999998487,648.144736758192));
#1127=CARTESIAN_POINT('Origin',(-1196.,-2376.68999998487,482.760499843598));
#1128=CARTESIAN_POINT('Ctrl Pts',(-1236.,-2366.18024996166,452.762024668051));
#1129=CARTESIAN_POINT('Ctrl Pts',(-1234.50400349829,-2366.18024996166,452.762024668051));
#1130=CARTESIAN_POINT('Ctrl Pts',(-1230.01524529587,-2366.44360034037,453.513718074714));
#1131=CARTESIAN_POINT('Ctrl Pts',(-1223.10440328557,-2368.19162553406,458.503188829351));
#1132=CARTESIAN_POINT('Ctrl Pts',(-1217.36666030949,-2371.97442599977,469.300614611504));
#1133=CARTESIAN_POINT('Ctrl Pts',(-1216.,-2375.11774505802,478.272738451674));
#1134=CARTESIAN_POINT('Ctrl Pts',(-1216.,-2376.68999998487,482.760499843598));
#1135=CARTESIAN_POINT('Ctrl Pts',(-1236.,-2364.53130248445,451.743571512223));
#1136=CARTESIAN_POINT('Ctrl Pts',(-1234.41450297711,-2364.53130248445,451.743571512223));
#1137=CARTESIAN_POINT('Ctrl Pts',(-1229.65639531289,-2364.75389573047,452.540089443798));
#1138=CARTESIAN_POINT('Ctrl Pts',(-1222.41170089289,-2366.23294321765,457.824398494161));
#1139=CARTESIAN_POINT('Ctrl Pts',(-1216.74140273532,-2369.48918856244,469.115944757443));
#1140=CARTESIAN_POINT('Ctrl Pts',(-1215.76426039381,-2372.27510708862,478.273095281174));
#1141=CARTESIAN_POINT('Ctrl Pts',(-1216.,-2373.69800698145,482.760499843598));
#1142=CARTESIAN_POINT('Ctrl Pts',(-1236.,-2361.53193502728,449.22384088103));
#1143=CARTESIAN_POINT('Ctrl Pts',(-1234.19295307997,-2361.53193502728,449.22384088103));
#1144=CARTESIAN_POINT('Ctrl Pts',(-1228.77011622872,-2361.67490136368,450.107571941475));
#1145=CARTESIAN_POINT('Ctrl Pts',(-1220.6023370433,-2362.62483120885,455.968152104099));
#1146=CARTESIAN_POINT('Ctrl Pts',(-1214.60969266039,-2364.77415699751,468.33575982159));
#1147=CARTESIAN_POINT('Ctrl Pts',(-1214.06670828353,-2366.7002073121,478.098957499013));
#1148=CARTESIAN_POINT('Ctrl Pts',(-1214.63327692249,-2367.7162830112,482.760499843598));
#1149=CARTESIAN_POINT('Ctrl Pts',(-1236.,-2358.3042228095,444.313513226427));
#1150=CARTESIAN_POINT('Ctrl Pts',(-1233.76125124149,-2358.3042228095,444.313513226427));
#1151=CARTESIAN_POINT('Ctrl Pts',(-1227.04329745467,-2358.3531864401,445.319592432508));
#1152=CARTESIAN_POINT('Ctrl Pts',(-1216.87794768103,-2358.67979767427,451.992406202301));
#1153=CARTESIAN_POINT('Ctrl Pts',(-1209.22434768099,-2359.4355981521,466.13036823373));
#1154=CARTESIAN_POINT('Ctrl Pts',(-1208.3071841398,-2360.13760225201,477.368621771219));
#1155=CARTESIAN_POINT('Ctrl Pts',(-1208.89555974044,-2360.51763211102,482.760499843598));
#1156=CARTESIAN_POINT('Ctrl Pts',(-1236.,-2356.90090500221,439.622289262539));
#1157=CARTESIAN_POINT('Ctrl Pts',(-1233.34880118497,-2356.90090500221,439.622289262539));
#1158=CARTESIAN_POINT('Ctrl Pts',(-1225.39363303955,-2356.90747714233,440.724626210946));
#1159=CARTESIAN_POINT('Ctrl Pts',(-1213.23483393644,-2356.95039711033,448.038992250747));
#1160=CARTESIAN_POINT('Ctrl Pts',(-1203.53560937548,-2357.04936524953,463.717218801419));
#1161=CARTESIAN_POINT('Ctrl Pts',(-1201.68498377937,-2357.14148154402,476.488912506607));
#1162=CARTESIAN_POINT('Ctrl Pts',(-1201.98473062788,-2357.1911500078,482.760499843598));
#1163=CARTESIAN_POINT('Ctrl Pts',(-1236.,-2356.68999998487,436.715053814998));
#1164=CARTESIAN_POINT('Ctrl Pts',(-1233.09320173616,-2356.68999998487,436.715053814998));
#1165=CARTESIAN_POINT('Ctrl Pts',(-1224.371310116,-2356.68974827688,437.874189092286));
#1166=CARTESIAN_POINT('Ctrl Pts',(-1210.96539026849,-2356.68948225105,445.567495733957));
#1167=CARTESIAN_POINT('Ctrl Pts',(-1199.93392522923,-2356.68957250178,462.178556875456));
#1168=CARTESIAN_POINT('Ctrl Pts',(-1197.42119487496,-2356.68959806419,475.917527770242));
#1169=CARTESIAN_POINT('Ctrl Pts',(-1197.49599650171,-2356.68999998487,482.760499843598));
#1170=CARTESIAN_POINT('Ctrl Pts',(-1236.,-2356.68999998487,435.745998267931));
#1171=CARTESIAN_POINT('Ctrl Pts',(-1233.00800699658,-2356.68999998487,435.745998267931));
#1172=CARTESIAN_POINT('Ctrl Pts',(-1224.03049059175,-2356.68999998487,436.924074508312));
#1173=CARTESIAN_POINT('Ctrl Pts',(-1210.20880657115,-2356.68999998487,444.743721316456));
#1174=CARTESIAN_POINT('Ctrl Pts',(-1198.73332061899,-2356.68999998487,461.66576780307));
#1175=CARTESIAN_POINT('Ctrl Pts',(-1196.,-2356.68999998487,475.727146854917));
#1176=CARTESIAN_POINT('Ctrl Pts',(-1196.,-2356.68999998487,482.760499843598));
#1177=CARTESIAN_POINT('',(-1236.,-2366.18024996166,452.762024668051));
#1178=CARTESIAN_POINT('',(-1236.,-2356.68999998487,435.745998267931));
#1179=CARTESIAN_POINT('Origin',(-1236.,-2376.68999998487,435.745998267931));
#1180=CARTESIAN_POINT('Origin',(-1236.,-2376.68999998487,482.760499843598));
#1181=CARTESIAN_POINT('Origin',(-1236.,-2356.68999998487,482.760499843598));
#1182=CARTESIAN_POINT('Origin',(-1110.25,-2376.68999998487,435.745998267931));
#1183=CARTESIAN_POINT('',(-1673.,-2366.18024996166,452.762024668051));
#1184=CARTESIAN_POINT('',(-1673.,-2356.68999998487,435.745998267931));
#1185=CARTESIAN_POINT('Origin',(-1673.,-2376.68999998487,435.745998267931));
#1186=CARTESIAN_POINT('',(-1110.25,-2366.18024996166,452.762024668051));
#1187=CARTESIAN_POINT('',(-1110.25,-2356.68999998487,435.745998267931));
#1188=CARTESIAN_POINT('Ctrl Pts',(-1693.,-2376.68999998487,482.760499843598));
#1189=CARTESIAN_POINT('Ctrl Pts',(-1693.,-2375.11774505802,478.272738451674));
#1190=CARTESIAN_POINT('Ctrl Pts',(-1691.97077744935,-2372.76247362816,471.549976124863));
#1191=CARTESIAN_POINT('Ctrl Pts',(-1687.96720204605,-2369.41186136563,461.986165514861));
#1192=CARTESIAN_POINT('Ctrl Pts',(-1681.9748873395,-2366.89835424235,454.811743585254));
#1193=CARTESIAN_POINT('Ctrl Pts',(-1675.99199300342,-2366.18024996166,452.762024668051));
#1194=CARTESIAN_POINT('Ctrl Pts',(-1673.,-2366.18024996166,452.762024668051));
#1195=CARTESIAN_POINT('Ctrl Pts',(-1693.,-2373.69800698145,482.760499843598));
#1196=CARTESIAN_POINT('Ctrl Pts',(-1693.23573960619,-2372.27510708862,478.273095281174));
#1197=CARTESIAN_POINT('Ctrl Pts',(-1692.49651773034,-2370.1874991879,471.412441584919));
#1198=CARTESIAN_POINT('Ctrl Pts',(-1688.66165102853,-2367.27824488291,461.480558497468));
#1199=CARTESIAN_POINT('Ctrl Pts',(-1682.51225589546,-2365.13593545849,453.92151766169));
#1200=CARTESIAN_POINT('Ctrl Pts',(-1676.17099404579,-2364.53130248445,451.743571512223));
#1201=CARTESIAN_POINT('Ctrl Pts',(-1673.,-2364.53130248445,451.743571512223));
#1202=CARTESIAN_POINT('Ctrl Pts',(-1694.36672590241,-2367.71628282676,482.760499843598));
#1203=CARTESIAN_POINT('Ctrl Pts',(-1694.93329454136,-2366.70020712766,478.098957499013));
#1204=CARTESIAN_POINT('Ctrl Pts',(-1694.51730120445,-2365.25660298992,470.785481239187));
#1205=CARTESIAN_POINT('Ctrl Pts',(-1690.62211638862,-2363.30950719162,459.988578592697));
#1206=CARTESIAN_POINT('Ctrl Pts',(-1683.8405954902,-2361.91757526984,451.64647935607));
#1207=CARTESIAN_POINT('Ctrl Pts',(-1676.61409384005,-2361.53193525604,449.223840465298));
#1208=CARTESIAN_POINT('Ctrl Pts',(-1673.,-2361.53193525604,449.223840465298));
#1209=CARTESIAN_POINT('Ctrl Pts',(-1700.10444194231,-2360.51763187623,482.760499843598));
#1210=CARTESIAN_POINT('Ctrl Pts',(-1700.69281754294,-2360.13760201722,477.368621771219));
#1211=CARTESIAN_POINT('Ctrl Pts',(-1699.9952988803,-2359.61143132242,468.950096614488));
#1212=CARTESIAN_POINT('Ctrl Pts',(-1694.94715848646,-2358.91896735723,456.583344279894));
#1213=CARTESIAN_POINT('Ctrl Pts',(-1686.43055671573,-2358.43578538321,447.068921478171));
#1214=CARTESIAN_POINT('Ctrl Pts',(-1677.47749751702,-2358.30422292743,444.313512977473));
#1215=CARTESIAN_POINT('Ctrl Pts',(-1673.,-2358.30422292743,444.313512977473));
#1216=CARTESIAN_POINT('Ctrl Pts',(-1707.01527046752,-2357.19114981073,482.760499843598));
#1217=CARTESIAN_POINT('Ctrl Pts',(-1707.31501731602,-2357.14148134695,476.488912506607));
#1218=CARTESIAN_POINT('Ctrl Pts',(-1705.91795004802,-2357.07236866751,466.920312731208));
#1219=CARTESIAN_POINT('Ctrl Pts',(-1699.29831279016,-2356.98178537087,453.111611552416));
#1220=CARTESIAN_POINT('Ctrl Pts',(-1688.90504145908,-2356.91840400144,442.634083974842));
#1221=CARTESIAN_POINT('Ctrl Pts',(-1678.30239763006,-2356.90090507496,439.622289098433));
#1222=CARTESIAN_POINT('Ctrl Pts',(-1673.,-2356.90090507496,439.622289098433));
#1223=CARTESIAN_POINT('Ctrl Pts',(-1711.50400349829,-2356.68999998487,482.760499843598));
#1224=CARTESIAN_POINT('Ctrl Pts',(-1711.57880512504,-2356.68959806419,475.917527770242));
#1225=CARTESIAN_POINT('Ctrl Pts',(-1709.68566071797,-2356.68968428674,465.623284796138));
#1226=CARTESIAN_POINT('Ctrl Pts',(-1702.02529334015,-2356.68938839537,450.92960534872));
#1227=CARTESIAN_POINT('Ctrl Pts',(-1690.43852558074,-2356.68956182989,439.877275546247));
#1228=CARTESIAN_POINT('Ctrl Pts',(-1678.81359652768,-2356.68999998487,436.715053814998));
#1229=CARTESIAN_POINT('Ctrl Pts',(-1673.,-2356.68999998487,436.715053814998));
#1230=CARTESIAN_POINT('Ctrl Pts',(-1713.,-2356.68999998487,482.760499843598));
#1231=CARTESIAN_POINT('Ctrl Pts',(-1713.,-2356.68999998487,475.727146854917));
#1232=CARTESIAN_POINT('Ctrl Pts',(-1710.94155489869,-2356.68999998487,465.191033997276));
#1233=CARTESIAN_POINT('Ctrl Pts',(-1702.93440409211,-2356.68999998487,450.202345860226));
#1234=CARTESIAN_POINT('Ctrl Pts',(-1690.949774679,-2356.68999998487,438.958378653888));
#1235=CARTESIAN_POINT('Ctrl Pts',(-1678.98398600684,-2356.68999998487,435.745998267931));
#1236=CARTESIAN_POINT('Ctrl Pts',(-1673.,-2356.68999998487,435.745998267931));
#1237=CARTESIAN_POINT('',(-1693.,-2376.68999998487,482.760499843598));
#1238=CARTESIAN_POINT('',(-1713.,-2356.68999998487,482.760499843598));
#1239=CARTESIAN_POINT('Origin',(-1713.,-2376.68999998487,482.760499843598));
#1240=CARTESIAN_POINT('Origin',(-1673.,-2376.68999998487,482.760499843598));
#1241=CARTESIAN_POINT('Origin',(-1673.,-2356.68999998487,482.760499843598));
#1242=CARTESIAN_POINT('Origin',(-1713.,-2376.68999998487,648.144736758192));
#1243=CARTESIAN_POINT('',(-1713.,-2356.68999998487,648.144736758192));
#1244=CARTESIAN_POINT('',(-1693.,-2376.68999998487,648.144736758192));
#1245=CARTESIAN_POINT('Origin',(-1216.,-2637.64904527837,724.380515540945));
#1246=CARTESIAN_POINT('',(-1216.,-2754.60613853591,716.175990188736));
#1247=CARTESIAN_POINT('',(-1216.,-2509.89680670384,565.034128661962));
#1248=CARTESIAN_POINT('',(-1216.,-2751.85688769076,703.681289337451));
#1249=CARTESIAN_POINT('Origin',(-1236.,-2751.85688769076,703.681289337451));
#1250=CARTESIAN_POINT('',(-1236.,-2774.13889117765,711.878133253412));
#1251=CARTESIAN_POINT('Origin',(-1236.,-2754.60613853591,716.175990188737));
#1252=CARTESIAN_POINT('',(-1236.,-2771.3896403325,699.383432402126));
#1253=CARTESIAN_POINT('Origin',(-1604.5,-2772.31943980077,703.609153102787));
#1254=CARTESIAN_POINT('',(-1673.,-2774.13889117765,711.878133253412));
#1255=CARTESIAN_POINT('',(-1604.5,-2774.13889117765,711.878133253412));
#1256=CARTESIAN_POINT('',(-1673.,-2771.3896403325,699.383432402126));
#1257=CARTESIAN_POINT('Origin',(-1673.,-2751.85688769076,703.681289337451));
#1258=CARTESIAN_POINT('',(-1693.,-2754.60613853591,716.175990188736));
#1259=CARTESIAN_POINT('Origin',(-1673.,-2754.60613853591,716.175990188736));
#1260=CARTESIAN_POINT('',(-1693.,-2751.85688769076,703.681289337451));
#1261=CARTESIAN_POINT('Origin',(-616.,-2356.68999998487,571.90895797544));
#1262=CARTESIAN_POINT('',(-616.,-2356.68999998487,571.90895797544));
#1263=CARTESIAN_POINT('',(-2293.,-2356.68999998487,571.90895797544));
#1264=CARTESIAN_POINT('Origin',(-1673.,-2754.60613853591,716.175990188737));
#1265=CARTESIAN_POINT('',(-1673.,-2765.11588855913,699.159963788617));
#1266=CARTESIAN_POINT('Origin',(-1673.,-2754.60613853591,716.175990188737));
#1267=CARTESIAN_POINT('Origin',(-1673.,-2754.60613853591,716.175990188737));
#1268=CARTESIAN_POINT('Origin',(-1236.,-2754.60613853591,716.175990188737));
#1269=CARTESIAN_POINT('',(-1236.,-2765.11588855913,699.159963788617));
#1270=CARTESIAN_POINT('Origin',(-1236.,-2754.60613853591,716.175990188736));
#1271=CARTESIAN_POINT('Origin',(-1236.,-2754.60613853591,716.175990188737));
#1272=CARTESIAN_POINT('Origin',(-1604.5,-2754.60613853591,716.175990188737));
#1273=CARTESIAN_POINT('',(-1604.5,-2765.11588855913,699.159963788617));
#1274=CARTESIAN_POINT('Origin',(-1236.,-2509.89680670384,565.034128661962));
#1275=CARTESIAN_POINT('',(-1236.,-2520.40655672705,548.018102261842));
#1276=CARTESIAN_POINT('Origin',(-1673.,-2509.89680670384,565.034128661962));
#1277=CARTESIAN_POINT('',(-1693.,-2509.89680670384,565.034128661962));
#1278=CARTESIAN_POINT('',(-1673.,-2520.40655672705,548.018102261842));
#1279=CARTESIAN_POINT('Origin',(-1604.5,-2356.68999998487,446.900482580108));
#1280=CARTESIAN_POINT('Origin',(-1693.,-2637.64904527837,724.380515540945));
#1281=CARTESIAN_POINT('Origin',(-616.,-2256.68999998487,571.90895797544));
#1282=CARTESIAN_POINT('',(-516.,-2256.68999998487,571.90895797544));
#1283=CARTESIAN_POINT('Origin',(-516.,-1724.68999998487,571.90895797544));
#1284=CARTESIAN_POINT('Origin',(-2293.,-2256.68999998487,571.90895797544));
#1285=CARTESIAN_POINT('',(-2393.,-2256.68999998487,571.90895797544));
#1286=CARTESIAN_POINT('Origin',(-2393.,-1724.68999998487,571.90895797544));
#1287=UNCERTAINTY_MEASURE_WITH_UNIT(LENGTH_MEASURE(0.01),#1291,
'DISTANCE_ACCURACY_VALUE',
'Maximum model space distance between geometric entities at asserted c
onnectivities');
#1288=UNCERTAINTY_MEASURE_WITH_UNIT(LENGTH_MEASURE(0.01),#1291,
'DISTANCE_ACCURACY_VALUE',
'Maximum model space distance between geometric entities at asserted c
onnectivities');
#1289=(
GEOMETRIC_REPRESENTATION_CONTEXT(3)
GLOBAL_UNCERTAINTY_ASSIGNED_CONTEXT((#1287))
GLOBAL_UNIT_ASSIGNED_CONTEXT((#1291,#1293,#1294))
REPRESENTATION_CONTEXT('','3D')
);
#1290=(
GEOMETRIC_REPRESENTATION_CONTEXT(3)
GLOBAL_UNCERTAINTY_ASSIGNED_CONTEXT((#1288))
GLOBAL_UNIT_ASSIGNED_CONTEXT((#1291,#1293,#1294))
REPRESENTATION_CONTEXT('','3D')
);
#1291=(
LENGTH_UNIT()
NAMED_UNIT(*)
SI_UNIT(.MILLI.,.METRE.)
);
#1292=(
LENGTH_UNIT()
NAMED_UNIT(*)
SI_UNIT($,.METRE.)
);
#1293=(
NAMED_UNIT(*)
PLANE_ANGLE_UNIT()
SI_UNIT($,.RADIAN.)
);
#1294=(
NAMED_UNIT(*)
SI_UNIT($,.STERADIAN.)
SOLID_ANGLE_UNIT()
);
#1295=SHAPE_DEFINITION_REPRESENTATION(#1296,#1297);
#1296=PRODUCT_DEFINITION_SHAPE('',$,#1299);
#1297=SHAPE_REPRESENTATION('',(#641),#1289);
#1298=PRODUCT_DEFINITION_CONTEXT('part definition',#1303,'design');
#1299=PRODUCT_DEFINITION('ThreeQuarterLoad','ThreeQuarterLoad',#1300,#1298);
#1300=PRODUCT_DEFINITION_FORMATION('',$,#1305);
#1301=PRODUCT_RELATED_PRODUCT_CATEGORY('ThreeQuarterLoad',
'ThreeQuarterLoad',(#1305));
#1302=APPLICATION_PROTOCOL_DEFINITION('international standard',
'automotive_design',2009,#1303);
#1303=APPLICATION_CONTEXT(
'Core Data for Automotive Mechanical Design Process');
#1304=PRODUCT_CONTEXT('part definition',#1303,'mechanical');
#1305=PRODUCT('ThreeQuarterLoad','ThreeQuarterLoad',$,(#1304));
#1306=PRESENTATION_STYLE_ASSIGNMENT((#1307));
#1307=SURFACE_STYLE_USAGE(.BOTH.,#1308);
#1308=SURFACE_SIDE_STYLE('',(#1309));
#1309=SURFACE_STYLE_FILL_AREA(#1310);
#1310=FILL_AREA_STYLE('Steel - Satin',(#1311));
#1311=FILL_AREA_STYLE_COLOUR('Steel - Satin',#1312);
#1312=COLOUR_RGB('Steel - Satin',0.627450980392157,0.627450980392157,0.627450980392157);
ENDSEC;
END-ISO-10303-21;
