ISO-10303-21;
HEADER;
/* Generated by software containing ST-Developer
 * from STEP Tools, Inc. (www.steptools.com) 
 */

FILE_DESCRIPTION(
/* description */ (''),
/* implementation_level */ '2;1');

FILE_NAME(
/* name */ 'Tire.step',
/* time_stamp */ '2026-03-29T20:33:38-04:00',
/* author */ (''),
/* organization */ (''),
/* preprocessor_version */ 'ST-DEVELOPER v20.1',
/* originating_system */ 'Autodesk Translation Framework v14.24.0.0',
/* authorisation */ '');

FILE_SCHEMA (('AUTOMOTIVE_DESIGN { 1 0 10303 214 3 1 1 }'));
ENDSEC;

DATA;
#10=MECHANICAL_DESIGN_GEOMETRIC_PRESENTATION_REPRESENTATION('',(#13),#360);
#11=SHAPE_REPRESENTATION_RELATIONSHIP('SRR','None',#367,#12);
#12=ADVANCED_BREP_SHAPE_REPRESENTATION('',(#14),#359);
#13=STYLED_ITEM('',(#376),#14);
#14=MANIFOLD_SOLID_BREP('Body1',#186);
#15=CYLINDRICAL_SURFACE('',#219,890.);
#16=CYLINDRICAL_SURFACE('',#228,317.5);
#17=LINE('',#320,#20);
#18=LINE('',#337,#21);
#19=LINE('',#351,#22);
#20=VECTOR('',#253,598.286603932149);
#21=VECTOR('',#276,890.);
#22=VECTOR('',#295,317.5);
#23=CONICAL_SURFACE('',#207,598.286603932149,0.785398163397448);
#24=TOROIDAL_SURFACE('',#203,870.,20.);
#25=TOROIDAL_SURFACE('',#212,833.967869835802,20.);
#26=TOROIDAL_SURFACE('',#222,870.,20.);
#27=TOROIDAL_SURFACE('',#224,374.5,57.);
#28=TOROIDAL_SURFACE('',#231,374.5,57.);
#29=FACE_BOUND('',#46,.T.);
#30=FACE_BOUND('',#50,.T.);
#31=FACE_BOUND('',#53,.T.);
#32=FACE_BOUND('',#55,.T.);
#33=FACE_OUTER_BOUND('',#45,.T.);
#34=FACE_OUTER_BOUND('',#47,.T.);
#35=FACE_OUTER_BOUND('',#48,.T.);
#36=FACE_OUTER_BOUND('',#49,.T.);
#37=FACE_OUTER_BOUND('',#51,.T.);
#38=FACE_OUTER_BOUND('',#52,.T.);
#39=FACE_OUTER_BOUND('',#54,.T.);
#40=FACE_OUTER_BOUND('',#56,.T.);
#41=FACE_OUTER_BOUND('',#57,.T.);
#42=FACE_OUTER_BOUND('',#58,.T.);
#43=FACE_OUTER_BOUND('',#59,.T.);
#44=FACE_OUTER_BOUND('',#60,.T.);
#45=EDGE_LOOP('',(#122));
#46=EDGE_LOOP('',(#123));
#47=EDGE_LOOP('',(#124,#125,#126,#127,#128));
#48=EDGE_LOOP('',(#129,#130,#131,#132));
#49=EDGE_LOOP('',(#133));
#50=EDGE_LOOP('',(#134));
#51=EDGE_LOOP('',(#135,#136,#137,#138));
#52=EDGE_LOOP('',(#139));
#53=EDGE_LOOP('',(#140));
#54=EDGE_LOOP('',(#141));
#55=EDGE_LOOP('',(#142));
#56=EDGE_LOOP('',(#143,#144,#145,#146,#147,#148));
#57=EDGE_LOOP('',(#149,#150,#151,#152,#153));
#58=EDGE_LOOP('',(#154,#155,#156,#157,#158));
#59=EDGE_LOOP('',(#159,#160,#161,#162,#163,#164));
#60=EDGE_LOOP('',(#165,#166,#167,#168,#169));
#61=CIRCLE('',#201,870.);
#62=CIRCLE('',#202,374.5);
#63=CIRCLE('',#204,20.);
#64=CIRCLE('',#205,890.);
#65=CIRCLE('',#206,890.);
#66=CIRCLE('',#208,588.286603932149);
#67=CIRCLE('',#209,608.286603932149);
#68=CIRCLE('',#211,374.5);
#69=CIRCLE('',#213,813.967869835802);
#70=CIRCLE('',#214,20.);
#71=CIRCLE('',#215,833.967869835802);
#72=CIRCLE('',#217,870.);
#73=CIRCLE('',#220,890.);
#74=CIRCLE('',#221,890.);
#75=CIRCLE('',#223,20.);
#76=CIRCLE('',#225,57.);
#77=CIRCLE('',#226,317.5);
#78=CIRCLE('',#227,317.5);
#79=CIRCLE('',#229,317.5);
#80=CIRCLE('',#230,317.5);
#81=CIRCLE('',#232,57.);
#82=VERTEX_POINT('',#306);
#83=VERTEX_POINT('',#308);
#84=VERTEX_POINT('',#311);
#85=VERTEX_POINT('',#313);
#86=VERTEX_POINT('',#317);
#87=VERTEX_POINT('',#319);
#88=VERTEX_POINT('',#323);
#89=VERTEX_POINT('',#326);
#90=VERTEX_POINT('',#328);
#91=VERTEX_POINT('',#332);
#92=VERTEX_POINT('',#336);
#93=VERTEX_POINT('',#338);
#94=VERTEX_POINT('',#344);
#95=VERTEX_POINT('',#346);
#96=VERTEX_POINT('',#350);
#97=VERTEX_POINT('',#352);
#98=EDGE_CURVE('',#82,#82,#61,.T.);
#99=EDGE_CURVE('',#83,#83,#62,.T.);
#100=EDGE_CURVE('',#82,#84,#63,.T.);
#101=EDGE_CURVE('',#84,#85,#64,.T.);
#102=EDGE_CURVE('',#85,#84,#65,.T.);
#103=EDGE_CURVE('',#86,#86,#66,.T.);
#104=EDGE_CURVE('',#86,#87,#17,.T.);
#105=EDGE_CURVE('',#87,#87,#67,.T.);
#106=EDGE_CURVE('',#88,#88,#68,.T.);
#107=EDGE_CURVE('',#89,#89,#69,.T.);
#108=EDGE_CURVE('',#89,#90,#70,.T.);
#109=EDGE_CURVE('',#90,#90,#71,.T.);
#110=EDGE_CURVE('',#91,#91,#72,.T.);
#111=EDGE_CURVE('',#85,#92,#18,.T.);
#112=EDGE_CURVE('',#93,#92,#73,.T.);
#113=EDGE_CURVE('',#92,#93,#74,.T.);
#114=EDGE_CURVE('',#91,#93,#75,.T.);
#115=EDGE_CURVE('',#83,#94,#76,.T.);
#116=EDGE_CURVE('',#94,#95,#77,.T.);
#117=EDGE_CURVE('',#95,#94,#78,.T.);
#118=EDGE_CURVE('',#95,#96,#19,.T.);
#119=EDGE_CURVE('',#97,#96,#79,.T.);
#120=EDGE_CURVE('',#96,#97,#80,.T.);
#121=EDGE_CURVE('',#88,#97,#81,.T.);
#122=ORIENTED_EDGE('',*,*,#98,.F.);
#123=ORIENTED_EDGE('',*,*,#99,.F.);
#124=ORIENTED_EDGE('',*,*,#98,.T.);
#125=ORIENTED_EDGE('',*,*,#100,.T.);
#126=ORIENTED_EDGE('',*,*,#101,.T.);
#127=ORIENTED_EDGE('',*,*,#102,.T.);
#128=ORIENTED_EDGE('',*,*,#100,.F.);
#129=ORIENTED_EDGE('',*,*,#103,.T.);
#130=ORIENTED_EDGE('',*,*,#104,.T.);
#131=ORIENTED_EDGE('',*,*,#105,.F.);
#132=ORIENTED_EDGE('',*,*,#104,.F.);
#133=ORIENTED_EDGE('',*,*,#103,.F.);
#134=ORIENTED_EDGE('',*,*,#106,.F.);
#135=ORIENTED_EDGE('',*,*,#107,.F.);
#136=ORIENTED_EDGE('',*,*,#108,.T.);
#137=ORIENTED_EDGE('',*,*,#109,.T.);
#138=ORIENTED_EDGE('',*,*,#108,.F.);
#139=ORIENTED_EDGE('',*,*,#110,.F.);
#140=ORIENTED_EDGE('',*,*,#109,.F.);
#141=ORIENTED_EDGE('',*,*,#107,.T.);
#142=ORIENTED_EDGE('',*,*,#105,.T.);
#143=ORIENTED_EDGE('',*,*,#102,.F.);
#144=ORIENTED_EDGE('',*,*,#111,.T.);
#145=ORIENTED_EDGE('',*,*,#112,.F.);
#146=ORIENTED_EDGE('',*,*,#113,.F.);
#147=ORIENTED_EDGE('',*,*,#111,.F.);
#148=ORIENTED_EDGE('',*,*,#101,.F.);
#149=ORIENTED_EDGE('',*,*,#110,.T.);
#150=ORIENTED_EDGE('',*,*,#114,.T.);
#151=ORIENTED_EDGE('',*,*,#112,.T.);
#152=ORIENTED_EDGE('',*,*,#113,.T.);
#153=ORIENTED_EDGE('',*,*,#114,.F.);
#154=ORIENTED_EDGE('',*,*,#99,.T.);
#155=ORIENTED_EDGE('',*,*,#115,.T.);
#156=ORIENTED_EDGE('',*,*,#116,.T.);
#157=ORIENTED_EDGE('',*,*,#117,.T.);
#158=ORIENTED_EDGE('',*,*,#115,.F.);
#159=ORIENTED_EDGE('',*,*,#117,.F.);
#160=ORIENTED_EDGE('',*,*,#118,.T.);
#161=ORIENTED_EDGE('',*,*,#119,.F.);
#162=ORIENTED_EDGE('',*,*,#120,.F.);
#163=ORIENTED_EDGE('',*,*,#118,.F.);
#164=ORIENTED_EDGE('',*,*,#116,.F.);
#165=ORIENTED_EDGE('',*,*,#106,.T.);
#166=ORIENTED_EDGE('',*,*,#121,.T.);
#167=ORIENTED_EDGE('',*,*,#119,.T.);
#168=ORIENTED_EDGE('',*,*,#120,.T.);
#169=ORIENTED_EDGE('',*,*,#121,.F.);
#170=PLANE('',#200);
#171=PLANE('',#210);
#172=PLANE('',#216);
#173=PLANE('',#218);
#174=ADVANCED_FACE('',(#33,#29),#170,.F.);
#175=ADVANCED_FACE('',(#34),#24,.T.);
#176=ADVANCED_FACE('',(#35),#23,.F.);
#177=ADVANCED_FACE('',(#36,#30),#171,.T.);
#178=ADVANCED_FACE('',(#37),#25,.F.);
#179=ADVANCED_FACE('',(#38,#31),#172,.T.);
#180=ADVANCED_FACE('',(#39,#32),#173,.T.);
#181=ADVANCED_FACE('',(#40),#15,.T.);
#182=ADVANCED_FACE('',(#41),#26,.T.);
#183=ADVANCED_FACE('',(#42),#27,.T.);
#184=ADVANCED_FACE('',(#43),#16,.F.);
#185=ADVANCED_FACE('',(#44),#28,.T.);
#186=CLOSED_SHELL('',(#174,#175,#176,#177,#178,#179,#180,#181,#182,#183,
#184,#185));
#187=DERIVED_UNIT_ELEMENT(#189,1.);
#188=DERIVED_UNIT_ELEMENT(#362,-3.);
#189=(
MASS_UNIT()
NAMED_UNIT(*)
SI_UNIT(.KILO.,.GRAM.)
);
#190=DERIVED_UNIT((#187,#188));
#191=MEASURE_REPRESENTATION_ITEM('density measure',
POSITIVE_RATIO_MEASURE(7850.),#190);
#192=PROPERTY_DEFINITION_REPRESENTATION(#197,#194);
#193=PROPERTY_DEFINITION_REPRESENTATION(#198,#195);
#194=REPRESENTATION('material name',(#196),#359);
#195=REPRESENTATION('density',(#191),#359);
#196=DESCRIPTIVE_REPRESENTATION_ITEM('Steel','Steel');
#197=PROPERTY_DEFINITION('material property','material name',#369);
#198=PROPERTY_DEFINITION('material property','density of part',#369);
#199=AXIS2_PLACEMENT_3D('',#304,#233,#234);
#200=AXIS2_PLACEMENT_3D('',#305,#235,#236);
#201=AXIS2_PLACEMENT_3D('',#307,#237,#238);
#202=AXIS2_PLACEMENT_3D('',#309,#239,#240);
#203=AXIS2_PLACEMENT_3D('',#310,#241,#242);
#204=AXIS2_PLACEMENT_3D('',#312,#243,#244);
#205=AXIS2_PLACEMENT_3D('',#314,#245,#246);
#206=AXIS2_PLACEMENT_3D('',#315,#247,#248);
#207=AXIS2_PLACEMENT_3D('',#316,#249,#250);
#208=AXIS2_PLACEMENT_3D('',#318,#251,#252);
#209=AXIS2_PLACEMENT_3D('',#321,#254,#255);
#210=AXIS2_PLACEMENT_3D('',#322,#256,#257);
#211=AXIS2_PLACEMENT_3D('',#324,#258,#259);
#212=AXIS2_PLACEMENT_3D('',#325,#260,#261);
#213=AXIS2_PLACEMENT_3D('',#327,#262,#263);
#214=AXIS2_PLACEMENT_3D('',#329,#264,#265);
#215=AXIS2_PLACEMENT_3D('',#330,#266,#267);
#216=AXIS2_PLACEMENT_3D('',#331,#268,#269);
#217=AXIS2_PLACEMENT_3D('',#333,#270,#271);
#218=AXIS2_PLACEMENT_3D('',#334,#272,#273);
#219=AXIS2_PLACEMENT_3D('',#335,#274,#275);
#220=AXIS2_PLACEMENT_3D('',#339,#277,#278);
#221=AXIS2_PLACEMENT_3D('',#340,#279,#280);
#222=AXIS2_PLACEMENT_3D('',#341,#281,#282);
#223=AXIS2_PLACEMENT_3D('',#342,#283,#284);
#224=AXIS2_PLACEMENT_3D('',#343,#285,#286);
#225=AXIS2_PLACEMENT_3D('',#345,#287,#288);
#226=AXIS2_PLACEMENT_3D('',#347,#289,#290);
#227=AXIS2_PLACEMENT_3D('',#348,#291,#292);
#228=AXIS2_PLACEMENT_3D('',#349,#293,#294);
#229=AXIS2_PLACEMENT_3D('',#353,#296,#297);
#230=AXIS2_PLACEMENT_3D('',#354,#298,#299);
#231=AXIS2_PLACEMENT_3D('',#355,#300,#301);
#232=AXIS2_PLACEMENT_3D('',#356,#302,#303);
#233=DIRECTION('axis',(0.,0.,1.));
#234=DIRECTION('refdir',(1.,0.,0.));
#235=DIRECTION('center_axis',(1.,0.,0.));
#236=DIRECTION('ref_axis',(0.,1.,0.));
#237=DIRECTION('center_axis',(1.,0.,0.));
#238=DIRECTION('ref_axis',(0.,1.,0.));
#239=DIRECTION('center_axis',(-1.,0.,0.));
#240=DIRECTION('ref_axis',(0.,1.,0.));
#241=DIRECTION('center_axis',(-1.,0.,0.));
#242=DIRECTION('ref_axis',(0.,0.,1.));
#243=DIRECTION('center_axis',(0.,-1.,1.22464679914735E-16));
#244=DIRECTION('ref_axis',(0.,-1.22464679914735E-16,-1.));
#245=DIRECTION('center_axis',(-1.,0.,0.));
#246=DIRECTION('ref_axis',(0.,1.,0.));
#247=DIRECTION('center_axis',(-1.,0.,0.));
#248=DIRECTION('ref_axis',(0.,1.,0.));
#249=DIRECTION('center_axis',(1.,0.,0.));
#250=DIRECTION('ref_axis',(0.,1.,0.));
#251=DIRECTION('center_axis',(-1.,0.,0.));
#252=DIRECTION('ref_axis',(0.,1.,0.));
#253=DIRECTION('',(0.707106781186548,-0.707106781186548,8.65956056235493E-17));
#254=DIRECTION('center_axis',(-1.,0.,0.));
#255=DIRECTION('ref_axis',(0.,1.,0.));
#256=DIRECTION('center_axis',(1.,0.,0.));
#257=DIRECTION('ref_axis',(0.,1.,0.));
#258=DIRECTION('center_axis',(1.,0.,0.));
#259=DIRECTION('ref_axis',(0.,1.,0.));
#260=DIRECTION('center_axis',(-1.,0.,0.));
#261=DIRECTION('ref_axis',(0.,0.,1.));
#262=DIRECTION('center_axis',(1.,0.,0.));
#263=DIRECTION('ref_axis',(0.,1.,0.));
#264=DIRECTION('center_axis',(0.,-1.,1.22464679914735E-16));
#265=DIRECTION('ref_axis',(0.,-1.22464679914735E-16,-1.));
#266=DIRECTION('center_axis',(1.,0.,0.));
#267=DIRECTION('ref_axis',(0.,1.,0.));
#268=DIRECTION('center_axis',(1.,0.,0.));
#269=DIRECTION('ref_axis',(0.,1.,0.));
#270=DIRECTION('center_axis',(-1.,0.,0.));
#271=DIRECTION('ref_axis',(0.,1.,0.));
#272=DIRECTION('center_axis',(1.,0.,0.));
#273=DIRECTION('ref_axis',(0.,1.,0.));
#274=DIRECTION('center_axis',(-1.,0.,0.));
#275=DIRECTION('ref_axis',(0.,1.,0.));
#276=DIRECTION('',(1.,0.,0.));
#277=DIRECTION('center_axis',(1.,0.,0.));
#278=DIRECTION('ref_axis',(0.,1.,0.));
#279=DIRECTION('center_axis',(1.,0.,0.));
#280=DIRECTION('ref_axis',(0.,1.,0.));
#281=DIRECTION('center_axis',(1.,0.,0.));
#282=DIRECTION('ref_axis',(0.,0.,-1.));
#283=DIRECTION('center_axis',(0.,-1.,-1.22464679914735E-16));
#284=DIRECTION('ref_axis',(0.,-1.22464679914735E-16,1.));
#285=DIRECTION('center_axis',(1.,0.,0.));
#286=DIRECTION('ref_axis',(0.,0.,-1.));
#287=DIRECTION('center_axis',(0.,-1.,-1.22464679914735E-16));
#288=DIRECTION('ref_axis',(0.,-1.22464679914735E-16,1.));
#289=DIRECTION('center_axis',(1.,0.,0.));
#290=DIRECTION('ref_axis',(0.,1.,0.));
#291=DIRECTION('center_axis',(1.,0.,0.));
#292=DIRECTION('ref_axis',(0.,1.,0.));
#293=DIRECTION('center_axis',(-1.,0.,0.));
#294=DIRECTION('ref_axis',(0.,1.,0.));
#295=DIRECTION('',(1.,0.,0.));
#296=DIRECTION('center_axis',(-1.,0.,0.));
#297=DIRECTION('ref_axis',(0.,1.,0.));
#298=DIRECTION('center_axis',(-1.,0.,0.));
#299=DIRECTION('ref_axis',(0.,1.,0.));
#300=DIRECTION('center_axis',(-1.,0.,0.));
#301=DIRECTION('ref_axis',(0.,0.,1.));
#302=DIRECTION('center_axis',(0.,-1.,1.22464679914735E-16));
#303=DIRECTION('ref_axis',(0.,-1.22464679914735E-16,-1.));
#304=CARTESIAN_POINT('',(0.,0.,0.));
#305=CARTESIAN_POINT('Origin',(-673.,0.,0.));
#306=CARTESIAN_POINT('',(-673.,-1.0654427152582E-13,-870.));
#307=CARTESIAN_POINT('Origin',(-673.,0.,0.));
#308=CARTESIAN_POINT('',(-673.,-4.58630226280684E-14,374.5));
#309=CARTESIAN_POINT('Origin',(-673.,0.,0.));
#310=CARTESIAN_POINT('Origin',(-653.,0.,0.));
#311=CARTESIAN_POINT('',(-653.,-1.08993565124114E-13,-890.));
#312=CARTESIAN_POINT('Origin',(-653.,-1.0654427152582E-13,-870.));
#313=CARTESIAN_POINT('',(-653.,-890.,1.08993565124114E-13));
#314=CARTESIAN_POINT('Origin',(-653.,0.,0.));
#315=CARTESIAN_POINT('Origin',(-653.,0.,0.));
#316=CARTESIAN_POINT('Origin',(10.,0.,0.));
#317=CARTESIAN_POINT('',(0.,-588.286603932149,7.20443306486773E-14));
#318=CARTESIAN_POINT('Origin',(0.,0.,0.));
#319=CARTESIAN_POINT('',(20.,-608.286603932149,-7.4493624246972E-14));
#320=CARTESIAN_POINT('',(10.,-598.286603932149,7.32689774478247E-14));
#321=CARTESIAN_POINT('Origin',(20.,0.,0.));
#322=CARTESIAN_POINT('Origin',(0.,0.,0.));
#323=CARTESIAN_POINT('',(0.,-4.58630226280684E-14,-374.5));
#324=CARTESIAN_POINT('Origin',(0.,0.,0.));
#325=CARTESIAN_POINT('Origin',(20.,0.,0.));
#326=CARTESIAN_POINT('',(20.,-9.96823146403204E-14,-813.967869835802));
#327=CARTESIAN_POINT('Origin',(20.,0.,0.));
#328=CARTESIAN_POINT('',(0.,-1.02131608238615E-13,-833.967869835802));
#329=CARTESIAN_POINT('Origin',(20.,-1.02131608238615E-13,-833.967869835802));
#330=CARTESIAN_POINT('Origin',(0.,0.,0.));
#331=CARTESIAN_POINT('Origin',(0.,0.,0.));
#332=CARTESIAN_POINT('',(0.,-1.0654427152582E-13,870.));
#333=CARTESIAN_POINT('Origin',(0.,0.,0.));
#334=CARTESIAN_POINT('Origin',(20.,0.,0.));
#335=CARTESIAN_POINT('Origin',(0.,0.,0.));
#336=CARTESIAN_POINT('',(-20.,-890.,-1.08993565124114E-13));
#337=CARTESIAN_POINT('',(0.,-890.,1.08993565124114E-13));
#338=CARTESIAN_POINT('',(-20.,-1.08993565124114E-13,890.));
#339=CARTESIAN_POINT('Origin',(-20.,0.,0.));
#340=CARTESIAN_POINT('Origin',(-20.,0.,0.));
#341=CARTESIAN_POINT('Origin',(-20.,0.,0.));
#342=CARTESIAN_POINT('Origin',(-20.,-1.0654427152582E-13,870.));
#343=CARTESIAN_POINT('Origin',(-616.,0.,0.));
#344=CARTESIAN_POINT('',(-616.,-3.88825358729285E-14,317.5));
#345=CARTESIAN_POINT('Origin',(-616.,-4.58630226280684E-14,374.5));
#346=CARTESIAN_POINT('',(-616.,-317.5,-3.88825358729285E-14));
#347=CARTESIAN_POINT('Origin',(-616.,0.,0.));
#348=CARTESIAN_POINT('Origin',(-616.,0.,0.));
#349=CARTESIAN_POINT('Origin',(0.,0.,0.));
#350=CARTESIAN_POINT('',(-57.,-317.5,3.88825358729285E-14));
#351=CARTESIAN_POINT('',(0.,-317.5,3.88825358729285E-14));
#352=CARTESIAN_POINT('',(-57.,-3.88825358729285E-14,-317.5));
#353=CARTESIAN_POINT('Origin',(-57.,0.,0.));
#354=CARTESIAN_POINT('Origin',(-57.,0.,0.));
#355=CARTESIAN_POINT('Origin',(-57.,0.,0.));
#356=CARTESIAN_POINT('Origin',(-57.,-4.58630226280684E-14,-374.5));
#357=UNCERTAINTY_MEASURE_WITH_UNIT(LENGTH_MEASURE(0.01),#361,
'DISTANCE_ACCURACY_VALUE',
'Maximum model space distance between geometric entities at asserted c
onnectivities');
#358=UNCERTAINTY_MEASURE_WITH_UNIT(LENGTH_MEASURE(0.01),#361,
'DISTANCE_ACCURACY_VALUE',
'Maximum model space distance between geometric entities at asserted c
onnectivities');
#359=(
GEOMETRIC_REPRESENTATION_CONTEXT(3)
GLOBAL_UNCERTAINTY_ASSIGNED_CONTEXT((#357))
GLOBAL_UNIT_ASSIGNED_CONTEXT((#361,#363,#364))
REPRESENTATION_CONTEXT('','3D')
);
#360=(
GEOMETRIC_REPRESENTATION_CONTEXT(3)
GLOBAL_UNCERTAINTY_ASSIGNED_CONTEXT((#358))
GLOBAL_UNIT_ASSIGNED_CONTEXT((#361,#363,#364))
REPRESENTATION_CONTEXT('','3D')
);
#361=(
LENGTH_UNIT()
NAMED_UNIT(*)
SI_UNIT(.MILLI.,.METRE.)
);
#362=(
LENGTH_UNIT()
NAMED_UNIT(*)
SI_UNIT($,.METRE.)
);
#363=(
NAMED_UNIT(*)
PLANE_ANGLE_UNIT()
SI_UNIT($,.RADIAN.)
);
#364=(
NAMED_UNIT(*)
SI_UNIT($,.STERADIAN.)
SOLID_ANGLE_UNIT()
);
#365=SHAPE_DEFINITION_REPRESENTATION(#366,#367);
#366=PRODUCT_DEFINITION_SHAPE('',$,#369);
#367=SHAPE_REPRESENTATION('',(#199),#359);
#368=PRODUCT_DEFINITION_CONTEXT('part definition',#373,'design');
#369=PRODUCT_DEFINITION('Tire','Tire',#370,#368);
#370=PRODUCT_DEFINITION_FORMATION('',$,#375);
#371=PRODUCT_RELATED_PRODUCT_CATEGORY('Tire','Tire',(#375));
#372=APPLICATION_PROTOCOL_DEFINITION('international standard',
'automotive_design',2009,#373);
#373=APPLICATION_CONTEXT(
'Core Data for Automotive Mechanical Design Process');
#374=PRODUCT_CONTEXT('part definition',#373,'mechanical');
#375=PRODUCT('Tire','Tire',$,(#374));
#376=PRESENTATION_STYLE_ASSIGNMENT((#377));
#377=SURFACE_STYLE_USAGE(.BOTH.,#378);
#378=SURFACE_SIDE_STYLE('',(#379));
#379=SURFACE_STYLE_FILL_AREA(#380);
#380=FILL_AREA_STYLE('Steel - Satin',(#381));
#381=FILL_AREA_STYLE_COLOUR('Steel - Satin',#382);
#382=COLOUR_RGB('Steel - Satin',0.627450980392157,0.627450980392157,0.627450980392157);
ENDSEC;
END-ISO-10303-21;
